<svg id="svg" version="1.1" xmlns="http://www.w3.org/2000/svg" xmlns:xlink="http://www.w3.org/1999/xlink" width="400" height="137.2549019607843" viewBox="0, 0, 400,137.2549019607843">
  <g id="svgg">
    <path id="path0" d="M114.529 29.687 C 112.225 30.070,109.165 32.735,106.397 36.769 C 105.343 38.305,102.669 44.438,102.666 45.327 C 102.665 45.468,102.547 45.808,102.404 46.083 C 102.076 46.711,101.799 48.130,101.926 48.531 C 102.097 49.070,102.439 48.855,103.092 47.798 C 103.443 47.228,104.195 46.187,104.763 45.484 C 105.331 44.781,105.863 44.083,105.947 43.934 C 106.031 43.784,106.846 42.903,107.758 41.977 C 114.364 35.267,119.265 34.456,124.818 39.154 C 127.557 41.472,130.653 47.301,131.730 52.167 C 132.471 55.519,132.534 55.601,134.278 55.536 C 136.217 55.463,136.558 55.122,136.107 53.705 C 135.969 53.271,135.807 52.579,135.747 52.167 C 135.514 50.575,134.153 46.499,132.963 43.833 C 128.267 33.305,121.945 28.453,114.529 29.687 M129.524 29.982 C 129.190 30.193,129.429 31.038,129.966 31.545 C 130.365 31.921,130.607 31.982,132.083 32.079 C 133.679 32.185,135.079 32.484,137.250 33.183 C 138.824 33.689,140.701 34.188,140.771 34.118 C 141.001 33.888,139.412 31.716,138.033 30.375 L 137.476 29.833 133.613 29.836 C 131.488 29.837,129.648 29.903,129.524 29.982 M141.085 29.988 C 140.211 30.059,139.907 30.149,139.870 30.344 C 139.828 30.569,141.341 33.063,142.291 34.333 C 142.808 35.025,143.500 36.294,143.500 36.551 C 143.500 36.684,143.612 36.886,143.750 37.000 C 143.887 37.114,143.998 37.367,143.996 37.562 C 143.993 37.912,143.989 37.912,143.695 37.530 C 142.654 36.177,137.443 33.950,134.083 33.423 C 130.869 32.918,130.730 33.010,131.771 34.954 C 134.530 40.107,134.334 39.884,136.278 40.059 C 139.022 40.306,141.722 41.104,144.220 42.407 C 144.846 42.733,145.465 43.000,145.595 43.000 C 145.911 43.000,145.912 42.020,145.597 41.570 C 145.467 41.385,145.309 40.956,145.245 40.616 C 145.087 39.774,145.425 39.806,145.769 40.667 C 145.916 41.033,146.105 41.333,146.188 41.333 C 146.272 41.333,146.425 41.540,146.529 41.792 C 146.632 42.044,147.034 42.925,147.421 43.750 C 147.808 44.575,148.178 45.438,148.242 45.667 C 148.306 45.896,148.496 46.383,148.664 46.750 C 149.113 47.732,149.829 49.748,150.500 51.917 C 151.703 55.804,151.255 55.401,154.477 55.500 C 158.173 55.613,158.163 55.620,157.817 53.359 C 157.578 51.797,157.676 51.306,158.142 51.727 C 158.644 52.182,158.922 52.049,159.995 50.839 C 161.072 49.624,162.415 48.625,163.829 47.986 C 164.908 47.498,164.906 47.300,163.804 45.216 C 163.329 44.318,162.634 42.983,162.259 42.250 C 161.436 40.640,161.109 40.513,159.911 41.337 C 157.883 42.732,156.334 44.576,156.098 45.875 C 156.036 46.219,155.909 46.500,155.817 46.500 C 155.725 46.500,155.535 46.219,155.396 45.875 C 155.256 45.531,154.997 44.945,154.821 44.572 C 154.644 44.200,154.500 43.839,154.500 43.770 C 154.500 43.702,154.322 43.257,154.104 42.781 C 153.887 42.306,153.661 41.804,153.602 41.667 C 153.543 41.529,153.271 41.079,152.998 40.667 C 152.725 40.254,152.388 39.675,152.250 39.380 C 151.995 38.833,151.705 38.382,149.435 35.000 C 147.674 32.376,147.447 32.067,146.396 30.875 L 145.478 29.833 143.864 29.863 C 142.976 29.879,141.726 29.935,141.085 29.988 M147.727 30.751 C 147.638 30.981,148.128 31.696,149.559 33.425 C 150.216 34.219,150.701 34.186,151.519 33.292 C 152.479 32.242,152.338 31.882,150.750 31.317 C 150.200 31.121,149.487 30.860,149.167 30.738 C 148.388 30.440,147.844 30.445,147.727 30.751 M153.474 33.137 C 153.323 33.199,152.779 33.635,152.266 34.106 C 150.937 35.327,150.940 35.348,153.092 39.306 C 153.408 39.886,153.667 40.453,153.667 40.565 C 153.667 40.677,153.854 41.023,154.083 41.333 C 154.313 41.644,154.500 42.019,154.500 42.166 C 154.500 42.314,154.768 42.693,155.095 43.009 L 155.690 43.583 156.794 42.357 C 157.402 41.682,158.372 40.832,158.949 40.467 C 159.857 39.894,160.000 39.736,160.000 39.305 C 160.000 38.488,157.327 35.469,155.027 33.689 C 154.124 32.990,153.967 32.934,153.474 33.137 M144.970 39.251 C 145.018 39.819,144.993 39.869,144.762 39.677 C 144.445 39.414,144.399 38.439,144.708 38.541 C 144.823 38.578,144.941 38.898,144.970 39.251 M135.867 41.367 C 135.530 41.703,135.638 42.357,136.344 44.259 C 136.716 45.262,137.140 46.480,137.285 46.965 C 137.624 48.092,138.268 48.667,139.192 48.667 C 141.240 48.667,146.125 50.421,147.750 51.740 C 149.899 53.484,150.130 52.819,148.646 49.167 C 148.479 48.754,148.294 48.117,148.235 47.750 C 147.884 45.566,142.513 42.308,137.820 41.433 C 136.108 41.114,136.119 41.114,135.867 41.367 M156.635 47.805 C 156.694 48.614,156.424 48.744,156.271 47.979 C 156.116 47.206,156.143 46.964,156.375 47.041 C 156.490 47.078,156.606 47.422,156.635 47.805 M185.917 48.669 C 183.344 49.365,181.913 51.185,182.576 52.920 C 182.911 53.798,183.139 53.967,185.540 55.115 C 187.194 55.906,187.496 56.218,187.179 56.810 C 186.786 57.544,183.569 57.708,181.583 57.094 C 180.516 56.765,180.269 56.999,180.382 58.236 C 180.478 59.297,180.704 59.445,182.429 59.589 C 189.326 60.164,193.384 55.250,187.623 53.298 C 187.326 53.198,186.896 52.987,186.667 52.830 C 186.438 52.672,186.077 52.490,185.865 52.424 C 185.318 52.254,185.076 51.543,185.432 51.149 C 186.129 50.380,188.581 50.085,189.628 50.646 C 189.791 50.733,190.327 50.878,190.821 50.967 L 191.717 51.130 192.277 50.523 C 193.517 49.180,192.229 48.498,188.500 48.521 C 187.354 48.528,186.192 48.595,185.917 48.669 M195.740 48.794 C 195.487 48.970,194.732 50.378,194.493 51.120 C 194.381 51.466,194.220 51.838,194.135 51.945 C 194.050 52.053,193.842 52.503,193.673 52.945 C 193.503 53.388,193.133 54.336,192.849 55.052 C 191.473 58.527,193.133 60.154,197.548 59.659 C 199.199 59.474,200.318 58.957,201.407 57.874 C 202.526 56.763,202.833 56.222,204.409 52.583 C 204.528 52.308,204.814 51.671,205.044 51.167 C 205.958 49.169,205.794 48.614,204.316 48.699 C 203.440 48.750,202.365 49.900,202.340 50.815 C 202.336 50.943,202.189 51.355,202.012 51.732 C 201.266 53.321,200.833 54.322,200.833 54.461 C 200.833 55.310,198.981 57.104,197.858 57.342 C 195.099 57.926,194.659 56.427,196.549 52.883 C 196.705 52.590,196.833 52.252,196.833 52.132 C 196.833 52.012,197.019 51.566,197.246 51.140 C 197.877 49.953,198.042 49.034,197.661 48.830 C 197.305 48.640,195.998 48.615,195.740 48.794 M208.351 49.256 C 208.066 49.580,207.833 49.953,207.833 50.085 C 207.833 50.218,207.637 50.759,207.396 51.288 C 206.669 52.886,206.388 53.526,205.836 54.833 C 205.546 55.521,205.174 56.383,205.008 56.750 C 203.915 59.166,203.940 59.500,205.214 59.500 C 206.186 59.500,206.832 59.039,207.082 58.167 C 207.148 57.938,207.295 57.600,207.409 57.417 C 207.523 57.233,207.713 56.783,207.832 56.417 C 207.950 56.050,208.151 55.600,208.278 55.417 C 208.405 55.233,208.582 54.812,208.671 54.480 C 209.061 53.039,209.882 52.609,210.174 53.693 C 210.277 54.075,210.461 54.543,210.585 54.735 C 210.708 54.927,210.860 55.362,210.922 55.702 C 211.172 57.070,211.582 56.970,214.179 54.907 C 215.253 54.053,216.178 53.400,216.233 53.455 C 216.414 53.636,216.338 54.356,216.092 54.808 C 215.834 55.280,215.404 56.273,214.725 57.966 C 214.181 59.324,214.255 59.500,215.374 59.500 C 216.411 59.500,216.874 59.231,217.156 58.465 C 217.267 58.163,217.500 57.617,217.673 57.250 C 217.846 56.883,218.368 55.683,218.834 54.583 C 219.299 53.483,219.864 52.201,220.090 51.733 C 220.315 51.266,220.500 50.776,220.500 50.645 C 220.500 50.515,220.617 50.240,220.761 50.035 C 221.667 48.741,219.800 48.118,218.163 49.169 C 217.718 49.454,217.331 49.740,217.302 49.804 C 217.233 49.959,214.397 52.331,213.702 52.816 C 213.116 53.225,212.716 53.188,212.566 52.712 C 212.516 52.550,212.337 52.079,212.170 51.667 C 212.003 51.254,211.785 50.617,211.687 50.250 C 211.239 48.576,209.422 48.035,208.351 49.256 M223.983 48.867 C 223.683 49.110,222.833 50.608,222.833 50.894 C 222.833 50.995,222.650 51.455,222.426 51.914 C 222.202 52.374,221.785 53.313,221.499 54.000 C 221.213 54.688,220.873 55.475,220.744 55.750 C 219.592 58.213,219.369 58.969,219.700 59.300 C 220.146 59.746,226.483 59.562,227.957 59.060 C 230.559 58.174,231.815 56.432,231.002 54.836 C 230.608 54.065,230.673 53.829,231.438 53.245 C 233.082 51.991,233.340 50.158,232.000 49.255 L 231.250 48.750 227.750 48.700 C 225.067 48.662,224.188 48.701,223.983 48.867 M236.458 48.847 C 236.298 48.940,236.167 49.106,236.167 49.214 C 236.167 49.323,235.985 49.788,235.763 50.248 C 235.089 51.644,234.500 52.973,234.500 53.098 C 234.500 53.163,234.319 53.599,234.098 54.067 C 232.779 56.857,232.143 58.481,232.194 58.929 L 232.250 59.417 236.483 59.461 C 241.262 59.512,241.296 59.504,241.648 58.330 C 241.937 57.366,241.948 57.370,238.717 57.306 C 235.350 57.240,235.300 57.218,235.896 56.041 C 236.424 54.998,236.420 55.000,238.993 55.000 C 241.251 55.000,241.328 54.975,241.642 54.147 C 241.939 53.368,241.694 53.257,239.465 53.167 L 237.417 53.083 237.463 52.669 C 237.489 52.441,237.639 51.991,237.797 51.669 L 238.083 51.083 241.279 51.000 C 244.357 50.920,244.490 50.902,244.895 50.521 C 245.400 50.046,245.613 49.253,245.328 48.910 C 245.081 48.613,236.959 48.555,236.458 48.847 M248.061 48.875 C 247.818 49.220,247.208 50.508,246.660 51.833 C 246.126 53.124,245.848 53.750,245.102 55.350 C 244.863 55.863,244.667 56.337,244.667 56.402 C 244.667 56.467,244.488 56.910,244.269 57.385 C 243.435 59.197,243.564 59.551,245.028 59.468 C 245.994 59.412,246.501 58.816,247.028 57.115 C 247.688 54.988,251.672 55.195,251.222 57.333 C 251.155 57.654,251.096 58.254,251.091 58.667 L 251.083 59.417 252.111 59.466 C 253.734 59.544,254.493 58.122,254.236 55.486 C 254.130 54.397,254.133 54.388,254.606 54.185 C 257.237 53.060,257.821 49.993,255.596 48.983 C 254.743 48.595,248.322 48.503,248.061 48.875 M265.410 48.794 C 265.175 48.960,264.345 50.705,263.172 53.500 C 262.884 54.188,262.464 55.126,262.241 55.586 C 262.017 56.045,261.833 56.488,261.833 56.569 C 261.833 56.650,261.640 57.111,261.404 57.594 C 261.160 58.092,260.998 58.675,261.029 58.944 L 261.083 59.417 264.619 59.462 C 268.032 59.505,268.196 59.492,269.369 59.084 C 271.976 58.177,273.231 56.408,272.403 54.807 C 272.062 54.148,272.206 53.665,272.867 53.250 C 274.755 52.065,274.763 49.884,272.883 48.936 C 272.317 48.650,265.790 48.526,265.410 48.794 M281.333 48.944 C 281.104 49.092,280.354 49.842,279.667 50.611 C 278.979 51.381,278.192 52.260,277.917 52.564 C 277.642 52.869,276.484 54.160,275.344 55.434 C 274.204 56.708,273.226 57.788,273.169 57.833 C 272.047 58.749,272.207 59.500,273.526 59.500 L 274.562 59.500 275.526 58.458 L 276.489 57.417 278.620 57.359 C 281.135 57.292,281.869 57.432,282.027 58.011 C 282.435 59.508,282.350 59.412,283.308 59.468 C 284.631 59.543,284.669 59.475,284.655 57.021 C 284.628 52.070,284.423 49.144,284.085 48.897 C 283.641 48.573,281.862 48.603,281.333 48.944 M290.560 48.794 C 290.456 48.862,290.133 49.442,289.843 50.083 C 289.553 50.725,289.178 51.550,289.010 51.917 C 288.841 52.283,288.500 53.071,288.252 53.667 C 288.004 54.262,287.663 55.050,287.496 55.417 C 285.812 59.098,285.793 59.417,287.250 59.417 L 288.250 59.417 288.755 58.441 C 289.214 57.554,289.514 57.224,290.935 56.042 C 291.712 55.395,292.232 55.656,292.480 56.815 C 292.577 57.265,292.843 58.057,293.072 58.574 L 293.489 59.516 294.536 59.466 L 295.583 59.417 295.638 58.849 C 295.667 58.536,295.576 57.974,295.434 57.599 C 295.104 56.726,294.333 54.059,294.333 53.788 C 294.333 53.581,294.540 53.407,297.167 51.406 C 297.946 50.812,298.868 50.096,299.215 49.815 C 299.981 49.194,300.422 49.266,300.277 49.988 C 300.145 50.650,300.378 50.785,301.789 50.862 C 303.406 50.950,303.472 51.043,302.913 52.443 C 302.663 53.070,302.355 53.731,302.229 53.912 C 302.103 54.093,302.000 54.341,302.000 54.464 C 302.000 54.664,301.745 55.257,300.641 57.623 C 300.460 58.012,300.335 58.574,300.364 58.873 L 300.417 59.417 301.417 59.417 L 302.417 59.417 303.000 58.250 C 303.562 57.125,303.800 56.583,304.279 55.333 C 304.402 55.012,304.611 54.525,304.744 54.250 C 304.876 53.975,305.247 53.150,305.568 52.417 C 306.237 50.886,306.256 50.875,308.283 50.850 C 309.837 50.831,310.591 50.269,310.470 49.218 L 310.417 48.750 303.876 48.729 L 297.335 48.708 296.687 49.146 C 296.022 49.595,294.089 51.055,292.935 51.980 C 291.709 52.964,291.279 52.356,292.092 50.787 C 292.509 49.981,292.678 49.131,292.470 48.881 C 292.281 48.652,290.878 48.589,290.560 48.794 M312.267 49.042 C 312.135 49.248,311.862 49.792,311.660 50.250 C 311.459 50.708,311.155 51.383,310.985 51.750 C 310.816 52.117,310.448 52.979,310.167 53.667 C 309.886 54.354,309.551 55.142,309.423 55.417 C 307.743 59.023,307.720 59.502,309.229 59.497 C 310.462 59.494,310.481 59.467,312.494 54.667 C 312.783 53.979,313.202 53.041,313.426 52.581 C 313.650 52.121,313.834 51.671,313.834 51.581 C 313.834 51.491,314.022 51.048,314.251 50.597 C 315.018 49.085,314.817 48.667,313.324 48.667 C 312.660 48.667,312.463 48.737,312.267 49.042 M164.333 49.324 C 161.363 50.244,158.499 53.388,159.165 54.996 L 159.354 55.452 161.979 55.567 C 167.170 55.795,167.473 55.648,166.846 53.208 C 166.640 52.406,166.371 51.302,166.248 50.753 C 165.937 49.361,165.432 48.984,164.333 49.324 M157.405 49.708 C 157.561 50.452,157.597 51.333,157.472 51.333 C 157.231 51.333,157.000 50.687,157.000 50.011 C 157.000 49.288,157.275 49.083,157.405 49.708 M138.837 50.245 C 138.487 50.667,139.325 54.730,139.876 55.281 C 140.160 55.564,148.775 55.625,149.054 55.346 C 149.486 54.914,148.032 53.323,146.514 52.565 C 146.235 52.426,145.961 52.238,145.905 52.147 C 145.659 51.749,142.264 50.450,140.761 50.179 C 139.443 49.941,139.080 49.953,138.837 50.245 M229.651 50.908 C 231.210 51.715,229.205 53.333,226.646 53.333 C 224.737 53.333,224.584 53.211,224.977 52.000 C 225.460 50.513,227.820 49.962,229.651 50.908 M271.107 50.917 C 271.947 51.467,271.198 52.790,269.834 53.169 C 268.978 53.407,266.621 53.375,266.274 53.121 C 265.969 52.899,266.517 51.301,267.046 50.866 C 267.569 50.437,270.429 50.473,271.107 50.917 M253.500 50.981 C 254.087 51.143,254.153 51.973,253.635 52.674 C 252.986 53.554,251.750 54.023,250.236 53.966 C 248.584 53.903,248.453 53.734,249.059 52.453 C 249.302 51.940,249.500 51.439,249.500 51.338 C 249.500 50.903,252.308 50.653,253.500 50.981 M282.141 53.489 C 282.072 55.518,282.096 55.494,280.125 55.497 C 278.226 55.501,278.228 55.424,280.167 53.127 C 281.925 51.044,282.223 51.099,282.141 53.489 M227.942 55.245 C 228.923 55.932,228.343 56.998,226.775 57.392 C 225.186 57.791,223.232 57.766,223.006 57.344 C 222.766 56.896,222.775 56.858,223.338 55.875 L 223.840 55.000 225.716 55.000 C 227.097 55.000,227.685 55.065,227.942 55.245 M269.500 55.333 C 270.650 56.483,269.346 57.437,266.378 57.618 C 264.190 57.751,263.842 57.339,264.830 55.783 L 265.326 55.000 267.246 55.000 C 268.944 55.000,269.205 55.039,269.500 55.333 M106.000 61.005 C 101.701 61.305,100.222 62.467,99.473 66.136 C 98.749 69.678,99.852 70.378,106.350 70.500 C 111.244 70.592,111.333 70.612,111.333 71.611 C 111.333 72.783,110.856 72.998,108.216 73.015 C 106.951 73.024,104.192 73.060,102.083 73.096 L 98.250 73.161 97.886 73.578 C 97.496 74.022,97.272 75.061,97.362 76.001 C 97.441 76.827,97.881 76.867,106.083 76.794 L 113.083 76.731 114.333 76.297 C 116.429 75.571,117.658 74.767,117.664 74.118 C 117.665 73.954,117.823 73.513,118.014 73.139 C 118.513 72.161,118.800 69.574,118.483 68.911 C 117.863 67.613,115.371 67.008,110.633 67.003 C 107.309 67.000,106.729 66.890,106.564 66.234 C 106.435 65.719,106.828 64.963,107.358 64.710 C 107.887 64.456,130.439 64.216,131.239 64.455 C 132.016 64.688,132.431 65.362,132.176 65.978 C 131.796 66.895,131.454 66.949,125.354 67.058 C 119.290 67.165,118.817 67.240,119.089 68.056 C 119.465 69.181,119.252 72.340,118.750 73.107 C 118.612 73.317,118.500 73.648,118.500 73.844 C 118.500 74.040,118.275 74.410,118.000 74.667 C 117.725 74.924,117.500 75.212,117.500 75.308 C 117.500 75.404,117.311 75.687,117.079 75.937 C 116.335 76.740,116.428 76.750,124.800 76.750 C 132.530 76.750,132.592 76.747,133.833 76.354 C 135.820 75.725,137.247 74.517,137.480 73.267 C 137.561 72.837,137.673 72.438,137.730 72.381 C 137.945 72.166,137.811 74.102,137.583 74.500 C 136.809 75.854,137.351 76.173,140.386 76.150 C 143.679 76.125,143.186 76.630,144.681 71.750 C 145.930 67.671,146.235 66.846,146.421 67.033 C 146.576 67.188,147.298 69.970,147.418 70.876 C 148.030 75.487,148.822 76.500,151.817 76.500 C 155.027 76.500,155.721 75.914,162.462 67.510 L 162.788 67.103 162.979 67.461 C 163.134 67.750,163.093 68.054,162.771 69.034 C 160.204 76.835,160.128 76.167,163.572 76.167 C 167.012 76.167,166.667 76.542,168.248 71.083 C 168.487 70.258,168.819 69.208,168.986 68.750 C 171.321 62.336,170.842 61.255,165.667 61.252 C 161.182 61.249,160.924 61.435,155.377 68.705 C 153.327 71.391,153.153 71.355,152.827 68.167 C 152.729 67.204,152.582 66.154,152.501 65.833 C 152.419 65.512,152.301 64.704,152.238 64.036 C 152.024 61.778,151.165 61.275,147.500 61.260 C 143.075 61.242,141.107 62.437,140.359 65.600 C 140.124 66.592,138.836 70.740,138.488 71.625 C 138.260 72.206,138.000 72.068,138.000 71.367 C 138.000 70.931,137.821 70.453,137.421 69.826 C 136.769 68.803,136.695 68.400,137.134 68.261 C 138.594 67.797,140.076 63.701,139.244 62.431 C 138.754 61.683,137.287 61.199,134.930 61.008 C 132.519 60.812,108.808 60.810,106.000 61.005 M229.804 65.671 C 216.620 67.929,208.794 83.997,218.833 88.193 C 220.228 88.775,225.799 88.765,227.667 88.176 C 234.738 85.948,239.599 81.264,241.082 75.248 C 242.838 68.123,238.247 64.225,229.804 65.671 M277.064 65.669 C 269.091 67.086,262.676 73.249,261.819 80.315 C 261.345 84.226,262.601 86.642,265.833 88.040 L 267.083 88.581 270.333 88.582 C 278.601 88.583,285.550 83.717,288.181 76.083 C 288.537 75.052,288.583 74.626,288.583 72.417 L 288.583 69.917 288.031 68.960 C 286.357 66.064,282.072 64.778,277.064 65.669 M190.750 66.151 C 190.125 66.419,189.845 66.919,188.494 70.167 C 188.208 70.854,187.877 71.642,187.757 71.917 C 187.638 72.192,187.349 72.867,187.114 73.417 C 186.880 73.967,186.305 75.317,185.836 76.417 C 185.366 77.517,184.824 78.792,184.631 79.250 C 184.438 79.708,184.149 80.383,183.988 80.750 C 183.828 81.117,183.461 81.979,183.173 82.667 C 182.886 83.354,182.504 84.225,182.325 84.602 C 182.146 84.978,182.000 85.352,182.000 85.433 C 182.000 85.513,181.798 85.979,181.550 86.468 C 180.869 87.814,180.989 87.906,183.512 87.964 C 185.897 88.018,186.420 87.875,186.653 87.106 C 186.792 86.643,187.367 85.283,189.832 79.583 C 190.189 78.758,190.715 77.521,191.001 76.833 C 192.608 72.967,192.514 72.899,194.923 79.667 C 195.988 82.657,196.235 83.010,196.947 82.557 C 197.356 82.297,200.091 80.052,201.833 78.545 C 206.051 74.898,207.216 74.136,206.913 75.222 C 206.799 75.630,206.289 76.871,205.191 79.417 C 204.343 81.383,202.999 84.542,202.676 85.333 C 202.507 85.746,202.233 86.411,202.067 86.811 C 201.623 87.883,201.856 88.000,204.430 88.000 C 207.103 88.000,206.713 88.428,209.003 83.000 C 209.737 81.260,211.215 77.866,211.512 77.239 C 211.689 76.866,211.833 76.502,211.833 76.430 C 211.833 76.358,212.213 75.426,212.678 74.358 C 213.142 73.290,213.710 71.967,213.940 71.417 C 214.170 70.867,214.463 70.192,214.591 69.917 C 215.856 67.191,215.958 66.791,215.500 66.333 C 215.071 65.904,211.917 65.843,210.954 66.245 C 210.494 66.437,207.384 68.869,207.000 69.336 C 206.635 69.781,199.586 75.500,199.403 75.500 C 199.093 75.500,198.500 74.900,198.500 74.587 C 198.500 74.451,198.316 73.870,198.091 73.295 C 197.867 72.720,197.258 71.036,196.739 69.552 C 195.509 66.040,195.567 66.095,193.029 66.045 C 191.959 66.024,190.933 66.072,190.750 66.151 M246.250 66.143 C 245.346 66.337,243.874 69.852,244.523 70.270 C 244.648 70.351,246.137 70.454,247.833 70.500 C 251.551 70.600,251.407 70.430,250.169 73.285 C 249.700 74.366,249.157 75.625,248.963 76.083 C 248.770 76.542,248.436 77.306,248.222 77.781 C 248.008 78.257,247.833 78.702,247.833 78.770 C 247.833 78.839,247.690 79.200,247.515 79.572 C 247.340 79.945,246.961 80.813,246.673 81.500 C 246.386 82.188,246.004 83.058,245.825 83.435 C 245.646 83.812,245.500 84.182,245.500 84.257 C 245.500 84.333,245.356 84.700,245.181 85.072 C 243.789 88.027,243.774 88.000,246.763 88.000 C 249.403 88.000,249.094 88.276,250.674 84.500 C 250.961 83.813,251.328 82.950,251.488 82.583 C 251.649 82.217,251.938 81.542,252.131 81.083 C 252.324 80.625,252.865 79.350,253.333 78.250 C 253.801 77.150,254.325 75.912,254.497 75.500 C 255.443 73.235,256.559 70.825,256.727 70.686 C 256.833 70.598,258.426 70.501,260.268 70.471 C 264.311 70.405,264.232 70.452,265.258 67.540 C 265.805 65.989,266.428 66.087,255.869 66.059 C 250.854 66.046,246.525 66.084,246.250 66.143 M296.407 66.316 C 296.069 66.524,295.767 66.974,295.434 67.767 C 294.272 70.536,293.953 71.290,293.678 71.917 C 293.518 72.283,293.228 72.958,293.035 73.417 C 292.841 73.875,292.407 74.887,292.070 75.667 C 291.732 76.446,291.286 77.496,291.077 78.000 C 290.868 78.504,290.360 79.704,289.948 80.667 C 286.497 88.722,286.553 87.896,289.452 87.963 C 291.545 88.012,292.274 87.869,292.444 87.378 C 292.499 87.216,292.914 86.221,293.364 85.167 C 295.567 80.009,295.065 80.449,298.653 80.530 C 303.142 80.632,303.860 81.609,302.440 85.679 C 301.639 87.978,301.706 88.045,304.733 87.971 C 307.429 87.906,307.157 88.129,308.176 85.146 C 309.292 81.882,309.309 80.395,308.245 79.131 C 307.572 78.331,307.687 78.101,309.147 77.323 C 315.338 74.024,316.139 67.583,310.500 66.441 C 308.398 66.015,297.060 65.915,296.407 66.316 M233.913 70.239 C 237.598 72.399,234.784 80.030,229.092 83.315 C 225.929 85.140,222.269 84.910,220.875 82.799 C 220.249 81.850,220.207 78.912,220.802 77.634 C 221.003 77.204,221.167 76.787,221.167 76.709 C 221.167 76.497,222.672 74.283,223.253 73.640 C 226.317 70.251,231.249 68.678,233.913 70.239 M280.219 69.822 C 283.484 70.580,283.763 74.665,280.857 79.167 C 276.723 85.569,267.566 86.490,267.595 80.500 C 267.624 74.496,274.673 68.535,280.219 69.822 M307.480 70.518 C 309.030 71.058,308.791 73.441,307.028 75.026 C 305.518 76.384,304.416 76.712,301.083 76.794 C 297.147 76.891,296.937 76.777,297.726 74.978 C 297.942 74.486,298.322 73.596,298.572 73.000 C 299.264 71.346,299.553 70.822,299.912 70.567 C 300.329 70.270,306.653 70.230,307.480 70.518 M130.316 70.901 C 130.774 71.316,130.764 72.039,130.292 72.571 L 129.917 72.995 126.131 73.039 C 121.559 73.093,121.555 73.091,122.158 71.605 C 122.614 70.480,122.419 70.526,126.691 70.558 C 129.656 70.581,129.998 70.613,130.316 70.901 M132.021 82.558 C 131.919 82.681,131.792 83.037,131.739 83.349 C 131.460 85.000,130.143 89.284,129.721 89.912 C 129.599 90.093,129.500 90.369,129.500 90.526 C 129.500 90.845,127.881 94.059,127.304 94.884 C 123.913 99.738,120.261 101.382,115.043 100.404 C 113.528 100.121,111.230 99.042,109.750 97.921 C 107.257 96.032,103.647 91.801,102.636 89.583 C 102.528 89.346,102.306 89.167,102.121 89.167 C 101.735 89.167,101.829 90.655,102.275 91.606 C 102.410 91.894,102.624 92.494,102.751 92.940 C 104.273 98.281,108.071 104.141,111.475 106.398 C 116.650 109.830,123.340 108.050,128.319 101.917 C 129.959 99.896,131.268 97.708,132.256 95.333 C 132.504 94.737,132.809 94.025,132.934 93.750 C 133.266 93.016,134.167 90.368,134.166 90.125 C 134.166 90.011,134.343 89.317,134.561 88.583 C 135.384 85.808,135.918 83.081,135.732 82.597 C 135.596 82.241,132.313 82.207,132.021 82.558 M140.542 82.451 C 139.953 82.564,140.101 82.804,140.875 82.994 C 142.677 83.437,144.898 85.078,145.961 86.751 C 147.722 89.527,147.825 89.596,148.356 88.375 C 149.427 85.909,150.114 83.299,149.846 82.711 L 149.674 82.333 145.295 82.356 C 142.887 82.369,140.748 82.411,140.542 82.451 M151.446 82.705 C 151.218 83.074,151.006 83.743,150.083 87.000 C 149.241 89.972,147.701 93.758,146.050 96.917 C 145.906 97.192,145.639 97.717,145.457 98.083 C 144.607 99.793,141.078 104.737,139.633 106.242 C 138.469 107.454,138.856 107.667,142.224 107.667 C 145.098 107.667,144.694 107.908,147.505 104.507 C 149.533 102.053,149.938 101.491,150.521 100.333 C 150.636 100.104,150.859 99.767,151.016 99.583 C 151.173 99.400,151.697 98.500,152.181 97.583 C 152.664 96.667,153.234 95.705,153.447 95.446 C 153.659 95.186,153.833 94.830,153.833 94.654 C 153.833 94.478,153.972 94.195,154.141 94.026 C 154.310 93.857,154.494 93.434,154.551 93.085 C 154.607 92.737,154.806 92.289,154.993 92.090 C 155.182 91.889,155.333 91.502,155.333 91.220 C 155.333 90.940,155.481 90.524,155.661 90.295 C 155.841 90.066,156.040 89.549,156.101 89.147 C 156.163 88.746,156.344 88.079,156.503 87.667 C 156.662 87.254,156.848 86.579,156.915 86.167 C 156.982 85.754,157.183 85.093,157.361 84.698 C 157.571 84.230,157.667 83.708,157.634 83.198 L 157.583 82.417 154.631 82.371 C 151.718 82.326,151.676 82.331,151.446 82.705 M158.926 82.556 C 158.602 82.793,158.360 83.886,158.343 85.191 C 158.327 86.452,158.580 86.422,160.963 84.879 C 161.965 84.230,164.370 83.000,164.636 83.000 C 164.934 83.000,165.057 82.639,164.813 82.484 C 164.421 82.236,159.278 82.298,158.926 82.556 M165.775 83.752 C 163.019 84.509,157.214 88.144,156.803 89.370 C 156.702 89.671,156.525 90.029,156.410 90.167 C 156.294 90.304,156.121 90.707,156.025 91.061 C 155.928 91.416,155.746 91.828,155.620 91.978 C 155.494 92.128,155.299 92.573,155.186 92.967 C 155.073 93.362,154.873 93.726,154.741 93.777 C 154.405 93.906,154.421 94.980,154.761 95.111 C 154.913 95.169,156.220 94.618,157.886 93.792 C 161.383 92.061,161.799 91.892,163.160 91.658 C 164.953 91.349,165.099 91.177,165.909 88.417 C 166.151 87.592,166.499 86.533,166.682 86.063 C 167.141 84.883,167.255 84.058,167.001 83.751 C 166.761 83.462,166.829 83.462,165.775 83.752 M139.343 84.324 C 139.164 84.502,138.972 84.934,138.915 85.282 C 138.822 85.856,138.643 86.518,137.771 89.515 C 137.340 90.997,137.393 91.309,138.125 91.592 C 140.137 92.371,142.071 93.923,143.269 95.721 C 144.247 97.188,144.730 97.223,145.369 95.873 C 145.617 95.347,146.167 94.178,146.591 93.275 L 147.362 91.634 146.984 90.625 C 145.498 86.650,140.849 82.817,139.343 84.324 M136.255 93.940 C 135.931 94.641,135.667 95.252,135.667 95.299 C 135.667 95.414,134.894 97.126,134.560 97.750 C 134.413 98.025,134.159 98.636,133.995 99.108 L 133.696 99.966 134.140 100.368 C 134.384 100.590,134.972 101.059,135.448 101.412 C 136.230 101.992,137.639 103.670,138.146 104.625 C 138.536 105.360,139.068 105.114,140.127 103.708 C 140.662 102.998,141.640 101.712,142.300 100.851 C 143.705 99.018,143.785 98.615,143.005 97.270 C 141.805 95.198,140.677 94.136,138.567 93.089 C 137.147 92.384,136.939 92.460,136.255 93.940 M162.250 93.241 C 160.027 94.107,159.534 94.330,158.380 94.984 C 157.718 95.360,157.132 95.667,157.078 95.667 C 156.339 95.667,152.929 98.359,152.107 99.592 C 151.866 99.954,151.499 100.486,151.292 100.775 C 149.720 102.971,149.593 103.251,150.087 103.441 C 150.226 103.495,151.033 103.196,151.879 102.777 C 154.516 101.472,157.212 100.500,158.853 100.264 C 159.809 100.126,160.536 99.310,162.071 96.651 C 162.410 96.064,162.942 95.171,163.254 94.667 C 164.316 92.948,164.033 92.545,162.250 93.241 M132.285 102.386 C 132.053 102.689,131.744 103.196,131.597 103.511 C 131.318 104.112,130.978 104.681,130.042 106.118 C 129.663 106.700,129.494 107.140,129.530 107.452 L 129.583 107.917 133.044 107.906 C 137.742 107.892,138.216 107.544,136.904 105.071 C 135.348 102.137,133.357 100.979,132.285 102.386 M156.083 102.372 C 155.625 102.559,154.800 102.894,154.250 103.117 C 152.313 103.903,150.253 104.912,149.071 105.656 C 146.894 107.025,146.916 107.000,147.542 107.397 C 148.638 108.093,150.108 107.906,152.250 106.796 C 156.583 104.550,159.770 100.872,156.083 102.372 " stroke="none" fill="#ebebeb" fill-rule="evenodd"/>
  </g>
</svg>
