<svg id="svg" version="1.1" xmlns="http://www.w3.org/2000/svg" xmlns:xlink="http://www.w3.org/1999/xlink" width="400" height="137.2549019607843" viewBox="0, 0, 400,137.2549019607843">
  <g id="svgg">
    <path id="path0" d="M102.083 33.615 C 100.838 33.777,100.341 34.262,99.124 36.500 C 98.801 37.096,97.973 38.558,97.285 39.750 C 96.597 40.942,95.332 43.145,94.475 44.646 C 93.618 46.146,92.752 47.646,92.550 47.979 C 92.349 48.311,91.842 49.183,91.424 49.917 C 91.006 50.650,90.487 51.550,90.270 51.917 C 89.472 53.266,88.112 55.604,87.701 56.333 C 87.469 56.746,87.150 57.308,86.994 57.583 C 86.565 58.338,84.994 61.023,84.687 61.527 C 83.918 62.788,83.242 63.935,83.181 64.083 C 83.142 64.175,82.796 64.741,82.412 65.341 C 80.594 68.177,80.607 68.361,82.866 72.006 C 84.764 75.067,87.252 79.347,88.967 82.500 C 89.291 83.096,89.870 84.108,90.253 84.750 C 90.636 85.392,91.243 86.426,91.600 87.049 C 91.958 87.672,92.400 88.436,92.583 88.746 C 92.767 89.056,93.424 90.196,94.044 91.280 C 94.664 92.363,95.395 93.625,95.667 94.083 C 95.939 94.542,96.467 95.442,96.840 96.083 C 97.213 96.725,97.749 97.625,98.032 98.083 C 98.315 98.542,98.698 99.179,98.885 99.500 C 99.823 101.116,100.016 101.457,100.267 101.934 C 100.876 103.094,99.355 103.013,121.039 103.036 C 142.897 103.058,141.301 103.147,142.008 101.872 C 142.197 101.530,142.904 100.313,143.579 99.167 C 144.254 98.021,145.827 95.283,147.075 93.083 C 148.323 90.883,149.565 88.708,149.836 88.250 C 150.106 87.792,150.835 86.531,151.455 85.449 C 152.076 84.366,152.743 83.204,152.938 82.865 C 154.405 80.317,156.622 76.424,157.038 75.667 C 157.674 74.506,159.096 72.097,159.595 71.333 C 161.460 68.477,161.329 67.724,158.082 62.667 C 157.876 62.346,156.977 60.771,156.083 59.167 C 155.190 57.563,154.290 55.987,154.083 55.667 C 153.876 55.346,153.481 54.671,153.206 54.167 C 152.932 53.663,152.124 52.237,151.411 51.000 C 148.665 46.229,147.737 44.627,147.377 44.033 C 147.172 43.694,146.475 42.479,145.827 41.333 C 144.574 39.114,144.403 38.822,143.980 38.167 C 143.832 37.938,143.461 37.262,143.155 36.667 C 142.147 34.702,141.550 33.883,140.982 33.685 C 140.479 33.510,103.404 33.443,102.083 33.615 M268.417 41.493 C 264.030 41.849,261.395 45.370,261.212 51.121 L 261.131 53.658 261.628 54.720 C 263.898 59.570,272.866 58.680,275.434 53.351 C 278.704 46.566,275.977 40.643,269.917 41.365 C 269.825 41.376,269.150 41.434,268.417 41.493 M311.083 41.490 C 308.446 41.700,306.326 43.224,305.022 45.850 C 304.643 46.612,304.333 47.356,304.333 47.504 C 304.333 47.652,304.185 48.330,304.004 49.011 C 302.612 54.246,305.181 57.833,310.322 57.833 C 316.009 57.833,319.246 54.147,319.249 47.667 C 319.251 42.503,317.264 41.000,311.083 41.490 M173.116 42.158 C 172.794 42.541,172.677 42.921,172.587 43.867 C 172.524 44.536,172.337 45.758,172.171 46.583 C 172.005 47.408,171.816 48.646,171.751 49.333 C 171.686 50.021,171.498 51.183,171.333 51.917 C 171.168 52.650,170.942 54.069,170.830 55.071 C 170.580 57.314,170.594 57.333,172.597 57.333 C 174.534 57.333,174.612 57.249,174.918 54.833 C 175.217 52.473,175.743 49.857,175.963 49.637 C 176.122 49.478,177.007 50.897,177.269 51.730 C 177.330 51.924,177.519 52.345,177.690 52.664 C 177.860 52.984,178.000 53.307,178.000 53.383 C 178.000 53.459,178.175 53.910,178.389 54.385 C 178.603 54.861,178.956 55.649,179.173 56.138 C 179.679 57.273,179.813 57.333,181.804 57.333 C 183.989 57.333,184.110 57.238,184.345 55.341 C 184.441 54.566,184.621 53.441,184.745 52.841 C 184.869 52.241,185.023 51.225,185.085 50.583 C 185.148 49.942,185.334 48.779,185.498 48.000 C 185.662 47.221,185.844 46.058,185.902 45.417 C 185.959 44.775,186.091 43.860,186.195 43.383 C 186.503 41.961,186.202 41.667,184.439 41.667 C 182.558 41.667,182.302 41.958,182.004 44.433 C 181.751 46.527,181.186 49.212,180.946 49.456 C 180.731 49.674,180.290 48.862,179.160 46.167 C 178.872 45.479,178.493 44.612,178.318 44.239 C 178.143 43.866,178.000 43.487,178.000 43.397 C 178.000 43.306,177.777 42.880,177.504 42.449 L 177.007 41.667 175.268 41.667 C 173.548 41.667,173.525 41.672,173.116 42.158 M189.648 41.777 C 189.319 41.865,189.001 42.527,188.997 43.133 C 188.996 43.381,188.853 44.258,188.680 45.083 C 188.507 45.908,188.313 47.108,188.248 47.750 C 188.184 48.392,188.023 49.442,187.891 50.083 C 187.759 50.725,187.541 52.128,187.407 53.201 C 187.274 54.273,187.090 55.347,186.999 55.586 C 186.352 57.287,186.504 57.333,192.727 57.333 C 198.776 57.333,198.359 57.451,198.681 55.649 C 198.980 53.980,199.021 54.000,195.312 54.000 C 191.616 54.000,191.431 53.943,191.537 52.839 C 191.692 51.229,191.688 51.230,195.258 51.125 C 198.964 51.015,199.014 50.992,199.134 49.339 C 199.244 47.814,199.286 47.833,195.928 47.833 C 192.547 47.833,192.396 47.780,192.548 46.651 C 192.733 45.270,193.013 45.167,196.564 45.167 C 199.563 45.167,199.614 45.161,199.985 44.766 C 200.624 44.086,200.874 42.398,200.405 41.929 C 200.155 41.679,190.524 41.543,189.648 41.777 M202.768 41.923 C 202.426 42.264,202.419 43.428,202.746 45.703 C 202.881 46.646,203.071 48.542,203.167 49.917 C 203.423 53.554,203.907 57.005,204.186 57.182 C 205.263 57.864,208.989 57.207,209.254 56.287 C 209.312 56.083,209.532 55.542,209.741 55.083 C 209.950 54.625,210.328 53.762,210.579 53.167 C 210.831 52.571,211.175 51.783,211.344 51.417 C 211.513 51.050,211.913 50.151,212.233 49.420 C 212.837 48.040,213.074 47.769,213.230 48.282 C 213.415 48.891,213.868 52.148,214.084 54.412 C 214.367 57.396,214.306 57.333,216.946 57.333 C 219.495 57.333,219.369 57.437,220.709 54.250 C 221.122 53.267,221.303 52.830,222.333 50.333 C 223.000 48.718,223.466 47.619,223.925 46.583 C 224.128 46.125,224.349 45.563,224.417 45.333 C 224.485 45.104,224.607 44.834,224.688 44.732 C 224.856 44.520,225.490 42.682,225.496 42.387 C 225.507 41.867,224.978 41.667,223.594 41.667 C 221.946 41.667,221.449 41.948,221.154 43.051 C 221.052 43.435,220.899 43.833,220.816 43.935 C 220.733 44.036,220.523 44.524,220.350 45.018 C 220.177 45.512,219.834 46.442,219.589 47.083 C 219.344 47.725,219.025 48.624,218.880 49.082 C 218.610 49.939,217.890 51.167,217.658 51.167 C 217.474 51.167,217.369 50.550,217.170 48.302 C 217.075 47.230,216.960 46.255,216.914 46.135 C 216.869 46.015,216.727 45.058,216.598 44.009 C 216.308 41.641,216.336 41.667,214.058 41.667 C 211.841 41.667,211.826 41.684,209.843 46.500 C 209.560 47.188,209.179 48.027,208.997 48.366 C 208.815 48.705,208.667 49.081,208.667 49.201 C 208.667 49.643,207.447 51.364,207.309 51.117 C 207.236 50.988,207.097 49.055,206.999 46.821 C 206.770 41.591,206.852 41.768,204.634 41.703 C 203.344 41.664,202.984 41.707,202.768 41.923 M235.946 42.007 C 235.440 42.405,228.308 56.574,228.440 56.918 C 228.815 57.896,232.592 57.365,232.930 56.287 C 232.993 56.083,233.264 55.598,233.531 55.208 L 234.016 54.500 236.488 54.500 L 238.960 54.500 239.136 54.958 C 239.233 55.210,239.360 55.657,239.418 55.951 C 239.647 57.115,240.013 57.333,241.730 57.333 C 244.067 57.333,244.089 57.292,243.448 54.000 C 242.840 50.876,242.625 49.682,242.399 48.181 C 242.269 47.317,242.056 46.251,241.926 45.811 C 241.795 45.371,241.635 44.477,241.571 43.824 C 241.482 42.919,241.357 42.523,241.046 42.152 L 240.637 41.667 238.508 41.667 C 236.616 41.667,236.330 41.705,235.946 42.007 M248.129 41.958 C 247.844 42.284,247.270 44.965,246.998 47.250 C 246.899 48.075,246.750 49.012,246.666 49.333 C 246.582 49.654,246.432 50.629,246.332 51.500 C 246.232 52.371,246.004 53.810,245.825 54.699 C 245.306 57.280,245.339 57.333,247.480 57.333 C 249.454 57.333,249.668 57.071,250.090 54.133 C 250.284 52.782,250.301 52.773,253.139 52.652 C 257.444 52.468,259.247 50.998,259.716 47.291 C 260.106 44.210,259.481 42.875,257.271 42.073 C 255.770 41.528,248.585 41.438,248.129 41.958 M280.355 41.978 C 280.162 42.172,280.000 42.660,279.927 43.270 C 279.862 43.809,279.708 44.663,279.584 45.167 C 279.459 45.671,279.308 46.608,279.247 47.250 C 279.186 47.892,279.027 48.904,278.893 49.500 C 278.759 50.096,278.542 51.446,278.410 52.500 C 278.278 53.554,278.094 54.679,278.002 54.999 C 277.338 57.296,277.423 57.333,283.297 57.333 C 288.937 57.333,288.581 57.454,288.761 55.474 C 288.912 53.811,288.956 53.833,285.445 53.833 C 282.442 53.833,282.500 53.854,282.500 52.802 C 282.500 52.525,282.608 51.875,282.740 51.357 C 282.872 50.840,283.059 49.692,283.156 48.806 C 283.253 47.919,283.442 46.719,283.576 46.139 C 283.942 44.556,284.081 42.463,283.849 42.029 C 283.576 41.519,280.854 41.479,280.355 41.978 M293.287 41.959 C 292.890 42.398,292.712 42.979,292.585 44.258 C 292.521 44.895,292.331 46.129,292.161 47.000 C 291.992 47.871,291.806 49.071,291.749 49.667 C 291.691 50.262,291.540 51.128,291.411 51.590 C 291.283 52.051,291.101 53.139,291.006 54.006 C 290.912 54.874,290.792 55.854,290.740 56.186 C 290.560 57.330,290.576 57.333,295.940 57.333 C 301.327 57.333,301.220 57.357,301.591 56.081 C 302.183 54.046,301.888 53.839,298.395 53.836 C 296.324 53.834,295.836 53.787,295.660 53.575 C 295.410 53.274,295.657 50.125,296.074 48.302 C 296.206 47.724,296.396 46.490,296.497 45.560 C 296.597 44.631,296.750 43.625,296.836 43.324 C 297.030 42.647,296.891 42.043,296.492 41.829 C 295.937 41.532,293.587 41.627,293.287 41.959 M271.107 45.402 C 272.349 45.980,272.648 47.088,272.259 49.670 C 271.807 52.666,270.586 54.000,268.293 54.000 C 266.193 54.000,265.333 53.100,265.333 50.902 C 265.333 46.600,268.073 43.990,271.107 45.402 M313.545 45.263 C 316.042 46.114,315.583 51.678,312.861 53.564 C 311.075 54.802,308.513 53.934,308.159 51.970 C 307.367 47.590,310.162 44.110,313.545 45.263 M255.039 45.609 C 255.944 46.066,255.884 47.693,254.927 48.652 L 254.329 49.250 252.706 49.250 L 251.083 49.250 251.089 48.083 C 251.097 46.236,251.262 45.682,251.885 45.411 C 252.514 45.137,254.330 45.251,255.039 45.609 M238.232 46.792 C 238.282 47.044,238.402 47.991,238.498 48.896 C 238.717 50.960,238.691 51.000,237.083 51.000 C 235.632 51.000,235.324 50.783,235.730 50.049 C 235.872 49.793,236.262 48.983,236.596 48.250 C 237.396 46.498,238.056 45.910,238.232 46.792 M126.047 47.565 C 130.942 48.956,132.773 51.562,133.849 58.667 C 134.181 60.859,134.443 60.759,127.696 60.996 C 124.643 61.104,121.568 61.256,120.864 61.336 C 118.061 61.652,114.535 62.182,113.672 62.418 C 113.171 62.555,112.626 62.667,112.462 62.667 C 111.893 62.667,106.744 64.488,105.250 65.218 C 102.863 66.384,100.730 67.904,98.875 69.758 C 98.036 70.597,97.636 70.528,97.012 69.438 C 96.268 68.138,96.335 67.944,98.989 63.667 C 99.075 63.529,99.609 62.629,100.176 61.667 C 100.743 60.704,101.372 59.654,101.574 59.333 C 103.522 56.245,103.694 55.984,104.598 54.750 C 107.651 50.580,112.172 48.080,118.417 47.105 C 119.913 46.871,124.601 47.154,126.047 47.565 M219.350 65.178 C 211.844 66.507,207.288 71.817,206.089 80.631 C 204.947 89.026,207.402 93.538,213.957 95.095 C 221.508 96.888,229.239 93.620,232.321 87.333 C 234.466 82.959,235.445 75.238,234.262 72.022 C 234.140 71.689,233.942 71.154,233.823 70.833 C 232.238 66.560,225.785 64.039,219.350 65.178 M275.417 65.119 C 267.734 66.181,262.927 71.833,261.761 81.174 C 260.581 90.622,264.633 95.500,273.659 95.500 C 283.103 95.500,288.904 89.994,290.246 79.754 C 291.650 69.046,286.166 63.633,275.417 65.119 M175.610 66.176 C 175.112 66.567,175.007 66.927,174.515 69.917 C 174.319 71.108,174.047 72.758,173.910 73.583 C 173.773 74.408,173.513 76.076,173.332 77.290 C 173.150 78.503,172.934 79.816,172.850 80.206 C 172.765 80.597,172.648 81.404,172.588 82.000 C 172.528 82.596,172.299 84.133,172.079 85.417 C 170.752 93.162,170.692 93.677,171.066 94.247 L 171.341 94.667 174.391 94.667 C 178.331 94.667,178.218 94.762,178.742 91.007 C 178.877 90.041,179.095 88.725,179.227 88.083 C 179.359 87.442,179.517 86.429,179.578 85.833 C 179.639 85.237,179.830 83.925,180.004 82.917 C 180.178 81.908,180.370 80.616,180.431 80.045 C 180.645 78.050,181.268 78.044,182.119 80.028 C 182.407 80.700,182.881 81.813,183.171 82.500 C 183.684 83.712,184.183 84.834,184.858 86.287 C 185.845 88.409,186.796 88.118,189.143 84.974 C 192.817 80.054,194.054 78.490,194.230 78.548 C 194.551 78.653,194.534 79.952,194.187 81.803 C 194.004 82.782,193.807 84.033,193.749 84.583 C 193.692 85.133,193.504 86.408,193.331 87.417 C 192.285 93.520,192.269 93.668,192.626 94.146 L 192.952 94.583 195.958 94.629 L 198.964 94.674 199.392 94.165 C 199.627 93.886,199.859 93.415,199.906 93.120 C 200.056 92.184,200.802 87.355,201.251 84.417 C 201.490 82.858,201.825 80.758,201.998 79.750 C 202.170 78.742,202.357 77.542,202.414 77.083 C 202.470 76.625,202.625 75.650,202.758 74.917 C 203.503 70.806,204.014 67.211,203.922 66.721 C 203.762 65.864,203.496 65.809,199.839 65.865 C 195.844 65.927,196.667 65.367,192.702 70.727 C 189.035 75.683,188.233 76.667,187.858 76.667 C 187.538 76.667,187.296 76.198,185.835 72.750 C 185.369 71.650,184.884 70.525,184.756 70.250 C 184.629 69.975,184.215 69.037,183.837 68.167 C 182.792 65.763,182.932 65.833,179.180 65.833 C 176.270 65.833,176.014 65.858,175.610 66.176 M239.001 66.306 C 238.668 66.640,238.494 67.021,238.413 67.598 C 238.349 68.048,238.193 68.928,238.065 69.553 C 237.501 72.315,237.526 72.333,241.775 72.333 C 245.966 72.333,245.895 72.248,245.095 76.353 C 244.963 77.030,244.621 79.083,244.335 80.917 C 244.048 82.750,243.705 84.827,243.571 85.533 C 243.437 86.238,243.221 87.588,243.092 88.533 C 242.963 89.477,242.726 91.021,242.566 91.963 C 242.279 93.655,242.280 93.682,242.614 94.130 L 242.952 94.583 245.897 94.629 C 249.737 94.688,249.809 94.639,250.166 91.744 C 250.267 90.922,250.491 89.500,250.664 88.583 C 250.837 87.667,251.176 85.642,251.418 84.083 C 251.660 82.525,252.000 80.462,252.172 79.500 C 252.345 78.537,252.532 77.375,252.588 76.917 C 252.696 76.032,253.132 73.613,253.272 73.126 C 253.487 72.376,253.690 72.333,257.084 72.333 C 260.899 72.333,261.043 72.296,261.396 71.219 C 261.750 70.140,262.180 67.178,262.056 66.663 C 261.852 65.809,262.193 65.833,250.455 65.833 L 239.474 65.833 239.001 66.306 M297.091 66.201 C 296.600 66.623,296.243 68.335,295.256 75.000 C 295.018 76.604,294.706 78.592,294.563 79.417 C 294.420 80.242,294.163 81.817,293.993 82.917 C 293.822 84.017,293.528 85.854,293.339 87.000 C 291.968 95.318,291.743 94.667,295.997 94.667 L 298.970 94.667 299.382 94.177 C 299.808 93.671,299.907 93.241,300.679 88.500 C 301.129 85.733,301.178 85.667,302.745 85.667 C 304.354 85.667,304.517 85.817,305.929 88.583 C 306.538 89.775,307.367 91.400,307.772 92.195 C 308.179 92.993,308.770 93.869,309.093 94.153 L 309.678 94.667 312.741 94.667 L 315.804 94.667 316.235 94.154 C 316.884 93.383,316.816 93.191,314.294 88.643 C 312.324 85.090,312.326 85.097,313.417 84.384 C 316.507 82.364,317.610 81.029,318.603 78.109 C 320.259 73.240,319.149 68.688,315.904 67.037 C 313.762 65.947,313.611 65.931,305.228 65.871 L 297.540 65.815 297.091 66.201 M133.692 66.858 C 134.435 67.601,133.763 77.076,132.742 80.250 C 130.621 86.842,127.203 89.223,119.833 89.242 C 112.732 89.259,108.850 86.488,107.912 80.734 C 106.616 72.775,112.713 67.445,124.000 66.670 C 128.324 66.374,133.304 66.470,133.692 66.858 M223.333 72.083 C 226.111 72.438,227.376 75.552,226.679 80.318 C 225.881 85.777,223.328 88.543,219.074 88.558 C 214.537 88.574,212.966 85.919,213.994 79.975 C 214.861 74.960,216.885 72.399,220.289 72.011 C 221.403 71.884,221.866 71.895,223.333 72.083 M279.020 72.085 C 282.417 72.507,283.607 77.018,281.832 82.743 C 280.559 86.848,278.483 88.551,274.751 88.551 C 270.489 88.551,268.864 86.154,269.575 80.913 C 270.315 75.451,272.505 72.406,275.981 72.009 C 277.065 71.884,277.490 71.895,279.020 72.085 M309.954 72.693 C 311.147 73.291,311.418 73.778,311.409 75.305 C 311.389 78.356,309.974 79.415,305.645 79.615 C 302.588 79.757,302.017 79.493,302.332 78.083 C 302.414 77.717,302.601 76.487,302.749 75.350 C 303.012 73.326,303.280 72.462,303.705 72.266 C 304.338 71.974,309.182 72.305,309.954 72.693 " stroke="none" fill="#f1f1f1" fill-rule="evenodd"/>
  </g>
</svg>
