<svg width="24px" height="24px" viewBox="0 0 0.96 0.96" fill="none" xmlns="http://www.w3.org/2000/svg">
    <path d="M0.254 0.594c0.005 -0.039 0.021 -0.061 0.051 -0.083 0.043 -0.03 0.097 -0.013 0.097 -0.013V0.397q0.02 -0.001 0.039 0.002v0.13s-0.054 -0.017 -0.097 0.013c-0.03 0.022 -0.046 0.044 -0.051 0.083 0 0.021 0.004 0.049 0.022 0.072a0.18 0.18 0 0 1 -0.014 -0.008c-0.04 -0.027 -0.047 -0.067 -0.047 -0.096M0.661 0.209c-0.03 -0.032 -0.041 -0.065 -0.045 -0.088h0.037s-0.007 0.06 0.047 0.119l0.001 0.001a0.21 0.21 0 0 1 -0.04 -0.032M0.84 0.301v0.128s-0.047 -0.002 -0.082 -0.011c-0.049 -0.012 -0.08 -0.032 -0.08 -0.032s-0.022 -0.014 -0.024 -0.015v0.264c0 0.015 -0.004 0.051 -0.016 0.082 -0.016 0.04 -0.041 0.066 -0.045 0.072 0 0 -0.03 0.035 -0.083 0.059 -0.048 0.022 -0.09 0.021 -0.102 0.022 0 0 -0.073 0.003 -0.138 -0.04a0.27 0.27 0 0 1 -0.039 -0.032l0 0c0.065 0.042 0.138 0.04 0.138 0.04 0.013 -0.001 0.055 0 0.102 -0.022 0.053 -0.024 0.083 -0.059 0.083 -0.059 0.004 -0.005 0.029 -0.032 0.045 -0.072 0.012 -0.031 0.016 -0.067 0.016 -0.082v-0.264c0.002 0.001 0.023 0.015 0.023 0.015s0.032 0.019 0.08 0.032c0.035 0.009 0.082 0.011 0.082 0.011V0.297c0.016 0.004 0.03 0.005 0.039 0.004" fill="#EE1D52"/>
    <path d="M0.801 0.297v0.1s-0.047 -0.002 -0.082 -0.011c-0.049 -0.012 -0.08 -0.032 -0.08 -0.032s-0.022 -0.014 -0.023 -0.015v0.264c0 0.015 -0.004 0.051 -0.016 0.082 -0.016 0.04 -0.041 0.066 -0.045 0.072 0 0 -0.03 0.035 -0.083 0.059 -0.048 0.022 -0.09 0.021 -0.102 0.022 0 0 -0.072 0.003 -0.138 -0.04l0 0a0.24 0.24 0 0 1 -0.019 -0.021c-0.021 -0.025 -0.034 -0.055 -0.037 -0.064v0c-0.005 -0.015 -0.016 -0.051 -0.015 -0.085 0.003 -0.061 0.024 -0.099 0.03 -0.108a0.258 0.258 0 0 1 0.058 -0.068 0.243 0.243 0 0 1 0.069 -0.039 0.24 0.24 0 0 1 0.085 -0.017v0.101s-0.054 -0.017 -0.097 0.013c-0.03 0.022 -0.046 0.044 -0.051 0.083 0 0.029 0.007 0.069 0.047 0.096q0.007 0.004 0.014 0.008c0.007 0.009 0.016 0.017 0.025 0.023 0.039 0.025 0.072 0.027 0.114 0.01 0.028 -0.011 0.049 -0.035 0.059 -0.062 0.006 -0.017 0.006 -0.034 0.006 -0.051V0.121h0.098c0.004 0.023 0.015 0.056 0.045 0.088 0.012 0.012 0.025 0.023 0.04 0.032 0.004 0.004 0.026 0.026 0.054 0.04 0.015 0.007 0.03 0.012 0.046 0.016" fill="#000000"/>
    <path d="M0.135 0.683v0l0.002 0.007c0 -0.001 -0.001 -0.003 -0.002 -0.007" fill="#69C9D0"/>
    <path d="M0.315 0.414a0.243 0.243 0 0 0 -0.069 0.039 0.258 0.258 0 0 0 -0.058 0.068c-0.006 0.009 -0.027 0.047 -0.03 0.108 -0.002 0.035 0.009 0.07 0.015 0.085v0c0.003 0.008 0.016 0.039 0.037 0.064q0.009 0.011 0.019 0.021a0.267 0.267 0 0 1 -0.058 -0.052c-0.021 -0.025 -0.033 -0.055 -0.037 -0.064v0c-0.005 -0.015 -0.016 -0.051 -0.015 -0.085 0.003 -0.061 0.024 -0.099 0.03 -0.108a0.255 0.255 0 0 1 0.058 -0.068 0.243 0.243 0 0 1 0.069 -0.039 0.24 0.24 0 0 1 0.048 -0.014 0.252 0.252 0 0 1 0.076 -0.001v0.029a0.24 0.24 0 0 0 -0.085 0.017" fill="#69C9D0"/>
    <path d="M0.616 0.121h-0.098v0.497c0 0.017 0 0.034 -0.006 0.051 -0.01 0.027 -0.031 0.051 -0.059 0.062 -0.042 0.016 -0.075 0.014 -0.114 -0.01a0.105 0.105 0 0 1 -0.025 -0.023c0.033 0.017 0.063 0.017 0.1 0.003 0.028 -0.011 0.049 -0.035 0.059 -0.062 0.006 -0.017 0.006 -0.034 0.006 -0.051V0.09h0.135s-0.002 0.012 0.002 0.031M0.801 0.27v0.028a0.219 0.219 0 0 1 -0.046 -0.016c-0.028 -0.013 -0.05 -0.035 -0.055 -0.04q0.008 0.005 0.016 0.009c0.034 0.016 0.068 0.021 0.085 0.02" fill="#69C9D0"/>
</svg>
