<svg id="svg" version="1.1" xmlns="http://www.w3.org/2000/svg" xmlns:xlink="http://www.w3.org/1999/xlink" width="400" height="137.2549019607843" viewBox="0, 0, 400,137.2549019607843">
  <g id="svgg">
    <path id="path0" d="M253.872 37.113 C 253.396 37.211,252.934 38.100,252.676 39.417 C 252.568 39.967,252.340 40.942,252.169 41.583 C 251.997 42.225,251.733 43.387,251.581 44.167 C 251.429 44.946,251.168 46.221,251.001 47.000 C 250.834 47.779,250.569 49.054,250.413 49.833 C 250.137 51.211,249.627 53.614,248.996 56.500 C 248.826 57.279,248.571 58.517,248.429 59.250 C 248.287 59.983,248.023 61.221,247.843 62.000 C 247.662 62.779,247.396 64.017,247.252 64.750 C 247.109 65.483,246.844 66.721,246.665 67.500 C 246.486 68.279,246.256 69.423,246.153 70.043 C 246.013 70.883,245.847 71.295,245.499 71.668 L 245.033 72.167 240.041 72.167 C 234.674 72.167,234.071 72.091,233.896 71.393 C 233.561 70.057,235.879 60.005,236.704 59.214 L 237.188 58.750 241.184 58.667 C 244.485 58.598,245.208 58.540,245.346 58.333 C 245.811 57.635,245.988 57.123,246.243 55.750 C 246.396 54.925,246.622 53.875,246.746 53.417 C 247.312 51.329,247.415 49.803,247.014 49.478 C 246.658 49.190,235.951 49.142,231.641 49.409 C 228.406 49.610,226.538 52.194,225.251 58.250 C 224.498 61.793,224.342 62.540,224.087 63.833 C 223.933 64.612,223.671 65.850,223.505 66.583 C 222.033 73.087,221.323 78.067,221.665 79.492 C 221.952 80.689,222.770 81.383,224.305 81.732 C 225.561 82.018,254.017 82.150,254.433 81.872 C 254.848 81.596,255.213 80.303,256.092 76.000 C 256.326 74.854,256.632 73.429,256.773 72.833 C 256.913 72.237,257.169 70.962,257.341 70.000 C 257.514 69.037,257.848 67.350,258.084 66.250 C 258.321 65.150,258.627 63.612,258.765 62.833 C 258.903 62.054,259.162 60.779,259.340 60.000 C 259.518 59.221,259.811 57.908,259.991 57.083 C 260.170 56.258,260.503 54.758,260.730 53.750 C 260.958 52.742,261.337 50.979,261.572 49.833 C 261.808 48.688,262.153 47.075,262.337 46.250 C 262.522 45.425,262.790 44.188,262.934 43.500 C 263.268 41.898,263.999 38.517,264.105 38.083 C 264.338 37.130,264.113 37.085,258.972 37.060 C 256.375 37.047,254.080 37.071,253.872 37.113 M271.290 37.120 C 270.563 37.230,270.310 37.941,269.409 42.417 C 269.169 43.608,268.828 45.258,268.651 46.083 C 268.474 46.908,268.217 48.108,268.079 48.750 C 267.941 49.392,267.683 50.708,267.506 51.674 C 267.329 52.641,267.105 53.639,267.009 53.893 C 266.365 55.586,266.535 55.667,270.763 55.667 L 274.165 55.667 274.646 55.001 C 274.932 54.607,275.174 54.013,275.240 53.543 C 275.301 53.107,275.491 52.150,275.662 51.417 C 275.833 50.683,276.091 49.483,276.235 48.750 C 276.379 48.017,276.685 46.592,276.915 45.583 C 277.145 44.575,277.449 43.112,277.592 42.333 C 277.734 41.554,277.963 40.568,278.100 40.142 C 278.539 38.775,278.495 37.476,278.000 37.220 C 277.600 37.014,272.495 36.937,271.290 37.120 M97.539 37.505 C 97.066 37.696,96.879 38.176,96.499 40.167 C 96.333 41.037,96.076 42.387,95.928 43.167 C 95.781 43.946,95.515 45.221,95.337 46.000 C 95.160 46.779,94.969 47.717,94.913 48.083 C 94.858 48.450,94.667 49.425,94.490 50.250 C 94.007 52.504,93.415 55.474,92.763 58.917 C 92.607 59.742,92.341 60.979,92.173 61.667 C 92.004 62.354,91.818 63.217,91.760 63.583 C 91.701 63.950,91.513 64.925,91.341 65.750 C 91.169 66.575,90.828 68.262,90.582 69.500 C 90.337 70.737,89.996 72.425,89.825 73.250 C 89.102 76.734,88.983 77.337,88.671 79.066 C 88.490 80.065,88.272 81.115,88.186 81.400 C 88.099 81.684,87.983 82.217,87.928 82.583 C 87.834 83.207,87.336 85.552,86.724 88.250 C 86.579 88.892,86.365 89.904,86.248 90.500 C 86.132 91.096,85.922 92.108,85.782 92.750 C 85.641 93.392,85.402 94.554,85.251 95.333 C 85.099 96.112,84.909 97.050,84.828 97.417 C 84.567 98.602,84.629 99.468,84.989 99.661 C 85.427 99.895,171.059 99.903,171.497 99.668 C 171.852 99.478,172.237 98.390,172.501 96.833 C 172.601 96.237,172.824 95.112,172.996 94.333 C 173.457 92.242,174.232 88.363,174.909 84.750 C 175.133 83.558,175.464 81.833,175.646 80.917 C 175.828 80.000,176.100 78.612,176.250 77.833 C 176.584 76.101,177.078 73.800,177.593 71.583 C 177.805 70.667,178.024 69.617,178.078 69.250 C 178.172 68.612,178.494 67.074,179.175 64.000 C 179.348 63.221,179.604 61.946,179.744 61.167 C 179.884 60.387,180.109 59.225,180.245 58.583 C 180.614 56.844,181.097 54.513,181.591 52.083 C 181.834 50.892,182.172 49.242,182.342 48.417 C 182.917 45.629,183.187 44.256,183.490 42.583 C 183.656 41.667,183.926 40.257,184.090 39.450 C 184.371 38.070,184.372 37.967,184.105 37.700 C 183.782 37.378,98.333 37.185,97.539 37.505 M190.859 38.641 C 190.563 38.937,189.836 41.258,189.830 41.928 C 189.829 42.105,189.711 42.775,189.568 43.417 C 188.885 46.493,188.682 48.072,188.936 48.333 C 189.201 48.606,219.774 48.726,220.667 48.458 C 221.519 48.202,221.882 47.158,222.597 42.917 C 222.737 42.092,222.972 40.865,223.121 40.190 C 223.557 38.213,225.407 38.423,207.108 38.374 C 191.775 38.333,191.157 38.343,190.859 38.641 M109.975 49.042 C 110.523 49.431,111.560 50.263,112.278 50.890 C 112.996 51.517,114.558 52.771,115.750 53.677 C 118.740 55.950,119.558 56.586,121.000 57.758 C 124.449 60.560,126.479 61.035,127.176 59.203 C 127.607 58.069,128.333 55.244,128.333 54.700 C 128.333 54.211,127.148 53.659,125.287 53.282 C 122.995 52.818,122.077 52.062,122.231 50.767 C 122.455 48.887,124.239 48.939,130.500 51.005 C 131.554 51.353,132.679 51.687,133.000 51.747 C 133.565 51.853,133.926 51.958,137.036 52.913 C 139.226 53.586,140.056 54.748,139.159 55.888 C 138.498 56.729,136.982 56.772,134.825 56.013 C 132.364 55.146,132.085 55.255,131.453 57.333 C 130.035 61.996,129.794 61.509,134.083 62.644 C 136.648 63.323,137.032 63.680,138.845 67.073 C 139.305 67.933,139.793 68.731,139.930 68.845 C 140.203 69.071,144.437 68.959,146.500 68.670 C 147.096 68.586,148.933 68.403,150.583 68.262 C 152.233 68.122,154.229 67.930,155.017 67.837 C 162.973 66.895,165.333 67.141,165.333 68.913 C 165.333 69.770,162.439 72.167,161.404 72.167 C 161.347 72.167,161.102 72.306,160.859 72.477 C 160.616 72.648,159.929 73.052,159.333 73.374 C 157.729 74.242,155.785 75.324,155.500 75.508 C 155.362 75.596,155.063 75.759,154.833 75.870 C 154.604 75.980,153.142 76.768,151.583 77.620 C 148.085 79.534,148.607 79.244,144.877 81.341 C 140.655 83.714,140.376 83.859,139.739 84.002 C 139.103 84.146,138.079 83.986,136.417 83.482 C 132.581 82.320,128.115 81.030,127.000 80.762 C 126.496 80.640,125.296 80.301,124.333 80.007 C 123.371 79.713,122.058 79.333,121.417 79.161 C 120.775 78.990,119.575 78.651,118.750 78.407 C 117.925 78.164,116.837 77.859,116.333 77.730 C 109.835 76.065,109.803 76.020,111.410 70.833 C 112.781 66.410,112.983 66.910,108.410 63.417 C 99.950 56.954,100.024 57.097,103.194 53.299 C 103.775 52.603,104.844 51.282,105.571 50.363 C 107.449 47.986,108.181 47.766,109.975 49.042 M286.644 49.337 C 283.235 49.743,281.535 51.800,280.586 56.667 C 279.933 60.020,279.671 61.324,279.415 62.500 C 278.623 66.147,279.189 67.552,281.786 68.382 C 282.879 68.731,283.202 68.744,291.382 68.773 C 298.083 68.797,299.901 68.849,300.110 69.022 C 300.795 69.591,299.925 72.595,299.000 72.851 C 298.771 72.915,293.953 72.974,288.294 72.983 L 278.005 73.000 277.490 73.461 C 276.951 73.942,276.915 74.061,276.258 77.500 C 276.109 78.279,275.876 79.434,275.740 80.066 C 275.519 81.093,275.520 81.256,275.750 81.607 L 276.008 82.000 290.572 82.000 C 307.197 82.000,306.355 82.067,308.069 80.603 C 309.059 79.758,310.189 77.721,310.498 76.228 C 310.590 75.782,310.888 74.323,311.160 72.985 C 311.432 71.648,311.726 70.366,311.813 70.137 C 312.683 67.848,312.584 64.468,311.619 63.537 C 310.614 62.568,310.789 62.586,301.833 62.558 C 290.634 62.523,291.723 62.571,291.242 62.091 C 290.192 61.041,291.173 58.458,292.793 58.008 C 293.192 57.898,296.964 57.835,303.253 57.834 L 313.089 57.833 313.711 57.411 C 314.053 57.178,314.333 56.966,314.333 56.939 C 314.333 56.913,314.549 55.809,314.812 54.487 C 315.746 49.799,315.741 49.837,315.432 49.527 C 315.127 49.222,289.050 49.050,286.644 49.337 M188.110 52.139 C 187.664 52.604,186.893 55.170,186.600 57.167 C 186.539 57.579,186.348 58.554,186.175 59.333 C 185.587 61.979,185.188 63.915,185.092 64.583 C 185.040 64.950,184.849 65.925,184.668 66.750 C 184.327 68.307,183.848 70.650,183.084 74.500 C 182.838 75.737,182.499 77.350,182.330 78.083 C 181.873 80.063,181.748 81.446,181.999 81.749 C 182.244 82.044,212.784 82.137,213.551 81.845 C 214.320 81.553,215.657 77.571,215.670 75.535 C 215.671 75.287,215.786 74.558,215.926 73.917 C 216.554 71.024,217.683 71.333,206.509 71.333 C 198.386 71.333,197.181 71.301,196.997 71.080 C 196.729 70.757,196.868 69.305,197.327 67.633 C 197.510 66.964,197.703 66.135,197.754 65.791 C 197.941 64.555,198.555 64.407,203.167 64.493 C 212.456 64.665,211.985 64.853,212.597 60.735 C 212.743 59.749,212.932 58.763,213.015 58.544 C 213.751 56.608,213.713 56.596,206.417 56.500 L 200.083 56.417 200.027 55.920 C 199.996 55.646,200.102 54.776,200.262 53.985 C 200.751 51.577,200.992 51.667,194.020 51.667 L 188.562 51.667 188.110 52.139 M108.219 52.940 C 107.982 53.036,106.310 55.084,106.013 55.641 C 105.667 56.290,105.930 56.727,107.343 57.846 C 108.085 58.435,109.606 59.651,110.722 60.548 C 113.491 62.775,113.706 62.792,114.254 60.833 C 114.395 60.329,114.654 59.555,114.829 59.113 C 115.275 57.989,115.180 57.851,112.384 55.560 C 109.308 53.040,108.784 52.710,108.219 52.940 M117.693 62.292 C 117.478 62.704,116.402 66.207,115.939 68.000 C 115.808 68.504,115.498 69.592,115.248 70.417 C 114.999 71.242,114.785 72.250,114.772 72.658 L 114.750 73.399 115.833 73.785 C 116.429 73.997,117.292 74.275,117.750 74.403 C 118.208 74.531,119.371 74.872,120.333 75.162 C 121.296 75.451,122.721 75.862,123.500 76.076 C 124.279 76.289,125.442 76.616,126.083 76.804 C 126.725 76.991,127.700 77.263,128.250 77.409 C 129.832 77.828,132.182 78.491,133.000 78.751 C 133.412 78.881,134.200 79.099,134.750 79.233 C 135.300 79.368,136.273 79.633,136.913 79.823 C 139.180 80.493,138.714 80.664,146.833 76.191 C 148.438 75.307,149.955 74.471,150.205 74.333 C 154.104 72.189,154.799 71.353,152.500 71.570 C 151.996 71.617,150.308 71.774,148.750 71.917 C 147.192 72.060,144.642 72.326,143.083 72.508 C 137.885 73.114,138.018 73.170,136.053 69.583 C 135.651 68.850,135.163 67.939,134.969 67.558 C 134.569 66.773,133.865 66.315,132.500 65.952 C 131.688 65.735,129.766 65.170,126.333 64.138 C 125.737 63.959,124.725 63.671,124.083 63.497 C 121.126 62.697,119.881 62.343,119.447 62.178 C 118.716 61.900,117.868 61.955,117.693 62.292 M163.198 76.375 C 164.540 78.175,166.003 81.377,165.996 82.500 C 165.982 84.828,163.356 86.641,161.263 85.766 C 158.797 84.736,158.380 82.413,160.072 79.129 C 161.797 75.780,162.374 75.271,163.198 76.375 M215.396 83.323 C 214.816 83.570,214.334 84.416,214.087 85.619 C 213.087 90.506,212.644 92.577,212.082 95.000 C 211.016 99.591,211.093 99.728,214.777 99.805 C 217.561 99.862,218.584 99.707,218.730 99.205 C 219.189 97.631,218.882 96.667,217.923 96.667 C 217.053 96.667,216.998 95.761,217.689 92.789 C 218.092 91.059,218.274 90.833,219.270 90.833 C 220.525 90.833,221.065 90.015,221.077 88.090 L 221.083 87.096 220.333 86.967 C 219.405 86.807,219.107 86.449,219.249 85.667 C 219.477 84.412,219.507 83.740,219.347 83.500 C 219.151 83.208,215.999 83.067,215.396 83.323 M257.372 83.425 C 256.763 83.851,256.168 85.731,255.764 88.500 C 255.641 89.340,254.940 92.579,254.564 94.037 C 253.689 97.435,253.639 99.269,254.411 99.592 C 256.025 100.266,260.895 99.811,261.067 98.969 C 261.401 97.344,261.272 96.899,260.420 96.740 C 259.459 96.559,259.341 96.241,259.610 94.538 C 260.069 91.638,260.348 91.024,261.263 90.900 C 261.623 90.851,262.079 90.779,262.276 90.740 C 262.752 90.645,263.291 89.512,263.431 88.314 C 263.556 87.246,263.502 87.178,262.333 86.914 L 261.583 86.746 261.600 85.914 C 261.609 85.457,261.674 84.811,261.744 84.477 C 261.966 83.417,261.528 83.167,259.454 83.167 C 258.176 83.167,257.647 83.232,257.372 83.425 M182.812 86.957 C 181.508 87.001,181.156 87.069,180.929 87.320 C 180.538 87.752,180.227 89.717,180.466 90.242 L 180.649 90.644 184.466 90.697 C 189.116 90.762,189.284 90.846,188.604 92.774 C 188.478 93.131,188.321 93.834,188.254 94.337 C 188.048 95.890,187.645 96.167,185.585 96.167 C 183.797 96.167,183.500 96.056,183.500 95.389 C 183.500 94.937,183.945 94.667,184.697 94.665 C 186.570 94.659,187.606 93.960,187.451 92.806 C 187.323 91.853,187.272 91.839,184.035 91.836 C 180.259 91.833,179.311 92.290,178.851 94.337 C 178.758 94.747,178.562 95.421,178.415 95.833 C 177.982 97.050,177.887 99.199,178.253 99.503 C 178.596 99.788,190.508 99.970,191.531 99.706 C 192.069 99.567,192.093 99.523,192.455 97.990 C 193.628 93.017,194.105 90.655,194.291 88.895 C 194.499 86.931,192.677 86.624,182.812 86.957 M197.538 86.941 C 196.985 87.063,196.727 87.576,196.420 89.167 C 196.113 90.755,195.534 93.381,194.914 96.000 C 193.957 100.047,193.598 99.866,202.441 99.797 C 209.473 99.742,209.006 99.867,209.311 97.954 C 209.417 97.292,209.649 96.112,209.827 95.333 C 210.283 93.341,210.943 90.266,211.167 89.083 C 211.272 88.533,211.392 87.960,211.434 87.809 C 211.583 87.279,211.070 87.040,209.548 86.934 C 207.134 86.764,206.508 87.086,206.179 88.667 C 206.093 89.079,205.862 90.204,205.666 91.167 C 204.625 96.268,204.691 96.167,202.410 96.167 C 199.957 96.167,199.877 95.721,201.327 90.098 C 201.697 88.661,201.772 87.251,201.486 87.074 C 201.260 86.935,198.054 86.827,197.538 86.941 M226.076 86.980 C 223.256 87.138,222.556 87.920,221.918 91.617 C 221.626 93.316,221.232 95.238,220.811 97.023 C 220.135 99.894,219.994 99.834,227.417 99.829 C 233.591 99.825,234.193 99.761,234.765 99.053 C 235.152 98.573,235.846 96.071,236.166 94.000 C 236.258 93.404,236.446 92.504,236.584 92.000 C 237.252 89.552,237.093 87.595,236.190 87.157 C 235.693 86.915,229.235 86.803,226.076 86.980 M295.606 86.989 C 294.037 87.210,293.611 87.755,292.988 90.342 C 292.714 91.483,292.343 92.979,292.164 93.667 C 291.692 95.484,291.333 97.582,291.333 98.527 C 291.333 99.824,291.383 99.833,298.167 99.833 C 304.689 99.833,304.879 99.803,305.057 98.727 C 305.447 96.361,305.399 96.333,300.893 96.333 C 296.438 96.333,296.396 96.312,297.079 94.417 C 297.211 94.050,297.322 93.412,297.327 93.000 C 297.343 91.410,298.083 90.833,300.105 90.833 C 301.613 90.833,302.000 91.004,302.000 91.667 C 302.000 92.324,301.613 92.500,300.165 92.500 C 298.842 92.500,297.997 93.032,298.003 93.862 C 298.009 94.827,298.624 94.991,302.250 94.995 C 306.292 95.000,306.312 94.989,306.864 92.437 C 307.044 91.601,307.258 90.617,307.339 90.250 C 307.694 88.636,307.392 87.300,306.631 87.111 C 305.974 86.949,296.632 86.845,295.606 86.989 M240.625 87.262 C 239.953 87.626,239.437 88.812,238.906 91.209 C 238.122 94.754,238.301 94.917,242.987 94.917 C 246.446 94.917,246.833 94.993,246.833 95.677 C 246.833 96.202,246.514 96.248,242.300 96.333 C 237.614 96.428,237.929 96.319,237.475 98.011 C 236.980 99.855,236.608 99.740,243.297 99.802 C 251.368 99.876,251.279 99.903,251.741 97.302 C 251.859 96.632,252.086 95.647,252.244 95.113 C 252.581 93.972,252.492 93.466,251.838 92.812 L 251.359 92.333 248.085 92.333 C 244.587 92.333,244.167 92.252,244.167 91.573 C 244.167 90.921,244.706 90.833,248.742 90.833 C 253.066 90.833,253.058 90.836,253.333 89.352 C 253.581 88.016,253.547 87.220,253.236 87.101 C 252.606 86.859,241.097 87.006,240.625 87.262 M265.981 87.560 C 264.882 88.399,264.509 89.487,263.584 94.550 C 263.453 95.264,263.226 96.278,263.079 96.801 C 262.615 98.455,262.778 99.371,263.583 99.634 C 264.317 99.874,276.021 99.860,276.500 99.618 C 276.975 99.379,277.473 98.376,277.725 97.149 C 277.864 96.471,278.096 95.429,278.241 94.833 C 279.412 90.011,279.554 88.070,278.782 87.404 L 278.315 87.000 272.515 87.000 L 266.715 87.000 265.981 87.560 M282.100 87.375 C 281.967 87.581,281.808 88.050,281.748 88.417 C 281.687 88.783,281.454 89.908,281.230 90.917 C 279.414 99.085,279.404 99.142,279.727 99.465 C 280.083 99.822,282.897 99.967,283.859 99.679 C 284.606 99.455,284.567 99.578,285.494 94.538 C 286.053 91.502,286.374 91.173,288.781 91.169 C 291.232 91.165,291.546 90.913,291.871 88.682 C 292.042 87.511,292.036 87.291,291.827 87.159 C 291.395 86.886,288.379 86.968,287.798 87.268 C 287.322 87.514,287.234 87.514,286.718 87.268 C 285.752 86.808,282.415 86.885,282.100 87.375 M230.985 91.442 C 231.676 91.926,231.170 94.908,230.271 95.650 C 229.546 96.249,226.636 96.025,226.423 95.354 C 226.182 94.595,226.814 92.261,227.411 91.708 C 228.112 91.059,230.214 90.902,230.985 91.442 M273.504 91.500 C 273.868 92.076,273.275 94.936,272.659 95.571 C 272.215 96.030,269.698 96.168,269.086 95.767 C 268.252 95.220,268.823 92.203,269.893 91.499 C 270.553 91.065,273.230 91.066,273.504 91.500 " stroke="none" fill="#eeeeee" fill-rule="evenodd"/>
  </g>
</svg>
