<svg id="svg" version="1.1" xmlns="http://www.w3.org/2000/svg" xmlns:xlink="http://www.w3.org/1999/xlink" width="400" height="137.2549019607843" viewBox="0, 0, 400,137.2549019607843">
  <g id="svgg">
    <path id="path0" d="M67.500 34.801 C 67.500 35.223,68.318 36.456,69.140 37.272 C 70.387 38.511,70.216 38.694,67.452 39.082 C 66.465 39.221,65.115 39.480,64.453 39.658 C 61.226 40.527,61.083 40.548,58.033 40.628 C 55.399 40.697,54.990 40.743,55.033 40.965 C 55.104 41.331,56.735 42.132,57.818 42.332 C 59.105 42.570,59.290 43.393,58.140 43.759 C 56.225 44.366,53.482 47.940,52.325 51.333 C 51.363 54.157,51.383 60.504,52.359 61.745 C 52.857 62.378,52.929 62.293,53.243 60.711 C 53.579 59.019,54.436 57.102,55.232 56.258 C 55.738 55.722,56.322 55.476,56.341 55.792 C 56.345 55.860,56.372 57.454,56.402 59.333 C 56.484 64.531,57.849 68.287,60.850 71.570 C 62.225 73.074,62.292 72.805,61.150 70.376 C 60.024 67.981,60.160 66.570,61.370 68.102 C 62.098 69.025,64.600 71.433,65.583 72.158 C 67.243 73.381,68.606 74.286,69.750 74.924 C 71.182 75.723,73.069 77.230,74.643 78.832 C 75.453 79.657,75.857 79.966,75.918 79.806 C 76.070 79.411,74.985 77.633,73.968 76.612 C 71.769 74.404,72.633 74.508,80.167 77.356 C 88.537 80.520,91.759 84.341,91.744 91.083 C 91.736 94.550,91.520 95.262,89.572 98.250 C 86.427 103.074,78.762 103.115,73.802 98.334 C 72.486 97.065,72.742 96.499,74.505 96.783 C 75.511 96.945,76.221 96.800,75.579 96.564 C 75.398 96.498,75.038 96.269,74.779 96.055 C 74.520 95.841,74.232 95.667,74.139 95.667 C 73.805 95.667,72.461 94.576,72.219 94.107 C 71.856 93.406,72.094 93.290,73.975 93.249 C 76.447 93.196,78.754 92.093,77.123 91.743 C 74.770 91.240,71.492 88.691,70.103 86.287 C 69.123 84.590,69.088 84.620,68.424 87.667 C 67.762 90.712,67.015 92.278,64.949 94.960 C 64.508 95.532,64.193 96.075,64.250 96.167 C 64.623 96.770,67.823 95.523,69.048 94.298 C 69.502 93.845,70.167 93.903,70.167 94.396 C 70.167 95.278,69.033 97.517,68.262 98.157 C 67.922 98.439,68.081 98.667,68.618 98.667 C 68.883 98.667,69.400 98.378,69.961 97.917 C 71.075 97.000,71.004 96.999,71.689 97.929 C 73.832 100.842,75.053 101.908,77.537 103.034 L 78.750 103.583 82.917 103.583 L 87.083 103.583 88.167 103.089 C 91.763 101.450,94.393 98.457,95.861 94.333 C 98.804 86.066,95.704 77.231,88.083 72.166 C 87.350 71.678,86.563 71.154,86.333 71.001 C 85.884 70.700,82.405 69.000,82.239 69.000 C 82.090 69.000,79.912 68.053,78.583 67.410 C 73.815 65.102,71.507 61.702,71.502 56.977 C 71.499 54.528,71.663 54.238,73.027 54.273 C 75.512 54.337,78.102 55.798,80.761 58.634 C 82.088 60.049,82.093 60.050,82.736 58.719 C 82.994 58.186,83.325 57.508,83.472 57.211 C 83.881 56.388,83.562 56.165,82.537 56.558 C 81.062 57.124,81.000 57.119,81.000 56.428 C 81.000 56.092,81.117 55.590,81.260 55.314 C 81.852 54.168,81.700 54.083,79.051 54.083 C 76.234 54.083,76.083 54.010,76.816 52.998 C 77.432 52.147,77.406 52.089,76.292 51.828 C 73.257 51.117,71.672 49.263,72.586 47.495 C 73.056 46.586,73.638 46.418,76.333 46.417 C 79.754 46.416,81.247 47.241,81.596 49.322 C 81.848 50.825,82.115 50.964,83.830 50.478 C 85.436 50.024,85.477 50.068,85.536 52.308 L 85.583 54.083 86.250 54.069 C 86.617 54.061,87.254 53.900,87.667 53.711 C 90.296 52.508,90.917 53.007,89.834 55.453 C 89.473 56.269,89.398 57.084,89.668 57.251 C 89.761 57.308,90.787 56.469,91.948 55.386 C 93.110 54.303,94.394 53.111,94.802 52.738 C 95.704 51.913,95.605 51.464,94.456 51.156 C 94.068 51.052,93.412 50.858,93.000 50.724 C 92.587 50.591,91.847 50.369,91.355 50.230 C 90.863 50.092,90.189 49.834,89.857 49.656 C 89.526 49.479,89.189 49.333,89.108 49.333 C 88.780 49.333,86.305 47.735,85.745 47.161 C 85.149 46.551,85.194 45.333,85.812 45.333 C 86.073 45.333,86.369 44.210,86.251 43.669 C 86.105 43.008,84.891 41.960,83.515 41.308 C 79.282 39.301,78.518 38.876,77.050 37.708 C 76.290 37.104,75.897 37.002,76.084 37.458 C 76.967 39.603,74.434 38.776,68.935 35.125 C 67.896 34.435,67.500 34.346,67.500 34.801 M79.696 41.884 C 80.092 42.187,80.754 42.749,81.167 43.132 C 81.579 43.516,81.974 43.830,82.044 43.831 C 82.331 43.836,82.822 44.896,82.639 45.116 C 81.969 45.924,79.909 44.629,78.933 42.785 C 78.172 41.348,78.494 40.966,79.696 41.884 M113.400 55.128 C 112.960 55.421,112.306 57.854,112.089 60.000 C 112.029 60.596,111.874 61.458,111.744 61.917 C 111.615 62.375,111.425 63.458,111.322 64.323 C 111.219 65.189,111.063 66.086,110.975 66.317 C 110.887 66.547,110.704 67.586,110.567 68.625 C 110.431 69.664,110.250 70.697,110.165 70.920 C 110.080 71.144,109.894 72.276,109.751 73.437 C 109.404 76.247,109.335 76.167,112.105 76.167 C 114.681 76.167,114.793 76.016,115.339 71.833 C 115.619 69.683,116.226 66.952,116.440 66.881 C 116.629 66.818,117.377 68.005,117.593 68.710 C 117.655 68.916,117.872 69.458,118.075 69.917 C 118.278 70.375,118.615 71.162,118.824 71.667 C 119.033 72.171,119.380 72.996,119.594 73.500 C 119.809 74.004,120.029 74.582,120.084 74.783 C 120.422 76.026,123.859 76.833,125.063 75.952 C 125.364 75.732,126.007 72.998,126.248 70.917 C 126.312 70.367,126.472 69.435,126.603 68.846 C 126.735 68.257,126.953 66.982,127.089 66.013 C 127.225 65.043,127.408 64.025,127.496 63.750 C 127.584 63.475,127.737 62.575,127.836 61.750 C 127.935 60.925,128.128 59.817,128.264 59.288 C 129.191 55.681,128.890 54.999,126.369 55.003 C 123.791 55.006,123.547 55.253,123.164 58.250 C 123.059 59.075,122.871 60.163,122.747 60.667 C 122.623 61.171,122.441 62.172,122.343 62.892 C 122.084 64.796,121.570 64.840,120.889 63.017 C 120.732 62.595,120.513 62.100,120.403 61.917 C 120.294 61.733,120.111 61.283,119.997 60.917 C 119.883 60.550,119.734 60.175,119.665 60.083 C 119.538 59.914,118.926 58.462,118.317 56.883 C 117.678 55.228,117.312 55.000,115.308 55.003 C 114.359 55.004,113.501 55.060,113.400 55.128 M186.932 55.317 C 186.448 55.851,185.782 58.823,185.950 59.699 C 186.072 60.339,186.278 60.386,189.417 60.490 L 192.250 60.583 192.229 61.088 C 192.218 61.371,191.701 62.509,191.056 63.672 C 190.422 64.815,189.808 65.938,189.692 66.167 C 189.576 66.396,189.264 66.958,188.999 67.417 C 188.734 67.875,188.364 68.550,188.177 68.917 C 187.990 69.283,187.766 69.696,187.679 69.833 C 187.084 70.770,185.098 74.487,184.915 75.005 C 184.542 76.063,184.798 76.167,187.774 76.167 L 190.271 76.167 190.708 75.708 C 190.948 75.456,191.555 74.462,192.057 73.500 C 192.559 72.537,193.392 70.962,193.909 70.000 C 194.427 69.037,195.035 67.875,195.263 67.417 C 195.490 66.958,196.033 65.908,196.471 65.083 C 196.908 64.258,197.778 62.608,198.404 61.417 C 199.029 60.225,199.608 59.166,199.690 59.063 C 200.393 58.180,200.771 56.011,200.321 55.439 L 199.976 55.000 193.597 55.000 C 187.543 55.000,187.204 55.016,186.932 55.317 M207.667 55.239 C 207.438 55.366,207.025 55.780,206.750 56.160 C 206.475 56.540,205.912 57.291,205.500 57.828 C 204.203 59.516,201.774 62.865,201.271 63.657 C 201.006 64.075,200.660 64.606,200.501 64.837 C 200.343 65.067,200.156 65.442,200.085 65.670 C 200.015 65.897,199.814 66.368,199.638 66.715 C 199.174 67.635,198.940 69.865,199.150 71.370 C 200.116 78.317,210.786 78.733,214.360 71.963 C 215.167 70.434,215.210 66.623,214.436 65.199 C 213.568 63.603,211.998 62.370,210.285 61.940 C 209.342 61.704,209.420 61.536,212.238 57.759 C 213.190 56.482,213.342 56.184,213.300 55.676 L 213.250 55.083 210.667 55.046 C 208.724 55.018,207.980 55.066,207.667 55.239 M230.290 55.181 C 229.988 55.357,229.358 56.486,228.933 57.613 C 228.006 60.072,227.095 62.395,225.968 65.167 C 225.443 66.461,224.816 68.093,224.401 69.250 C 224.270 69.617,224.059 70.104,223.932 70.333 C 223.805 70.563,223.625 71.012,223.530 71.333 C 223.436 71.654,223.053 72.648,222.680 73.542 C 221.598 76.130,221.630 76.167,224.914 76.167 C 227.515 76.167,227.824 76.014,228.193 74.549 C 228.499 73.333,228.868 73.167,231.252 73.167 C 233.624 73.167,233.619 73.164,233.775 74.650 C 233.926 76.095,234.063 76.167,236.678 76.167 C 239.609 76.167,239.403 76.549,239.261 71.381 C 239.154 67.463,239.058 65.447,238.654 58.667 C 238.415 54.645,238.837 54.999,234.288 55.005 C 232.068 55.008,230.466 55.079,230.290 55.181 M259.976 57.337 C 259.805 57.437,259.559 58.099,259.322 59.095 C 258.989 60.495,258.874 60.746,258.396 61.110 C 257.353 61.906,256.894 64.233,257.593 65.180 C 258.103 65.871,258.115 66.609,257.647 68.500 C 256.431 73.417,258.035 76.667,261.678 76.667 C 263.507 76.667,264.074 76.113,264.377 74.034 C 264.652 72.146,264.505 71.638,263.599 71.338 C 262.764 71.063,262.705 70.642,263.168 68.256 C 263.638 65.831,263.791 65.537,264.666 65.397 C 265.659 65.239,265.811 65.043,266.186 63.452 C 266.593 61.727,266.445 61.265,265.424 61.074 C 264.555 60.911,264.409 60.645,264.640 59.646 C 264.938 58.356,264.892 57.543,264.511 57.339 C 264.106 57.123,260.346 57.121,259.976 57.337 M340.443 57.471 C 340.211 57.727,339.869 58.891,339.571 60.441 C 339.533 60.638,339.238 60.955,338.915 61.145 C 337.859 61.768,337.491 64.156,338.269 65.332 L 338.723 66.019 338.447 67.218 C 337.431 71.629,337.747 74.508,339.379 75.722 C 340.842 76.810,343.207 77.002,344.140 76.109 C 345.199 75.095,345.512 71.500,344.541 71.500 C 343.671 71.500,343.447 71.046,343.558 69.516 C 343.754 66.837,344.385 65.333,345.313 65.333 C 346.348 65.333,346.796 64.436,346.823 62.312 C 346.835 61.446,346.628 61.186,345.791 61.011 L 345.250 60.897 345.302 59.210 C 345.366 57.126,345.417 57.167,342.703 57.167 C 340.994 57.167,340.680 57.209,340.443 57.471 M88.551 60.328 C 86.305 60.674,84.543 62.891,84.705 65.165 C 85.125 71.032,94.720 70.794,94.720 64.917 C 94.721 61.855,91.961 59.803,88.551 60.328 M133.056 60.937 C 129.863 62.243,127.931 67.064,128.511 72.273 C 128.985 76.534,132.375 78.128,135.653 75.632 C 136.050 75.329,136.063 75.331,136.495 75.746 C 136.917 76.150,137.018 76.167,139.014 76.167 C 141.507 76.167,141.763 76.053,141.917 74.872 C 141.974 74.438,142.164 73.371,142.339 72.500 C 142.515 71.629,142.740 70.291,142.839 69.526 C 142.939 68.761,143.081 67.974,143.156 67.776 C 143.231 67.578,143.377 66.742,143.482 65.917 C 143.586 65.092,143.791 63.910,143.937 63.291 C 144.395 61.351,144.036 61.002,141.583 61.002 C 139.879 61.002,139.210 61.231,138.878 61.927 C 138.536 62.645,138.448 62.642,137.788 61.890 C 136.604 60.542,134.873 60.193,133.056 60.937 M149.522 60.915 C 147.038 61.966,145.399 64.523,144.910 68.114 C 144.102 74.052,146.993 77.222,151.314 75.137 C 152.548 74.542,152.667 74.530,152.667 75.003 C 152.667 76.701,149.738 77.908,147.367 77.188 C 146.033 76.783,145.443 76.743,145.215 77.042 C 144.943 77.397,144.464 79.458,144.440 80.376 L 144.417 81.250 145.204 81.641 C 147.541 82.800,152.609 82.373,154.905 80.824 C 156.629 79.660,158.026 77.076,158.413 74.333 C 158.471 73.921,158.663 72.833,158.839 71.917 C 159.148 70.309,159.519 68.175,159.852 66.083 C 159.940 65.533,160.122 64.470,160.256 63.720 C 160.621 61.681,160.600 61.525,159.922 61.241 C 158.921 60.823,155.333 61.007,155.333 61.476 C 155.333 62.115,154.864 62.219,154.230 61.720 C 152.592 60.431,151.222 60.197,149.522 60.915 M165.751 60.856 C 162.819 62.044,160.917 65.871,160.917 70.583 C 160.917 75.666,163.707 78.114,167.291 76.173 C 168.332 75.609,168.781 75.549,169.260 75.911 C 169.858 76.364,173.761 76.266,174.067 75.792 C 174.359 75.339,174.761 73.756,174.904 72.500 C 174.961 71.996,175.153 70.833,175.331 69.917 C 175.508 69.000,175.727 67.762,175.818 67.167 C 175.908 66.571,176.098 65.544,176.241 64.885 C 176.992 61.415,176.809 61.083,174.147 61.083 L 172.143 61.083 171.697 61.627 C 171.181 62.253,170.603 62.333,170.293 61.819 C 169.628 60.716,167.309 60.224,165.751 60.856 M272.559 60.905 C 268.746 62.148,266.634 65.372,266.601 70.000 C 266.568 74.506,268.618 76.718,272.833 76.726 C 277.023 76.734,279.939 74.296,281.096 69.815 C 282.722 63.519,278.395 59.004,272.559 60.905 M286.631 60.886 C 282.477 62.237,281.727 66.918,285.174 69.989 C 287.287 71.873,286.996 72.552,284.237 72.174 C 282.151 71.887,281.995 72.017,281.672 74.297 C 281.394 76.262,282.110 76.730,285.417 76.742 C 291.956 76.766,294.412 72.056,290.175 67.616 C 287.874 65.205,288.010 64.610,290.754 65.089 L 292.230 65.346 292.611 64.964 C 293.347 64.229,293.587 61.671,292.958 61.266 C 291.716 60.466,288.515 60.274,286.631 60.886 M303.083 61.009 C 302.533 61.275,301.952 61.588,301.792 61.704 C 301.557 61.874,301.443 61.874,301.208 61.704 C 300.126 60.922,296.735 60.693,296.071 61.358 C 295.801 61.627,295.133 64.562,294.919 66.417 C 294.855 66.967,294.666 68.017,294.498 68.750 C 294.331 69.483,294.144 70.571,294.083 71.167 C 294.022 71.762,293.870 72.662,293.745 73.167 C 293.620 73.671,293.433 74.758,293.329 75.583 C 293.224 76.408,293.034 77.450,292.905 77.899 C 292.776 78.347,292.622 79.296,292.563 80.006 C 292.423 81.686,292.467 81.713,295.258 81.638 C 297.774 81.571,297.769 81.575,298.081 79.569 C 298.348 77.855,298.930 75.181,299.066 75.046 C 299.116 74.995,299.455 75.222,299.819 75.551 C 301.653 77.208,303.967 77.188,305.930 75.498 C 309.225 72.660,310.312 64.517,307.773 61.686 C 306.697 60.486,304.745 60.204,303.083 61.009 M316.249 60.893 C 309.217 63.172,307.576 73.756,313.851 76.359 C 319.698 78.784,325.873 72.747,324.838 65.619 C 324.265 61.679,320.395 59.550,316.249 60.893 M233.655 64.521 C 233.669 68.156,233.723 68.039,232.057 67.966 L 230.917 67.917 230.940 67.417 C 230.967 66.853,231.369 65.589,231.847 64.565 C 232.023 64.188,232.167 63.781,232.167 63.659 C 232.167 63.538,232.311 63.134,232.487 62.761 C 232.664 62.388,232.934 61.783,233.088 61.417 C 233.527 60.370,233.642 60.999,233.655 64.521 M243.506 61.139 C 242.885 61.325,242.539 62.092,242.336 63.727 C 242.235 64.540,242.051 65.596,241.926 66.075 C 241.801 66.554,241.647 67.464,241.584 68.098 C 241.521 68.732,241.355 69.700,241.215 70.250 C 239.880 75.499,243.382 78.343,247.528 75.378 L 248.307 74.821 248.423 75.202 C 248.693 76.088,248.907 76.167,251.033 76.167 C 253.513 76.167,253.697 76.041,253.977 74.152 C 254.078 73.473,254.314 72.092,254.501 71.083 C 254.689 70.075,254.917 68.689,255.009 68.003 C 255.101 67.317,255.252 66.492,255.344 66.170 C 255.569 65.382,255.930 62.361,255.865 61.805 C 255.795 61.199,255.147 60.996,253.350 61.017 C 250.929 61.045,250.481 61.458,250.253 63.876 C 250.190 64.540,250.028 65.571,249.892 66.167 C 249.756 66.762,249.547 67.887,249.427 68.667 C 249.122 70.658,248.448 71.667,247.425 71.667 C 246.597 71.667,246.648 69.234,247.563 65.166 C 247.971 63.350,248.059 61.801,247.776 61.420 C 247.513 61.065,244.428 60.862,243.506 61.139 M328.583 61.138 C 328.179 61.230,328.046 61.380,327.891 61.918 C 327.571 63.027,327.181 65.004,326.992 66.474 C 326.894 67.239,326.746 68.041,326.664 68.257 C 326.582 68.473,326.429 69.310,326.324 70.117 C 326.219 70.923,325.991 72.183,325.818 72.917 C 325.096 75.967,325.231 76.167,328.015 76.167 C 330.737 76.167,330.754 76.154,331.082 74.000 C 331.214 73.129,331.393 72.177,331.480 71.884 C 331.567 71.591,331.691 70.861,331.755 70.262 C 331.960 68.346,333.187 67.038,335.115 66.677 C 336.110 66.491,336.428 66.106,336.578 64.903 C 336.643 64.384,336.802 63.659,336.931 63.292 C 337.746 60.983,336.302 60.185,334.316 61.848 L 333.452 62.571 333.184 62.196 C 332.341 61.015,332.492 61.086,330.723 61.054 C 329.821 61.038,328.858 61.076,328.583 61.138 M137.065 65.650 C 139.033 67.317,136.668 73.334,134.652 71.786 C 133.695 71.051,133.761 67.858,134.765 66.341 C 135.473 65.270,136.316 65.017,137.065 65.650 M153.314 65.438 C 155.053 66.656,153.877 71.409,151.836 71.409 C 150.736 71.409,150.583 71.119,150.583 69.035 C 150.583 66.310,151.963 64.492,153.314 65.438 M303.013 65.654 C 303.654 66.295,303.735 68.881,303.154 70.167 C 301.954 72.820,299.752 72.505,299.750 69.680 C 299.749 66.617,301.641 64.282,303.013 65.654 M169.641 65.642 C 170.437 66.254,170.447 69.214,169.658 70.583 C 168.332 72.884,166.398 72.293,166.445 69.602 C 166.497 66.648,168.202 64.535,169.641 65.642 M275.427 65.844 C 276.611 67.080,275.387 71.491,273.747 71.903 C 272.125 72.310,271.489 69.676,272.603 67.167 C 273.370 65.438,274.522 64.899,275.427 65.844 M318.945 65.764 C 319.570 66.389,319.470 69.202,318.782 70.378 C 317.688 72.244,316.387 72.467,315.732 70.900 C 314.708 68.449,317.372 64.190,318.945 65.764 M208.542 67.509 C 209.708 68.773,208.511 71.250,206.732 71.250 C 204.668 71.250,204.508 68.198,206.519 67.191 C 207.403 66.749,207.914 66.829,208.542 67.509 " stroke="none" fill="#f1f1f1" fill-rule="evenodd"/>
  </g>
</svg>
