<svg fill="#000000" width="100px" height="100px" viewBox="0.7 0.15 0.45 2" xmlns="http://www.w3.org/2000/svg" class="cf-icon-svg">
  <path d="M0.331 1.907a2.125 2.125 0 0 1 -0.088 -0.002l-0.014 -0.003a0.189 0.189 0 0 1 -0.142 -0.148l-0.002 -0.011c-0.001 -0.013 -0.001 -0.051 -0.001 -0.083V0.554a0.06 0.06 0 0 1 0.059 -0.059H1.471a0.059 0.059 0 0 1 0.059 0.059v0.191h0.199a0.063 0.063 0 0 1 0.063 0.063v0.899a0.2 0.2 0 0 1 -0.2 0.2zm0 -0.139h1.071a0.2 0.2 0 0 1 -0.01 -0.061v-0.272l0 -0.014v-0.789H0.221v1.026c0 0.027 0 0.054 0.001 0.068l0 0.001a0.05 0.05 0 0 0 0.037 0.039l0.001 0c0.017 0.001 0.045 0.001 0.07 0.001M1.239 0.852H0.369v0.139h0.87zm-0.5 0.298H0.369v0.442h0.37zm0.5 0.003H0.879v0.139h0.36zm0 0.301H0.879v0.139h0.36zm0.292 -0.57v0.824a0.061 0.061 0 0 0 0.123 0V0.884z"/>
</svg>
