<svg width="100px" height="100px" viewBox="0 0 100 100" id="icon" xmlns="http://www.w3.org/2000/svg">
  <defs>
    <style>
      .cls-1{fill:none;}
    </style>
  </defs>
  <title>policy</title>
  <path d="M93.75 56.25a18.75 18.75 0 1 0 -31.25 13.938V93.75l12.5 -5.916L87.5 93.75v-23.563A18.688 18.688 0 0 0 93.75 56.25m-12.5 27.625 -6.25 -2.959 -6.25 2.959v-9.969a18.438 18.438 0 0 0 12.5 0ZM75 68.75a12.5 12.5 0 1 1 12.5 -12.5 12.516 12.516 0 0 1 -12.5 12.5"/>
  <path x="9" y="14" width="7" height="2" d="M28.125 43.75H50V50H28.125V43.75z"/>
  <path x="9" y="8" width="10" height="2" d="M28.125 25H59.375V31.25H28.125V25z"/>
  <path d="M18.75 93.75a6.25 6.25 0 0 1 -6.25 -6.25V12.5a6.25 6.25 0 0 1 6.25 -6.25h50a6.25 6.25 0 0 1 6.25 6.25v12.5h-6.25V12.5H18.75v75h31.25v6.25Z"/>
  <path id="_Transparent_Rectangle_" data-name="&amp;lt;Transparent Rectangle&amp;gt;" class="cls-1" width="32" height="32" d="M0 0H100V100H0V0z"/>
</svg>
