<svg width="100px" height="100px" viewBox="0 0 3 3" xmlns="http://www.w3.org/2000/svg" fill="none">
  <path fill="#ffffff" fill-rule="evenodd" d="M1.411 2.713 1.5 2.625zM1.5 2.625l0.088 0.088a0.125 0.125 0 0 1 -0.177 0l-0.001 -0.001 -0.002 -0.002 -0.008 -0.008a6 6 0 0 1 -0.13 -0.138 6.25 6.25 0 0 1 -0.307 -0.363c-0.112 -0.144 -0.226 -0.306 -0.312 -0.467C0.567 1.577 0.5 1.406 0.5 1.25c0 -0.567 0.449 -1 1 -1s1 0.433 1 1c0 0.156 -0.067 0.327 -0.152 0.484 -0.087 0.161 -0.201 0.323 -0.312 0.467a6.25 6.25 0 0 1 -0.437 0.502l-0.008 0.008 -0.002 0.002 -0.001 0.001zm0 -1a0.375 0.375 0 1 0 0 -0.75 0.375 0.375 0 0 0 0 0.75" clip-rule="evenodd"/>
</svg>
