<svg version="1.1" id="Capa_1" xmlns="http://www.w3.org/2000/svg" xmlns:xlink="http://www.w3.org/1999/xlink" x="0px" y="0px" width="100px" height="100px" viewBox="0 0 100 100" style="enable-background:new 0 0 478.248 478.248;" xml:space="preserve">
  <g>
    <g>
      <g>
        <path d="M95.352 9.372H55.375c-2.564 0 -4.649 2.085 -4.649 4.648v20.628c0 2.563 2.086 4.648 4.649 4.648h3.51v8.188a1.447 1.447 0 0 0 1.447 1.447 1.443 1.443 0 0 0 0.946 -0.352l10.744 -9.283h23.33c2.564 0 4.648 -2.085 4.648 -4.648V14.02c0.001 -2.563 -2.085 -4.648 -4.648 -4.648m-28.458 14.1 -2.135 2.081 0.504 2.939a0.565 0.565 0 0 1 -0.225 0.553 0.562 0.562 0 0 1 -0.595 0.043l-2.639 -1.387 -2.639 1.387c-0.191 0.1 -0.422 0.083 -0.596 -0.043s-0.261 -0.34 -0.225 -0.553l0.504 -2.939 -2.135 -2.081a0.567 0.567 0 0 1 -0.143 -0.579 0.565 0.565 0 0 1 0.456 -0.385l2.95 -0.429 1.319 -2.674c0.096 -0.193 0.292 -0.315 0.507 -0.315s0.412 0.122 0.506 0.315l1.32 2.674 2.95 0.429a0.567 0.567 0 0 1 0.457 0.385 0.565 0.565 0 0 1 -0.143 0.579m13.559 0 -2.135 2.081 0.504 2.939a0.566 0.566 0 0 1 -0.557 0.661c-0.09 0 -0.18 -0.022 -0.263 -0.065l-2.639 -1.387 -2.639 1.387a0.566 0.566 0 0 1 -0.82 -0.596l0.504 -2.939 -2.135 -2.081a0.567 0.567 0 0 1 -0.143 -0.579 0.565 0.565 0 0 1 0.456 -0.385l2.95 -0.429 1.32 -2.674a0.565 0.565 0 0 1 1.013 0l1.32 2.674 2.95 0.429a0.565 0.565 0 0 1 0.313 0.964m13.558 0 -2.135 2.081 0.504 2.939a0.565 0.565 0 0 1 -0.82 0.596l-2.639 -1.387 -2.639 1.387a0.565 0.565 0 0 1 -0.82 -0.596l0.504 -2.939 -2.135 -2.081a0.565 0.565 0 0 1 0.313 -0.964l2.951 -0.429 1.32 -2.674a0.565 0.565 0 0 1 0.506 -0.315c0.215 0 0.412 0.122 0.507 0.315L90.748 22.079l2.95 0.429a0.565 0.565 0 0 1 0.313 0.964"/>
        <path d="M31.959 23.612c-9.777 0 -15.189 5.067 -15.09 14.829 0.143 13.371 5.825 21.483 15.09 21.341 0 0 15.082 0.611 15.082 -21.341 0 -9.763 -5.096 -14.829 -15.082 -14.829"/>
        <path d="m58.637 69.931 -15.07 -6.009 -3.529 -2.974c-0.932 -0.787 -2.309 -0.729 -3.174 0.13l-4.906 4.879 -4.921 -4.881a2.35 2.35 0 0 0 -3.171 -0.129l-3.53 2.974 -15.07 6.009C0.413 71.864 0.417 89.051 0 90.628h63.91c-0.416 -1.574 -0.418 -18.766 -5.273 -20.697"/>
      </g>
    </g>
  </g>
</svg>