<svg fill="#ffffff" version="1.1" id="Layer_1" xmlns="http://www.w3.org/2000/svg" xmlns:xlink="http://www.w3.org/1999/xlink" x="0px" y="0px" width="100px" height="100px" viewBox="-10 -10 120 120" xml:space="preserve">
    <g>
        <path d="M72.403 0H27.596C12.379 0 0 12.38 0 27.596v44.807c0 15.217 12.379 27.596 27.596 27.596h44.807c15.217 0 27.597 -12.38 27.597 -27.596V27.596C100 12.38 87.62 0 72.403 0m18.725 72.403c0 10.325 -8.4 18.724 -18.724 18.724H27.596C17.272 91.128 8.872 82.728 8.872 72.403V27.596C8.872 17.272 17.272 8.872 27.596 8.872h44.807c10.325 0 18.724 8.4 18.724 18.724z"/>
        <path d="M50 24.234c-14.208 0 -25.767 11.559 -25.767 25.767 0 14.208 11.559 25.766 25.767 25.766s25.767 -11.558 25.767 -25.766c0 -14.208 -11.559 -25.767 -25.767 -25.767m0 42.66c-9.315 0 -16.895 -7.578 -16.895 -16.894s7.579 -16.895 16.895 -16.895 16.895 7.579 16.895 16.895 -7.579 16.894 -16.895 16.894"/>
        <path d="M76.848 16.71c-1.709 0 -3.389 0.692 -4.596 1.905a6.536 6.536 0 0 0 -1.911 4.602c0 1.71 0.698 3.389 1.911 4.602 1.207 1.207 2.886 1.905 4.596 1.905 1.715 0 3.389 -0.698 4.602 -1.905 1.213 -1.213 1.905 -2.892 1.905 -4.602 0 -1.715 -0.692 -3.395 -1.905 -4.602 -1.207 -1.213 -2.886 -1.905 -4.602 -1.905"/>
    </g>
</svg>