<svg fill="#000000" width="100px" height="100px" viewBox="0 0 3 3" xmlns="http://www.w3.org/2000/svg">
  <path d="M1.25 2.19 1.03 2.41A0.31 0.31 0 0 1 0.59 1.97L1.16 1.4A0.3 0.3 0 0 1 1.58 1.39L1.6 1.4A0.13 0.13 0 0 0 1.77 1.22L1.75 1.19a0.56 0.56 0 0 0 -0.76 0.03L0.42 1.79a0.56 0.56 0 0 0 0.79 0.79l0.21 -0.2A0.13 0.13 0 0 0 1.25 2.19M2.59 0.41a0.56 0.56 0 0 0 -0.79 0L1.58 0.63a0.13 0.13 0 0 0 0.17 0.18L1.97 0.59a0.31 0.31 0 0 1 0.44 0.44L1.84 1.6a0.3 0.3 0 0 1 -0.42 0.01L1.4 1.6a0.13 0.13 0 0 0 -0.17 0.18l0.03 0.03A0.56 0.56 0 0 0 2.02 1.78L2.59 1.21A0.56 0.56 0 0 0 2.6 0.42"/>
</svg>
