<svg version="1.1" xmlns="http://www.w3.org/2000/svg" width="100" height="100" viewBox="0 0 800 800">
  <path d="M406.312 4.48q5.152 0.032 10.288 -0.016c13.976 -0.08 27.088 -0.04 40.4 4.536l5.112 1.528q2.104 0.696 4.2 1.408l2.288 0.776a152 152 0 0 1 17.4 7.288l3.216 1.48c8.952 4.24 16.912 9.416 24.936 15.2q1.92 1.376 3.88 2.704 2.528 1.752 4.976 3.624v2l1.648 0.688c3.048 1.696 5.496 3.896 8.04 6.248l1.584 1.456a100 100 0 0 1 13.72 15.6v2h2c1.512 1.896 1.512 1.896 3.128 4.376l1.632 2.456c1.24 2.168 1.24 2.168 1.24 4.168h2c4.312 5.872 7.44 12.68 10.624 19.2q1.2 2.464 2.504 4.88c2.72 5.04 4.336 10.28 5.944 15.768q0.944 3.192 2.04 6.336c0.976 3.08 1.04 5.608 0.888 8.808h2l1 11 2.592 -0.2c43.4 -3.232 87.088 -1.848 130.56 -1.328l15.216 0.176 29.632 0.352a392576 392576 0 0 1 0.112 190.488v2.024l0.04 64.856q0.032 34.272 0.032 68.536l0.032 41.056q0.016 14.072 0.008 28.144l0.008 16.24q0.016 7.44 0.008 14.872l0.008 5.376c0.056 16.376 0.056 16.376 -2.248 24.408q-1.12 5.328 -2.216 10.664c-0.752 3.2 -1.712 6.224 -2.784 9.336l-1.872 6.248c-4.496 14.56 -11.272 28.184 -18.128 41.76h-2l-0.344 1.704c-0.752 2.616 -1.872 4.696 -3.224 7.048l-1.376 2.424 -1.056 1.832h-2l-0.344 1.768c-0.696 2.4 -1.632 3.96 -3.088 5.984l-1.312 1.864 -1.256 1.376h-2l-0.24 1.704c-1.008 3.056 -2.68 4.704 -4.88 7.048 -2.744 2.96 -5.464 5.912 -8.064 9a204 204 0 0 1 -31.816 29.248l-2.272 1.8c-1.728 1.2 -1.728 1.2 -3.728 1.2v2c-1.504 1.2 -1.504 1.2 -3.632 2.544l-2.36 1.496 -2.568 1.592 -2.616 1.632a240 240 0 0 1 -36.824 18.744l-2.12 0.872a197.6 197.6 0 0 1 -41.776 12.176c-3.664 0.616 -3.664 0.616 -7.104 1.952q-4.08 0.144 -8.16 0.12l-2.6 0.008 -8.72 -0.008h-6.264l-17.32 -0.008h-18.928l-32.592 -0.008q-23.352 -0.016 -46.704 -0.008l-112.328 -0.032L59 788V147l74 -1 22 -1a616 616 0 0 1 12.176 -0.168l3.08 -0.016q4.808 -0.016 9.616 -0.008h3.336c18.328 0 36.528 0.616 54.792 2.192l-0.096 -3.096c0.088 -3.728 0.624 -6.752 1.592 -10.336l0.84 -3.184 0.664 -2.384h2l0.352 -3.056c0.64 -3.904 1.664 -7.288 3.024 -11l1.272 -3.536c3.584 -9.016 3.584 -9.016 6.352 -10.4l0.368 -1.624c0.928 -3.496 2.824 -6.384 4.688 -9.44l1.224 -2.024c6.032 -9.808 12.856 -19.488 20.72 -27.92h2L284 56h2v-2c1.648 -1.688 1.648 -1.688 3.808 -3.56l2.144 -1.88c2.048 -1.56 2.048 -1.56 5.048 -2.56l1 -3c2.064 -0.688 2.064 -0.688 4 -1V40c1.896 -1.512 1.896 -1.512 4.376 -3.128l2.456 -1.632c2.168 -1.24 2.168 -1.24 4.168 -1.24V32l1.616 -0.88c4.12 -2.264 8.16 -4.6 12.136 -7.12 5.784 -3.504 11.92 -5.688 18.248 -8l5.184 -2.128c3.928 -1.576 7.856 -2.92 11.936 -4.04a88 88 0 0 0 5.608 -1.84c12.544 -4.152 25.512 -3.608 38.584 -3.52M332 79l-3 2v2l-1.664 0.68c-7.456 4.216 -14.976 12.976 -19.336 20.32v2h-2c-9.496 12.672 -15.848 29.6 -19 45l2.448 0.288c38.712 4.616 79.192 11.72 113.864 30.584 4.344 2.2 6.904 2.632 11.688 1.128a128 128 0 0 0 3.592 -1.848c4.616 -2.344 9.384 -4.008 14.28 -5.656 7.696 -2.616 7.696 -2.616 15.248 -5.624 10.16 -4.176 21.184 -6.832 32.032 -8.416 3.104 -0.504 6.104 -1.216 9.16 -1.96 6.192 -1.488 12.352 -2.328 18.664 -3.072 2.936 -0.256 2.936 -0.256 5.016 -1.432q2.392 -0.328 4.792 -0.536l2.848 -0.264 2.984 -0.264 3.008 -0.28 7.368 -0.664c-1.536 -6.752 -3.272 -13.2 -5.984 -19.584a104 104 0 0 1 -1.88 -4.768 108.8 108.8 0 0 0 -20.128 -33.632H504l-0.688 -1.688c-1.688 -2.976 -3.776 -5.032 -6.312 -7.312h-2l-1 -3c-2.472 -2.128 -2.472 -2.128 -5.44 -4.184l-2.992 -2.168c-2.344 -1.832 -2.344 -1.832 -4.568 -1.648v-2a1888 1888 0 0 0 -9.816 -5.248l-2.752 -1.488a128 128 0 0 0 -19.432 -8.264l-3.248 -1.184c-3.224 -0.952 -6.424 -1.36 -9.752 -1.816l-1 -1c-8.152 -1.24 -16.336 -1.24 -24.56 -1.248l-2.152 -0.008c-28.432 0 -53.368 9.632 -76.288 26.256" fill="#60BA54"/>
  <path d="m247.392 255.76 2.36 -0.032c31.856 -0.32 31.856 -0.32 47.248 4.264l2.208 0.632c4.64 1.344 9.216 2.824 13.792 4.368l2.64 0.808c4.888 1.512 9.28 3.576 13.808 5.936 3.288 1.616 6.672 2.856 10.128 4.064 2.632 1.296 4.664 2.968 6.872 4.888 2.432 2.04 5.088 3.736 7.744 5.488a120 120 0 0 1 15.336 12.488c2.104 1.968 4.256 3.808 6.48 5.64 13.064 11.44 25.904 28.72 31.624 45.184l1.368 3.512 3 1 1 -7h2l0.776 -3.112c7.96 -27.72 38.184 -51.216 61.416 -65.936 1.92 -1.008 3.712 -1.432 5.808 -1.952a272 272 0 0 0 3 -3c2.344 -1.248 2.344 -1.248 5.064 -2.44l2.664 -1.184 3.272 -1.376 2.2 -0.944a136 136 0 0 1 19.112 -6.184l2.856 -0.76c12.344 -3.2 24.208 -4.456 36.952 -4.36l2.048 0.008c17.08 0.104 32.544 1.576 48.88 6.648q2.84 0.856 5.696 1.64c2.64 0.776 5.016 1.624 7.504 2.768l2.28 1.048 2.472 1.136 2.84 1.264 2.904 1.296 2.672 1.192c2.584 1.248 2.584 1.248 5.096 2.776 2.392 1.52 2.392 1.52 4.832 2.328 3.776 1.632 6.824 4.032 10.088 6.52l2.12 1.608c18.12 13.872 33.608 29 45.88 48.328l1.248 1.952c2.36 3.808 4.096 7.544 5.584 11.768 0.944 2.552 2.12 4.952 3.328 7.392 3.056 6.184 5.36 12.096 6.792 18.888 0.56 2.72 0.56 2.72 1.544 5.432 3.776 11.552 4.52 22.792 4.4 34.848a568 568 0 0 0 -0.016 7.392c-0.024 12.792 -1.144 25.112 -4.76 37.44l-0.616 2.232a100 100 0 0 1 -4.944 13.328 736 736 0 0 0 -2.688 6.936l-1.328 3.464 -0.976 2.616h-2l-0.752 2.56a58.4 58.4 0 0 1 -5.248 10.504l-1.2 1.976c-17.336 28.032 -42.272 48.704 -71.8 62.96l-1.944 0.944c-6.216 2.904 -12.584 4.832 -19.176 6.68l-3.168 0.904q-3.024 0.864 -6.056 1.712a264 264 0 0 0 -6.328 1.904c-8.792 2.256 -17.792 2.04 -26.808 2.04q-3.36 0.008 -6.72 0.04c-7.84 0.032 -15.288 -0.352 -23.016 -1.784a52 52 0 0 0 -8.208 -0.568c-9.12 -0.616 -17.744 -4.72 -26.168 -8.04 -2.536 -0.88 -4.72 -1.624 -7.4 -1.832 -1.936 1.192 -1.936 1.192 -3.52 3.12l-1.904 2.088 -1.944 2.232 -1.92 2.12a592 592 0 0 0 -7.56 8.584c-3.264 3.76 -6.576 7.376 -10.144 10.856l-9.376 9.312 -2.504 2.472a232 232 0 0 0 -12.408 13.272c-3.704 4.184 -7.768 8.032 -11.76 11.944a208 208 0 0 0 -11.4 12.216c-1.912 2.192 -3.92 4.248 -5.992 6.288l-2.064 2.032 -1.512 1.464c-4.336 -1.664 -7.136 -4.872 -10.312 -8.128l-1.648 -1.648a176 176 0 0 1 -8.4 -9.096c-3.992 -4.608 -8.304 -8.864 -12.648 -13.136a248 248 0 0 1 -14.384 -15.16 144 144 0 0 0 -7.616 -7.84c-3.264 -3.176 -6.384 -6.4 -9.352 -9.856a208 208 0 0 0 -11.96 -12.456l-4.24 -4.176 -1.864 -1.832c-1.576 -1.672 -1.576 -1.672 -3.576 -4.672 -3.488 0.624 -6.68 1.52 -10 2.744 -39.016 13.968 -85.032 14.192 -123 -3.744l-2.704 -1.16a45.6 45.6 0 0 1 -10.296 -5.84l-3.064 -1.248c-26.224 -10.976 -47.072 -37.744 -61.192 -61.376l-1.288 -2.136a68 68 0 0 1 -5.704 -12.32c-1 -2.528 -2.424 -4.76 -3.808 -7.088 -1.752 -3.384 -2.592 -7.016 -3.512 -10.704l-0.592 -2.216a224 224 0 0 1 -1.848 -7.904l-0.808 -3.696c-2.144 -10.48 -2.632 -20.656 -2.528 -31.336q0.032 -4 0.016 -7.992c0.024 -12.368 0.072 -24.568 5.32 -35.976l0.312 -3.624c0.48 -5.184 2.912 -9.48 5.16 -14.104 1.312 -2.816 2.288 -5.504 3.208 -8.464 11.936 -33.656 44.872 -62.016 75.88 -77.752q2.216 -1.056 4.448 -2.064l3.56 -1.624a152 152 0 0 1 10.144 -3.624 80 80 0 0 0 4.264 -1.544c7.696 -2.952 15.88 -3.416 24.024 -4.216v-2a128 128 0 0 1 16.392 -1.24" fill="#414141"/>
  <path d="M406.312 4.48q5.152 0.032 10.288 -0.016c13.976 -0.08 27.088 -0.04 40.4 4.536l5.112 1.528q2.104 0.696 4.2 1.408l2.288 0.776a152 152 0 0 1 17.4 7.288l3.216 1.48c8.952 4.24 16.912 9.416 24.936 15.2q1.92 1.376 3.88 2.704 2.528 1.752 4.976 3.624v2l1.648 0.688c3.048 1.696 5.496 3.896 8.04 6.248l1.584 1.456a100 100 0 0 1 13.72 15.6v2h2c1.512 1.896 1.512 1.896 3.128 4.376l1.632 2.456c1.24 2.168 1.24 2.168 1.24 4.168h2c4.312 5.872 7.44 12.68 10.624 19.2q1.2 2.464 2.504 4.88c2.72 5.04 4.336 10.28 5.944 15.768q0.944 3.192 2.04 6.336c0.976 3.08 1.04 5.608 0.888 8.808h2l1 11 2.592 -0.2c43.4 -3.232 87.088 -1.848 130.56 -1.328l15.216 0.176 29.632 0.352a392576 392576 0 0 1 0.112 190.488v2.024l0.04 64.856q0.032 34.272 0.032 68.536l0.032 41.056q0.016 14.072 0.008 28.144l0.008 16.24q0.016 7.44 0.008 14.872l0.008 5.376c0.056 16.376 0.056 16.376 -2.248 24.408q-1.12 5.328 -2.216 10.664c-0.752 3.2 -1.712 6.224 -2.784 9.336l-1.872 6.248c-4.496 14.56 -11.272 28.184 -18.128 41.76h-2l-0.344 1.704c-0.752 2.616 -1.872 4.696 -3.224 7.048l-1.376 2.424 -1.056 1.832h-2l-0.344 1.768c-0.696 2.4 -1.632 3.96 -3.088 5.984l-1.312 1.864 -1.256 1.376h-2l-0.24 1.704c-1.008 3.056 -2.68 4.704 -4.88 7.048 -2.744 2.96 -5.464 5.912 -8.064 9a204 204 0 0 1 -31.816 29.248l-2.272 1.8c-1.728 1.2 -1.728 1.2 -3.728 1.2v2c-1.504 1.2 -1.504 1.2 -3.632 2.544l-2.36 1.496 -2.568 1.592 -2.616 1.632a240 240 0 0 1 -36.824 18.744l-2.12 0.872a197.6 197.6 0 0 1 -41.776 12.176c-3.664 0.616 -3.664 0.616 -7.104 1.952q-4.08 0.144 -8.16 0.12l-2.6 0.008 -8.72 -0.008h-6.264l-17.32 -0.008h-18.928l-32.592 -0.008q-23.352 -0.016 -46.704 -0.008l-112.328 -0.032L59 788V147l74 -1 22 -1a616 616 0 0 1 12.176 -0.168l3.08 -0.016q4.808 -0.016 9.616 -0.008h3.336c18.328 0 36.528 0.616 54.792 2.192l-0.096 -3.096c0.088 -3.728 0.624 -6.752 1.592 -10.336l0.84 -3.184 0.664 -2.384h2l0.352 -3.056c0.64 -3.904 1.664 -7.288 3.024 -11l1.272 -3.536c3.584 -9.016 3.584 -9.016 6.352 -10.4l0.368 -1.624c0.928 -3.496 2.824 -6.384 4.688 -9.44l1.224 -2.024c6.032 -9.808 12.856 -19.488 20.72 -27.92h2L284 56h2v-2c1.648 -1.688 1.648 -1.688 3.808 -3.56l2.144 -1.88c2.048 -1.56 2.048 -1.56 5.048 -2.56l1 -3c2.064 -0.688 2.064 -0.688 4 -1V40c1.896 -1.512 1.896 -1.512 4.376 -3.128l2.456 -1.632c2.168 -1.24 2.168 -1.24 4.168 -1.24V32l1.616 -0.88c4.12 -2.264 8.16 -4.6 12.136 -7.12 5.784 -3.504 11.92 -5.688 18.248 -8l5.184 -2.128c3.928 -1.576 7.856 -2.92 11.936 -4.04a88 88 0 0 0 5.608 -1.84c12.544 -4.152 25.512 -3.608 38.584 -3.52M332 79l-3 2v2l-1.664 0.68c-7.456 4.216 -14.976 12.976 -19.336 20.32v2h-2c-9.496 12.672 -15.848 29.6 -19 45l2.448 0.288c38.712 4.616 79.192 11.72 113.864 30.584 4.344 2.2 6.904 2.632 11.688 1.128a128 128 0 0 0 3.592 -1.848c4.616 -2.344 9.384 -4.008 14.28 -5.656 7.696 -2.616 7.696 -2.616 15.248 -5.624 10.16 -4.176 21.184 -6.832 32.032 -8.416 3.104 -0.504 6.104 -1.216 9.16 -1.96 6.192 -1.488 12.352 -2.328 18.664 -3.072 2.936 -0.256 2.936 -0.256 5.016 -1.432q2.392 -0.328 4.792 -0.536l2.848 -0.264 2.984 -0.264 3.008 -0.28 7.368 -0.664c-1.536 -6.752 -3.272 -13.2 -5.984 -19.584a104 104 0 0 1 -1.88 -4.768 108.8 108.8 0 0 0 -20.128 -33.632H504l-0.688 -1.688c-1.688 -2.976 -3.776 -5.032 -6.312 -7.312h-2l-1 -3c-2.472 -2.128 -2.472 -2.128 -5.44 -4.184l-2.992 -2.168c-2.344 -1.832 -2.344 -1.832 -4.568 -1.648v-2a1888 1888 0 0 0 -9.816 -5.248l-2.752 -1.488a128 128 0 0 0 -19.432 -8.264l-3.248 -1.184c-3.224 -0.952 -6.424 -1.36 -9.752 -1.816l-1 -1c-8.152 -1.24 -16.336 -1.24 -24.56 -1.248l-2.152 -0.008c-28.432 0 -53.368 9.632 -76.288 26.256m-245 96v586l230.184 0.128 72.728 0.056 42.96 0.008 28.744 0.024q16.576 0.024 33.152 0.016 8.48 -0.008 16.96 0.008 7.672 0.016 15.344 0.008l5.536 0.008c15.768 0.048 30.184 -2.136 45.384 -6.248l2.616 -0.704q4.16 -1.128 8.32 -2.296l2.616 -0.72a96 96 0 0 0 14.496 -5.384 72 72 0 0 1 4.456 -1.872c24.4 -10.112 45.568 -25.928 64.504 -44.032l2.088 -1.96c4.104 -3.96 7.624 -8.304 11.12 -12.808 1.792 -2.232 1.792 -2.232 3.248 -3.64a32 32 0 0 0 4.032 -5.248l1.384 -2.144 1.44 -2.264 1.488 -2.32c7.952 -12.448 14.728 -24.864 20.2 -38.616l1.024 -2.544c8.96 -23.24 12.144 -47.328 12.096 -72.096v-4.944l-0.008 -13.488v-14.584l-0.008 -25.24 -0.016 -36.488 -0.016 -59.208 -0.024 -57.504v-3.584l-0.008 -17.792Q733.032 249.76 733 176q-19.744 -0.032 -39.496 -0.048l-18.352 -0.024c-34.976 -0.072 -34.976 -0.072 -69.936 0.536l-2.328 0.064a464 464 0 0 0 -32.952 1.976l-8.928 0.816 -2.12 0.192c-5.856 0.52 -11.704 0.8 -17.576 0.992a136 136 0 0 0 -21.952 2.688c-3.968 0.776 -7.944 1.32 -11.952 1.84A286.4 286.4 0 0 0 436 204l-3 1 -1 2a160 160 0 0 1 -8.064 3.128l-2.296 0.84q-2.824 1.032 -5.64 2.032v2c-5.416 0.936 -8.808 1.208 -14 -1v-2l-2.264 -0.768 -2.984 -1.04 -2.952 -1.024c-2.8 -1.168 -2.8 -1.168 -4.8 -2.704 -2.488 -1.832 -4.76 -2.408 -7.752 -3.152l-2.984 -0.76L376 202V200l-3 -0.768 -4 -1.04 -1.968 -0.504a88 88 0 0 1 -9.944 -3.16c-4.424 -1.704 -8.936 -2.912 -13.528 -4.088l-2.408 -0.632a360 360 0 0 0 -13.952 -3.328l-4.32 -0.96c-24.912 -5.672 -50.616 -6.92 -76.032 -8.872l-1.992 -0.152c-52.464 -3.968 -105.232 -1.496 -157.856 -1.496" fill="#414141"/>
  <path d="M257.56 283.624h2.544c21.224 0.056 38.848 3.68 57.896 13.376a80 80 0 0 0 4 1v2l2 0.752c26.488 11.04 48.8 36.424 59.984 62.56q1.056 2.824 2.016 5.688l1.504 3.936 1.504 4.064 0.76 2.048a62.4 62.4 0 0 1 3.424 16.08l0.232 2.664c1.544 19.896 2.096 39.88 -3.424 59.208h-2l-0.248 2.376c-0.816 3.944 -2.152 7.368 -3.696 11.08 -1.44 3.48 -2.744 7.008 -4.056 10.544h-2l-0.808 2.184c-7.6 17.976 -24.688 35.592 -41.192 45.816l-2.32 1.52c-5.36 3.48 -5.36 3.48 -7.68 3.48V536c-10.296 5.576 -24.04 12.728 -36 12v2l-3.936 0.936 -2.216 0.528c-30.008 5.64 -58.24 0.08 -85.848 -11.464v-2l-3.072 -0.744c-3.992 -1.144 -7.304 -3.088 -10.736 -5.384l-1.84 -1.216a118.4 118.4 0 0 1 -24.344 -21.664l-2.28 -2.44c-14.728 -15.712 -14.728 -15.712 -14.728 -21.552h-2l-0.952 -2.344c-2.856 -6.984 -2.856 -6.984 -6.232 -13.72 -2.448 -4.688 -3.088 -9.744 -3.816 -14.936h-2c-10.528 -21.056 -5.024 -56.472 2 -78h2l0.128 -3.936c0.528 -4.984 2.496 -7.912 5.4 -11.888 1.376 -2.04 2.16 -3.728 2.912 -6.048 7.76 -22.48 32.176 -43.344 52.56 -54.128a96 96 0 0 1 5.44 -2c3.216 -1.12 6.248 -2.264 9.248 -3.872 3.896 -2.008 7.92 -3.656 12 -5.248l1.888 -0.768c12.152 -4.632 25.168 -4.512 37.984 -4.48" fill="#FDFDFD"/>
  <path d="m566.248 283.624 2.288 -0.008c12.504 0 23.288 1.752 35.144 5.752l2.72 0.88c5.28 1.768 9.824 3.864 14.592 6.744q2.976 1.056 6 2a88 88 0 0 1 4 2v2l2.088 0.72c3.464 1.52 6.424 3.512 9.472 5.712l1.848 1.336c12.544 9.208 23.384 20.192 32.088 33.104l1.312 1.944c2.008 3.064 3.312 5.656 4.184 9.176l3 3c13.28 26.28 17.952 61.472 10 90l-0.664 2.456c-4.512 16.456 -4.512 16.456 -8.464 23.736a24 24 0 0 0 -1.864 5.808h-2l-0.816 2.064a496 496 0 0 1 -4.184 9.936h-2l-0.776 1.712c-1.808 3.384 -4.256 6.192 -6.664 9.16 -1.728 2.128 -1.728 2.128 -2.56 5.12 -1.528 1.544 -1.528 1.544 -3.504 3.192a256 256 0 0 0 -8.688 7.688c-10.76 9.544 -23.128 16.488 -35.8 23.144l-1.864 0.992a57.6 57.6 0 0 1 -21.264 6.648c-3.416 0.432 -6.576 1.392 -9.872 2.36 -21.664 3.496 -45.088 1.624 -66 -5v-2h-4v-2l-2.336 -0.368 -3.04 -0.512 -3.024 -0.488c-2.6 -0.632 -2.6 -0.632 -4.6 -2.632a448 448 0 0 0 -5.088 -2.152 64 64 0 0 1 -8.656 -4.912l-1.824 -1.176c-5.136 -3.4 -9.568 -7.24 -14.032 -11.496a96 96 0 0 0 -6.08 -5.272c-6.56 -5.592 -11.392 -12.984 -16.312 -20l-1.208 -1.712c-2.8 -4.04 -2.8 -4.04 -2.8 -6.28h-2l-1.288 -3.056c-1.6 -3.728 -3.368 -7.36 -5.152 -11 -3.024 -6.304 -5.088 -12.52 -6.84 -19.304 -0.472 -2.536 -0.472 -2.536 -1.728 -3.632 -2.416 -8.648 -2.312 -17.496 -2.256 -26.384q0.008 -3.52 -0.016 -7.032c-0.016 -12.128 0.736 -23.904 4.272 -35.576h2l0.192 -2.2c0.92 -7.512 3.128 -12.744 7.152 -19.128 1.8 -2.736 1.8 -2.736 3.16 -6.232 8.904 -20.4 27.224 -36.544 45.504 -48.44l2.696 -1.792c5.544 -3.528 10.928 -5.664 17.304 -7.208v-2l1.648 -0.336 2.288 -0.48 2.216 -0.456c2.424 -0.616 4.72 -1.352 7.08 -2.168 14.72 -4.96 29.608 -5.944 45.024 -5.936" fill="#FDFDFD"/>
  <path d="m678.744 175.928 18.432 0.024 35.824 0.048a306568 306568 0 0 1 0.112 172.208l0.04 57.376q0.032 29.456 0.032 58.912 0.008 18.168 0.032 36.328 0.016 12.472 0.008 24.944l0.008 14.368q0.016 6.6 0.008 13.192l0.008 4.736c0.056 15.064 -1.208 29.904 -4.56 44.624l-0.656 2.936c-2.528 10.976 -5.864 21.432 -10.72 31.624a144 144 0 0 0 -2.168 4.76 144 144 0 0 1 -8.328 16.192l-1.448 2.48c-11.72 19.896 -11.72 19.896 -18.368 26.32l-3.096 3.344A328 328 0 0 1 660 714a50.4 50.4 0 0 1 -4.128 -7.504l-1.072 -2.344c-0.8 -2.152 -0.8 -2.152 -0.8 -5.152h-2l-1.504 -3.112A215.2 215.2 0 0 0 608 637l-3.048 -3.088c-5.312 -5.36 -10.592 -10.68 -16.368 -15.544 -1.584 -1.368 -1.584 -1.368 -3.112 -2.984 -1.544 -1.64 -1.544 -1.64 -4.472 -2.384v-2l-1.672 -0.768a56 56 0 0 1 -7.512 -4.984c-7.448 -5.464 -14.888 -10.384 -23.04 -14.736a200 200 0 0 1 -8.088 -4.704 120 120 0 0 0 -10.688 -5.816v-2l-4 -1a60.8 60.8 0 0 1 13.744 0.992c7.36 1.16 14.56 1.312 21.992 1.272q3.28 -0.008 6.584 0.016c13.088 0.016 25.36 -1.408 37.808 -5.648l2.856 -0.944 5.536 -1.848q3.184 -1.064 6.384 -2.072l3.16 -1.008 2.6 -0.824c2.664 -1.048 4.904 -2.424 7.336 -3.92l5.264 -2.752a136 136 0 0 0 19.736 -12.248l2.256 -1.672c20.784 -15.76 36.128 -35.104 47.744 -58.336h2l0.192 -2.376a28 28 0 0 1 3.128 -8.128c7.512 -14.48 10.76 -33.608 10.928 -49.792l0.032 -2.368 0.048 -7.528 0.008 -2.576c0.544 -20.984 0.544 -20.984 -6.32 -40.232a136 136 0 0 1 -1.128 -5.688c-1.712 -7.872 -5.192 -14.432 -8.944 -21.472 -0.888 -1.76 -1.656 -3.576 -2.416 -5.392a69.6 69.6 0 0 0 -5.768 -10.328l-1.208 -1.848c-12.24 -18.576 -27.872 -33.36 -45.952 -46.112a88 88 0 0 1 -4.272 -3.376 19.2 19.2 0 0 0 -6.512 -3.416c-2.72 -0.88 -3.736 -1.296 -5.816 -3.376a280 280 0 0 0 -10.056 -3.704c-5.544 -1.992 -5.544 -1.992 -8 -3.864 -2.8 -2.064 -5.864 -2.664 -9.192 -3.432l-2.12 -0.504c-15.688 -3.68 -30.84 -5.68 -46.984 -5.68q-3.008 -0.008 -6.016 -0.04c-12.376 -0.016 -23.928 1.776 -35.872 4.912l-2.976 0.776c-7.704 2.088 -14.984 4.792 -22.28 8.016 -3.504 1.528 -3.504 1.528 -6.904 2.544l-2.6 0.984 -1 3q-2.488 1.144 -5.04 2.168c-23.32 9.904 -42.688 33.088 -55.96 53.832l-1.376 2.136 -1.352 2.128 -1.224 1.92a32 32 0 0 0 -3.048 7.824h-2l-1 7 -4 -1 1 -2 2 1 -0.488 -1.656c-0.576 -2.656 -0.648 -5.072 -0.672 -7.792l-0.032 -3.36 -0.016 -3.672 -0.032 -3.872 -0.072 -10.504 -0.072 -10.984 -0.136 -20.792q-0.072 -11.84 -0.16 -23.672 -0.168 -24.344 -0.32 -48.696l7 -2v-2l3.464 -1.24 4.472 -1.632 2.288 -0.816c4.128 -1.224 4.128 -1.224 6.776 -4.312 2.44 -0.968 2.44 -0.968 5.56 -1.936 3.464 -1.088 6.896 -2.216 10.288 -3.512 24.56 -9.304 50.48 -14.024 76.448 -17.16 2.592 -0.312 2.592 -0.312 4.616 -0.904 3.104 -0.712 6.184 -0.784 9.368 -0.944l4.4 -0.232 2.32 -0.12c14.624 -0.72 14.624 -0.72 29.208 -1.968a384 384 0 0 1 30.032 -1.768l2.424 -0.064c23.688 -0.608 47.392 -0.496 71.088 -0.448" fill="#4F9C4D"/>
  <path d="M326 568c1.832 1.76 1.832 1.76 3.816 4.128 4.08 4.712 8.376 9.12 12.808 13.504 4.368 4.32 8.608 8.656 12.576 13.352 2.944 3.296 6.112 6.376 9.272 9.456a136 136 0 0 1 7.84 8.376c4 4.632 8.328 8.896 12.688 13.184a248 248 0 0 1 14.504 15.296c2.24 2.568 4.712 4.856 7.208 7.16 1.288 1.544 1.288 1.544 1.288 4.544h2V760h-264c0 -8.664 0 -8.664 2 -13 1.496 -4.96 2.76 -9.968 4 -15h2l0.52 -2.56c1.256 -5.88 2.496 -11.232 5.464 -16.488 1.192 -2.184 1.192 -2.184 2.344 -5.632 1.712 -4.664 4.032 -8.888 6.488 -13.2l1.352 -2.392 3.832 -6.728 1.744 -3.04a184 184 0 0 1 9.648 -14.632c1.688 -2.352 1.688 -2.352 3.192 -5.12l1.416 -2.208H192l0.84 -1.784c1.8 -3.44 4.2 -6.352 6.592 -9.4l1.488 -1.944 1.448 -1.848 1.312 -1.68c1.32 -1.344 1.32 -1.344 4.32 -2.344q1.04 -1.984 2 -4c1.616 -1.872 1.616 -1.872 3.528 -3.792l2.136 -2.144 2.272 -2.248 2.328 -2.312a200 200 0 0 1 17.736 -15.504l4.872 -4a232 232 0 0 1 28.128 -19l3.144 -1.888 3.232 -1.928 2.96 -1.768c2.312 -1.232 4.168 -1.8 6.664 -2.416l1 -2c2.16 -0.808 2.16 -0.808 5 -1.584l3.136 -0.88 3.304 -0.904c7.024 -1.936 13.776 -3.944 20.424 -6.976 2.504 -0.76 3.72 -0.592 6.136 0.352" fill="#84C567"/>
  <path d="M272 334c16.16 -0.488 33.04 0.336 46 11a72 72 0 0 0 4.312 2.248l2.112 1.016 1.576 0.736v2l1.704 0.784c14.784 7.832 25.872 23.712 31.296 39.216l1.04 2.896c5.968 19.264 5.88 45.584 -3.376 63.72 -9.296 16.392 -22.712 34.888 -41.664 40.384v2q-4.272 1.52 -8.56 3l-2.424 0.864c-4.896 1.68 -8.84 2.464 -14.016 2.136v2q-6.024 0.152 -12.048 0.224 -3.04 0.048 -6.056 0.136c-9.432 0.088 -17.016 -1.272 -25.896 -4.352l-2.808 -0.976c-16.552 -6 -30.208 -17.656 -40.192 -32.032 -1.24 -2.816 -1.24 -2.816 -2 -5h-2l-0.848 -2.2c-1.088 -2.744 -1.088 -2.744 -2.296 -5.096 -3.608 -7.216 -5.376 -14.44 -7.056 -22.272 -0.432 -3.248 -0.432 -3.248 -1.8 -4.432 -1.352 -18.496 1.312 -36.92 11 -53l3 1v2h2l1.44 3c4.952 8.464 12.328 13.208 21.536 16.152 9.672 2.336 21.848 2.672 30.896 -1.832 10.68 -6.624 17.528 -14.616 22.128 -26.32l1 -2q0.12 -2.496 0.096 -5.008l-0.008 -2.984 -0.024 -3.128 -0.016 -3.152 -0.048 -7.728h-2l-3 -5.816 -1.688 -3.272C272 337 272 337 272 334" fill="#414141"/>
  <path d="M541 334c17.36 -0.248 32.232 1.304 46.728 11.544 2.184 1.4 3.784 1.872 6.272 2.456q1.736 1.672 3.392 3.432c2 1.96 4.184 3.568 6.416 5.256a60.8 60.8 0 0 1 13.184 14.312v2h2a132 132 0 0 1 11 24l0.976 2.648c2.232 7.104 2.304 14.152 2.336 21.536l0.016 3.096a64 64 0 0 1 -5.392 25.528c-2.336 5.472 -2.336 5.472 -3.936 11.184h-2l-0.84 2.24c-5.736 13.664 -18.32 25.72 -31.16 32.76h-2v2l-7.184 2.752 -1.984 0.768A328 328 0 0 1 572 504l-2.936 1.08c-8.352 2.856 -15.952 3.592 -24.752 3.488l-3.984 -0.032c-21.28 -0.472 -41.256 -7.904 -56.248 -23.528a240 240 0 0 1 -5.08 -6l-3.752 -4.184c-6.248 -7.16 -6.248 -7.16 -6.248 -10.824h-2l-2.872 -6.688 -0.816 -1.896 -2.312 -5.416 -1.024 -2.4c-3.008 -8.008 -3.304 -16.512 -3.224 -24.976l0.016 -3.024c0.088 -7.36 0.688 -14.392 2.24 -21.6h2l-0.312 -2.688c-0.064 -6.112 2.984 -11.792 5.312 -17.312h5l1.064 2.936c2.096 4.912 5.28 9.192 8.936 13.064l3 1 1 2c2.264 0.944 4.496 1.776 6.816 2.56l3.768 1.32c8.912 2.92 18.464 3.312 27.416 0.12 9.824 -5.208 18.696 -12.52 23 -23h2l0.44 -2.184q0.488 -2.48 1.096 -4.936c0.64 -3.912 0.576 -7.736 0.536 -11.688l-0.016 -2.392 -0.048 -5.8h-2l-0.52 -2.048c-1.384 -5.104 -2.376 -8.416 -6.48 -11.952z" fill="#414141"/>
  <path d="M430 380h1v7h2l1.208 3.456c1.744 4.664 4.016 8.944 6.416 13.296l2.416 4.424 1.072 1.936c0.92 1.944 1.44 3.792 1.888 5.888H448c3 4.384 3 4.384 3 7h2l1 2 0.112 -2.064a176 176 0 0 1 2.264 -18.504l0.344 -2.096c0.672 -3.64 1.232 -6.088 4.28 -8.344v4h-2l0.064 3.688c0.04 2.336 -0.072 4.344 -0.56 6.632 -3.32 17.528 0.464 34.592 7.288 50.656 1.208 3.032 1.208 3.032 1.208 5.032h2a88 88 0 0 1 3 4.872c3.88 6.296 8.648 11.08 14 16.128l2.512 2.568c16.4 16.016 37.4 20.176 59.496 20.024 10.064 -0.28 18.696 -1.816 27.992 -5.6l3.168 -1.224a160 160 0 0 0 5.048 -2.08c1.784 -0.688 1.784 -0.688 3.784 -0.688V496q2.32 -1.552 4.752 -2.936c12.992 -8.064 21.976 -18.672 29.248 -32.064h8v-2c2.232 -1.656 2.232 -1.656 5.184 -3.504l2.92 -1.848a48 48 0 0 1 7.896 -3.648V448c1.648 -1.408 1.648 -1.408 3.936 -3.064 13.56 -10.288 22.696 -23.368 31.064 -37.936l1.648 -2.816c1.944 -3.4 3.536 -6.32 4.352 -10.176h2l0.112 -1.832 0.2 -2.424 0.176 -2.392c0.6 -2.752 1.696 -4.24 3.512 -6.36 6.984 20.984 7.968 45.592 2 67l-0.664 2.456c-4.512 16.456 -4.512 16.456 -8.464 23.736a24 24 0 0 0 -1.864 5.808h-2l-0.816 2.064a496 496 0 0 1 -4.184 9.936h-2l-0.776 1.712c-1.808 3.384 -4.256 6.192 -6.664 9.16 -1.728 2.128 -1.728 2.128 -2.56 5.12 -1.528 1.544 -1.528 1.544 -3.504 3.192a256 256 0 0 0 -8.688 7.688c-10.776 9.528 -23.144 16.472 -35.816 23.128l-1.864 0.992a57.6 57.6 0 0 1 -21.264 6.648c-3.416 0.432 -6.576 1.392 -9.872 2.36 -21.664 3.496 -45.088 1.624 -66 -5v-2h-4v-2l-2.336 -0.368 -3.04 -0.512 -3.024 -0.488c-2.6 -0.632 -2.6 -0.632 -4.6 -2.632a448 448 0 0 0 -5.088 -2.152 64 64 0 0 1 -8.656 -4.912l-1.824 -1.176c-5.136 -3.4 -9.568 -7.24 -14.032 -11.496a96 96 0 0 0 -6.08 -5.272c-6.56 -5.592 -11.392 -12.984 -16.312 -20l-1.208 -1.712c-2.8 -4.04 -2.8 -4.04 -2.8 -6.28h-2l-1.288 -3.056c-1.6 -3.728 -3.368 -7.36 -5.152 -11 -3.024 -6.304 -5.088 -12.52 -6.84 -19.304 -0.472 -2.536 -0.472 -2.536 -1.728 -3.632 -2.416 -8.648 -2.312 -17.496 -2.256 -26.384q0.008 -3.52 -0.016 -7.032c-0.016 -12.128 0.736 -23.904 4.272 -35.576" fill="#E6E5E5"/>
  <path d="M386 370c12.536 18.808 10.752 55.68 6.568 76.928a184 184 0 0 1 -2.568 10.072h-2l-0.248 2.376c-0.816 3.944 -2.152 7.368 -3.696 11.08 -1.44 3.48 -2.744 7.008 -4.056 10.544h-2l-0.808 2.184c-7.6 17.976 -24.688 35.592 -41.192 45.816l-2.32 1.52c-5.36 3.48 -5.36 3.48 -7.68 3.48V536c-10.296 5.576 -24.04 12.728 -36 12v2l-3.936 0.936 -2.216 0.528c-30.008 5.64 -58.24 0.08 -85.848 -11.464v-2l-3.072 -0.744c-3.992 -1.144 -7.304 -3.088 -10.736 -5.384l-1.84 -1.216a118.4 118.4 0 0 1 -24.344 -21.664l-2.28 -2.44c-14.728 -15.712 -14.728 -15.712 -14.728 -21.552h-2l-0.952 -2.344c-2.856 -6.984 -2.856 -6.984 -6.232 -13.72 -2.448 -4.688 -3.088 -9.744 -3.816 -14.936h-2c-10.528 -21.056 -5.024 -56.472 2 -78 0.84 3.096 1.088 5.784 1 9h1l0.776 3.52c1.096 4.352 2.744 8.176 4.784 12.168l1.048 2.08c3.024 5.832 6.56 11.152 10.408 16.464 1.976 2.768 1.976 2.768 3.376 5.224 2.12 3.368 4.704 6.144 7.416 9.04l1.544 1.68c2.544 2.744 5.112 5.256 8.032 7.6l2.616 2.224v2l2.232 0.792c2.824 1.232 4.736 2.616 7.08 4.584 4.032 3.24 7.984 5.488 12.688 7.624v2l4 1 1 -3c2 2 2 2 2 6h2a152 152 0 0 1 4.56 6.44c10.2 14.608 23.968 25.896 41.44 30.624 6.736 1.84 6.736 1.84 9.768 2.968 3.576 1.072 6.656 1.288 10.384 1.376l1.992 0.056 6.232 0.152 4.256 0.12q5.184 0.144 10.368 0.256v-2l2.816 -0.552c7.832 -1.48 7.832 -1.48 15.312 -4.136 2.872 -1.304 2.872 -1.304 6.872 -1.304v-2l2.024 -0.992c18.808 -9.704 34.328 -26.64 41.856 -46.592 4.744 -14.872 3.608 -30.992 3.12 -46.408h1c2.44 6.84 2.624 13.792 3 21 10.32 -15.192 10.32 -15.192 18.08 -31.784 0.92 -2.216 0.92 -2.216 2.728 -4.904 1.736 -3.384 0.928 -5.632 0.192 -9.312a288 288 0 0 1 -0.56 -4.936l-0.256 -2.336z" fill="#E6E5E5"/>
  <path d="m410.936 530.688 2.728 -0.016c4.872 0.056 8.744 0.56 13.336 2.328q2.304 0.416 4.624 0.752c14.664 2.84 28.224 13.76 37.376 25.248 0.976 3.12 0.976 3.12 1 6 -1.04 1.944 -1.04 1.944 -2.624 3.56l-1.544 1.624L464 572l-2.096 2.104q-3.76 3.752 -7.52 7.48l-5.256 5.232 -2.648 2.624a240 240 0 0 0 -12.904 13.768c-2.4 2.736 -4.976 5.264 -7.576 7.8a152 152 0 0 0 -11.504 12.48c-1.688 1.712 -3.312 2.568 -5.504 3.52a240 240 0 0 1 -14.312 -15.088c-2.752 -3.112 -5.72 -6 -8.688 -8.912a288 288 0 0 1 -10.688 -11.184 392 392 0 0 0 -14.056 -14.52 144 144 0 0 1 -7.784 -8.696c-1.584 -1.832 -1.584 -1.832 -4.472 -3.592 1.584 -8.208 8.728 -14.048 15 -19l2.28 -1.816c6.44 -4.832 13.08 -7.736 20.72 -10.184l2.976 -0.976c6.984 -1.944 13.752 -2.304 20.96 -2.336" fill="#FDC969"/>
  <path d="M410 532v94c-3.608 -1.8 -5.072 -2.88 -7.68 -5.736l-2.064 -2.24 -2.128 -2.336c-5.408 -6.008 -5.408 -6.008 -11.392 -11.432a40 40 0 0 1 -6.608 -7.072c-4.688 -5.88 -9.904 -11.104 -15.28 -16.352a168 168 0 0 1 -11.304 -12.16c-1.64 -1.904 -1.64 -1.904 -4.552 -3.672 1.584 -8.208 8.728 -14.048 15 -19l2.28 -1.816c8.272 -6.208 18.472 -10.816 28.848 -11.744l2.696 -0.256c4.056 -0.232 8.12 -0.184 12.176 -0.184" fill="#FBF4AE"/>
  <path d="M408 482h3v3h2l0.84 1.632 3.848 7.432 1.32 2.568c2.072 3.976 4.168 7.752 6.824 11.368 2.168 3 2.168 3 2.168 5l-1.688 -0.016c-11.488 -0.096 -22.856 0.032 -34.312 1.016 0.624 -3.376 1.904 -5.584 3.872 -8.376a72 72 0 0 0 6.128 -10.624h2l0.624 -2.08 0.816 -2.728 0.808 -2.712q0.84 -2.752 1.752 -5.48" fill="#4E9A4D"/>
  <path d="m407 487 3 1v23l-16 1c0.936 -4.688 2.064 -7.272 4.44 -11.312l1.872 -3.24 1.688 -2.448h2l0.936 -2.872c1.064 -3.128 1.064 -3.128 2.064 -5.128" fill="#5EB654"/>
  <path d="m373 544 -1.944 1.504c-9.432 7.368 -9.432 7.368 -17.056 16.496 0.28 3.664 2.016 5.32 4.632 7.752l2.192 2.096q2.304 2.16 4.624 4.312l2.184 2.096 2.032 1.888c1.336 1.856 1.336 1.856 1.048 4.088l-0.712 1.768c-5.736 -5.64 -11.416 -11.248 -16.56 -17.44 -1.552 -1.808 -1.552 -1.808 -4.44 -3.56 1.568 -8.112 8.68 -14.216 15 -19 5.336 -3.224 5.336 -3.224 9 -2" fill="#EBEAAC"/>
  <path d="M455 576c2.112 0.416 2.112 0.416 4 1l-1.728 1.712 -7.84 7.792 -2.712 2.688a248 248 0 0 0 -13.16 14.024c-2.392 2.728 -4.968 5.256 -7.568 7.784a176 176 0 0 0 -11.696 12.576c-1.296 1.424 -1.296 1.424 -3.296 2.424v-4h2l2 -4h2l0.744 -1.744c1.448 -2.616 3.16 -4.32 5.32 -6.384 2.856 -2.656 2.856 -2.656 4.936 -5.872h3v-3h2l0.816 -1.808c1.192 -2.2 2.368 -3.592 4.152 -5.328l1.728 -1.696 1.8 -1.736 3.528 -3.44 1.584 -1.528c1.616 -1.624 1.616 -1.624 3.392 -4.472h2v-2c1.248 -1.688 1.248 -1.688 3 -3" fill="#EECB6C"/>
  <path d="M128 376c0.848 3.112 1 5.776 1 9l1 3c-0.816 2.624 -0.816 2.624 -2 5l-2 1c-1.104 3.08 -1.104 6 -1.064 9.248l0.024 2.704 0.04 2.048h1v18h-1l-1 13h-1c-3.648 -20.592 -1.456 -43.208 5 -63" fill="#CECDCD"/>
  <path d="m226 546 2.504 0.44c7.472 1.2 14.568 1.704 22.128 1.656l2.992 -0.008 9.384 -0.032 6.392 -0.016 15.608 -0.048 -1 2c-5.384 1.112 -10.704 1.144 -16.184 1.136h-2.608l-5.432 -0.008q-4.144 -0.008 -8.272 0.008l-5.304 -0.008 -2.472 0.008c-12.424 -0.048 -12.424 -0.048 -16.152 -3.2z" fill="#F2F1F1"/>
  <path d="M626 395c4.856 4.24 6.624 10.76 7.352 17 0.112 3.048 0.096 6.072 0.024 9.128l-0.008 3.088a72 72 0 0 1 -2.368 17.784h-1v-13h-1l-0.056 -2q-0.152 -4.536 -0.312 -9.064l-0.096 -3.144c-0.216 -5.64 -0.816 -10.432 -2.528 -15.792z" fill="#5E5E5E"/>
  <path d="M362 404h1c2.184 6.28 2.464 12.32 2.688 18.936l0.144 3.168c0.288 7.592 0.208 14.648 -2.392 21.888l-0.816 2.312 -0.624 1.696 -3 -2c0.448 -3.592 0.936 -6.792 2.032 -10.248 1.712 -6.736 1.176 -13.848 1.096 -20.752l-0.024 -4.368q-0.032 -5.312 -0.096 -10.632" fill="#D1D1D0"/>
  <path d="M100 372c1.104 4.408 0.592 4.912 -1.168 8.744 -4.136 11.272 -3.248 24.784 -3.456 36.632l-0.12 5.448q-0.144 6.584 -0.256 13.176h-1q-0.288 -9.824 -0.536 -19.64l-0.184 -6.672q-0.136 -4.816 -0.256 -9.624l-0.096 -2.992c-0.12 -5.752 0.408 -10.552 2.072 -16.072h3z" fill="#579A4F"/>
  <path d="M590 548c-3.496 2.328 -5.904 3.128 -10.016 3.112h-2.424l-2.608 -0.016 -2.68 -0.008 -8.464 -0.032 -5.744 -0.016q-7.04 -0.016 -14.072 -0.048l-1 -2 21.736 -0.576 7.952 -0.208 2.456 -0.064a512 512 0 0 1 14.856 -0.152" fill="#F3F2F2"/>
  <path d="M272 334c14.224 -0.432 28.088 0.48 41 7l1 2q-2.6 -0.68 -5.184 -1.376l-2.92 -0.776c-2.896 -0.848 -2.896 -0.848 -5.384 -1.888 -5.736 -2.192 -11.824 -2.232 -17.888 -2.528l-2.52 -0.128L274 336l1.128 1.832 1.432 2.424 1.44 2.392c1.128 2.672 1.016 3.704 -0.008 6.36l-3 -5.816 -1.688 -3.272C272 337 272 337 272 334" fill="#939393"/>
  <path d="m266 280 14 1 -1 2 2 2L244 284c3.496 -1.744 4.704 -2.256 8.328 -2.416l2.424 -0.12 2.504 -0.096 2.544 -0.12q3.104 -0.144 6.2 -0.256z" fill="#666666"/>
  <path d="M257 504h37c-4.264 3.2 -5.056 3.376 -10.088 3.36h-3.568l-3.72 -0.048 -3.696 0.008c-5.792 -0.032 -10.464 -0.264 -15.928 -2.32z" fill="#333334"/>
  <path d="M388 604c4.624 0.248 6.52 2.16 9.464 5.416l1.544 1.768 1.544 1.712a384 384 0 0 1 4.448 5.104l1.488 1.696c3.512 4.072 3.512 4.072 3.512 6.304 -3.312 -1.432 -5.368 -3.184 -7.824 -5.808l-2.12 -2.264 -2.184 -2.368 -2.208 -2.352c-2.784 -2.992 -5.392 -5.8 -7.672 -9.208" fill="#EEEBAF"/>
  <path d="M532 508h32v2l-1.896 0.184 -2.48 0.256 -2.456 0.248c-2.208 0.208 -2.208 0.208 -4.168 1.32q-4.312 0.112 -8.624 0.064l-2.432 -0.016 -5.944 -0.048 4 -2 -8 -1z" fill="#DEDDDD"/>
  <path d="M264 508h31v2l-1.896 0.184 -2.48 0.256 -2.456 0.248c-2.208 0.208 -2.208 0.208 -4.168 1.32q-4.312 0.112 -8.624 0.064l-2.432 -0.016 -5.944 -0.048 4 -2 -7 -1z" fill="#DEDDDD"/>
  <path d="M345 474c0 4.848 -1.296 7.256 -4.648 10.792q-1.568 1.432 -3.168 2.832l-1.584 1.448a50.4 50.4 0 0 1 -9.608 6.928l-3 -2 2.528 -1.84c7.392 -5.464 13.616 -11.04 19.48 -18.16" fill="#DCDBDB"/>
  <path d="M350 563c5.24 2.296 8.8 6.392 12.816 10.376l2.424 2.328 2.28 2.256 2.096 2.056c1.384 1.984 1.384 1.984 1.104 4.232l-0.72 1.752c-17.216 -16.936 -17.216 -16.936 -20 -23" fill="#EAE9AE"/>
  <path d="M697 432h1v10h1c-0.624 6.64 -0.624 6.64 -2.56 8.504 -2.336 2.44 -1.496 5.24 -1.44 8.504 -0.816 3.376 -0.816 3.376 -2 6l-3 1c0.488 -5.976 1.88 -11.488 3.48 -17.264 1.512 -5.536 2.624 -11.072 3.52 -16.736" fill="#5D5D5D"/>
  <path d="M394 393c2 1 2 1 2.632 2.728 2.064 10.304 1.544 20.816 1.368 31.272l-2 1 -0.072 -1.952 -0.36 -8.792 -0.12 -3.08 -0.128 -2.968 -0.112 -2.728a36 36 0 0 0 -1.208 -6.472 88 88 0 0 1 -0.064 -4.752l0.024 -2.424z" fill="#343535"/>
  <path d="m533.144 503.888 4.176 0.016 2.216 0.008 7.032 0.032 4.76 0.016 11.68 0.048 -1 2c-5.296 1.768 -10.96 1.184 -16.504 1.184l-3.784 0.04 -3.624 0.008 -3.32 0.016c-2.776 -0.256 -2.776 -0.256 -5.776 -2.256 1 -1 1 -1 4.144 -1.112" fill="#343434"/>
  <path d="M542 335q4.88 0.128 9.752 0.312l2.792 0.072 2.696 0.104 2.472 0.08c2.288 0.432 2.288 0.432 6.288 3.432l-19 -1 1 5h-2c-4 -5.408 -4 -5.408 -4 -8" fill="#3A3A3A"/>
  <path d="M324.064 567.312c1.936 0.688 1.936 0.688 2.936 2.688l-3.44 0.376 -3.56 0.624 -1 2c-2.8 1.104 -2.8 1.104 -6.312 2.192l-3.488 1.104c-2.992 0.664 -4.392 0.792 -7.2 -0.296 1.28 -2.56 2.088 -2.576 4.744 -3.472l2.288 -0.784 2.4 -0.8 4.688 -1.6 2.104 -0.704c4.336 -1.552 4.336 -1.552 5.832 -1.32" fill="#7DBC63"/>
  <path d="m455 502 10 10 2.624 2.56c2.008 2.056 3.728 4.088 5.376 6.44l-3 1 -6.312 -6.248 -1.8 -1.776c-6.352 -6.312 -6.352 -6.312 -7.888 -8.976z" fill="#434343"/>
  <path d="m558.448 279.768 2.568 0.008 2.664 0.04h2.608c5.64 0.04 11.112 0.48 16.704 1.184v2c-11.016 0.208 -22 -0.416 -33 -1a14.8 14.8 0 0 1 8.448 -2.232" fill="#333434"/>
  <path d="m582.688 551.936 3.576 0.024 2.736 0.04v2c-5.168 0.856 -10.112 1.136 -15.336 1.096l-2.32 -0.008 -7.272 -0.032 -4.96 -0.016 -12.096 -0.048v-1l2.336 -0.072 10.472 -0.36 3.68 -0.12 3.528 -0.128 3.256 -0.112c4.304 -0.328 7.984 -1.312 12.416 -1.272" fill="#353536"/>
  <path d="M487 489c3.792 1.384 6.952 3.144 10.312 5.376a112 112 0 0 0 13.688 7.624l-1 2c-8.16 -1.624 -17.008 -7.296 -23 -13z" fill="#EEEDED"/>
  <path d="M476 525c4.24 0.616 7.456 3.056 10.936 5.376l3.656 2.4 1.752 1.152c2.184 1.416 4.416 2.752 6.664 4.072l-1 3c-16.28 -9.2 -16.28 -9.2 -22 -14z" fill="#373737"/>
  <path d="M194 534c2.704 0.68 2.704 0.68 5.688 1.872l3.008 1.176 2.304 0.952v2l7 1 1 4 -15 -5v-2l-7 -2z" fill="#DCDBDB"/>
  <path d="M424 507a88 88 0 0 1 4 4v2l-1.688 -0.016c-11.488 -0.096 -22.856 0.032 -34.312 1.016l1 -4 1 2 2 -1q3.264 -0.12 6.544 -0.096l3.944 0.008 4.144 0.024 4.16 0.016 10.208 0.048z" fill="#4B6F48"/>
  <path d="M274 336q4.344 -0.08 8.688 -0.128l2.472 -0.048c4.408 -0.032 7.824 0.104 11.84 2.176v1l-19 -1 2 6 -2 1c-4 -6.752 -4 -6.752 -4 -9" fill="#333333"/>
  <path d="m404.672 530.736 2.76 -0.008 2.88 0.024 2.84 -0.024c5.008 0.016 9.152 0.288 13.848 2.272v1l-1.72 -0.072c-5.2 -0.12 -9.352 0.392 -14.28 2.072l-1 -3h-13c3.184 -2.12 4.016 -2.256 7.68 -2.264" fill="#CAB06B"/>
  <path d="M295 256c1.592 1.472 1.592 1.472 3 3 2.6 1.192 2.6 1.192 5 2 -3.48 1.2 -5.584 0.768 -9.064 -0.312a144 144 0 0 0 -16.936 -3.688V256c5.984 -0.856 12.088 -1.664 18 0" fill="#59A350"/>
  <path d="M363 507c-1.512 3.528 -3.568 5.904 -6.248 8.624l-2.264 2.352c-2.744 2.232 -5.088 3.112 -8.48 4.024 3.28 -3.936 6.632 -7.752 10.192 -11.44l1.976 -2.064c1.824 -1.496 1.824 -1.496 4.824 -1.496" fill="#4F4F4E"/>
  <path d="M128 376c0.848 3.112 1 5.776 1 9l1 3c-0.816 2.624 -0.816 2.624 -2 5l-2 1c-0.688 2.12 -0.688 2.12 -1.128 4.56l-0.512 2.504 -0.36 1.936h-1c-0.296 -6.448 0.744 -11.816 2.504 -18l0.72 -2.64z" fill="#BFBFBF"/>
  <path d="M124 418h1l1.504 11.56 0.432 3.288c0.688 5.424 1.256 10.68 1.064 16.144 -2 -1 -2 -1 -2.632 -2.68 -1.376 -6.192 -1.608 -12.064 -1.496 -18.384l0.024 -2.912q0.032 -3.512 0.096 -7.024" fill="#F3F2F2"/>
  <path d="M124 324c0 6.544 -3.704 14.08 -8 19h-3c1.352 -4.704 3.296 -8.28 6.064 -12.312l2.16 -3.176c1.776 -2.512 1.776 -2.512 2.776 -3.512" fill="#445043"/>
  <path d="M326 301c7.576 1.104 13.368 3.688 19 9 1.288 2.728 1.288 2.728 2 5 -4.44 -2 -8.272 -4.92 -12.224 -7.72 -2.84 -1.992 -5.608 -3.848 -8.776 -5.28z" fill="#4E4E4E"/>
  <path d="m232 576 4.128 -0.064 2.32 -0.032c2.552 0.096 2.552 0.096 5.12 0.568 5.08 0.784 10.176 0.904 15.312 1.096l3.24 0.128 7.88 0.304v1q-6.432 0.072 -12.856 0.112l-4.368 0.04 -6.304 0.048 -3.824 0.032c-3.896 -0.24 -6.944 -1.024 -10.64 -2.224z" fill="#3E353F"/>
  <path d="M423 409H424c1.192 19.336 1.192 19.336 1 29 -3.624 -5.432 -3.16 -11.912 -3.128 -18.248l-0.016 -2.144c0.008 -3.144 0.136 -5.608 1.136 -8.608" fill="#343436"/>
  <path d="M221 492c4.256 0.56 6.96 2.048 10.504 4.44 3.424 2.304 6.608 4.16 10.504 5.56l-2 3q-3.912 -2.112 -7.816 -4.248l-2.24 -1.2c-3.768 -2.08 -6.728 -3.712 -8.952 -7.552" fill="#EEEEEE"/>
  <path d="M497.928 567.064 500 568l-1.872 0.192 -2.128 0.808a160 160 0 0 0 -2 5c-1.752 1.504 -1.752 1.504 -4 3a232 232 0 0 0 -3.248 2.688l-2.752 2.312 -2 -1a512 512 0 0 1 6.184 -7.064l1.752 -2.048c4.408 -4.904 4.408 -4.904 7.984 -4.824" fill="#5CAD52"/>
  <path d="M170 316c-1.36 3.04 -2.888 5.12 -5.256 7.456l-1.896 1.872 -1.976 1.92 -1.992 1.968 -4.88 4.784 -2 -1c15.088 -17 15.088 -17 18 -17" fill="#D5D5D5"/>
  <path d="M167 314h2c-1.656 4.272 -4.776 7 -8 10.128l-1.656 1.632 -4.344 4.24 -2 2c0.544 -3.376 1.056 -5.08 3 -8h2v-2c1.712 -1.688 1.712 -1.688 3.936 -3.56l2.216 -1.88 1.848 -1.56z" fill="#383938"/>
  <path d="M475 477c3.504 0.576 5.168 1.784 7.624 4.312l1.792 1.8c1.576 1.88 2.592 3.656 3.584 5.888 -3 0 -3 0 -5 -1v-2l-1.752 -0.688c-2.848 -1.664 -4.368 -3.632 -6.248 -6.312z" fill="#D5D4D4"/>
  <path d="M549 373c1.16 1.648 1.16 1.648 2 4 -0.944 2.76 -0.944 2.76 -2.56 5.688l-1.568 2.952c-1.872 2.36 -1.872 2.36 -6.872 3.36l6 -11h2z" fill="#484948"/>
  <path d="M464 384c1.128 3.752 1.128 3.752 0 6l2 1 -0.936 2.192a40 40 0 0 0 -2.064 7.816l-2 -1 -1 6h-1v-8h2l-0.184 -3.064c0.216 -4.496 1.232 -6.952 3.184 -10.936" fill="#595959"/>
  <path d="M550 348H552c0.816 2.848 1.12 5.368 1.096 8.328l-0.008 2.424 -0.024 2.504 -0.016 2.544 -0.048 6.2 -2 1z" fill="#333333"/>
  <path d="M622 461c4 0 4 0 6 1l-1.872 0.688c-2.776 1.712 -3.04 3.28 -4.128 6.312 -1.44 2.312 -1.44 2.312 -3 4H616c1.568 -4.304 3.68 -8.064 6 -12" fill="#E5E4E4"/>
  <path d="m120 397 1 2h2l-1 32h-1z" fill="#505151"/>
  <path d="M281 348h2c0.784 2.776 1.12 5.224 1.096 8.112l-0.008 2.288 -0.024 2.352 -0.016 2.4 -0.048 5.848 -2 1z" fill="#333333"/>
  <path d="M574 341c7.32 0.272 11.976 2.96 18 7l-1 2a280 280 0 0 1 -10.752 -4.504l-2.92 -1.28c-2.328 -1.216 -2.328 -1.216 -3.328 -3.216" fill="#383838"/>
  <path d="M108 484c2.744 1.376 3.04 3.28 4.136 6.016 0.896 2.048 1.96 3.888 3.12 5.792l1.744 3.192 -1 2c-3.792 -1.456 -5.024 -3.216 -6.816 -6.816l-1.336 -2.584c-0.976 -2.984 -0.728 -4.624 0.144 -7.608" fill="#5CAC52"/>
  <path d="m387 461 0.456 1.88c0.504 2.12 0.504 2.12 1.296 4.056 0.376 3.104 -0.968 4.584 -2.752 7.064a104 104 0 0 1 -3 3l-1 2h-2c1.352 -4.216 2.904 -8.296 4.624 -12.376l1.352 -3.208z" fill="#5C5C5C"/>
  <path d="m360 504 1 3L348 520l-3 -2 1.504 -1.288A208 208 0 0 0 360 504" fill="#F1F0F0"/>
  <path d="M514 546c6.192 0.576 12.208 1.64 18 4l1 2a60.8 60.8 0 0 1 -19 -4z" fill="#383839"/>
  <path d="M693 390c3.904 3.904 3.272 10.048 3.56 15.312l0.128 2.248 0.304 5.44 -2 1q-0.512 -3.752 -1 -7.504l-0.288 -2.112c-0.624 -4.84 -0.8 -9.512 -0.712 -14.392" fill="#F4F3F3"/>
  <path d="M342 525c-0.872 3.872 -0.872 3.872 -2 5q-2.496 0.056 -5 0v3c-3.432 2.288 -4.984 2.176 -9 2 11.92 -10 11.92 -10 16 -10" fill="#585858"/>
  <path d="M153 506a624 624 0 0 1 12.936 11.248l2.904 2.576c2.16 2.176 2.16 2.176 2.16 4.176 -3.088 -1.256 -5.144 -2.96 -7.432 -5.368a168 168 0 0 0 -3.888 -3.888l-2.496 -2.432 -2.392 -2.328c-1.792 -1.984 -1.792 -1.984 -1.792 -3.984" fill="#303031"/>
  <path d="M154 502a200 200 0 0 1 15 14l-3 1a976 976 0 0 1 -6 -5.816l-1.736 -1.656q-2.2 -2.2 -4.264 -4.528z" fill="#F3F2F2"/>
  <path d="M141 487c2.816 2.608 4.952 5.576 7.184 8.688l2.168 3.008 1.648 2.304 -1 2c-4.48 -1.496 -6.856 -4.976 -9 -9a33.6 33.6 0 0 1 -1 -7" fill="#4F4F4F"/>
  <path d="M388 448h3l-1 9h-2l-0.376 2.752a20.8 20.8 0 0 1 -2.624 7.248c-1.248 -6.624 -1.248 -6.624 1 -10l1 -3 1 1 -0.56 -2.376c-0.44 -2.624 -0.44 -2.624 0.56 -4.624" fill="#E3E2E2"/>
  <path d="M592 350c4.456 0.496 6.576 2.024 9.816 5.064l2.392 2.224 1.792 1.712 -2 2 -6 -4.376 -1.736 -1.248A112 112 0 0 1 592 352z" fill="#373838"/>
  <path d="M425 529v3h6v2c-7.752 -0.872 -7.752 -0.872 -10 -2a280 280 0 0 0 -8.624 -0.56l-2.432 -0.128q-2.968 -0.16 -5.944 -0.304v-1l8.248 -0.504 2.352 -0.144 2.288 -0.136 2.096 -0.128c2 -0.088 4.008 -0.088 6.016 -0.088" fill="#534F45"/>
  <path d="m226 493 8 1V496l5 1 -1 3 4 1 -2 1c-2.496 -1.112 -2.496 -1.112 -5.44 -2.752l-2.936 -1.608a24 24 0 0 1 -5.632 -4.64" fill="#515151"/>
  <path d="m196 460 3 2v4h2c1.288 1.528 1.288 1.528 2.624 3.504l1.352 1.968 1.024 1.528 -1 2c-4.184 -2.512 -7.048 -4.448 -9 -9 -0.184 -3.312 -0.184 -3.312 0 -6" fill="#CECDCD"/>
  <path d="M429 388h2a128 128 0 0 1 -1 18l-2 -1 -0.064 -6.816 -0.032 -3.832c0.096 -3.352 0.096 -3.352 1.096 -6.352" fill="#EEEDED"/>
  <path d="M280 552v3l-29 -1v-1l10 -0.504 2.832 -0.144A272 272 0 0 1 280 552" fill="#4B4B4C"/>
  <path d="M304 543v2c-5.528 2.104 -10.072 3.376 -16 3l-1 -2q2.84 -0.76 5.688 -1.504l3.2 -0.84A30.4 30.4 0 0 1 304 543" fill="#EDEDEC"/>
  <path d="M376 537v2a88 88 0 0 1 -5.376 3.504c-4.056 2.44 -4.056 2.44 -7.624 5.504L360 547.008c11.04 -10 11.04 -10 16 -10" fill="#383837"/>
  <path d="m310 503 -5 2 1 2c-5.528 0.712 -10.504 1.304 -16 0v-1l2.992 -0.624 3.88 -0.816 3.864 -0.808c6.648 -1.536 6.648 -1.536 9.256 -0.752" fill="#C8C8C7"/>
  <path d="M373 490c1.184 3.496 1.04 3.912 -0.624 7.56 -1.968 3.184 -3.952 4.816 -7.376 6.44l-2 1c1.624 -3.584 3.792 -6.592 6.128 -9.752l2.192 -2.984z" fill="#595958"/>
  <path d="m473 388 1.648 1.28 2.168 1.656 2.144 1.656c2.088 1.576 2.088 1.576 5.04 2.408a88 88 0 0 1 4 4l-1 3c-5.096 -3.648 -9.776 -7.352 -14 -12z" fill="#383838"/>
  <path d="M466 378h5l1.128 3c1.912 4.528 4.816 8.192 7.872 12l-1.832 -0.936c-2.224 -1.128 -2.224 -1.128 -4.856 -2.128 -2.776 -2.328 -2.744 -3.144 -3.128 -6.624a120 120 0 0 1 -0.184 -4.312h-3L466 384c-1.248 -2.488 -0.776 -3.408 0 -6" fill="#848584"/>
  <path d="M456 608c0 4.272 -1.656 6.48 -4 10h-2l-1 2c-2.064 0.624 -2.064 0.624 -4 1 3.384 -4.696 6.784 -9.032 11 -13" fill="#5CAE52"/>
  <path d="M618 538c-0.2 1.888 -0.2 1.888 -1 4 -2.144 1.08 -2.144 1.08 -4.816 1.816l-2.648 0.768a11.6 11.6 0 0 1 -6.544 -0.584c9.432 -6 9.432 -6 15 -6" fill="#EDECEC"/>
  <path d="m226 402 22 1v3q-4.656 -0.424 -9.312 -0.872l-2.672 -0.24 -2.568 -0.256 -2.36 -0.224c-2.088 -0.408 -2.088 -0.408 -5.088 -2.408" fill="#646564"/>
  <path d="M424 612c0 4.704 -2.08 7.312 -5.128 10.752l-1.632 1.864 -1.24 1.384 -2 -1c2.624 -4.944 6.264 -8.88 10 -13" fill="#4B483F"/>
  <path d="M400 615c3.152 1.368 5.048 2.872 7.248 5.504l1.576 1.848c1.176 1.648 1.176 1.648 1.176 3.648 -4.096 -1.576 -7.36 -4.544 -10 -8z" fill="#E4E3A8"/>
  <path d="M323 497c-2.744 2.944 -5.312 5.336 -9 7 -2.312 -0.816 -2.312 -0.816 -4 -2l1 -2h4v-2c2.712 -1.352 5.008 -1.064 8 -1" fill="#DBDADA"/>
  <path d="M682 476c0.704 1.64 0.704 1.64 1 4 -1.36 2.8 -1.36 2.8 -3.312 5.752l-1.928 2.984 -1.76 2.264h-2c1.744 -4.92 4.256 -11.256 8 -15" fill="#F1F1F0"/>
  <path d="M353 191c5.632 0.624 5.632 0.624 7.408 2.44 1.968 1.928 3.664 2.448 6.28 3.248l2.448 0.76 1.864 0.552c-4.088 1.72 -7.368 0.072 -11.248 -1.44l-1.968 -0.736 -4.784 -1.824z" fill="#485F46"/>
  <path d="M180 531c5.504 0.416 9.76 2.544 14 6v2c-3.96 -0.56 -6.528 -1.736 -9.808 -4l-2.392 -1.624 -1.8 -1.376z" fill="#383838"/>
  <path d="M476 473a84.8 84.8 0 0 1 13 13c-4.032 -0.536 -5.944 -2.544 -8.752 -5.376l-2.424 -2.4c-1.824 -2.224 -1.824 -2.224 -1.824 -5.224" fill="#323132"/>
  <path d="M617 373h2q1.544 2.68 3.064 5.376l1.72 3.024 1.216 2.6 -1 2 -1 -3H620c-2.032 -3.728 -3 -5.672 -3 -10" fill="#5C5C5C"/>
  <path d="M373 342c4.008 3.672 6.56 7.12 9 12v3h-2c-1.728 -2.52 -1.728 -2.52 -3.624 -5.816l-1.912 -3.272c-1.464 -2.912 -1.464 -2.912 -1.464 -5.912" fill="#363637"/>
  <path d="M310 293c3.312 -0.184 3.312 -0.184 7 0 1.56 1.44 1.56 1.44 3 3 3.112 0.728 3.112 0.728 6 1v4l-4 -1v-2l-2.064 -0.312c-3.568 -0.832 -6.6 -2.184 -9.936 -3.688z" fill="#626262"/>
  <path d="m452 583 2 3a200 200 0 0 1 -3.248 3.56l-1.832 2 -1.92 1.44 -4 -1z" fill="#504B40"/>
  <path d="M502 537c5.424 0.56 10.256 2.352 15 5l1 2c-4.864 -0.608 -9.64 -1.704 -14 -4z" fill="#F3F3F3"/>
  <path d="M200 463h2c1.728 2.296 1.728 2.296 3.624 5.312l1.912 2.984c1.464 2.704 1.464 2.704 1.464 5.704 -3.584 -3.384 -6.496 -6.736 -9 -11z" fill="#363636"/>
  <path d="M326 352c3.664 0.584 5.544 2.08 8.248 4.56l2.144 1.936 1.608 1.504 -1 3 -2.128 -2.248c-2.8 -2.84 -2.8 -2.84 -6.184 -4.936l-2.688 -1.816z" fill="#383839"/>
  <path d="m144 340 1 3c-1.36 2.664 -1.36 2.664 -3.312 5.624l-1.928 2.976c-1.76 2.4 -1.76 2.4 -3.76 3.4 0.552 -4.28 2.024 -6.848 4.56 -10.312l1.936 -2.68z" fill="#363636"/>
  <path d="M445 488c3.256 3.024 5.616 6.256 8 10l-1 2c-3.464 -1.152 -3.88 -1.88 -5.752 -4.872l-1.36 -2.12c-0.888 -2.008 -0.888 -2.008 0.112 -5.008" fill="#565757"/>
  <path d="M298 339c5.64 0.496 9.944 1.416 15 4l1 2a208 208 0 0 1 -16 -4z" fill="#333434"/>
  <path d="M356 287c5.472 1.176 8.352 2.496 12 7 0.632 2.168 0.632 2.168 1 4 -4.696 -3.384 -9.032 -6.784 -13 -11" fill="#5DAF53"/>
  <path d="m201 567 1 3c2.016 0.736 2.016 0.736 4 1 -2 1 -2 1 -4.568 0.296l-2.992 -1.104 -3.008 -1.08C193 568 193 568 192 566c3.8 -1.264 5.384 -0.568 9 1" fill="#445043"/>
  <path d="M544 548v3c-10.56 0.184 -10.56 0.184 -15 -1v-1c5.048 -1.04 9.872 -1.104 15 -1" fill="#D2D1D1"/>
  <path d="M524 544c1.184 2 1.184 2 2 4l3 1c-7.432 -1 -7.432 -1 -11 -2v-2l-4 -1c3.584 -1.24 6.368 -1.024 10 0" fill="#C6C6C5"/>
  <path d="M128 517c3.256 3.168 6.224 6.4 9 10l-3 2a288 288 0 0 1 -3 -3.752l-1.688 -2.112C128 521 128 521 128 517" fill="#5CAF52"/>
  <path d="M134 473c2.064 2.064 2.648 3.304 3.624 6l0.792 2.128c0.584 1.872 0.584 1.872 0.584 3.872h2v2c-1.816 -0.128 -1.816 -0.128 -4 -1 -2.92 -4.384 -3.312 -7.8 -3 -13" fill="#5A5A5A"/>
  <path d="M392 428h2c0.232 6.4 -0.176 11.848 -2 18h-1l-0.064 -7.872 -0.024 -2.264c-0.024 -5.64 -0.024 -5.64 1.088 -7.864" fill="#CECDCD"/>
  <path d="m222 402 3.008 0.432q5.96 0.848 11.936 1.624l2.072 0.28 4.984 0.664v1c-14.104 0.384 -14.104 0.384 -21 -2z" fill="#303030"/>
  <path d="M546 336q3.872 -0.12 7.752 -0.184l2.208 -0.08c3.384 -0.048 5.616 0.008 8.552 1.776l1.488 1.488c-6.864 0.264 -13.256 -0.744 -20 -2z" fill="#333333"/>
  <path d="M418 615h2c-1.4 5.288 -4.856 7.776 -9 11v-4h2l2 -4h2z" fill="#E9C568"/>
  <path d="M378 596c3.544 1.416 4.336 2.68 6 6a88 88 0 0 0 4 2l2 3c-4.264 -0.472 -6.176 -2.96 -9 -6l-1.816 -1.688c-1.184 -1.312 -1.184 -1.312 -1.184 -3.312" fill="#393A39"/>
  <path d="M582 503c-6.752 4 -6.752 4 -9 4v-2l-6 1c2.248 -2.248 3.328 -2.512 6.376 -3.184l2.336 -0.544c2.4 -0.28 4.008 -0.008 6.288 0.728" fill="#D6D6D5"/>
  <path d="M206 475c3.6 3.496 6.832 7.112 10 11l-3 1c-4.4 -3.824 -5.808 -6.472 -7 -12" fill="#DAD9D9"/>
  <path d="m393 446 2 1v2h-2l0.064 3.248c-0.048 2.896 -0.192 5.032 -1.064 7.752h-2c-0.296 -5.672 -0.008 -8.992 3 -14" fill="#3A3A3A"/>
  <path d="M238 285c-3.384 1.896 -6.736 2.8 -10.504 3.688l-3.408 0.824c-2.864 0.448 -4.416 0.464 -7.096 -0.512 13.448 -4.592 13.448 -4.592 21 -4" fill="#B6B6B6"/>
  <path d="M238 283c-4.88 3.248 -9.224 3.112 -15 3 4.608 -4.072 9.152 -4.544 15 -3" fill="#353636"/>
  <path d="m619 266 2.816 0.56c3.2 0.68 3.2 0.68 6.184 -0.56 2.688 1.312 2.688 1.312 5 3v2c-5.056 -0.632 -9.296 -2.136 -14 -4z" fill="#4C884B"/>
  <path d="M390 207c5.328 0.336 9.632 0.616 14 4v1c-5.656 0.568 -9.224 -1.288 -14 -4z" fill="#445243"/>
  <path d="M356 551c0 4 -1.528 5.488 -3.872 8.688l-2.184 3.008 -1.944 2.304h-2c1.376 -4.064 3.224 -6.672 6.128 -9.808l2.192 -2.392z" fill="#363637"/>
  <path d="m669 540 2 1c-4.184 5.472 -7.056 8.864 -14 10 3.8 -3.92 7.816 -7.488 12 -11" fill="#4D8D4C"/>
  <path d="M692 516c0 2.704 -0.032 4.504 -1 7 -2.064 1.248 -2.064 1.248 -4 2v2H684c1.368 -2.992 2.952 -5.288 5.128 -7.752l1.632 -1.864z" fill="#4D8E4C"/>
  <path d="M674 494c0 4.92 -1.936 8.248 -5 12l-4 -1z" fill="#575757"/>
  <path d="M347 371c4.176 3.712 7.176 7.64 9 13l-1 2 -1 -4H352v-2l-3 -1c-0.728 -1.848 -0.728 -1.848 -1.184 -4.064l-0.48 -2.224z" fill="#727271"/>
  <path d="M471 317c0 3 0 3 -1.896 5.264l-2.48 2.424 -2.456 2.448c-2.168 1.864 -2.168 1.864 -4.168 1.864 1.504 -3.672 3.64 -5.688 6.624 -8.248l2.48 -2.144z" fill="#CCCCCB"/>
  <path d="m456 293 2 1a184 184 0 0 1 -14 13l-2 -1c4.488 -4.592 8.984 -8.992 14 -13" fill="#445244"/>
  <path d="M215 288v2a336 336 0 0 1 -4.752 2.064l-2.672 1.16c-2.728 0.824 -3.944 0.752 -6.576 -0.224l4.752 -2.504 2.672 -1.408c2.576 -1.088 2.576 -1.088 6.576 -1.088" fill="#353536"/>
  <path d="M378 591c6.704 5.096 6.704 5.096 7.936 8.872l0.064 2.128c-2 0 -2 0 -3.512 -1.392l-1.616 -1.864 -1.632 -1.832c-1.24 -1.912 -1.24 -1.912 -1.24 -5.912" fill="#DAD9A1"/>
  <path d="m478 524 5 2 2.688 1C488 528 488 528 490 530l-1 2c-4.6 -1.488 -7.472 -3.8 -11 -7z" fill="#CAC9C9"/>
  <path d="m370 491 1 3c-1.36 2.264 -1.36 2.264 -3.312 4.688l-1.928 2.448 -1.76 1.864h-2c1.408 -3.04 3.088 -5.592 5.128 -8.248l1.632 -2.144z" fill="#F0F0F0"/>
  <path d="M210 542c4.968 0.512 9.288 1.232 14 3v2c-5.28 -0.536 -9.256 -1.776 -14 -4z" fill="#F2F1F1"/>
  <path d="M425 530q2.904 0.384 5.816 0.816l3.272 0.456c2.912 0.728 2.912 0.728 5.912 3.728l-9 -1v-2h-6z" fill="#37383B"/>
  <path d="M455 502c2.96 2.808 5.448 5.184 7 9h-3c-2.752 -2.808 -2.752 -2.808 -5 -6z" fill="#4C4D4D"/>
  <path d="m601 487 2 1c-4 6.568 -4 6.568 -8 8L592 494z" fill="#CFCFCE"/>
  <path d="M622 457c1 4 1 4 -0.216 6.36l-1.72 2.392 -1.712 2.424 -1.352 1.824 -2 -1z" fill="#353535"/>
  <path d="M516 404v2c-2.768 1.384 -5.048 1.096 -8.128 1.064l-3.32 -0.032 -2.552 -0.032v-2l5.312 -0.504 2.984 -0.28c2.704 -0.216 2.704 -0.216 5.704 -0.216" fill="#323333"/>
  <path d="m348 563 1 2 1.816 0.816c2.84 1.544 4.288 3.608 6.184 6.184 -3.144 -0.352 -4.792 -0.84 -7.312 -2.808 -1.688 -2.192 -1.688 -2.192 -1.688 -6.192" fill="#4A4A44"/>
  <path d="M494 535c3.312 -0.248 3.312 -0.248 7 0 1.688 1.872 1.688 1.872 3 4 2.08 1.256 2.08 1.256 4 2l-2 1a160 160 0 0 1 -5 -3c-2.312 -1.072 -4.648 -2.032 -7 -3z" fill="#C3C3C2"/>
  <path d="M337 526c-1.152 3.464 -1.88 3.88 -4.872 5.752l-2.12 1.36c-2.008 0.888 -2.008 0.888 -5.008 -0.112 8.448 -7 8.448 -7 12 -7" fill="#F0F0EF"/>
  <path d="M498 495c5.624 -0.248 5.624 -0.248 9 2v2h2v2c-4.04 -1.224 -7.496 -2.632 -11 -5z" fill="#5F5F5F"/>
  <path d="M681 482c1 2 1 2 0.192 5.44 -1.192 3.56 -1.192 3.56 -3.192 6.56h-3v-2h2l0.312 -2.184c0.744 -3.056 1.968 -5.192 3.688 -7.816" fill="#5D5D5D"/>
  <path d="M123 386h1l0.064 4.248 0.032 2.392a25.6 25.6 0 0 1 -1.096 6.36h-2a272 272 0 0 1 -0.128 -4.248l-0.072 -2.392c0.208 -2.568 0.912 -4.152 2.192 -6.36" fill="#383838"/>
  <path d="M364 330c3.256 3.168 6.224 6.4 9 10l-2 2q-1.76 -2.152 -3.504 -4.312l-1.968 -2.424c-1.528 -2.264 -1.528 -2.264 -1.528 -5.264" fill="#373737"/>
  <path d="m322 268 10 1 2 5a72 72 0 0 1 -12 -5z" fill="#58A150"/>
  <path d="m617 740 2 1c-1.712 2.952 -2.576 3.88 -5.92 4.832l-3.272 0.424 -3.288 0.456 -2.52 0.288c1.28 -2.56 2.16 -2.592 4.816 -3.504 2.312 -0.808 4.384 -1.608 6.56 -2.752z" fill="#486146"/>
  <path d="M400 619c3.36 1.44 5.632 3.208 8 6v3c-3.792 -1.488 -5.68 -3.688 -8 -7z" fill="#3A3A3A"/>
  <path d="M455 546c7.48 6.152 7.48 6.152 10 10 -3.256 -0.576 -4.936 -1.528 -7.248 -3.872l-1.576 -1.552c-1.176 -1.576 -1.176 -1.576 -1.176 -4.576" fill="#EAC869"/>
  <path d="m602 543 2.192 0.56c2.936 0.456 4.952 0.168 7.816 -0.56 -1.368 2.744 -3.336 3.272 -6.08 4.4 -2.68 0.832 -5.144 0.8 -7.92 0.6l3 -1c0.736 -2.016 0.736 -2.016 1 -4" fill="#ABABAA"/>
  <path d="M180 528c6.4 0.368 6.4 0.368 9.44 3.56l1.56 2.44 -2 1 -4.504 -2.936 -2.528 -1.656 -1.968 -1.408z" fill="#CFCFCF"/>
  <path d="m646 523 2 1c-1.632 3.448 -2.52 4.784 -6.064 6.376 -2.936 0.624 -2.936 0.624 -4.936 -0.376z" fill="#555555"/>
  <path d="M634 732c-0.688 2.44 -0.688 2.44 -2 5 -2.504 0.936 -2.504 0.936 -5 1l-2 -2c6.752 -4 6.752 -4 9 -4" fill="#445343"/>
  <path d="M610 546c-2.352 2.728 -4.544 3.984 -8 5 -2.312 -0.376 -2.312 -0.376 -4 -1v-2c4.12 -1.296 7.672 -2.264 12 -2" fill="#363737"/>
  <path d="M129 468c3 1 3 1 3.984 2.744l0.768 2.136 0.8 2.12c0.448 2 0.448 2 -0.552 5l-2.504 -4.312 -1.408 -2.424c-1.088 -2.264 -1.088 -2.264 -1.088 -5.264" fill="#353535"/>
  <path d="M355 458c1.6 3.2 0.032 5.72 -1 9l-4 1c1.336 -3.592 2.96 -6.752 5 -10" fill="#CBCBCA"/>
  <path d="m384 630 3.44 2.872 1.936 1.616c1.624 1.512 1.624 1.512 2.624 3.512 -2.704 -0.368 -4.584 -0.696 -6.816 -2.312C384 634 384 634 384 630" fill="#7DBA63"/>
  <path d="M471 567c-1.648 4.288 -4.736 6.88 -8 10l-2 -1 1.936 -1.816c2.264 -2.096 2.264 -2.096 3.064 -5.184 3 -2 3 -2 5 -2" fill="#353739"/>
  <path d="M446 486c2.6 2.512 5.04 4.96 7 8v3h-2c-1.288 -1.648 -1.288 -1.648 -2.624 -3.808l-1.352 -2.144c-1.024 -2.048 -1.024 -2.048 -1.024 -5.048" fill="#F1F0F0"/>
  <path d="M468 464q3.592 4.424 7 9l-1 2c-3.16 -1.368 -3.992 -1.992 -6 -5 -0.128 -3.184 -0.128 -3.184 0 -6" fill="#C9C9C8"/>
  <path d="m629 299 5 1 1 3c2.016 0.736 2.016 0.736 4 1l-1 2c-4.752 -1.872 -4.752 -1.872 -7 -3v-2h-2z" fill="#545454"/>
  <path d="M314 538v3c-3.136 1.856 -5.376 2.2 -9 2v-2c6.752 -3 6.752 -3 9 -3" fill="#EFEEEE"/>
  <path d="M343 473 344 476c-1.4 2.264 -3.2 4.016 -5 6L336 481z" fill="#383938"/>
  <path d="M457 442c2.04 1.688 2.92 2.64 3.512 5.264l0.176 2.424 0.2 2.448 0.112 1.864c-2.04 -1.688 -2.92 -2.64 -3.512 -5.264l-0.176 -2.424 -0.2 -2.448z" fill="#F0EFEF"/>
  <path d="M274 384c0 4.536 0 4.536 -1 7 -2.904 2.144 -4.352 3 -8 3z" fill="#686869"/>
  <path d="M415 651c0.688 1.816 0.688 1.816 1 4 -1.128 1.816 -1.128 1.816 -3 3 -2.688 -0.312 -2.688 -0.312 -5 -1 1.272 -2.536 2.496 -2.784 5 -4z" fill="#5EAB53"/>
  <path d="M219 549c7.432 -0.288 7.432 -0.288 11 2V552c-7.432 0.288 -7.432 0.288 -11 -2z" fill="#373738"/>
  <path d="M601 545v2c-3.472 1.16 -6.36 1.072 -10 1l-1 -2a50.4 50.4 0 0 1 11 -1" fill="#F1F0F0"/>
  <path d="M322 493c-1 3 -1 3 -3.808 4.752 -3.328 1.304 -3.984 1.28 -7.184 0.248l4.376 -2.504 2.456 -1.408c2.16 -1.088 2.16 -1.088 4.16 -1.088" fill="#353536"/>
  <path d="m606 480 1 3c-5.752 5 -5.752 5 -8 5 1.488 -3.792 3.76 -5.608 7 -8" fill="#393A38"/>
  <path d="M352 457h2c-0.472 4.168 -1.048 6.928 -4 10h-2z" fill="#353536"/>
  <path d="M625 387c2.68 1.344 2.752 2.52 3.688 5.312l0.824 2.36c0.528 2.504 0.304 3.928 -0.512 6.32l-0.872 -2.44c-0.856 -2.696 -0.856 -2.696 -3.128 -3.56z" fill="#666666"/>
  <path d="M467 379h3l1 7 -3 -1 -2 1z" fill="#373737"/>
  <path d="M428 377h2c0.128 6.624 0.128 6.624 -1 10h-2z" fill="#373838"/>
  <path d="m457 328 1 3c-1.4 2.264 -3.2 4.016 -5 6L450 336z" fill="#373738"/>
  <path d="M600 288q2.16 -0.12 4.312 -0.184l2.424 -0.104c2.744 0.352 3.552 1.184 5.264 3.296 -3.304 1.128 -5.048 0.896 -8.248 -0.44l-2.144 -0.872 -1.608 -0.696z" fill="#5C5C5C"/>
  <path d="M167 553c6.752 0.752 6.752 0.752 9 3l1 3a48 48 0 0 1 -10 -5z" fill="#465744"/>
  <path d="M526 546h8l1 3 -9 -1z" fill="#EDECEC"/>
  <path d="m628 536 -1 4c-5.752 1.128 -5.752 1.128 -8 0 6.752 -4 6.752 -4 9 -4" fill="#606060"/>
  <path d="M465 455c2.064 1.688 2.064 1.688 4 4 -0.248 2.752 -0.248 2.752 -1 5 -2.128 -2.592 -3.536 -4.632 -4 -8z" fill="#505050"/>
  <path d="M460 447c4.136 6.2 4.136 6.2 3.624 9.248l-0.624 1.752h-2a72 72 0 0 1 -1 -11" fill="#CECECE"/>
  <path d="M104 361c0.912 3.072 1.088 5.8 1 9l-4 2c0.672 -3.808 1.728 -7.352 3 -11" fill="#455444"/>
  <path d="M663 325a272 272 0 0 1 3.504 2.816l1.968 1.584c1.528 1.6 1.528 1.6 1.528 4.6h-2c-5 -5.36 -5 -5.36 -5 -9" fill="#353636"/>
  <path d="M645 311c6.752 1.624 6.752 1.624 9 5l-2 2 -3.504 -2.936 -1.968 -1.656 -1.528 -1.408z" fill="#525252"/>
  <path d="M334 274c4.104 1.184 5.896 1.896 9 5l-10 -2z" fill="#475B45"/>
  <path d="M354 556c1 2 1 2 0.064 5.128l-1.064 2.872 -3 -1 -1 2c0.576 -3.872 2.488 -6.08 5 -9" fill="#C3C194"/>
  <path d="M302 548c-1.064 1.504 -1.064 1.504 -3 3 -3.688 0.192 -3.688 0.192 -7 0 5.624 -4.456 5.624 -4.456 10 -3" fill="#363636"/>
  <path d="m394 534 -8 4c-2.128 -0.936 -2.128 -0.936 -4 -2a208 208 0 0 1 3.752 -1.56l2.112 -0.88c2.44 -0.64 3.776 -0.36 6.136 0.44" fill="#C4C296"/>
  <path d="M405 509c-2.896 1.936 -3.896 2.304 -7.184 2.624L394 512l1 -3c3.28 -1.64 6.424 -0.52 10 0" fill="#62C456"/>
  <path d="M596 490c-1 3 -1 3 -3.312 4.752 -3.008 1.4 -3.672 1.2 -6.688 0.248l3.872 -2.504 2.184 -1.408c1.944 -1.088 1.944 -1.088 3.944 -1.088" fill="#373738"/>
  <path d="M404 487h3c-1.752 5.752 -1.752 5.752 -4 8 -0.928 -2.608 -1.152 -3.64 -0.064 -6.248z" fill="#444E43"/>
  <path d="m427 448 2 1c0.416 2.064 0.416 2.064 0.624 4.56l0.224 2.504 0.152 1.936 -2 1c-1.176 -3.672 -1.072 -7.168 -1 -11" fill="#373737"/>
  <path d="M280 371c1.24 3.576 0.752 6.336 0 10l-4 1q0.712 -2.192 1.44 -4.376l0.808 -2.456c0.752 -2.168 0.752 -2.168 1.752 -4.168" fill="#5E5E5E"/>
  <path d="M426 326c0 3.376 -0.872 5.832 -2 9h-3c1.248 -3.456 2.672 -6.144 5 -9" fill="#434F43"/>
  <path d="M394 327c3.08 2.776 4.688 5.064 6 9h-3c-2.504 -3.336 -3 -4.736 -3 -9" fill="#455443"/>
  <path d="M466 318h2c-1.44 3.36 -3.248 5.592 -6 8h-2c0.816 -1.936 0.816 -1.936 2 -4l3 -1z" fill="#323232"/>
  <path d="M297 288c8.568 -0.288 8.568 -0.288 12 2l-1 2 -11 -3z" fill="#4E4E4E"/>
  <path d="m216 286 4 2c-3.64 3.336 -7.288 3.976 -12 5l1 -2c3.064 -0.624 3.064 -0.624 6 -1z" fill="#6C6D6C"/>
  <path d="M402 213c2.752 -0.248 2.752 -0.248 6 0 2.376 2 2.376 2 4 4 -4.216 -0.48 -6.8 -1.168 -10 -4" fill="#445243"/>
  <path d="M382 538c-2.312 2.312 -3.48 2.496 -6.624 3.128l-2.48 0.512 -1.896 0.36c3.48 -3.584 5.936 -5.808 11 -4" fill="#B9B993"/>
  <path d="M330 535v2c-2.312 1.688 -2.312 1.688 -5 3l-3 -1c3.504 -4 3.504 -4 8 -4" fill="#373738"/>
  <path d="m393 510 1 2h13v1L392 514z" fill="#475B45"/>
  <path d="m236 496 3 2 -1 2 4 1 -2 1c-1.944 -0.776 -1.944 -0.776 -4.128 -1.936l-2.192 -1.152 -1.68 -0.912z" fill="#6C6C6C"/>
  <path d="M486 486c4.752 0.752 4.752 0.752 7 3l1 3c-3.912 -1.272 -5.792 -2.512 -8 -6" fill="#595958"/>
  <path d="M620 465c1.336 2.664 0.672 4.168 0 7l-4 1c1.128 -2.968 2.224 -5.336 4 -8" fill="#C6C6C5"/>
  <path d="M194 449c2.8 2.072 3.024 3.144 3.688 6.688l0.312 3.312c-2.8 -2.072 -3.024 -3.144 -3.688 -6.688z" fill="#323233"/>
  <path d="M359 438H360v8l-3 1c0.872 -6.752 0.872 -6.752 2 -9" fill="#353536"/>
  <path d="M694 378H696l1 10 -2 -1c-0.416 -2.064 -0.416 -2.064 -0.624 -4.56l-0.224 -2.504z" fill="#323232"/>
  <path d="M435 361h1c0.248 2.752 0.248 2.752 0 6 -2 2.376 -2 2.376 -4 4 0.752 -6.624 0.752 -6.624 3 -10" fill="#383838"/>
  <path d="m138 353 1 2c-0.776 1.728 -0.776 1.728 -1.936 3.624l-2.064 3.376c-1.432 -2.864 -0.6 -4.936 0 -8z" fill="#797979"/>
  <path d="M529 285v2L520 288v-2c3.072 -0.912 5.8 -1.088 9 -1" fill="#353636"/>
  <path d="m179 276 -1 4 -7 1c4.84 -5 4.84 -5 8 -5" fill="#445443"/>
  <path d="M442 593c0 3.608 -0.992 5.064 -3 8l-2 1c0.48 -4.312 1.744 -6.168 5 -9" fill="#5C5546"/>
  <path d="M590 548c-3.448 2.296 -5.936 2.544 -10 3v-2c3.216 -1.608 6.432 -1.056 10 -1" fill="#F0EFEF"/>
  <path d="M172 522c2.872 0.192 2.872 0.192 6 1 1.376 2.56 1.376 2.56 2 5 -3.368 -1.44 -5.512 -3.336 -8 -6" fill="#D0CFCF"/>
  <path d="M698 508c0 2.624 -0.312 4.512 -1 7l-4 1c1.376 -2.952 2.992 -5.44 5 -8" fill="#4D8A4B"/>
  <path d="M424 507a88 88 0 0 1 4 4v2L419 512v-1h6z" fill="#4C7D4A"/>
  <path d="M333 485c-1.152 2.464 -2.048 4.048 -4 6 -2.128 -0.376 -2.128 -0.376 -4 -1h2V488c3.464 -3 3.464 -3 6 -3" fill="#373838"/>
  <path d="M393 438h1l1 9h-2l-2 3c0.552 -4.032 1.152 -8.016 2 -12" fill="#5A5B5B"/>
  <path d="M425 433h1c2.28 8.032 2.28 8.032 1 12 -2.408 -3.608 -3.248 -5.456 -2.56 -9.752z" fill="#4E4E4E"/>
  <path d="M357 395h2l1 10c-3.16 -4.216 -3.336 -5.056 -3 -10" fill="#303031"/>
  <path d="M208 393c3.792 0.544 5.472 2.2 8 5h-4c-2.248 -2.504 -2.248 -2.504 -4 -5" fill="#373737"/>
  <path d="M621 383h2c3.104 5.456 3.104 5.456 2.592 8.2l-0.592 1.8 -2 -3.872 -1.128 -2.184c-0.872 -1.944 -0.872 -1.944 -0.872 -3.944" fill="#313131"/>
  <path d="m129 365 2 1c-0.496 4.464 -0.688 5.688 -4 9z" fill="#343434"/>
  <path d="M682 351c3.256 2.832 4.52 4.688 5 9h-2c-3 -5.624 -3 -5.624 -3 -9" fill="#333334"/>
  <path d="m449 338 1 3c-1.816 2.688 -1.816 2.688 -4 5h-2c1.184 -3.376 2.272 -5.648 5 -8" fill="#333434"/>
  <path d="M672 336c4.872 4.624 4.872 4.624 6 8 -3.16 -1.368 -3.992 -1.992 -6 -5z" fill="#363636"/>
  <path d="M587 283v2l-12 -1v-1c8.568 -1.288 8.568 -1.288 12 0" fill="#474747"/>
  <path d="M371 586c3.84 0.96 4.6 1.232 7 4l-1 3z" fill="#ECEBAD"/>
  <path d="m469 561 2 1c0.624 2.56 0.624 2.56 1 5l-6 2 1.504 -1.752c1.872 -2.352 1.872 -2.352 1.504 -6.248" fill="#655E4B"/>
  <path d="M466 554c4.872 4.624 4.872 4.624 6 8 -3.424 -1.144 -4.144 -2 -6 -5z" fill="#3A3A3A"/>
  <path d="M432 534c3.44 0.816 3.44 0.816 7 2l1 3 -2 1a320 320 0 0 1 -6 -5z" fill="#CFB164"/>
  <path d="M318 536h6c-1 2 -1 2 -3.064 2.848l-2.496 0.776 -2.504 0.792 -1.936 0.584 1 -3 2 1z" fill="#C9C9C8"/>
  <path d="M401 499h2c-0.632 2.928 -1.584 5.36 -3 8l-3 -1z" fill="#62C556"/>
  <path d="M246 503q2.44 -0.12 4.872 -0.184l2.744 -0.104 2.384 0.288 2 3 -4.312 -0.376 -2.424 -0.208c-2.264 -0.416 -2.264 -0.416 -5.264 -2.416" fill="#565756"/>
  <path d="M575 502c-3.432 2.288 -4.984 2.176 -9 2v-2c3.376 -0.848 5.672 -1.112 9 0" fill="#333434"/>
  <path d="M408 482h3v5l-2 1 -2 -1z" fill="#56A250"/>
  <path d="M381 471c0.928 2.608 1.152 3.64 0.064 6.248l-1.064 1.752h-2c0.752 -5.752 0.752 -5.752 3 -8" fill="#F1F0F0"/>
  <path d="m360 401 2 1v8l-1 -2h-2z" fill="#4A4B4B"/>
  <path d="M204 386c4.872 4.752 4.872 4.752 6 7L205 392c-0.552 -2.08 -1 -3.84 -1 -6" fill="#494948"/>
  <path d="m370 586 6 5c-1.872 0.624 -1.872 0.624 -4 1l-2 -2z" fill="#514F44"/>
  <path d="M388 531H400c-3.032 2.024 -4.192 2.32 -7.688 2.624l-2.448 0.224 -1.864 0.152z" fill="#595850"/>
  <path d="M647 521c-1.048 2.624 -1.648 3.792 -4.128 5.248l-1.872 0.752V524c3.336 -3 3.336 -3 6 -3" fill="#EEEEEE"/>
  <path d="m469 515 4 1v2l3 1c-1.816 0.688 -1.816 0.688 -4 1 -1.752 -1.312 -1.752 -1.312 -3 -3z" fill="#ECECEC"/>
  <path d="M583 496h5v2l-6 2z" fill="#535353"/>
  <path d="M141 487c2.728 2.352 3.816 4.624 5 8l-4 -1z" fill="#5E5E5E"/>
  <path d="M217 484c1.936 0.752 1.936 0.752 4 2 0.752 2.128 0.752 2.128 1 4 -1.936 -0.752 -1.936 -0.752 -4 -2 -0.752 -2.128 -0.752 -2.128 -1 -4" fill="#4C4C4C"/>
  <path d="M468 461c2.528 2.36 3.888 3.664 5 7h-3c-1.456 -2.648 -2 -3.896 -2 -7" fill="#373837"/>
  <path d="M131 461c2.504 2.176 3.432 3.728 4 7l-4 -1z" fill="#EDECEC"/>
  <path d="M388 448h3l-1 9h-1l-0.44 -2.376c-0.44 -2.592 -0.44 -2.592 -1.56 -4.624z" fill="#CAC9C9"/>
  <path d="m495 402 8 1c-3.232 2.152 -4.28 2.2 -8 2z" fill="#4E4F4F"/>
  <path d="M544 382h1v6l-5 1z" fill="#5E5E5E"/>
  <path d="m342 367 4 1 1 4 -2 1c-3 -3.752 -3 -3.752 -3 -6" fill="#494849"/>
  <path d="M134 357c1.032 3.104 1.176 4.056 0 7l-3 1c0.752 -5.752 0.752 -5.752 3 -8" fill="#383939"/>
  <path d="M112 343c1.064 1.872 1.064 1.872 2 4l-1 2c-2.064 0.624 -2.064 0.624 -4 1 1.872 -5.872 1.872 -5.872 3 -7" fill="#455744"/>
  <path d="m564 337 9 1c-1.816 1.56 -1.816 1.56 -4 3l-3 -1v-2z" fill="#636363"/>
  <path d="M476 311c-1.152 2.464 -2.048 4.048 -4 6l-3 -1c4.752 -5 4.752 -5 7 -5" fill="#373737"/>
  <path d="M489 302c-1 3 -1 3 -4 5h-3v-2c4.384 -3 4.384 -3 7 -3" fill="#373838"/>
  <path d="m326 301 9 2v3c-3.08 -1.2 -6.064 -2.48 -9 -4z" fill="#626162"/>
  <path d="M510 290h8l-1 2q-3.48 0.616 -7 1z" fill="#6C6C6B"/>
  <path d="m659 287 7 2 -1 4a320 320 0 0 1 -6 -5z" fill="#4D8E4C"/>
  <path d="m345 280 7 1 1 4c-3.376 -1.184 -5.648 -2.272 -8 -5" fill="#5AA451"/>
</svg>
