<?xml version="1.0" standalone="no"?>
<svg version="1.0" xmlns="http://www.w3.org/2000/svg" width="500.000000pt" height="500.000000pt" viewBox="0 0 500.000000 500.000000" preserveAspectRatio="xMidYMid meet">
  <g transform="translate(0.000000,500.000000) scale(0.100000,-0.100000)" fill="#000000" stroke="none">
    <path d="M3275 4598 l-119 -60 -51 12 c-115 27 -229 50 -308 60 -136 18 -235 -15 -320 -109 -21 -23 -45 -57 -54 -76 -15 -31 -21 -34 -72 -40 -418 -42 -812 -229 -1115 -528 -142 -141 -217 -235 -298 -375 -115 -199 -182 -372 -223 -582 -9 -47 -21 -104 -26 -127 -9 -43 -13 -426 -4 -435 7 -7 113 16 123 27 4 6 13 26 20 47 12 35 11 39 -41 126 -30 49 -58 98 -61 110 -15 45 13 100 85 175 84 85 83 84 114 189 172 596 682 1055 1308 1179 120 23 167 25 167 4 0 -8 20 -52 45 -99 44 -85 44 -85 30 -127 -24 -67 -19 -126 15 -186 39 -68 92 -99 185 -108 112 -12 252 -52 366 -106 101 -48 109 -51 175 -47 38 2 77 8 87 12 14 7 42 -16 139 -112 110 -111 120 -123 114 -149 -4 -15 -10 -53 -12 -83 -5 -50 -2 -63 34 -135 73 -147 102 -240 121 -392 11 -89 26 -128 66 -168 59 -58 139 -76 223 -52 l52 16 89 -44 c48 -25 93 -45 100 -45 6 0 11 -14 11 -30 0 -49 -57 -300 -85 -375 -15 -38 -32 -83 -38 -100 -52 -146 -213 -388 -351 -528 -237 -240 -495 -386 -828 -467 -108 -27 -119 -31 -153 -69 -38 -42 -113 -91 -139 -91 -9 0 -60 27 -115 61 -98 60 -99 60 -140 48 -23 -7 -46 -18 -52 -25 -17 -21 -39 -118 -29 -128 18 -18 337 -19 476 -2 603 75 1127 434 1415 971 94 176 166 389 194 580 9 55 18 114 21 132 3 24 15 37 47 56 93 55 158 148 172 247 10 71 -25 315 -61 428 l-14 42 65 130 c36 71 65 143 65 159 0 38 -107 247 -194 379 -236 359 -578 660 -948 835 -106 51 -128 49 -273 -25z m250 -164 c88 -45 320 -194 360 -230 11 -11 54 -48 94 -84 183 -160 361 -388 471 -602 28 -53 50 -103 50 -111 0 -8 -27 -69 -60 -136 -33 -67 -60 -130 -60 -140 0 -11 9 -47 19 -82 33 -106 61 -263 61 -337 0 -80 -22 -123 -80 -153 -57 -31 -94 -24 -218 37 l-114 56 -70 -22 c-59 -20 -71 -21 -83 -9 -7 8 -20 61 -30 119 -20 126 -63 264 -110 357 -19 37 -35 75 -35 83 0 8 14 31 31 50 58 66 74 114 74 225 0 121 -17 165 -93 243 -87 89 -189 123 -311 102 -67 -11 -111 -33 -183 -91 l-28 -23 -92 43 c-51 23 -101 47 -111 52 -30 16 -259 69 -298 69 -20 0 -46 8 -58 18 l-21 17 20 53 c27 72 25 104 -12 170 -55 101 -61 115 -66 162 -8 84 38 142 129 165 29 7 205 -16 284 -38 28 -8 80 -22 117 -32 l67 -19 128 66 c70 37 130 67 133 67 3 1 46 -20 95 -45z m30 -819 c48 -23 85 -67 92 -108 l6 -36 -77 74 c-42 40 -76 76 -76 79 0 10 21 6 55 -9z"/>
    <path d="M2710 4353 c-62 -26 -75 -112 -23 -153 34 -27 76 -25 110 4 35 30 39 95 8 126 -22 21 -71 33 -95 23z"/>
    <path d="M4263 2793 c-86 -41 -60 -163 35 -163 51 0 84 34 84 85 0 64 -63 106 -119 78z"/>
    <path d="M2395 3501 c-117 -15 -312 -91 -381 -146 l-29 -24 131 -1 c111 0 135 -3 154 -18 21 -17 25 -17 89 0 97 25 284 24 387 -2 255 -66 459 -249 562 -504 54 -133 66 -273 37 -442 -11 -63 -15 -142 -13 -269 l3 -180 41 65 c261 413 199 927 -151 1263 -112 108 -240 182 -395 229 -80 24 -117 29 -235 33 -77 2 -167 0 -200 -4z"/>
    <path d="M2489 3221 c-35 -35 -38 -77 -8 -110 30 -32 64 -43 96 -30 38 14 52 38 53 86 0 79 -84 111 -141 54z"/>
    <path d="M1670 3222 c-16 -13 -31 -51 -54 -135 l-31 -118 -80 -34 -79 -35 -101 60 c-65 38 -112 60 -132 60 -27 0 -54 -23 -192 -161 -150 -151 -161 -164 -161 -199 0 -21 8 -48 18 -61 10 -13 38 -56 61 -96 l42 -71 -19 -39 c-11 -21 -25 -55 -31 -75 -7 -21 -16 -40 -20 -43 -4 -2 -59 -18 -122 -34 -80 -21 -119 -37 -132 -52 -15 -19 -17 -47 -17 -248 1 -162 4 -231 13 -242 18 -24 44 -34 147 -59 52 -12 100 -28 106 -34 7 -6 26 -44 42 -84 l31 -73 -247 -248 c-298 -298 -307 -312 -307 -451 1 -79 4 -102 23 -138 35 -67 88 -118 154 -152 53 -26 72 -30 144 -30 132 0 158 18 449 309 l244 244 85 -32 84 -33 27 -111 c28 -118 36 -137 72 -155 23 -13 385 -17 443 -6 43 9 61 41 90 165 l23 102 62 28 c104 47 101 47 211 -20 55 -34 110 -61 124 -61 19 0 64 40 187 162 198 198 195 188 104 333 l-59 94 33 77 c19 43 40 81 47 85 7 4 52 17 98 29 110 27 139 39 150 61 6 10 10 119 10 247 0 264 2 259 -100 282 -30 6 -80 19 -111 27 l-57 15 -28 67 c-15 36 -32 72 -37 78 -6 9 11 44 54 114 92 150 96 138 -98 331 -146 144 -162 158 -195 158 -20 0 -50 -10 -69 -23 -19 -12 -62 -39 -97 -60 l-63 -39 -82 36 -82 35 -27 113 c-40 166 -25 158 -302 158 -201 0 -226 -2 -246 -18z m378 -159 c5 -10 20 -59 32 -110 26 -103 40 -122 110 -143 25 -8 82 -32 128 -53 98 -46 104 -46 212 24 42 27 83 49 91 49 8 0 54 -40 103 -89 l89 -89 -28 -49 c-16 -26 -41 -67 -57 -91 -38 -55 -38 -83 0 -158 17 -34 40 -90 52 -126 12 -36 30 -74 40 -83 11 -10 66 -30 122 -44 l103 -26 0 -134 0 -134 -98 -23 c-54 -12 -108 -29 -120 -37 -14 -9 -30 -38 -41 -73 -10 -33 -34 -93 -54 -134 -20 -41 -35 -85 -34 -97 1 -12 19 -51 41 -86 21 -35 46 -78 56 -96 l16 -32 -90 -90 c-49 -49 -92 -89 -96 -89 -4 0 -47 25 -96 55 -53 33 -100 55 -117 55 -16 0 -59 -15 -98 -34 -38 -19 -95 -42 -128 -52 -33 -10 -64 -27 -71 -39 -12 -18 -25 -60 -55 -182 l-11 -43 -130 0 c-150 0 -136 -10 -168 128 -10 46 -26 91 -35 101 -9 10 -48 28 -87 41 -38 13 -72 27 -74 30 -2 4 35 46 84 94 l87 87 60 -16 c78 -21 259 -21 339 0 272 71 487 301 535 569 20 115 10 258 -26 366 -21 63 -49 90 -93 90 -32 0 -51 -16 -246 -211 l-212 -210 -87 23 c-52 13 -91 29 -96 39 -5 9 -18 49 -29 90 l-19 74 214 216 c233 234 237 240 189 297 -52 62 -282 99 -432 68 -162 -33 -270 -91 -388 -210 -163 -164 -237 -409 -191 -635 20 -95 26 -80 -82 -191 -82 -84 -78 -84 -112 16 -12 34 -29 69 -38 78 -10 8 -58 25 -107 36 -50 12 -98 23 -108 26 -16 5 -17 18 -15 137 l3 132 109 28 c60 15 115 32 123 39 7 6 20 36 29 66 9 31 34 92 55 136 22 44 39 85 39 91 0 14 -26 62 -79 149 l-43 69 88 88 c49 49 95 89 102 89 8 0 55 -25 105 -55 50 -30 99 -55 109 -55 10 0 46 14 81 31 34 18 95 44 137 58 72 26 75 29 91 71 10 25 23 70 29 100 25 108 13 100 154 100 109 0 126 -2 134 -17z m-39 -532 c22 -6 10 -21 -153 -186 -130 -132 -176 -185 -176 -203 0 -26 63 -268 82 -315 14 -36 17 -38 194 -86 115 -32 157 -39 175 -32 13 5 100 86 194 180 184 185 183 184 184 88 2 -139 -66 -299 -171 -397 -146 -139 -348 -192 -528 -140 -41 12 -88 24 -103 27 -27 5 -59 -25 -455 -420 -235 -234 -441 -432 -459 -441 -43 -22 -96 -20 -143 4 -68 35 -100 107 -80 183 10 37 63 94 441 472 469 471 449 445 414 529 -8 20 -20 70 -26 111 -29 208 71 423 247 535 80 50 99 58 194 81 79 18 129 21 169 10z"/>
    <path d="M660 800 c-29 -29 -27 -84 6 -117 21 -21 32 -24 62 -19 66 10 93 77 51 130 -26 33 -88 37 -119 6z"/>
    <path d="M3081 2784 c-71 -90 50 -194 131 -114 26 27 30 36 25 68 -8 49 -38 72 -92 72 -35 0 -48 -5 -64 -26z"/>
  </g>
</svg>
