<?xml version="1.0" encoding="utf-8"?>
<svg xmlns="http://www.w3.org/2000/svg" version="1.0" width="1080.000000pt" height="1080.000000pt" viewBox="0 0 1080.000000 1080.000000" preserveAspectRatio="xMidYMid meet">
    <g transform="translate(0.000000,1080.000000) scale(0.100000,-0.100000)" fill="#000000" stroke="none">
        <path d="M6817 10058 l-297 -150 -43 12 c-23 6 -59 16 -79 21 -21 5 -57 14 -80 20 -24 6 -58 13 -76 16 -18 3 -35 9 -38 14 -3 5 -20 9 -38 9 -17 0 -36 4 -41 9 -6 5 -28 12 -50 15 -22 3 -69 10 -105 16 -192 31 -286 43 -454 56 -144 11 -357 -53 -478 -143 -79 -59 -113 -88 -122 -103 -5 -8 -29 -35 -52 -60 -23 -25 -62 -86 -87 -136 l-46 -92 -48 -6 c-26 -3 -97 -10 -158 -16 -60 -5 -132 -14 -160 -19 -27 -6 -68 -13 -90 -16 -22 -3 -58 -8 -80 -11 -22 -4 -44 -10 -49 -15 -6 -5 -29 -9 -52 -9 -24 0 -46 -4 -49 -10 -3 -5 -16 -10 -27 -10 -12 0 -35 -4 -52 -9 -17 -5 -65 -19 -106 -31 -105 -30 -384 -123 -450 -150 -30 -12 -72 -28 -92 -36 -42 -16 -417 -206 -518 -262 -36 -20 -99 -59 -140 -87 -41 -27 -82 -54 -91 -60 -47 -29 -135 -89 -139 -94 -3 -4 -21 -18 -40 -31 -19 -14 -42 -30 -50 -38 -8 -7 -40 -32 -70 -57 -153 -123 -540 -488 -540 -509 0 -5 -26 -38 -58 -73 -111 -122 -152 -170 -152 -177 0 -4 -9 -17 -20 -29 -40 -44 -73 -89 -157 -214 -80 -120 -97 -147 -149 -243 -11 -21 -26 -46 -34 -55 -18 -22 -210 -407 -210 -422 0 -6 -9 -27 -20 -46 -12 -19 -31 -66 -45 -103 -13 -38 -46 -134 -74 -214 -28 -80 -51 -155 -51 -167 0 -12 -4 -25 -10 -28 -5 -3 -10 -16 -10 -28 0 -12 -7 -42 -16 -67 -9 -25 -22 -83 -30 -130 -8 -47 -19 -107 -25 -135 -16 -79 -30 -165 -35 -230 -3 -33 -10 -64 -15 -70 -5 -5 -9 -48 -9 -95 0 -47 -5 -91 -10 -96 -7 -7 -9 -130 -8 -348 l3 -338 102 205 c56 112 115 220 132 239 34 39 98 74 156 86 l40 8 7 79 c19 211 49 428 68 505 11 44 25 114 37 178 3 18 9 35 14 38 5 3 9 16 9 29 0 13 5 27 10 30 6 3 10 19 10 36 0 16 4 37 10 47 5 9 25 64 44 122 51 156 74 217 108 295 48 110 186 384 223 445 19 30 44 73 55 94 12 21 38 62 58 90 20 28 58 83 84 122 26 39 54 77 63 84 8 7 15 17 15 23 0 5 17 29 38 53 20 24 55 67 77 95 53 68 456 479 470 479 6 0 27 16 46 36 18 20 50 47 69 60 19 13 55 40 80 59 25 19 70 51 100 72 30 20 62 44 70 53 8 8 29 22 45 30 17 8 50 29 74 45 86 58 468 259 548 289 21 8 63 24 93 36 96 39 393 141 440 151 25 5 61 14 80 19 19 5 49 12 65 15 17 4 39 10 50 15 11 5 36 11 55 14 19 3 60 10 90 16 30 7 82 14 115 17 33 2 64 9 69 14 6 5 39 9 74 9 35 0 71 4 81 9 25 14 35 2 50 -56 11 -47 45 -117 167 -348 l36 -69 -22 -71 c-59 -181 -58 -323 4 -445 54 -104 98 -156 174 -207 89 -60 154 -77 347 -93 101 -9 136 -15 221 -41 17 -5 41 -9 55 -9 13 0 49 -9 79 -20 30 -11 65 -20 77 -20 12 0 25 -4 28 -10 3 -5 17 -10 30 -10 13 0 27 -4 30 -10 3 -5 17 -10 30 -10 13 0 27 -4 30 -10 3 -5 17 -10 30 -10 13 0 26 -4 30 -9 3 -5 22 -15 43 -22 20 -6 109 -47 197 -91 88 -44 180 -86 205 -94 72 -22 234 -18 300 7 30 12 64 23 76 26 42 10 109 -44 338 -273 190 -190 241 -249 272 -312 6 -12 -12 -65 -37 -114 -15 -30 -11 -248 6 -296 8 -23 44 -101 80 -172 36 -71 71 -147 79 -167 8 -21 24 -63 36 -93 39 -97 78 -213 90 -270 7 -30 17 -73 22 -95 17 -73 29 -139 35 -190 2 -27 9 -54 14 -60 5 -5 9 -44 9 -86 0 -43 5 -81 10 -84 6 -3 10 -21 10 -40 0 -19 5 -37 10 -40 6 -3 10 -16 11 -28 0 -22 7 -34 60 -113 28 -41 65 -77 114 -109 54 -36 159 -84 200 -90 93 -15 147 -17 158 -6 6 6 30 11 52 11 23 0 45 3 48 7 4 4 37 16 73 29 l65 22 92 -49 c196 -103 313 -159 337 -159 39 0 54 -14 46 -41 -4 -13 -14 -82 -21 -154 -8 -71 -19 -155 -25 -185 -6 -30 -13 -73 -17 -95 -3 -22 -9 -44 -14 -50 -5 -5 -9 -18 -9 -29 0 -11 -4 -33 -9 -50 -5 -17 -15 -51 -21 -76 -17 -67 -121 -389 -140 -435 -9 -22 -27 -65 -39 -95 -58 -141 -242 -496 -308 -593 -18 -27 -33 -52 -33 -56 0 -4 -9 -16 -20 -26 -11 -10 -20 -23 -20 -30 0 -7 -9 -20 -20 -30 -11 -10 -20 -23 -21 -29 0 -6 -16 -31 -35 -56 -18 -25 -42 -56 -51 -70 -17 -25 -41 -54 -111 -139 -48 -58 -444 -453 -508 -507 -27 -23 -70 -60 -95 -83 -25 -22 -51 -41 -56 -41 -5 0 -22 -13 -38 -30 -16 -16 -32 -30 -36 -30 -4 0 -58 -34 -120 -75 -61 -42 -128 -85 -148 -96 -61 -34 -115 -67 -127 -78 -16 -13 -304 -158 -351 -175 -21 -8 -72 -28 -113 -46 -126 -53 -500 -173 -575 -185 -62 -10 -138 -27 -160 -36 -11 -4 -40 -10 -65 -13 -25 -3 -74 -10 -110 -16 -127 -21 -237 -31 -390 -36 -85 -3 -159 -9 -165 -15 -12 -12 -108 -12 -121 1 -5 5 -83 11 -174 14 -91 3 -197 8 -237 11 l-71 7 -94 -55 c-141 -83 -335 -176 -468 -222 -35 -13 -66 -28 -68 -33 -1 -5 12 -12 30 -15 38 -7 119 -23 163 -32 17 -4 39 -10 50 -15 11 -5 40 -11 65 -14 25 -3 70 -10 100 -16 30 -6 80 -14 110 -16 30 -3 64 -9 75 -14 33 -15 198 -21 580 -21 376 0 526 5 560 21 11 5 45 11 75 14 30 3 84 10 120 16 36 6 83 13 105 16 22 3 44 10 50 15 5 5 22 9 39 9 16 0 43 4 60 9 17 5 50 14 74 20 180 46 216 56 347 99 142 47 261 91 330 121 113 50 456 226 535 274 129 79 345 224 360 241 7 9 17 16 22 16 13 0 93 65 281 227 99 85 355 342 425 425 29 35 76 91 105 125 29 34 66 80 82 103 17 22 42 56 58 74 15 19 27 38 27 43 0 6 9 18 20 28 11 10 20 23 20 30 0 7 9 20 20 30 11 10 20 22 20 26 0 8 72 119 93 144 26 31 254 479 315 620 45 103 82 201 82 219 0 8 5 18 10 21 6 3 10 17 10 30 0 13 5 27 10 30 6 3 10 16 10 29 0 12 4 26 8 32 5 5 13 27 19 49 7 22 19 65 28 95 20 63 33 116 45 180 18 98 32 166 41 196 5 17 9 48 9 70 0 22 4 44 9 49 5 6 12 39 15 75 30 326 23 305 116 357 41 23 84 46 95 52 35 17 215 206 240 252 87 161 108 240 107 414 -1 152 -46 523 -81 663 -6 23 -16 61 -22 85 -6 23 -13 57 -16 75 -3 18 -9 35 -14 38 -5 3 -9 16 -9 29 0 13 -4 27 -10 30 -5 3 -10 21 -10 39 0 17 -5 37 -11 43 -8 8 31 96 145 325 205 412 205 349 9 743 -35 72 -88 173 -118 225 -29 52 -63 113 -76 135 -12 22 -24 42 -28 45 -12 10 -47 66 -64 101 -9 20 -23 42 -32 49 -8 7 -15 18 -15 25 0 6 -9 20 -20 30 -11 10 -20 24 -20 30 0 7 -7 19 -16 26 -9 7 -36 43 -60 79 -24 36 -60 85 -79 110 -19 25 -43 56 -52 70 -10 14 -25 32 -33 40 -9 8 -27 30 -40 49 -13 19 -43 55 -66 80 -24 25 -88 96 -143 156 -202 221 -235 255 -245 255 -6 0 -63 52 -126 115 -63 63 -118 115 -123 115 -5 0 -30 21 -56 48 -26 26 -59 56 -73 67 -15 11 -53 40 -85 65 -32 25 -69 53 -83 63 -14 10 -59 42 -100 72 -115 83 -272 188 -305 205 -16 8 -39 22 -49 32 -11 10 -23 18 -28 18 -4 0 -31 15 -60 33 -29 18 -79 46 -110 61 -32 15 -60 31 -63 36 -6 9 -210 110 -280 138 -22 9 -64 29 -94 44 -45 24 -64 28 -130 27 l-76 -1 -298 -150z m551 -378 c5 0 15 -7 22 -15 7 -8 63 -40 124 -70 61 -31 136 -71 166 -90 30 -19 69 -41 85 -51 56 -31 252 -163 265 -179 7 -8 18 -15 25 -15 6 0 20 -9 30 -20 10 -11 22 -20 27 -20 5 0 20 -10 33 -22 14 -13 48 -41 75 -63 28 -22 74 -59 103 -82 148 -118 557 -505 557 -527 0 -5 30 -42 68 -82 37 -40 84 -94 105 -121 37 -47 94 -118 130 -162 9 -12 35 -47 57 -79 23 -31 56 -77 75 -102 18 -25 34 -50 34 -56 1 -6 10 -19 21 -29 11 -10 20 -24 20 -30 0 -7 7 -18 15 -25 9 -7 25 -32 36 -54 10 -23 39 -72 64 -111 25 -38 67 -115 95 -170 27 -55 54 -107 59 -115 5 -8 28 -55 51 -104 l43 -90 -152 -303 c-180 -362 -173 -326 -106 -543 10 -30 21 -71 26 -90 24 -103 41 -169 60 -245 18 -69 47 -243 59 -350 5 -44 12 -105 15 -136 8 -63 0 -97 -48 -199 -30 -65 -72 -120 -91 -120 -5 0 -19 -9 -30 -19 -72 -66 -325 -69 -398 -4 -9 8 -97 55 -195 104 -219 109 -223 110 -419 44 -176 -59 -185 -55 -206 75 -5 30 -11 80 -14 110 -3 30 -9 64 -14 75 -5 11 -11 40 -14 65 -5 50 -19 122 -35 188 -6 23 -15 59 -20 80 -9 36 -92 282 -125 370 -9 23 -47 104 -85 180 -95 190 -95 189 -29 259 81 87 148 195 182 291 27 81 30 99 34 266 3 150 1 190 -14 245 -20 74 -78 204 -100 222 -8 6 -14 16 -14 22 0 19 -104 133 -181 197 -65 54 -178 120 -205 120 -8 0 -28 8 -46 19 -19 10 -49 22 -68 26 -56 12 -332 17 -370 6 -124 -35 -214 -66 -233 -81 -12 -9 -40 -26 -62 -38 -22 -11 -60 -41 -85 -67 -25 -25 -64 -55 -87 -66 l-42 -19 -163 79 c-90 44 -188 89 -218 101 -30 12 -72 31 -93 41 -22 11 -47 19 -57 19 -11 0 -22 5 -25 10 -3 6 -15 10 -26 10 -10 0 -27 4 -37 9 -9 5 -51 17 -92 26 -41 10 -102 24 -135 32 -89 20 -206 40 -375 61 -76 9 -105 23 -123 58 -12 24 -11 35 14 103 60 169 69 200 69 244 0 34 -82 209 -198 422 -44 82 -56 125 -54 206 1 79 32 170 67 199 8 7 15 17 15 22 0 11 46 58 58 58 5 0 17 9 27 20 10 11 28 20 41 20 13 0 26 5 29 10 3 6 16 10 29 10 12 0 27 5 33 11 10 10 45 9 238 -6 39 -3 79 -10 90 -15 11 -5 45 -11 75 -14 78 -7 132 -16 155 -26 11 -5 34 -11 50 -14 101 -18 193 -40 276 -68 30 -10 65 -18 77 -18 11 0 24 -4 27 -10 3 -5 17 -10 30 -10 13 0 27 -4 30 -10 3 -5 30 -10 58 -10 47 1 83 16 356 154 l305 153 82 -39 c45 -21 86 -38 92 -38z m82 -1976 c72 -25 190 -111 190 -139 0 -7 8 -19 18 -28 25 -23 67 -150 58 -174 -7 -17 -9 -16 -24 6 -26 38 -275 291 -286 291 -12 0 -56 40 -56 52 0 13 51 9 100 -8z"/>
        <path d="M5472 9476 c-38 -14 -117 -88 -137 -130 -21 -42 -19 -139 4 -184 39 -76 101 -112 194 -112 77 0 111 15 166 75 l41 45 0 85 c0 133 -27 174 -141 215 -60 22 -79 23 -127 6z"/>
        <path d="M9187 5744 c-42 -15 -97 -66 -121 -112 -21 -41 -21 -153 0 -194 41 -79 96 -108 206 -108 l84 0 52 53 c44 44 53 61 63 110 10 46 9 67 -1 100 -28 89 -59 121 -150 154 -43 16 -84 15 -133 -3z"/>
        <path d="M4830 7441 c-8 -4 -59 -11 -113 -15 -98 -6 -176 -20 -209 -37 -10 -5 -26 -9 -35 -9 -10 0 -81 -22 -158 -48 l-140 -47 -3 -45 c-6 -68 34 -406 49 -415 4 -3 31 6 58 19 27 14 67 32 88 40 21 8 63 23 93 35 30 12 65 21 77 21 12 0 25 5 28 10 3 6 21 10 40 10 19 0 36 4 39 9 3 5 23 12 43 15 133 24 201 28 388 28 187 0 255 -4 388 -28 20 -3 40 -10 43 -15 3 -5 20 -9 39 -9 19 0 37 -4 40 -10 3 -5 17 -10 30 -10 13 0 34 -4 47 -9 13 -5 66 -26 118 -46 178 -68 423 -208 489 -279 14 -14 30 -26 36 -26 14 0 260 -253 300 -309 17 -23 41 -56 55 -73 72 -90 208 -366 257 -523 78 -246 86 -303 87 -595 1 -319 -18 -417 -138 -738 -50 -132 -202 -390 -277 -467 -16 -17 -29 -35 -29 -41 0 -11 -214 -223 -250 -247 -14 -10 -45 -33 -70 -52 -25 -19 -70 -51 -100 -71 -30 -20 -66 -44 -80 -54 -14 -9 -77 -42 -141 -73 l-116 -57 -6 -107 c-6 -94 -20 -203 -43 -336 -8 -42 0 -46 47 -21 17 8 56 24 87 34 78 24 98 33 247 107 168 84 243 127 315 186 19 15 48 38 64 50 16 12 57 48 91 80 34 31 66 57 72 57 13 0 263 270 263 284 0 5 12 20 28 34 25 25 86 113 140 202 36 59 161 307 178 352 49 131 68 190 81 248 7 36 18 83 24 105 13 49 27 134 40 245 15 124 22 471 10 495 -6 11 -12 54 -15 95 -2 41 -9 98 -15 125 -5 28 -14 70 -19 95 -11 53 -48 189 -67 245 -14 43 -29 78 -77 182 -15 34 -28 67 -28 73 0 11 -18 45 -36 70 -6 8 -26 43 -45 78 -18 34 -36 62 -41 62 -4 0 -8 4 -8 9 0 19 -106 169 -172 245 -21 24 -38 47 -38 53 0 18 -291 291 -355 333 -31 21 -71 50 -108 81 -18 14 -47 34 -66 44 -19 9 -39 21 -45 27 -29 25 -147 88 -290 152 -32 15 -106 42 -165 62 -58 19 -114 39 -123 44 -10 6 -29 10 -43 10 -14 0 -33 4 -43 9 -26 14 -116 31 -227 43 -128 13 -565 20 -585 9z"/>
        <path d="M3456 7119 c-74 -18 -293 -132 -431 -225 -573 -384 -948 -1015 -1016 -1709 -13 -131 -7 -410 11 -533 6 -40 10 -77 8 -81 -2 -6 -144 43 -238 82 -8 3 -94 36 -190 72 -352 133 -353 133 -445 89 -69 -32 -105 -76 -144 -173 -16 -42 -53 -132 -82 -201 -102 -249 -166 -491 -200 -755 -18 -147 -20 -202 -16 -405 3 -138 12 -270 20 -320 90 -509 303 -925 657 -1280 354 -355 797 -578 1300 -656 143 -23 522 -26 645 -6 104 17 205 38 280 57 613 159 1147 579 1454 1144 206 380 304 823 273 1239 -27 363 -132 649 -343 933 -35 46 -160 183 -278 304 -232 237 -360 395 -495 612 -151 242 -298 571 -356 798 -5 17 -15 55 -23 85 -51 190 -88 428 -103 655 -6 110 -25 165 -69 210 -54 53 -148 81 -219 64z m-141 -672 c11 -81 52 -276 80 -384 129 -483 351 -931 656 -1323 122 -158 213 -258 398 -440 155 -154 228 -250 300 -397 74 -149 108 -277 123 -466 46 -550 -193 -1128 -622 -1505 -84 -74 -216 -172 -231 -172 -4 0 -5 56 -2 124 6 131 -2 196 -38 308 -64 194 -223 477 -461 816 -123 175 -291 393 -334 434 -88 82 -242 76 -324 -14 -37 -41 -129 -183 -258 -398 -218 -362 -348 -632 -418 -868 -33 -112 -43 -302 -21 -405 8 -37 12 -69 8 -71 -10 -6 -190 104 -264 161 -87 68 -249 225 -316 309 -197 244 -317 502 -381 814 -17 79 -23 156 -27 310 -6 234 8 389 57 602 28 122 119 391 139 411 9 9 23 4 171 -53 25 -9 106 -40 180 -68 74 -28 218 -83 320 -122 238 -92 263 -100 322 -100 84 0 145 36 195 114 43 67 41 118 -11 328 -65 260 -76 330 -83 518 -8 250 18 432 97 670 59 175 192 417 305 550 142 168 397 392 425 375 5 -3 11 -29 15 -58z m-172 -3719 c191 -278 331 -519 381 -656 88 -246 -63 -518 -327 -588 -313 -83 -634 208 -571 516 14 69 18 78 84 235 78 182 314 615 337 615 7 0 50 -55 96 -122z"/>
        <path d="M4985 6813 c-87 -45 -115 -96 -115 -205 l0 -84 54 -53 c52 -51 107 -81 151 -81 21 0 95 24 126 40 10 6 31 30 48 55 28 42 31 53 31 126 0 107 -30 159 -117 203 -41 21 -138 20 -178 -1z"/>
        <path d="M4930 6130 c-8 -5 -32 -10 -52 -10 -74 0 -297 -88 -375 -147 l-32 -24 16 -43 c26 -68 167 -339 179 -343 7 -2 19 3 27 12 9 8 20 15 25 15 5 0 15 7 22 15 15 18 96 56 160 74 25 7 58 17 74 22 16 5 61 9 101 9 40 0 85 -4 101 -9 16 -5 49 -15 74 -22 64 -18 145 -56 160 -74 7 -8 17 -15 22 -15 9 0 62 -35 83 -55 19 -18 103 -141 124 -183 36 -70 55 -153 59 -257 3 -93 0 -115 -30 -215 -17 -56 -46 -116 -63 -130 -8 -7 -15 -17 -15 -24 0 -6 -36 -47 -80 -91 l-80 -80 63 -101 c34 -55 80 -137 102 -182 22 -45 46 -82 53 -82 8 0 30 12 49 28 60 47 213 195 213 206 0 5 12 22 26 37 31 32 40 48 90 149 20 41 41 83 45 92 5 10 9 27 9 37 0 11 5 23 10 26 6 3 10 16 10 29 0 12 4 26 9 32 21 21 39 353 22 389 -5 11 -12 40 -15 65 -6 62 -20 118 -41 165 -53 122 -71 156 -113 220 -47 72 -228 265 -248 265 -6 0 -19 9 -29 20 -10 11 -24 20 -30 20 -7 0 -18 7 -25 15 -18 22 -173 92 -260 117 -101 29 -409 49 -440 28z"/>
        <path d="M6404 5766 c-40 -22 -56 -40 -85 -98 -36 -71 -37 -119 -5 -182 47 -93 98 -126 196 -126 72 0 115 18 160 67 52 56 60 76 60 143 0 88 -39 154 -117 198 -29 15 -180 14 -209 -2z"/>
        <path d="M5872 4055 c-35 -19 -81 -66 -97 -99 -19 -37 -19 -146 -2 -189 8 -18 36 -51 63 -75 l49 -42 83 0 84 0 64 62 64 61 0 88 c0 85 -1 90 -32 125 -58 66 -98 84 -180 83 -40 -1 -83 -7 -96 -14z"/>
    </g>
</svg>
