<?xml version="1.0" standalone="no"?>
<!DOCTYPE svg PUBLIC "-//W3C//DTD SVG 20010904//EN"
 "http://www.w3.org/TR/2001/REC-SVG-20010904/DTD/svg10.dtd">
<svg version="1.0" xmlns="http://www.w3.org/2000/svg" width="500.000000pt" height="500.000000pt" viewBox="0 0 500.000000 500.000000" preserveAspectRatio="xMidYMid meet">
  <g transform="translate(0.000000,500.000000) scale(0.100000,-0.100000)" fill="#000000" stroke="none">
    <path d="M3270 4598 l-115 -60 -80 21 c-121 33 -332 63 -389 56 -102 -13 -205
-84 -263 -182 -21 -37 -29 -43 -58 -43 -42 0 -228 -34 -310 -57 -317 -87 -604
-253 -835 -483 -224 -224 -397 -520 -479 -820 -22 -82 -50 -223 -45 -229 5 -6
168 40 181 51 6 5 19 41 27 79 17 71 40 148 56 184 5 11 23 55 40 97 64 158
226 393 362 524 66 64 239 204 252 204 3 0 29 15 58 34 165 105 472 212 667
232 l57 6 13 -41 c6 -23 25 -64 42 -92 34 -58 34 -60 15 -133 -19 -70 -11
-116 28 -174 42 -63 94 -90 197 -102 116 -15 246 -53 359 -106 100 -48 159
-57 242 -40 l37 8 117 -116 c106 -106 116 -119 109 -144 -4 -15 -9 -52 -12
-83 -4 -50 -1 -64 33 -130 50 -100 88 -215 108 -324 39 -214 45 -227 129 -275
59 -34 119 -39 184 -16 38 13 41 13 127 -30 49 -24 95 -44 103 -44 11 0 13 -7
9 -23 -3 -13 -8 -50 -12 -82 -23 -214 -129 -485 -281 -713 -68 -102 -295 -335
-393 -403 -309 -213 -622 -316 -985 -322 l-107 -2 -64 -80 -64 -80 27 -6 c54
-13 330 -9 443 6 257 33 456 99 670 219 265 150 483 355 654 613 69 105 147
263 190 381 47 133 106 391 106 468 0 25 7 34 43 54 65 35 117 89 148 155 25
51 29 72 29 141 0 79 -37 311 -59 367 -18 47 -13 65 49 189 38 75 60 132 60
153 0 82 -205 438 -340 589 -15 17 -54 61 -87 98 -32 37 -92 98 -133 134 -41
37 -90 80 -108 96 -103 92 -330 236 -493 312 -86 40 -123 35 -259 -36z m400
-247 c344 -219 627 -525 790 -854 l44 -89 -62 -124 c-34 -68 -62 -137 -62
-153 0 -16 9 -57 19 -92 31 -99 61 -261 61 -323 0 -79 -27 -128 -85 -156 -57
-28 -101 -24 -170 16 -27 16 -74 40 -102 53 l-53 24 -72 -21 c-58 -18 -74 -20
-84 -10 -7 7 -17 51 -23 98 -13 113 -52 244 -106 361 -25 52 -45 98 -45 102 0
4 20 31 43 61 140 171 76 431 -131 533 -50 24 -69 28 -147 28 -76 0 -99 -4
-146 -26 -32 -15 -66 -36 -77 -47 -42 -42 -53 -43 -127 -6 -126 62 -377 134
-464 134 -33 0 -36 26 -12 99 l22 66 -55 111 c-65 129 -70 168 -31 227 35 50
71 67 149 67 72 0 227 -28 326 -59 36 -12 76 -21 90 -20 14 0 81 28 149 63
l125 63 90 -45 c50 -25 116 -61 146 -81z m-84 -757 c31 -23 64 -78 64 -107 0
-8 -33 17 -73 57 -40 39 -71 74 -70 78 5 11 46 -4 79 -28z"/>
    <path d="M2680 4332 c-38 -39 -40 -79 -4 -121 34 -41 86 -43 126 -4 54 52 24
137 -54 150 -32 5 -41 1 -68 -25z"/>
    <path d="M4264 2800 c-32 -13 -54 -50 -54 -91 0 -72 93 -116 141 -66 51 54 44
123 -15 151 -38 18 -42 18 -72 6z"/>
    <path d="M2389 3501 c-226 -32 -464 -171 -613 -360 -71 -90 -101 -140 -89
-152 8 -8 85 -32 148 -46 15 -3 25 5 39 29 10 18 62 76 116 128 78 77 113 104
181 137 151 74 213 88 384 88 142 -1 155 -3 243 -33 52 -18 115 -44 140 -59
393 -226 533 -699 324 -1095 -31 -60 -107 -161 -151 -201 -71 -65 -196 -142
-277 -172 -44 -15 -82 -31 -85 -34 -4 -3 -9 -45 -13 -93 -7 -102 -9 -101 95
-68 469 150 756 586 700 1067 -26 225 -134 447 -293 600 -62 59 -188 147 -262
182 -124 58 -226 81 -386 86 -80 2 -170 0 -201 -4z"/>
    <path d="M2485 3224 c-55 -60 -16 -149 65 -149 55 0 80 26 80 85 0 36 -5 52
-23 68 -34 32 -91 30 -122 -4z"/>
    <path d="M2475 2959 c-72 -13 -152 -49 -197 -89 -32 -28 -39 -40 -28 -44 107
-38 192 -54 271 -49 125 8 200 -30 255 -129 25 -46 29 -64 29 -129 0 -68 -3
-81 -32 -128 -32 -50 -33 -56 -33 -157 0 -57 4 -104 9 -104 21 0 109 69 147
116 63 78 94 170 94 277 0 126 -38 216 -129 308 -109 109 -241 153 -386 128z"/>
    <path d="M1390 2824 c-63 -19 -155 -46 -205 -59 -49 -14 -119 -33 -155 -44
-36 -10 -141 -40 -235 -66 -93 -26 -207 -59 -253 -73 l-83 -25 4 -516 4 -516
27 -105 c34 -134 65 -218 117 -322 169 -337 483 -600 851 -714 54 -16 59 -16
120 0 67 19 91 28 202 79 221 101 420 272 561 482 107 160 165 292 212 485 26
104 26 108 30 617 4 489 4 511 -14 517 -10 3 -74 21 -143 40 -178 49 -796 224
-852 242 -58 17 -50 18 -188 -22z m188 -188 c38 -12 323 -93 637 -182 28 -7
79 -21 115 -30 36 -9 71 -22 79 -28 11 -9 13 -81 9 -426 -5 -406 -6 -417 -32
-523 -41 -171 -91 -283 -187 -423 -46 -66 -165 -192 -234 -246 -127 -101 -354
-208 -442 -208 -79 0 -283 94 -417 193 -183 135 -333 337 -403 542 -62 183
-65 205 -70 667 l-5 427 43 11 c24 7 163 46 309 87 146 41 321 90 389 109 68
18 126 36 129 39 9 8 30 6 80 -9z"/>
    <path d="M1340 2070 l0 -170 -145 0 -145 0 0 -355 0 -355 421 0 c301 0 433 3
463 12 27 8 60 32 97 68 69 69 79 103 79 279 0 106 -4 140 -20 184 -35 94
-123 156 -235 165 l-65 5 0 52 c0 118 -60 219 -155 264 -38 18 -64 21 -170 21
l-125 0 0 -170z m251 -19 l29 -29 0 -141 0 -141 115 0 c195 0 215 -19 215
-204 0 -114 -1 -116 -29 -148 l-29 -33 -191 -3 -191 -3 0 365 0 366 26 0 c15
0 38 -12 55 -29z m-251 -506 l0 -195 -65 0 -65 0 0 188 c0 104 3 192 7 195 3
4 33 7 65 7 l58 0 0 -195z"/>
    <path d="M3103 2809 c-48 -25 -55 -122 -10 -154 12 -8 38 -15 59 -15 75 0 115
88 66 145 -26 29 -81 41 -115 24z"/>
    <path d="M2865 2078 c-19 -17 -26 -34 -28 -63 -2 -56 28 -85 86 -85 56 0 87
30 87 83 0 76 -87 115 -145 65z"/>
  </g>
</svg>
