<?xml version="1.0" standalone="no"?>
<svg version="1.0" xmlns="http://www.w3.org/2000/svg" width="1080.000000pt" height="1080.000000pt" viewBox="0 0 1080.000000 1080.000000" preserveAspectRatio="xMidYMid meet">
    <g transform="translate(0.000000,1080.000000) scale(0.100000,-0.100000)" fill="#000000" stroke="none">
        <path d="M7081 9941 l-279 -140 -52 19 c-29 11 -73 22 -99 26 -25 4 -50 10 -56 14 -5 4 -23 10 -40 13 -16 3 -64 13 -105 22 -41 8 -95 18 -120 21 -25 3 -54 9 -65 14 -11 5 -42 11 -70 14 -27 2 -99 10 -160 16 -155 17 -282 8 -379 -24 -106 -36 -188 -80 -209 -114 -5 -7 -26 -24 -48 -38 -22 -14 -43 -33 -46 -42 -4 -9 -24 -35 -45 -57 -21 -22 -54 -73 -73 -113 -20 -40 -41 -75 -48 -77 -6 -3 -55 -10 -107 -15 -100 -10 -189 -23 -280 -39 -199 -36 -241 -45 -330 -69 -19 -6 -60 -17 -90 -25 -60 -16 -304 -98 -360 -120 -19 -8 -51 -20 -70 -27 -34 -13 -397 -195 -495 -248 -63 -35 -229 -144 -233 -154 -2 -5 -8 -8 -12 -8 -8 0 -39 -21 -132 -88 -70 -51 -150 -117 -217 -179 -37 -35 -72 -63 -77 -63 -12 0 -294 -282 -294 -294 0 -5 -24 -35 -53 -67 -65 -72 -159 -184 -189 -226 -75 -105 -88 -125 -88 -133 0 -4 -3 -10 -7 -12 -8 -3 -93 -125 -93 -133 0 -4 -41 -73 -78 -130 -14 -23 -188 -372 -217 -436 -45 -102 -152 -411 -160 -464 -6 -38 -17 -77 -35 -120 -5 -11 -11 -36 -14 -55 -3 -19 -12 -73 -21 -120 -9 -47 -20 -107 -24 -135 -4 -27 -11 -57 -15 -66 -12 -27 6 -29 85 -8 118 33 170 47 234 64 71 20 105 39 105 62 0 9 4 30 9 47 5 17 15 56 21 86 13 62 23 96 75 260 35 112 61 184 112 305 38 92 170 355 203 405 16 25 40 64 52 87 13 23 51 83 86 133 34 50 62 93 62 96 0 3 9 15 20 27 24 27 82 100 130 163 43 58 398 413 471 472 30 24 79 62 109 85 30 23 57 45 58 49 2 5 8 8 12 8 11 0 98 58 105 71 4 5 25 19 47 32 22 12 50 28 62 35 120 76 438 240 536 278 25 9 59 23 77 30 61 27 359 122 433 139 41 9 85 21 98 26 13 5 34 9 47 9 13 0 34 4 47 10 13 5 64 15 113 21 50 6 119 15 155 19 36 5 76 10 90 12 20 2 26 -2 28 -22 6 -44 29 -103 76 -190 25 -47 61 -115 80 -151 l35 -67 -24 -67 c-14 -37 -25 -83 -25 -101 0 -18 -4 -36 -10 -39 -5 -3 -10 -30 -10 -60 0 -30 5 -57 10 -60 6 -3 10 -21 10 -40 0 -49 81 -197 131 -241 94 -81 169 -107 366 -125 56 -5 128 -16 160 -25 32 -9 76 -20 98 -24 90 -17 333 -94 350 -111 5 -5 16 -9 25 -9 8 0 78 -32 155 -71 188 -95 201 -99 327 -99 93 0 115 3 163 25 l56 25 32 -23 c58 -40 111 -87 242 -217 140 -138 221 -227 249 -276 18 -30 18 -32 -3 -91 -16 -46 -21 -83 -21 -164 0 -121 7 -143 90 -308 33 -66 60 -122 60 -125 0 -3 8 -25 19 -49 47 -109 75 -188 98 -282 8 -33 19 -78 24 -100 17 -66 40 -205 45 -275 10 -135 55 -254 128 -339 44 -50 193 -131 243 -131 17 0 35 -4 38 -10 3 -5 30 -10 60 -10 30 0 57 5 60 10 3 6 21 10 38 10 18 0 63 11 101 25 l70 24 95 -51 c212 -113 267 -138 309 -138 26 0 39 -24 24 -43 -6 -6 -13 -41 -15 -77 -10 -114 -28 -244 -37 -265 -5 -11 -11 -36 -14 -55 -2 -19 -12 -64 -21 -100 -9 -36 -20 -81 -24 -100 -11 -46 -106 -331 -124 -373 -8 -17 -22 -52 -31 -77 -10 -25 -56 -121 -102 -215 -74 -147 -104 -203 -176 -322 -7 -12 -41 -63 -75 -113 -35 -50 -63 -93 -63 -95 0 -2 -10 -15 -22 -28 -24 -26 -53 -63 -78 -103 -44 -68 -398 -430 -501 -512 -30 -24 -76 -61 -104 -82 -27 -22 -60 -49 -72 -60 -12 -11 -24 -20 -27 -20 -3 0 -49 -30 -103 -66 -54 -36 -114 -75 -133 -85 -19 -11 -55 -33 -80 -49 -133 -86 -493 -248 -680 -306 -47 -14 -94 -30 -105 -34 -11 -5 -31 -11 -45 -14 -14 -3 -52 -12 -85 -21 -33 -9 -78 -21 -100 -25 -22 -5 -60 -14 -85 -20 -186 -47 -603 -83 -835 -72 l-111 5 -18 -29 c-56 -87 -191 -258 -238 -302 -16 -14 -28 -29 -28 -33 0 -13 142 -20 480 -25 200 -3 338 -1 360 5 19 5 89 14 155 20 118 10 151 14 310 45 88 17 142 30 195 45 53 15 151 41 190 51 65 15 271 91 405 148 116 49 444 219 480 249 6 4 24 15 40 23 17 8 56 33 88 55 32 22 65 45 75 50 38 23 79 51 108 75 17 14 44 34 60 45 15 11 53 41 84 67 30 26 86 73 123 105 96 81 347 325 347 337 0 5 24 35 53 67 69 77 137 158 162 193 11 16 31 43 45 60 24 29 50 66 75 108 5 9 28 43 50 75 47 68 52 76 85 134 13 24 29 51 35 60 27 42 231 461 265 544 37 91 140 424 140 451 0 11 4 24 9 29 5 6 11 28 14 50 3 22 13 74 22 115 31 141 50 263 64 412 5 54 12 102 16 108 3 5 41 28 84 50 62 32 98 62 177 143 95 98 123 136 150 202 47 118 55 147 60 235 8 135 -11 300 -71 620 -8 47 -18 100 -21 118 -4 18 -10 35 -15 38 -5 3 -9 15 -9 27 0 12 -7 45 -16 72 -9 28 -20 63 -24 78 -8 25 9 64 131 308 182 367 182 315 8 664 -84 167 -138 267 -155 286 -8 8 -14 20 -14 25 0 5 -21 42 -47 81 -27 40 -68 104 -92 142 -24 39 -52 78 -62 87 -11 9 -19 21 -19 26 0 8 -41 67 -68 98 -7 8 -25 33 -42 55 -85 115 -243 298 -334 384 -20 19 -36 40 -36 46 0 7 -29 38 -65 71 -36 32 -114 104 -173 159 -183 172 -235 216 -357 305 -22 17 -47 35 -55 42 -31 28 -90 68 -99 68 -5 0 -14 7 -22 16 -16 20 -178 127 -309 204 -117 69 -330 179 -511 264 -132 62 -138 61 -468 -103z m489 -347 c14 -7 77 -40 140 -74 63 -33 135 -74 160 -90 25 -16 61 -36 80 -45 19 -9 37 -19 40 -23 6 -9 129 -92 135 -92 3 0 30 -19 59 -42 30 -24 71 -54 91 -68 33 -23 67 -49 164 -128 184 -149 504 -469 653 -653 79 -97 105 -131 128 -164 14 -20 44 -61 68 -91 23 -29 42 -56 42 -59 0 -4 81 -126 90 -135 3 -3 12 -18 20 -35 15 -30 32 -59 69 -114 30 -44 211 -407 211 -423 0 -7 -61 -135 -135 -283 -116 -232 -135 -276 -135 -317 0 -26 4 -49 9 -52 5 -3 12 -23 16 -43 3 -21 15 -67 27 -103 33 -108 37 -123 44 -170 4 -25 10 -49 14 -55 14 -18 49 -237 57 -345 2 -41 9 -79 14 -85 16 -16 10 -118 -10 -172 -33 -91 -64 -135 -121 -175 -71 -50 -116 -61 -221 -56 -68 3 -94 9 -125 28 -21 13 -113 61 -203 107 -197 99 -202 100 -373 43 -66 -22 -128 -38 -138 -35 -39 12 -51 49 -66 200 -3 28 -9 59 -14 70 -5 11 -11 40 -14 65 -3 25 -12 77 -20 115 -8 39 -18 84 -21 100 -4 17 -10 39 -15 50 -5 11 -16 47 -26 80 -9 33 -21 64 -26 70 -4 5 -8 15 -8 23 0 24 -50 143 -120 287 -66 135 -74 156 -71 183 0 7 26 40 57 75 30 34 58 67 62 72 47 68 65 102 89 170 27 77 28 88 28 265 0 200 -4 219 -64 338 -64 126 -223 285 -336 337 -161 74 -142 70 -350 70 -129 0 -200 -4 -216 -12 -13 -7 -46 -19 -74 -28 -65 -21 -125 -58 -194 -120 -62 -55 -93 -75 -117 -75 -9 0 -80 31 -158 69 -77 38 -184 86 -236 106 -52 20 -104 41 -115 46 -11 5 -40 14 -65 19 -49 12 -97 24 -162 41 -24 6 -70 15 -103 20 -33 6 -74 15 -91 20 -17 5 -51 9 -77 9 -25 0 -49 5 -52 10 -3 6 -29 10 -56 10 -59 0 -84 11 -102 46 -12 23 -11 34 7 87 12 34 25 68 30 76 12 18 27 83 32 141 4 41 -3 60 -75 200 -154 298 -145 274 -144 371 1 92 8 110 64 194 37 54 88 89 172 117 63 20 94 20 257 -1 41 -6 113 -15 160 -21 47 -5 95 -15 108 -20 13 -6 34 -10 47 -10 13 0 27 -4 30 -10 3 -5 21 -10 38 -10 18 0 52 -6 77 -14 25 -8 77 -24 115 -35 39 -11 93 -27 122 -35 28 -9 67 -16 85 -16 22 0 121 44 308 138 l275 138 65 -29 c36 -16 76 -35 90 -43z m76 -1779 c103 -35 193 -125 229 -227 27 -79 14 -117 -22 -60 -20 31 -228 238 -267 265 -53 36 -17 49 60 22z"/>
        <path d="M5856 9410 c-34 -11 -92 -63 -112 -102 -17 -32 -19 -140 -3 -171 17 -32 60 -77 91 -93 39 -20 142 -18 176 4 81 52 102 88 102 172 0 117 -62 187 -174 196 -28 2 -64 -1 -80 -6z"/>
        <path d="M9215 6048 c-38 -13 -71 -43 -101 -90 -19 -29 -24 -51 -24 -98 0 -67 9 -90 49 -133 41 -45 73 -57 154 -57 l74 0 50 53 c43 45 51 60 57 106 8 64 -14 138 -53 175 -53 48 -140 67 -206 44z"/>
        <path d="M5290 7581 c-8 -4 -54 -11 -102 -15 -48 -3 -113 -13 -145 -22 -32 -9 -74 -19 -93 -24 -106 -24 -248 -79 -404 -156 -340 -169 -649 -451 -861 -785 -21 -34 -66 -121 -63 -123 17 -11 68 -28 106 -36 26 -6 93 -24 149 -41 56 -17 110 -29 119 -27 10 2 24 15 33 30 32 53 90 135 105 147 9 8 16 18 16 25 0 13 231 246 244 246 4 0 23 12 41 28 41 33 104 79 136 98 44 25 314 160 334 167 11 4 34 12 50 18 27 9 97 27 180 44 17 4 39 10 50 15 37 16 139 23 325 23 190 -1 280 -7 315 -23 11 -5 34 -11 50 -15 135 -28 164 -36 210 -55 11 -5 49 -21 85 -35 157 -64 353 -179 409 -239 14 -14 29 -26 35 -26 13 0 246 -231 246 -244 0 -5 12 -23 28 -41 68 -82 86 -111 173 -281 102 -198 155 -368 180 -574 14 -107 6 -497 -10 -513 -6 -6 -11 -24 -11 -41 0 -16 -4 -43 -10 -60 -5 -17 -16 -56 -25 -86 -9 -30 -20 -64 -24 -75 -5 -11 -16 -40 -26 -65 -28 -76 -148 -313 -165 -330 -3 -3 -19 -26 -36 -52 -17 -26 -44 -63 -60 -83 -46 -58 -227 -245 -237 -245 -5 0 -24 -12 -43 -28 -68 -56 -99 -78 -158 -114 -72 -44 -242 -129 -306 -153 -25 -9 -52 -21 -61 -25 -8 -4 -41 -13 -72 -20 -40 -8 -62 -18 -71 -33 -10 -16 -15 -77 -19 -209 l-6 -187 32 5 c54 9 179 41 217 56 14 5 45 17 70 25 25 8 58 20 75 26 47 19 289 138 295 145 3 4 19 14 35 22 62 31 172 113 264 198 32 28 62 52 67 52 12 0 124 112 124 124 0 5 24 35 53 67 96 106 164 198 197 264 8 17 18 32 22 35 8 7 138 262 138 273 0 4 9 26 19 50 11 23 27 67 36 97 9 30 20 69 25 86 6 17 10 39 10 50 0 11 4 24 9 30 9 9 19 67 43 249 13 103 13 416 0 520 -16 120 -37 234 -57 295 -9 30 -23 78 -31 105 -24 81 -102 261 -162 370 -27 50 -137 219 -157 242 -5 6 -28 35 -50 64 -22 29 -92 105 -156 168 -102 103 -150 144 -238 209 -13 9 -37 29 -55 43 -17 15 -49 36 -71 48 -43 23 -63 35 -108 64 -41 27 -140 77 -154 77 -7 0 -29 9 -49 20 -39 22 -265 100 -289 100 -9 0 -23 4 -33 9 -25 13 -113 31 -217 43 -116 13 -495 20 -515 9z"/>
        <path d="M5399 6997 c-61 -41 -79 -80 -79 -168 0 -77 1 -80 37 -120 38 -41 106 -79 144 -79 52 0 120 33 154 75 33 40 35 46 35 122 0 67 -4 86 -23 114 -40 59 -80 79 -162 79 -58 0 -78 -4 -106 -23z"/>
        <path d="M5390 6400 c-8 -5 -30 -10 -48 -10 -66 0 -282 -82 -333 -126 -8 -8 -19 -14 -23 -14 -5 0 -24 -12 -42 -27 -125 -101 -132 -112 -78 -124 16 -4 101 -28 189 -54 231 -69 245 -71 316 -51 140 39 307 9 448 -79 89 -56 100 -67 156 -156 91 -145 117 -308 73 -469 -19 -73 -87 -196 -119 -215 -5 -4 -9 -106 -9 -246 0 -200 2 -239 14 -239 8 0 21 6 28 13 7 6 27 19 43 27 47 23 91 59 174 140 87 87 111 118 174 227 34 57 86 206 100 283 18 102 8 371 -14 394 -5 6 -9 20 -9 33 0 40 -58 162 -126 268 -89 136 -244 272 -385 337 -106 49 -130 58 -152 58 -13 0 -27 4 -32 9 -21 20 -320 38 -345 21z"/>
        <path d="M3265 6173 c-11 -3 -54 -16 -95 -29 -41 -13 -102 -30 -135 -38 -33 -8 -123 -33 -200 -55 -77 -23 -158 -46 -180 -52 -22 -6 -53 -14 -70 -19 -53 -16 -248 -71 -320 -90 -38 -11 -110 -31 -160 -46 -49 -14 -102 -28 -118 -31 -15 -3 -30 -9 -33 -14 -3 -5 -15 -9 -27 -9 -12 0 -85 -19 -162 -41 -120 -34 -206 -59 -460 -130 -22 -6 -51 -15 -65 -20 -14 -4 -70 -20 -125 -34 -55 -15 -106 -29 -112 -31 -10 -3 -13 -200 -13 -946 0 -1097 4 -1188 69 -1483 41 -186 59 -247 134 -450 206 -558 589 -1045 1116 -1418 53 -38 105 -73 116 -78 11 -5 47 -25 80 -45 167 -98 464 -228 640 -278 33 -10 70 -22 83 -27 43 -17 99 -9 218 30 180 59 261 89 354 133 47 22 109 51 138 65 126 56 370 216 547 358 104 83 295 269 377 367 199 237 397 555 490 788 50 125 117 317 128 365 5 22 16 69 25 105 34 135 51 231 70 385 20 165 22 2123 3 2129 -7 2 -65 19 -128 36 -63 18 -187 52 -275 77 -88 24 -173 48 -190 53 -16 4 -77 22 -135 39 -107 32 -160 46 -195 54 -11 3 -81 23 -155 45 -74 22 -180 52 -235 66 -55 15 -143 40 -195 56 -52 16 -140 41 -195 56 -55 15 -122 33 -150 41 -63 19 -88 25 -205 57 -52 14 -124 34 -159 46 -35 11 -66 19 -70 19 -3 -1 -15 -3 -26 -6z m134 -479 c53 -14 150 -42 216 -61 129 -38 218 -63 415 -117 144 -40 561 -158 635 -181 28 -8 97 -28 155 -44 58 -16 152 -43 210 -59 58 -17 119 -33 137 -37 17 -3 37 -13 43 -20 9 -11 11 -228 7 -877 -4 -725 -7 -878 -20 -958 -23 -139 -55 -294 -65 -321 -6 -13 -17 -51 -27 -84 -9 -33 -37 -114 -63 -180 -121 -312 -296 -584 -533 -830 -303 -313 -647 -528 -1072 -666 -130 -43 -172 -40 -358 24 -85 30 -163 59 -174 65 -11 6 -64 32 -118 57 -483 227 -931 675 -1160 1160 -21 44 -43 89 -49 99 -22 41 -107 296 -131 396 -77 317 -79 348 -75 1315 l3 809 30 8 c47 12 412 114 590 165 88 25 214 61 280 79 66 19 143 41 170 49 28 8 100 28 160 44 126 35 250 71 490 140 94 27 178 50 189 50 10 1 62 -11 115 -25z"/>
        <path d="M6704 6066 c-39 -21 -53 -37 -79 -89 -31 -62 -32 -104 -4 -160 44 -88 89 -117 179 -117 69 0 101 14 146 62 44 47 54 69 54 128 0 77 -37 138 -107 178 -28 15 -160 14 -189 -2z"/>
        <path d="M6235 4528 c-32 -17 -85 -71 -101 -100 -8 -15 -14 -56 -14 -94 l0 -67 53 -54 54 -53 84 0 85 0 52 53 52 53 0 81 c0 78 -2 84 -32 118 -44 51 -96 75 -160 75 -29 0 -62 -6 -73 -12z"/>
    </g>
</svg>
