<svg version="1.1" id="Capa_1" xmlns="http://www.w3.org/2000/svg" xmlns:xlink="http://www.w3.org/1999/xlink" x="0px" y="0px" viewBox="0 0 100 100" style="enable-background:new 0 0 433.001 433.001;" xml:space="preserve" width="100" height="100">
  <g>
    <path d="M98.892 44.466c-2.65 -11.892 -9.772 -22.041 -20.054 -28.575 -6.349 -4.035 -13.576 -6.428 -21.017 -6.988a8.845 8.845 0 0 0 -0.471 -2.177c-1.133 -3.2 -3.935 -5.407 -7.311 -5.76L41.772 0.098C37.224 -0.379 32.762 1.202 29.529 4.435L4.421 29.543C1.188 32.776 -0.393 37.238 0.083 41.786l0.867 8.267c0.354 3.376 2.561 6.177 5.76 7.311a8.845 8.845 0 0 0 2.18 0.476c1.096 14.319 8.839 27.305 21.015 35.042 7.568 4.81 16.026 7.105 24.392 7.104 15.097 -0.001 29.889 -7.476 38.57 -21.133 6.535 -10.283 8.675 -22.495 6.025 -34.387M19.783 51.316l10.198 -10.197a2.065 2.065 0 0 0 0.958 0.24c0.684 0 1.353 -0.337 1.751 -0.954h-0.002a2.079 2.079 0 0 0 0.094 -2.087l6.568 -6.568a2.088 2.088 0 0 0 1.295 0.451 2.067 2.067 0 0 0 1.018 -0.268c1 -0.566 1.353 -1.834 0.788 -2.834a2.079 2.079 0 0 0 -0.183 -0.268l9.036 -9.036c7.668 -0.692 15.155 1.128 21.695 5.284 16.157 10.27 20.947 31.771 10.68 47.93 -4.975 7.827 -12.701 13.248 -21.754 15.265 -9.053 2.017 -18.349 0.387 -26.176 -4.588 -5.576 -3.544 -10.001 -8.564 -12.795 -14.515a34.834 34.834 0 0 1 -3.169 -17.857m-14.698 -1.697 -0.867 -8.267c-0.345 -3.295 0.8 -6.528 3.143 -8.87L32.468 7.375c2.342 -2.342 5.575 -3.488 8.87 -3.143l8.267 0.867c1.794 0.188 3.224 1.315 3.826 3.014 0.602 1.7 0.2 3.475 -1.075 4.75L12.849 52.371c-1.275 1.275 -3.052 1.676 -4.75 1.075 -1.7 -0.602 -2.827 -2.032 -3.015 -3.826m84.274 27.003c-7.891 12.413 -21.333 19.207 -35.055 19.207 -7.603 0 -15.292 -2.086 -22.169 -6.457 -11.159 -7.092 -18.224 -19.036 -19.125 -32.184a8.753 8.753 0 0 0 2.498 -1.612 39.007 39.007 0 0 0 3.681 15.361c3.13 6.667 8.084 12.289 14.328 16.257 6.313 4.013 13.477 6.082 20.78 6.081 2.836 0 5.695 -0.312 8.53 -0.944 10.137 -2.258 18.787 -8.328 24.359 -17.093 11.497 -18.093 6.132 -42.168 -11.958 -53.668 -5.905 -3.752 -12.735 -5.83 -19.672 -6.047 0.693 -0.753 1.235 -1.601 1.619 -2.506 6.879 0.461 13.568 2.65 19.435 6.379 9.345 5.939 15.818 15.163 18.226 25.971 2.408 10.808 0.463 21.908 -5.477 31.253"/>
    <path d="M43.177 71.997c3.388 2.153 7.233 3.264 11.153 3.264 1.523 0 3.057 -0.168 4.579 -0.507 5.441 -1.212 10.084 -4.471 13.074 -9.175s3.969 -10.292 2.757 -15.733 -4.471 -10.084 -9.175 -13.074c-9.712 -6.173 -22.634 -3.293 -28.806 6.418 -6.172 9.712 -3.293 22.634 6.418 28.806m-2.91 -26.576c3.181 -5.004 8.599 -7.743 14.131 -7.743a16.614 16.614 0 0 1 8.937 2.603c3.767 2.394 6.377 6.113 7.347 10.469s0.187 8.831 -2.208 12.599c-2.394 3.767 -6.112 6.377 -10.469 7.347 -4.356 0.971 -8.831 0.187 -12.599 -2.208 -7.777 -4.943 -10.082 -15.291 -5.139 -23.068"/>
    <path d="M80.051 65.424c0.224 0.079 0.453 0.115 0.679 0.115 0.861 0 1.668 -0.54 1.963 -1.4 0.376 -1.085 -0.198 -2.27 -1.284 -2.644 -1.085 -0.376 -2.268 0.201 -2.644 1.286 -0.374 1.083 0.201 2.268 1.287 2.642"/>
    <path d="M76.818 39.927c0.429 0 0.859 -0.132 1.231 -0.404 0.924 -0.681 1.122 -1.982 0.443 -2.908 -0.681 -0.924 -1.982 -1.122 -2.908 -0.441 -0.924 0.679 -1.122 1.979 -0.441 2.905a2.072 2.072 0 0 0 1.674 0.848"/>
    <path d="M81.927 52.251c0.104 0 0.21 -0.007 0.316 -0.023 1.136 -0.176 1.915 -1.236 1.739 -2.37a2.076 2.076 0 0 0 -2.37 -1.739c-1.134 0.173 -1.912 1.236 -1.739 2.37a2.081 2.081 0 0 0 2.053 1.762"/>
    <path d="M48.982 79.62c-1.122 -0.242 -2.229 0.473 -2.469 1.596a2.08 2.08 0 0 0 1.596 2.469c0.148 0.03 0.294 0.046 0.439 0.046 0.958 0 1.822 -0.667 2.03 -1.644 0.24 -1.122 -0.473 -2.226 -1.596 -2.467"/>
    <path d="M61.319 79.228c-1.106 0.309 -1.751 1.457 -1.441 2.564a2.082 2.082 0 0 0 2.564 1.441c1.104 -0.309 1.751 -1.457 1.439 -2.564 -0.309 -1.104 -1.455 -1.751 -2.561 -1.441"/>
    <path d="M72.072 73.158c-0.834 0.788 -0.873 2.104 -0.085 2.94a2.079 2.079 0 0 0 1.513 0.651c0.51 0 1.023 -0.187 1.425 -0.566 0.836 -0.788 0.875 -2.102 0.088 -2.938s-2.104 -0.875 -2.94 -0.088"/>
    <path d="M37.871 74.223c-0.884 -0.732 -2.194 -0.612 -2.928 0.273 -0.732 0.882 -0.61 2.194 0.273 2.926a2.067 2.067 0 0 0 1.326 0.48c0.598 0 1.189 -0.256 1.601 -0.751 0.734 -0.885 0.612 -2.194 -0.27 -2.928"/>
    <path d="M65.619 31.17c0.012 0.005 0.023 0.012 0.032 0.016h0.003c0.291 0.143 0.6 0.21 0.905 0.21 0.771 0 1.513 -0.43 1.873 -1.171 0.501 -1.032 0.072 -2.275 -0.961 -2.778 -0.007 -0.002 -0.014 -0.007 -0.021 -0.009 -0.005 -0.002 -0.007 -0.002 -0.009 -0.005a2.079 2.079 0 0 0 -2.778 0.963c-0.499 1.03 -0.072 2.27 0.956 2.774"/>
    <path d="M27.832 63.165c-1.06 0.439 -1.561 1.656 -1.122 2.716a2.081 2.081 0 0 0 1.921 1.282c0.266 0 0.536 -0.051 0.797 -0.159 1.058 -0.441 1.561 -1.656 1.122 -2.716a2.079 2.079 0 0 0 -2.718 -1.122"/>
    <path d="M26.414 53.967c0.062 0.007 0.125 0.009 0.187 0.009 1.065 0 1.972 -0.813 2.069 -1.894 0.102 -1.143 -0.744 -2.152 -1.887 -2.256 -1.143 -0.102 -2.152 0.744 -2.254 1.887 -0.104 1.143 0.741 2.152 1.885 2.254"/>
    <path d="M53.483 28.597c0.023 0 0.046 0 0.069 -0.002 1.148 -0.037 2.048 -0.998 2.009 -2.145a2.078 2.078 0 0 0 -2.143 -2.009c-1.148 0.037 -2.048 0.998 -2.009 2.145 0.035 1.125 0.958 2.012 2.074 2.012"/>
    <path d="M46.706 66.445c2.32 1.475 4.953 2.235 7.637 2.235 1.043 0 2.093 -0.115 3.136 -0.347 3.726 -0.83 6.905 -3.061 8.952 -6.283 2.047 -3.221 2.718 -7.047 1.888 -10.773 -0.83 -3.726 -3.061 -6.905 -6.283 -8.952h0c-6.65 -4.227 -15.499 -2.255 -19.725 4.395 -4.227 6.65 -2.255 15.499 4.395 19.725m-0.887 -17.496c1.929 -3.034 5.214 -4.695 8.568 -4.695a10.069 10.069 0 0 1 5.419 1.578c2.285 1.452 3.867 3.706 4.455 6.348s0.113 5.355 -1.339 7.639c-1.452 2.284 -3.706 3.867 -6.348 4.455s-5.355 0.113 -7.639 -1.339c-4.716 -2.997 -6.114 -9.272 -3.117 -13.987"/>
    <path d="M15.545 42.36c1.436 0 2.785 -0.559 3.8 -1.574a5.339 5.339 0 0 0 1.574 -3.8c0 -1.436 -0.559 -2.785 -1.574 -3.8a5.339 5.339 0 0 0 -3.8 -1.574 5.339 5.339 0 0 0 -3.8 1.574 5.339 5.339 0 0 0 -1.574 3.8c0 1.436 0.559 2.785 1.574 3.8a5.337 5.337 0 0 0 3.8 1.574m-0.861 -6.235a1.21 1.21 0 0 1 0.861 -0.356c0.325 0 0.631 0.127 0.861 0.357s0.357 0.536 0.357 0.861 -0.127 0.631 -0.357 0.861a1.21 1.21 0 0 1 -0.861 0.357 1.21 1.21 0 0 1 -0.861 -0.357c-0.23 -0.23 -0.357 -0.536 -0.357 -0.861s0.126 -0.631 0.357 -0.861"/>
    <path d="M36.972 20.934c1.436 0 2.785 -0.559 3.8 -1.574a5.339 5.339 0 0 0 1.574 -3.8c0 -1.436 -0.559 -2.785 -1.574 -3.8a5.339 5.339 0 0 0 -3.8 -1.574 5.339 5.339 0 0 0 -3.8 1.574 5.339 5.339 0 0 0 -1.574 3.8c0 1.436 0.559 2.785 1.574 3.8a5.339 5.339 0 0 0 3.8 1.574m-0.861 -6.235a1.21 1.21 0 0 1 0.861 -0.356c0.325 0 0.631 0.127 0.861 0.357s0.357 0.536 0.357 0.861 -0.127 0.631 -0.357 0.861a1.21 1.21 0 0 1 -0.861 0.357 1.21 1.21 0 0 1 -0.861 -0.357c-0.23 -0.23 -0.357 -0.536 -0.357 -0.861s0.127 -0.631 0.357 -0.861"/>
  </g>
</svg>
