<svg xmlns="http://www.w3.org/2000/svg" version="1.1" width="50px" height="50px" style="shape-rendering:geometricPrecision; text-rendering:geometricPrecision; image-rendering:optimizeQuality; fill-rule:evenodd; clip-rule:evenodd" xmlns:xlink="http://www.w3.org/1999/xlink" viewBox="0 0 50px 50px">
  <g>
    <path style="opacity:1" fill="#fefefe" d="M25.15 5.35h0.1a90.6 90.6 0 0 0 7.2 3.6q0.149 -0.026 0.2 0.1 0.152 0.176 0.4 0.2 0.152 0.176 0.4 0.2 0.152 0.176 0.4 0.2 0.152 0.176 0.4 0.2 0.149 -0.026 0.2 0.1 0.118 0.241 0.4 0.2 0.512 0.456 1.2 0.6 0.149 -0.026 0.2 0.1 0.312 0.356 0.8 0.4 0.152 0.176 0.4 0.2 0.149 -0.026 0.2 0.1 0.312 0.356 0.8 0.4 0.61 0.505 1.4 0.7a65.4 65.4 0 0 0 4.3 2.25 1.96 1.96 0 0 0 0.4 0.35q0.025 11.3 -0.05 22.6a49.7 49.7 0 0 1 -0.15 1.4q-0.263 0.174 -0.3 0.5 -0.339 0.127 -0.3 0.5 -0.264 0.114 -0.3 0.4 -0.174 0.263 -0.5 0.3 -0.512 0.086 -0.9 0.4 -0.231 0.12 -0.5 0.1 -16.903 0.049 -33.8 -0.1h-0.1q-0.338 -0.282 -0.8 -0.3 -0.071 -0.211 -0.3 -0.2 -0.357 -0.457 -0.8 -0.8 -0.059 -0.483 -0.4 -0.8 0.014 -0.398 -0.2 -0.7v-23.3q0.3 -0.2 0.5 -0.5 0.837 -0.118 1.4 -0.7a13.87 13.87 0 0 0 2.5 -1.1q0.12 -0.069 0.1 -0.2 0.422 0.071 0.6 -0.3 0.929 -0.164 1.6 -0.8 0.152 -0.176 0.4 -0.2 0.604 -0.056 1 -0.5a8.97 8.97 0 0 1 1.6 -0.8q0.495 -0.062 0.8 -0.4 0.434 0.07 0.6 -0.3 0.838 -0.126 1.4 -0.7 0.248 -0.024 0.4 -0.2t0.4 -0.2q0.837 -0.118 1.4 -0.7 1.441 -0.42 2.6 -1.3 0.628 -0.014 1 -0.5h0.1a3.94 3.94 0 0 0 1.1 -0.45 1.29 1.29 0 0 1 0.5 -0.05m-0.4 4.9 0.6 0.2q0.152 0.176 0.4 0.2h0.1q0.071 0.211 0.3 0.2a6.87 6.87 0 0 0 1.4 0.7q0.452 0.326 1 0.5 0.152 0.176 0.4 0.2 0.452 0.326 1 0.5 0.152 0.176 0.4 0.2a67.7 67.7 0 0 0 4.4 2.2 16.9 16.9 0 0 0 2.2 1.1 11.34 11.34 0 0 0 1.8 0.9 182.6 182.6 0 0 0 1.4 0.7 8.1 8.1 0 0 0 0.3 0.25q-0.132 0.106 -0.2 0.25 -0.229 -0.011 -0.3 0.2 -0.229 -0.011 -0.3 0.2 -0.149 -0.026 -0.2 0.1 -0.229 -0.011 -0.3 0.2 -0.229 -0.011 -0.3 0.2 -0.326 0.038 -0.5 0.3 -0.405 0.052 -0.6 0.4 -0.149 -0.026 -0.2 0.1 -0.326 0.038 -0.5 0.3 -0.229 -0.011 -0.3 0.2 -0.326 0.038 -0.5 0.3 -0.229 -0.011 -0.3 0.2 -0.229 -0.011 -0.3 0.2 -0.229 -0.011 -0.3 0.2 -0.481 0.133 -0.8 0.5 -0.149 -0.026 -0.2 0.1 -0.229 -0.011 -0.3 0.2 -0.229 -0.011 -0.3 0.2 -0.234 0.035 -0.4 0.2 -0.229 -0.011 -0.3 0.2 -0.229 -0.011 -0.3 0.2 -0.229 -0.011 -0.3 0.2 -0.326 0.038 -0.5 0.3 -0.229 -0.011 -0.3 0.2 -0.229 -0.011 -0.3 0.2 -0.326 0.038 -0.5 0.3 -0.229 -0.011 -0.3 0.2 -0.149 -0.026 -0.2 0.1 -0.229 -0.011 -0.3 0.2 -0.229 -0.011 -0.3 0.2 -0.229 -0.011 -0.3 0.2 -0.425 0.087 -0.7 0.4 -0.286 0.036 -0.4 0.3 -0.425 0.087 -0.7 0.4 -0.326 0.038 -0.5 0.3 -0.229 -0.011 -0.3 0.2 -0.229 -0.011 -0.3 0.2 -0.149 -0.026 -0.2 0.1 -0.229 -0.011 -0.3 0.2 -0.229 -0.011 -0.3 0.2 -0.248 0.024 -0.4 0.2 -0.311 0.24 -0.7 0.15a18.4 18.4 0 0 0 -1.5 -0.85q-0.071 -0.211 -0.3 -0.2a7.57 7.57 0 0 0 -1.4 -0.9 1.174 1.174 0 0 0 -0.5 -0.3q-0.344 -0.323 -0.8 -0.5 -0.051 -0.126 -0.2 -0.1 -0.071 -0.211 -0.3 -0.2 -0.071 -0.211 -0.3 -0.2 -0.051 -0.126 -0.2 -0.1 -0.071 -0.211 -0.3 -0.2a2.48 2.48 0 0 0 -0.8 -0.5q-0.247 -0.274 -0.6 -0.4 -0.051 -0.126 -0.2 -0.1 -0.071 -0.211 -0.3 -0.2 -0.118 -0.241 -0.4 -0.2 -0.247 -0.274 -0.6 -0.4a2.48 2.48 0 0 0 -0.8 -0.5q-0.319 -0.367 -0.8 -0.5 -0.071 -0.211 -0.3 -0.2 -0.243 -0.272 -0.6 -0.4h-0.1a7.57 7.57 0 0 0 -1.7 -1.1 6 6 0 0 0 -1.1 -0.7q-0.174 -0.263 -0.5 -0.3 -0.32 -0.367 -0.8 -0.5v-0.3q0.793 -0.196 1.4 -0.7 0.308 0.015 0.5 -0.2 0.524 -0.136 0.9 -0.5 0.282 0.041 0.4 -0.2 0.788 -0.194 1.4 -0.7 0.308 0.015 0.5 -0.2 0.723 -0.236 1.3 -0.7 0.308 0.015 0.5 -0.2a6.87 6.87 0 0 0 1.4 -0.7 11.34 11.34 0 0 0 1.8 -0.9 56.4 56.4 0 0 0 4.9 -2.5q0.308 0.015 0.5 -0.2"/>
  </g>
</svg>
