<svg width="24px" height="24px" viewBox="0 0 0.48 0.48" xmlns="http://www.w3.org/2000/svg" fill="none">
    <path fill="#0A66C2" d="M0.367 0.367h-0.053V0.283c0 -0.02 0 -0.046 -0.028 -0.046 -0.028 0 -0.032 0.022 -0.032 0.044v0.085H0.2V0.195h0.051v0.023h0.001c0.01 -0.018 0.03 -0.028 0.051 -0.028 0.054 0 0.064 0.036 0.064 0.082zM0.14 0.171a0.031 0.031 0 0 1 -0.031 -0.031c0 -0.017 0.014 -0.031 0.031 -0.031s0.031 0.014 0.031 0.031c0 0.017 -0.014 0.031 -0.031 0.031zm0.027 0.195h-0.053V0.195h0.053zM0.393 0.06H0.087A0.026 0.026 0 0 0 0.06 0.086v0.308a0.026 0.026 0 0 0 0.027 0.026h0.307a0.026 0.026 0 0 0 0.027 -0.026V0.086a0.026 0.026 0 0 0 -0.027 -0.026z"/>
</svg>