<svg id="svg" version="1.1" xmlns="http://www.w3.org/2000/svg" xmlns:xlink="http://www.w3.org/1999/xlink" width="400" height="137.2549019607843" viewBox="0, 0, 400,137.2549019607843">
  <g id="svgg">
    <path id="path0" d="M175.463 41.500 C 170.471 41.597,170.500 41.588,170.500 43.006 C 170.500 43.678,170.583 43.931,170.909 44.258 L 171.318 44.667 175.367 44.667 C 185.510 44.668,191.684 44.865,191.995 45.200 C 192.372 45.605,192.570 48.598,192.278 49.477 C 192.015 50.265,191.602 50.350,189.028 50.139 C 181.863 49.552,174.538 50.768,173.103 52.782 C 171.367 55.220,170.589 57.207,170.398 59.687 C 170.186 62.446,169.700 62.354,184.052 62.295 L 195.158 62.250 195.526 61.881 C 196.126 61.281,196.175 59.660,195.610 59.095 L 195.182 58.667 184.997 58.667 C 172.968 58.667,173.334 58.747,174.669 56.413 C 176.155 53.816,176.318 53.779,186.691 53.671 C 194.690 53.588,195.150 53.567,195.483 53.266 C 195.824 52.956,195.833 52.820,195.833 47.885 C 195.833 42.415,195.753 41.822,194.974 41.575 C 194.516 41.430,181.635 41.380,175.463 41.500 M214.167 41.488 C 206.006 41.608,206.258 41.576,204.226 42.758 C 201.406 44.399,198.332 52.213,200.037 53.407 C 200.518 53.744,216.391 53.797,219.031 53.470 C 221.594 53.153,221.917 53.480,221.080 55.541 C 220.552 56.840,219.858 57.575,218.583 58.187 L 217.583 58.666 208.977 58.667 C 198.839 58.667,199.598 58.518,199.598 60.500 C 199.598 62.463,199.029 62.333,207.643 62.333 C 215.411 62.332,216.249 62.267,219.345 61.427 C 221.632 60.807,222.038 60.432,223.957 57.167 C 225.069 55.275,225.688 50.802,224.917 50.228 C 224.629 50.014,223.189 49.984,214.417 50.010 C 202.487 50.044,202.823 50.101,203.915 48.237 C 205.863 44.914,206.108 44.848,216.667 44.837 C 221.021 44.832,224.674 44.770,224.785 44.700 C 225.427 44.292,225.697 42.447,225.204 41.838 C 224.823 41.367,224.024 41.342,214.167 41.488 M228.917 41.538 C 227.980 42.053,228.204 44.359,229.211 44.575 C 229.416 44.618,231.484 44.677,233.807 44.704 L 238.031 44.754 238.542 45.326 L 239.052 45.897 238.951 52.990 C 238.881 57.892,238.907 60.307,239.033 60.809 C 239.431 62.393,241.495 62.627,242.247 61.172 C 242.555 60.577,242.618 49.371,242.325 47.269 C 241.983 44.806,242.017 44.790,247.790 44.703 L 252.330 44.635 252.748 44.138 C 253.325 43.453,253.349 42.122,252.792 41.773 C 252.298 41.465,229.459 41.240,228.917 41.538 M268.000 41.498 C 259.673 41.647,259.268 41.712,257.971 43.122 C 257.574 43.552,256.891 44.241,256.452 44.652 C 254.614 46.372,254.363 47.541,254.221 55.032 C 254.112 60.815,254.150 61.201,254.876 61.655 C 256.071 62.401,278.136 62.716,279.046 61.999 C 279.879 61.344,279.777 59.160,278.897 58.826 C 278.648 58.731,274.409 58.667,268.406 58.667 C 258.599 58.667,258.325 58.658,258.004 58.338 C 257.188 57.521,257.418 54.105,258.314 53.743 C 258.462 53.683,263.136 53.646,268.701 53.660 C 280.350 53.690,279.825 53.758,279.831 52.203 C 279.834 51.229,279.447 50.368,278.914 50.166 C 278.294 49.930,261.873 49.947,260.275 50.184 C 257.614 50.580,256.899 48.418,258.997 46.320 C 260.382 44.935,260.310 44.945,270.024 44.841 C 278.161 44.753,278.479 44.738,278.833 44.417 C 279.711 43.622,279.892 42.614,279.283 41.905 C 278.799 41.344,278.086 41.318,268.000 41.498 M292.698 41.511 C 288.951 41.694,288.215 41.966,286.191 43.915 C 283.527 46.479,283.072 48.567,283.197 57.640 C 283.257 62.069,283.290 62.167,284.693 62.167 C 286.463 62.167,286.667 61.687,286.667 57.518 C 286.667 54.474,286.692 54.196,286.987 53.928 C 287.283 53.660,288.071 53.636,297.469 53.611 C 308.859 53.580,308.080 53.669,308.474 52.353 C 308.932 50.826,308.641 42.236,308.114 41.709 C 307.787 41.382,297.939 41.256,292.698 41.511 M101.583 41.615 C 99.659 41.784,94.678 42.800,92.417 43.484 C 91.867 43.650,91.117 43.865,90.750 43.960 C 89.384 44.315,83.568 46.727,82.417 47.416 C 82.233 47.526,81.296 48.056,80.333 48.594 C 76.132 50.941,72.805 53.518,68.833 57.502 C 62.886 63.467,58.406 70.554,56.087 77.667 C 55.833 78.446,55.487 79.458,55.318 79.917 C 54.390 82.438,53.212 89.345,53.122 92.794 C 53.063 95.050,53.440 95.500,55.387 95.500 C 57.033 95.500,57.556 94.800,57.985 92.026 C 58.089 91.352,58.275 90.602,58.398 90.359 C 58.521 90.116,58.717 89.504,58.834 89.000 C 59.068 87.983,60.330 84.650,60.840 83.699 C 61.019 83.363,61.167 83.031,61.167 82.960 C 61.167 82.889,61.702 81.876,62.356 80.708 C 65.871 74.432,69.362 70.449,75.333 65.901 C 78.415 63.555,84.429 60.407,87.417 59.576 C 87.875 59.448,88.513 59.233,88.833 59.097 C 90.223 58.508,94.943 57.549,97.568 57.323 C 102.696 56.879,102.258 57.250,103.072 52.667 C 103.308 51.337,103.686 49.237,103.913 48.000 C 105.095 41.542,105.011 41.313,101.583 41.615 M108.248 42.031 C 107.547 42.675,107.251 43.714,106.740 47.333 C 106.604 48.296,106.383 49.496,106.249 50.000 C 104.920 54.984,105.464 56.967,108.261 57.333 C 110.600 57.639,111.713 57.838,113.490 58.269 C 116.285 58.948,116.714 58.724,118.411 55.701 C 119.013 54.628,119.683 53.450,119.898 53.083 C 120.114 52.717,120.689 51.742,121.175 50.917 C 124.473 45.320,124.607 44.625,122.583 43.614 C 120.797 42.722,115.172 41.664,111.565 41.543 L 108.881 41.452 108.248 42.031 M304.118 44.931 C 305.650 45.164,305.832 49.185,304.343 49.895 C 304.006 50.055,288.157 50.167,287.138 50.017 C 286.629 49.941,286.936 47.698,287.600 46.643 C 288.450 45.291,289.423 44.976,293.167 44.840 C 296.072 44.734,303.214 44.794,304.118 44.931 M127.478 46.085 C 126.940 46.377,126.116 47.583,124.745 50.083 C 124.544 50.450,123.871 51.612,123.250 52.667 C 118.985 59.902,118.983 59.638,123.314 61.877 C 124.379 62.428,125.449 63.018,125.692 63.189 C 125.936 63.360,126.182 63.500,126.239 63.500 C 126.297 63.500,126.848 63.830,127.464 64.234 C 129.633 65.655,130.638 65.629,132.413 64.106 C 132.962 63.635,133.633 63.063,133.905 62.833 C 134.176 62.604,134.703 62.148,135.074 61.820 C 135.446 61.493,136.966 60.232,138.452 59.018 C 143.677 54.754,143.616 54.286,137.309 50.167 C 136.958 49.938,135.863 49.275,134.877 48.694 C 133.890 48.113,132.971 47.569,132.833 47.487 C 130.584 46.135,128.426 45.570,127.478 46.085 M144.307 57.796 C 143.972 57.954,143.297 58.432,142.807 58.858 C 141.059 60.379,139.380 61.797,136.880 63.865 C 132.419 67.554,132.421 67.539,135.950 71.240 C 136.885 72.221,138.180 73.722,138.828 74.576 C 141.063 77.524,141.880 77.963,143.643 77.163 C 144.043 76.982,144.444 76.833,144.535 76.833 C 144.626 76.833,145.543 76.496,146.574 76.083 C 147.606 75.671,148.534 75.333,148.638 75.333 C 148.742 75.333,149.297 75.153,149.872 74.932 C 150.446 74.711,151.479 74.331,152.167 74.086 C 156.423 72.572,156.772 71.267,154.011 67.180 C 153.851 66.944,153.320 66.150,152.830 65.417 C 150.835 62.432,147.229 58.226,146.277 57.774 C 145.549 57.428,145.076 57.434,144.307 57.796 M106.992 61.777 C 106.249 62.448,105.841 63.000,104.750 64.810 C 103.842 66.317,103.488 66.858,103.156 67.250 C 103.000 67.433,102.596 68.102,102.257 68.737 C 101.918 69.371,101.346 70.323,100.987 70.853 C 100.627 71.382,100.333 71.862,100.333 71.919 C 100.333 71.977,99.856 72.750,99.271 73.637 C 98.687 74.524,97.934 75.775,97.597 76.417 C 96.877 77.786,95.859 79.519,94.894 81.015 C 94.515 81.602,93.905 82.646,93.539 83.333 C 92.448 85.381,91.850 86.472,90.617 88.667 C 88.181 93.001,88.182 93.015,91.222 94.565 C 93.178 95.562,94.379 95.821,94.980 95.376 C 95.394 95.069,97.261 91.351,97.931 89.500 C 98.435 88.107,98.962 86.918,100.999 82.583 C 101.760 80.964,102.378 79.725,103.660 77.250 C 104.325 75.967,105.156 74.129,105.506 73.167 C 106.123 71.474,106.405 70.788,108.051 66.967 C 109.357 63.936,109.609 62.494,108.958 61.766 C 108.313 61.043,107.801 61.046,106.992 61.777 M299.916 74.334 C 294.561 74.649,293.357 75.018,291.300 76.975 C 288.527 79.614,288.506 79.700,288.503 88.190 C 288.500 94.285,288.517 94.651,288.819 95.023 L 289.137 95.417 296.860 95.417 C 305.259 95.417,304.892 95.449,308.467 94.386 C 310.528 93.773,312.394 91.459,312.996 88.770 C 313.096 88.322,313.319 87.535,313.492 87.020 C 314.025 85.432,314.113 83.779,313.686 83.353 C 313.267 82.933,300.479 82.789,299.590 83.194 C 298.661 83.617,298.636 85.881,299.554 86.566 C 300.064 86.947,302.369 87.029,307.106 86.833 C 309.920 86.717,310.345 87.136,309.276 88.971 C 308.557 90.206,308.066 90.712,307.167 91.144 L 306.250 91.583 299.440 91.632 C 293.391 91.675,292.584 91.651,292.218 91.411 L 291.806 91.141 291.865 86.529 C 291.937 80.891,292.118 80.307,294.223 78.915 C 295.647 77.973,300.879 77.684,310.872 77.993 L 313.327 78.069 313.830 77.586 C 314.834 76.625,314.376 74.861,313.033 74.517 C 312.180 74.298,302.761 74.167,299.916 74.334 M330.250 74.289 C 326.264 74.406,323.505 74.821,322.119 75.512 C 321.370 75.886,318.661 78.899,318.159 79.917 C 317.389 81.480,317.312 82.310,317.367 88.457 C 317.423 94.847,317.451 94.999,318.625 95.325 C 319.533 95.577,341.267 95.564,341.993 95.311 C 342.948 94.978,343.378 93.003,342.681 92.143 L 342.363 91.750 331.835 91.667 C 319.466 91.569,320.782 91.865,320.864 89.193 C 320.945 86.548,319.731 86.802,332.059 86.850 L 342.385 86.890 342.776 86.436 C 343.549 85.537,343.113 83.507,342.073 83.163 C 341.677 83.033,338.522 82.988,331.511 83.014 C 320.365 83.056,320.897 83.110,321.052 81.948 C 321.236 80.577,322.923 78.723,324.339 78.335 C 325.937 77.897,328.522 77.790,334.417 77.920 C 342.529 78.098,342.129 78.113,342.639 77.603 C 343.456 76.787,343.087 74.886,342.033 74.478 C 341.619 74.317,333.639 74.190,330.250 74.289 M181.167 74.448 C 176.885 74.769,175.825 75.140,173.943 76.978 C 172.196 78.684,172.115 78.826,171.444 81.319 L 170.925 83.250 170.921 88.417 C 170.915 95.482,170.628 95.080,175.868 95.358 C 186.803 95.937,192.652 94.862,194.072 92.011 C 195.978 88.181,196.871 84.298,196.037 83.463 L 195.658 83.083 189.142 83.036 C 181.340 82.979,181.831 82.861,181.839 84.796 C 181.847 86.867,181.507 86.735,187.097 86.833 C 192.891 86.935,192.726 86.843,191.499 89.295 C 190.875 90.542,190.769 90.659,189.874 91.106 L 188.917 91.583 181.964 91.630 C 173.388 91.688,174.333 92.153,174.335 87.875 C 174.339 78.032,174.872 77.666,188.881 77.898 C 194.167 77.985,195.253 77.964,195.640 77.764 C 196.864 77.131,196.732 74.954,195.442 74.505 C 194.991 74.347,183.134 74.300,181.167 74.448 M210.167 74.443 C 205.680 74.880,205.165 75.057,203.157 76.860 C 200.627 79.131,200.000 81.736,200.000 89.972 C 200.000 94.807,200.028 94.930,201.236 95.329 C 203.039 95.924,203.976 94.620,203.677 91.932 C 203.289 88.456,203.461 87.305,204.428 86.901 C 205.252 86.557,220.867 86.737,221.444 87.097 C 221.793 87.315,221.807 87.440,221.861 90.977 C 221.929 95.436,222.239 95.981,224.347 95.349 C 225.438 95.022,225.404 95.368,225.358 85.167 C 225.314 75.288,225.290 74.992,224.494 74.580 C 224.050 74.351,212.277 74.238,210.167 74.443 M238.414 74.573 C 234.754 75.023,233.771 75.451,231.786 77.459 C 230.842 78.414,230.581 78.808,230.203 79.843 L 229.750 81.083 229.700 87.846 C 229.642 95.579,229.593 95.291,231.018 95.451 C 232.693 95.640,232.957 94.847,232.987 89.548 C 233.004 86.528,232.636 86.755,237.417 86.809 C 242.172 86.862,242.157 86.856,245.000 89.427 C 245.779 90.131,246.942 91.066,247.583 91.504 C 248.225 91.942,249.088 92.650,249.500 93.078 C 250.838 94.464,253.393 95.580,254.219 95.139 C 255.887 94.251,255.114 92.678,251.980 90.578 C 247.422 87.524,247.328 86.781,251.500 86.747 C 255.042 86.718,254.777 87.190,254.896 80.700 C 254.993 75.375,254.967 75.175,254.093 74.696 C 253.431 74.333,241.148 74.237,238.414 74.573 M267.300 74.588 C 264.121 74.935,263.380 75.257,261.470 77.127 L 259.857 78.706 259.440 80.561 C 258.734 83.709,258.459 93.654,259.054 94.562 C 259.716 95.573,261.152 95.745,261.822 94.894 C 262.312 94.270,262.367 93.700,262.207 90.856 C 262.036 87.801,262.079 87.399,262.615 87.047 C 263.017 86.784,279.759 86.687,280.428 86.944 C 280.835 87.100,280.906 87.706,280.911 91.083 C 280.917 94.714,280.977 94.978,281.868 95.348 C 282.499 95.609,283.366 95.414,283.848 94.901 L 284.250 94.474 284.296 89.862 C 284.322 87.325,284.284 82.975,284.213 80.194 L 284.083 75.138 283.616 74.736 L 283.148 74.333 276.199 74.354 C 271.838 74.367,268.524 74.454,267.300 74.588 M154.333 76.079 C 153.554 76.382,152.579 76.743,152.167 76.881 C 151.432 77.127,150.427 77.494,147.084 78.738 C 143.588 80.037,143.148 80.742,144.264 83.250 C 144.887 84.652,145.158 85.350,145.972 87.667 C 146.650 89.595,147.138 91.285,147.352 92.441 C 147.576 93.651,148.003 94.499,148.672 95.062 L 149.192 95.500 154.688 95.500 C 161.227 95.500,161.365 95.464,161.849 93.656 C 162.451 91.404,160.252 80.123,158.558 76.773 C 157.841 75.356,156.684 75.166,154.333 76.079 M221.167 78.125 L 221.750 78.417 221.797 80.370 C 221.868 83.326,223.349 83.075,205.778 83.083 C 202.606 83.084,203.574 78.705,206.864 78.169 C 207.535 78.059,208.196 77.948,208.333 77.921 C 209.535 77.686,220.640 77.862,221.167 78.125 M250.790 78.243 C 251.802 78.855,251.724 81.683,250.668 82.740 C 250.329 83.079,234.872 83.246,233.850 82.922 C 231.850 82.287,234.750 78.626,237.686 78.081 C 239.803 77.687,250.082 77.815,250.790 78.243 M280.158 78.125 C 281.021 78.563,281.273 81.768,280.516 82.680 C 280.104 83.177,263.081 83.225,262.708 82.731 C 261.832 81.569,263.442 78.674,265.202 78.244 C 267.196 77.757,279.244 77.662,280.158 78.125 " stroke="none" fill="#ffffff" fill-rule="evenodd"/>
  </g>
</svg>
