<svg id="svg" version="1.1" xmlns="http://www.w3.org/2000/svg" xmlns:xlink="http://www.w3.org/1999/xlink" width="400" height="137.2549019607843" viewBox="0, 0, 400,137.2549019607843">
  <g id="svgg">
    <path id="path0" d="M104.556 26.509 C 102.782 27.544,101.934 28.631,100.097 32.229 C 98.471 35.413,97.187 37.472,95.250 40.000 C 90.772 45.845,90.610 46.559,93.133 49.365 C 94.775 51.193,94.916 51.715,94.898 55.917 C 94.888 58.170,94.785 60.126,94.608 61.410 C 93.778 67.428,94.584 69.001,98.616 69.235 C 102.795 69.478,106.061 71.211,107.203 73.793 C 107.638 74.777,107.654 77.887,107.226 78.360 C 106.944 78.671,106.463 79.730,105.723 81.667 C 104.832 84.000,105.049 87.285,106.178 88.571 C 107.552 90.135,108.782 88.962,107.923 86.906 C 106.819 84.264,106.789 80.706,107.851 78.398 C 108.025 78.022,108.167 77.654,108.167 77.582 C 108.167 76.227,110.902 74.300,113.833 73.590 C 114.429 73.445,115.742 73.103,116.750 72.829 C 123.134 71.095,125.188 71.445,126.345 74.463 C 127.130 76.511,127.024 77.522,125.419 83.250 C 124.432 86.772,124.440 88.141,125.473 92.333 C 126.822 97.811,127.111 102.111,126.370 105.717 C 125.633 109.303,126.177 111.167,127.962 111.167 C 130.562 111.167,131.331 105.626,129.754 98.250 C 129.284 96.049,128.787 91.587,128.794 89.617 C 128.809 84.839,130.400 81.832,136.483 75.083 C 138.128 73.259,138.423 72.927,139.598 71.583 C 148.152 61.798,149.660 57.414,146.062 52.797 C 144.750 51.113,144.538 50.446,144.346 47.389 C 144.146 44.212,143.490 41.562,142.270 39.012 C 141.450 37.297,138.602 34.827,135.565 33.196 C 132.934 31.783,129.825 30.868,126.167 30.431 C 124.929 30.283,123.579 30.121,123.167 30.071 C 122.754 30.021,120.204 29.922,117.500 29.851 C 111.859 29.702,112.141 29.772,110.449 28.097 C 108.397 26.065,106.291 25.497,104.556 26.509 M236.333 43.280 C 231.622 43.767,226.502 47.513,224.413 52.000 C 224.264 52.321,223.997 52.888,223.821 53.261 C 223.644 53.634,223.500 54.055,223.500 54.198 C 223.500 54.340,223.350 54.926,223.167 55.500 C 222.038 59.033,223.344 64.081,226.125 66.939 C 226.787 67.619,228.552 69.000,228.759 69.000 C 228.817 69.000,229.064 69.138,229.308 69.307 C 232.074 71.228,240.005 71.178,243.833 69.216 C 251.515 65.278,254.643 55.277,250.262 48.667 C 247.535 44.552,242.578 42.635,236.333 43.280 M163.205 43.778 C 162.865 43.915,162.556 44.668,162.352 45.860 C 162.248 46.471,162.059 47.221,161.933 47.527 C 161.807 47.833,161.653 48.496,161.591 49.000 C 161.530 49.504,161.339 50.442,161.167 51.083 C 160.594 53.228,160.318 54.404,160.005 56.035 C 159.834 56.925,159.650 57.725,159.596 57.813 C 159.502 57.965,159.181 59.348,158.586 62.167 C 158.235 63.831,157.727 65.966,157.314 67.508 C 157.129 68.200,157.001 69.100,157.030 69.508 L 157.083 70.250 161.216 70.295 L 165.349 70.339 165.690 69.569 C 165.878 69.145,166.131 68.188,166.254 67.441 C 166.377 66.694,166.584 65.783,166.715 65.417 C 166.846 65.050,167.008 64.375,167.075 63.917 C 167.221 62.928,167.364 62.723,168.008 62.582 C 168.782 62.412,169.086 62.610,169.740 63.713 C 170.078 64.283,170.427 64.862,170.514 65.000 C 170.602 65.137,170.783 65.489,170.918 65.781 C 171.052 66.073,171.345 66.581,171.569 66.911 C 171.792 67.240,172.143 67.864,172.349 68.296 C 172.555 68.729,172.942 69.366,173.211 69.711 L 173.699 70.339 178.224 70.294 C 183.196 70.246,183.215 70.241,182.626 69.221 C 182.511 69.022,182.056 68.235,181.615 67.471 C 181.173 66.708,180.686 65.862,180.531 65.591 C 180.377 65.320,179.936 64.596,179.553 63.982 C 178.915 62.959,178.350 61.577,178.515 61.442 C 178.553 61.411,179.146 61.078,179.833 60.701 C 188.069 56.183,187.683 45.025,179.250 43.838 C 178.077 43.672,163.601 43.619,163.205 43.778 M190.501 44.205 C 190.321 44.502,190.092 45.158,189.992 45.664 C 189.892 46.169,189.694 47.071,189.551 47.667 C 189.408 48.262,189.199 49.237,189.087 49.833 C 188.975 50.429,188.761 51.329,188.611 51.833 C 188.462 52.337,188.234 53.275,188.104 53.917 C 187.536 56.730,187.159 58.369,187.021 58.633 C 186.939 58.789,186.823 59.254,186.762 59.667 C 186.624 60.612,185.915 63.716,185.486 65.250 C 185.307 65.892,185.096 66.829,185.018 67.333 C 184.940 67.837,184.777 68.600,184.657 69.029 C 184.282 70.359,184.240 70.347,188.815 70.295 L 192.750 70.250 193.041 69.656 C 193.201 69.329,193.448 68.542,193.591 67.906 C 193.734 67.270,193.956 66.375,194.085 65.917 C 194.213 65.458,194.397 64.558,194.493 63.917 C 194.697 62.553,195.829 59.985,195.834 60.875 C 195.836 61.230,196.359 63.736,196.477 63.957 C 196.566 64.123,196.723 64.744,196.827 65.338 C 196.931 65.931,197.121 66.754,197.249 67.167 C 197.378 67.579,197.562 68.367,197.659 68.917 C 197.905 70.317,197.946 70.334,200.990 70.328 C 204.002 70.322,203.878 70.378,205.200 68.414 C 205.631 67.774,206.326 66.762,206.746 66.167 C 207.165 65.571,207.863 64.567,208.296 63.936 C 208.729 63.306,209.254 62.556,209.462 62.270 C 209.671 61.984,209.997 61.506,210.187 61.209 C 210.795 60.255,211.116 61.335,210.595 62.582 C 210.463 62.897,210.307 63.513,210.248 63.952 C 210.189 64.391,210.038 65.125,209.913 65.583 C 209.339 67.688,208.986 69.866,209.181 70.100 C 209.336 70.288,210.135 70.333,213.273 70.333 L 217.172 70.333 217.498 69.797 C 217.677 69.502,217.870 68.921,217.926 68.505 C 217.982 68.090,218.204 67.075,218.419 66.250 C 218.635 65.425,219.007 63.850,219.246 62.750 C 219.485 61.650,219.759 60.450,219.854 60.083 C 219.949 59.717,220.135 58.892,220.267 58.250 C 220.399 57.608,220.618 56.700,220.754 56.232 C 220.891 55.764,221.108 54.826,221.237 54.149 C 221.366 53.471,221.583 52.504,221.719 52.000 C 222.078 50.671,222.634 48.227,222.819 47.167 C 222.907 46.663,223.096 45.922,223.240 45.521 C 223.913 43.635,224.001 43.667,218.111 43.667 L 213.123 43.667 212.436 44.387 C 212.059 44.782,211.377 45.626,210.921 46.262 C 210.465 46.897,209.752 47.844,209.338 48.367 C 208.923 48.890,208.377 49.603,208.124 49.951 C 207.871 50.299,207.548 50.733,207.404 50.917 C 207.261 51.100,206.605 51.966,205.947 52.840 C 204.196 55.167,203.720 55.712,203.506 55.641 C 203.290 55.569,202.568 53.885,202.414 53.096 C 202.316 52.597,202.053 51.716,201.339 49.500 C 201.147 48.904,200.885 48.004,200.756 47.500 C 199.693 43.330,200.207 43.667,194.906 43.667 L 190.828 43.667 190.501 44.205 M257.865 44.050 C 257.514 44.423,257.349 45.037,256.506 49.083 C 256.334 49.908,256.079 50.996,255.940 51.500 C 255.514 53.036,255.138 54.684,254.908 56.033 C 254.787 56.738,254.604 57.473,254.501 57.665 C 254.398 57.858,254.213 58.555,254.091 59.216 C 253.853 60.501,253.485 62.133,253.069 63.750 C 252.927 64.300,252.707 65.289,252.579 65.947 C 252.452 66.606,252.227 67.513,252.080 67.963 C 251.932 68.414,251.835 69.112,251.864 69.516 L 251.917 70.250 259.167 70.297 C 266.686 70.345,269.595 70.125,270.750 69.421 C 270.933 69.309,271.367 69.124,271.715 69.010 C 274.407 68.128,277.413 65.687,279.426 62.750 C 279.820 62.176,280.833 60.098,280.833 59.865 C 280.833 59.779,281.001 59.343,281.206 58.896 C 281.551 58.144,281.579 57.842,281.581 54.833 L 281.583 51.583 280.681 49.783 C 279.326 47.078,277.542 45.552,274.333 44.352 C 272.851 43.797,270.956 43.667,264.408 43.667 L 258.225 43.667 257.865 44.050 M293.937 44.403 C 293.605 44.808,293.333 45.185,293.333 45.242 C 293.333 45.298,292.985 45.885,292.559 46.547 C 291.157 48.723,290.022 50.537,289.417 51.566 C 288.727 52.738,287.448 54.793,286.657 56.000 C 286.207 56.688,285.687 57.512,285.503 57.833 C 285.319 58.154,284.999 58.689,284.793 59.023 C 284.586 59.356,284.125 60.106,283.769 60.690 C 283.155 61.695,282.965 62.002,281.973 63.583 C 281.743 63.950,281.205 64.780,280.777 65.429 C 280.350 66.077,280.000 66.687,280.000 66.783 C 280.000 66.880,279.890 67.051,279.755 67.162 C 279.321 67.522,278.310 69.498,278.364 69.880 L 278.417 70.250 282.948 70.294 L 287.479 70.339 288.073 69.444 C 288.399 68.952,288.667 68.478,288.667 68.390 C 288.667 68.303,288.914 67.992,289.216 67.699 L 289.766 67.167 294.125 67.167 C 299.414 67.167,299.491 67.190,299.498 68.767 C 299.499 69.051,299.582 69.520,299.683 69.808 L 299.866 70.333 304.094 70.333 C 309.006 70.333,308.807 70.406,308.518 68.706 C 308.428 68.180,308.308 67.262,308.252 66.667 C 308.195 66.071,308.006 64.833,307.832 63.917 C 307.476 62.037,307.036 59.323,306.805 57.583 C 306.466 55.028,306.148 53.027,305.506 49.417 C 305.327 48.408,305.134 47.058,305.076 46.417 C 304.814 43.512,305.141 43.667,299.281 43.667 L 294.540 43.667 293.937 44.403 M175.399 50.888 C 177.211 51.435,177.197 53.768,175.375 55.034 L 174.583 55.583 172.071 55.636 C 168.969 55.702,169.067 55.771,169.399 53.728 C 169.887 50.729,169.958 50.663,172.651 50.679 C 173.805 50.687,175.042 50.780,175.399 50.888 M240.769 51.511 C 243.814 53.253,244.127 57.795,241.419 60.938 C 238.636 64.168,233.133 63.529,232.103 59.854 C 231.622 58.141,231.889 55.426,232.642 54.368 C 232.839 54.091,233.000 53.799,233.000 53.719 C 233.000 53.408,234.789 51.862,235.577 51.492 C 237.327 50.669,239.310 50.676,240.769 51.511 M270.004 51.412 C 273.681 53.248,273.272 58.582,269.250 61.249 C 266.735 62.916,262.080 63.443,262.401 62.023 C 262.456 61.781,262.618 60.949,262.762 60.173 C 262.906 59.398,263.061 58.702,263.108 58.627 C 263.154 58.552,263.334 57.836,263.507 57.037 C 263.681 56.237,263.932 55.133,264.066 54.583 C 264.200 54.033,264.398 53.141,264.506 52.600 C 264.832 50.963,265.146 50.769,267.311 50.872 C 268.814 50.943,269.234 51.027,270.004 51.412 M297.903 54.042 C 297.949 54.340,298.031 55.183,298.086 55.917 C 298.140 56.650,298.268 57.693,298.369 58.235 C 298.633 59.642,298.371 59.833,296.182 59.833 C 294.153 59.833,293.662 59.401,294.458 58.313 C 294.783 57.869,294.907 57.658,295.971 55.750 C 297.151 53.630,297.755 53.096,297.903 54.042 M157.976 76.451 C 157.029 76.596,156.952 76.886,157.150 79.529 C 157.248 80.842,157.409 84.354,157.506 87.333 C 157.732 94.215,157.347 93.500,160.828 93.500 L 163.662 93.500 164.088 92.825 C 164.323 92.454,164.591 91.950,164.684 91.705 C 164.905 91.123,165.854 89.101,166.715 87.375 C 167.656 85.489,167.740 85.669,167.802 89.711 C 167.866 93.864,167.559 93.500,170.989 93.500 L 173.771 93.500 174.195 93.042 C 174.428 92.790,174.953 91.908,175.362 91.083 C 175.770 90.258,176.185 89.433,176.284 89.250 C 176.383 89.067,176.547 88.729,176.648 88.500 C 176.748 88.271,176.902 87.971,176.988 87.833 C 177.075 87.696,177.263 87.340,177.406 87.042 C 177.549 86.744,177.784 86.256,177.927 85.958 C 178.071 85.660,178.254 85.304,178.335 85.167 C 179.154 83.773,182.348 77.116,182.305 76.892 C 182.220 76.451,181.190 76.296,178.927 76.380 C 176.494 76.472,176.764 76.211,174.625 80.533 C 172.473 84.882,172.274 84.835,172.442 80.027 C 172.576 76.152,172.774 76.417,169.742 76.417 C 167.120 76.417,167.161 76.394,166.196 78.393 C 164.485 81.936,164.007 82.951,163.847 83.375 C 163.667 83.855,163.277 83.979,163.059 83.627 C 162.989 83.513,162.842 82.061,162.734 80.398 C 162.508 76.944,162.456 76.705,161.892 76.490 C 161.492 76.339,158.878 76.312,157.976 76.451 M188.167 76.664 C 181.495 78.829,178.988 87.549,183.815 91.799 C 185.606 93.376,186.305 93.548,190.631 93.473 C 193.998 93.415,194.014 93.413,195.333 92.656 C 196.667 91.890,198.798 89.593,199.187 88.500 C 199.269 88.271,199.447 87.885,199.584 87.642 C 200.845 85.400,200.109 80.687,198.194 78.739 C 195.980 76.487,191.542 75.569,188.167 76.664 M204.583 76.444 C 203.793 76.662,203.420 77.409,203.087 79.440 C 202.965 80.186,202.786 80.944,202.689 81.124 C 202.593 81.304,202.432 81.969,202.332 82.601 C 202.232 83.233,202.004 84.227,201.825 84.809 C 201.646 85.392,201.501 86.067,201.502 86.309 C 201.504 86.552,201.355 87.237,201.173 87.833 C 200.990 88.429,200.731 89.442,200.596 90.083 C 200.462 90.725,200.259 91.638,200.145 92.113 C 199.824 93.458,199.903 93.500,202.745 93.500 C 205.666 93.500,205.899 93.298,206.253 90.456 C 206.515 88.345,207.826 88.158,208.627 90.117 C 208.951 90.908,210.401 93.191,210.672 93.336 C 210.840 93.426,212.143 93.500,213.567 93.500 C 216.756 93.500,216.813 93.458,215.825 91.825 C 215.468 91.234,215.100 90.580,215.008 90.373 C 214.915 90.165,214.689 89.790,214.505 89.539 C 213.835 88.624,213.879 88.105,214.674 87.564 C 219.773 84.096,219.830 78.008,214.776 76.729 C 213.740 76.467,205.349 76.232,204.583 76.444 M222.167 76.542 C 221.468 76.791,221.422 76.924,220.302 81.917 C 220.117 82.742,219.831 84.017,219.666 84.750 C 219.345 86.181,219.005 87.625,218.489 89.750 C 217.538 93.669,217.440 93.500,220.652 93.500 C 222.435 93.500,223.170 93.442,223.285 93.292 C 223.437 93.092,224.027 90.901,224.349 89.340 C 224.533 88.454,224.672 88.287,225.172 88.361 C 225.552 88.417,225.621 88.501,226.042 89.417 C 226.169 89.692,226.354 90.067,226.455 90.250 C 226.555 90.433,226.913 91.166,227.251 91.878 C 228.034 93.529,227.962 93.500,231.314 93.500 C 234.731 93.500,234.755 93.486,233.897 91.933 C 233.588 91.374,233.151 90.542,232.926 90.083 C 232.701 89.625,232.138 88.557,231.675 87.711 C 230.549 85.652,230.495 85.923,232.475 83.689 C 233.014 83.081,233.749 82.246,234.109 81.833 C 235.006 80.804,236.001 79.699,236.502 79.175 C 238.970 76.591,238.596 76.211,233.750 76.377 C 231.312 76.460,231.286 76.478,227.667 80.757 C 226.519 82.115,225.995 82.059,226.370 80.619 C 226.932 78.463,227.081 77.009,226.770 76.698 C 226.408 76.337,223.063 76.223,222.167 76.542 M242.013 76.707 C 239.281 77.572,237.693 80.498,238.319 83.515 C 238.613 84.932,240.410 86.536,242.333 87.099 C 244.932 87.859,245.855 88.526,245.093 89.093 C 244.320 89.667,243.066 89.412,242.183 88.500 L 241.376 87.667 240.313 87.770 C 239.149 87.883,236.171 88.596,235.953 88.814 C 235.334 89.433,237.247 92.064,238.938 92.921 L 239.917 93.417 243.833 93.417 L 247.750 93.417 248.562 92.939 C 253.077 90.285,252.617 84.070,247.833 83.087 C 247.512 83.021,247.093 82.868,246.902 82.747 C 246.710 82.626,246.222 82.441,245.818 82.335 C 244.113 81.889,244.353 80.235,246.071 80.593 C 246.353 80.652,246.938 81.044,247.371 81.465 L 248.159 82.230 249.038 81.962 C 249.521 81.814,250.329 81.646,250.833 81.588 C 252.265 81.423,252.651 81.325,252.918 81.058 C 253.874 80.102,251.744 77.380,249.487 76.673 C 247.945 76.190,243.584 76.210,242.013 76.707 M256.583 76.550 C 255.995 76.735,255.900 76.837,255.778 77.421 C 255.702 77.785,255.529 78.533,255.393 79.083 C 255.258 79.633,255.038 80.646,254.905 81.333 C 254.773 82.021,254.554 82.921,254.420 83.333 C 254.286 83.746,254.130 84.421,254.073 84.833 C 254.017 85.246,253.832 86.033,253.663 86.583 C 253.494 87.133,253.305 87.989,253.242 88.484 C 253.180 88.979,253.024 89.634,252.896 89.940 C 252.523 90.833,252.274 92.977,252.510 93.262 C 252.663 93.447,253.214 93.500,254.983 93.500 C 257.471 93.500,258.000 93.340,258.000 92.589 C 258.000 92.373,258.149 91.721,258.331 91.140 C 258.513 90.559,258.711 89.708,258.770 89.250 C 258.982 87.616,259.458 87.333,261.995 87.333 C 264.477 87.333,264.584 87.481,263.936 90.023 C 263.017 93.626,262.941 93.501,266.048 93.497 C 268.878 93.494,268.765 93.551,269.193 91.901 C 269.517 90.653,269.672 89.985,270.466 86.417 C 270.649 85.592,270.914 84.467,271.054 83.917 C 272.966 76.409,272.971 76.453,270.205 76.364 C 267.070 76.263,267.091 76.245,266.227 79.974 C 265.608 82.643,265.889 82.408,263.248 82.471 C 260.380 82.541,260.121 82.360,260.734 80.712 C 261.259 79.296,261.563 76.992,261.264 76.692 C 260.908 76.337,257.587 76.236,256.583 76.550 M278.917 76.726 C 276.847 77.483,273.667 80.117,273.667 81.073 C 273.667 81.142,273.530 81.398,273.362 81.641 C 271.841 83.851,271.899 88.127,273.479 90.333 C 275.452 93.087,276.669 93.560,281.551 93.474 L 284.756 93.417 285.879 92.840 C 291.992 89.704,292.983 80.498,287.540 77.412 C 285.442 76.223,281.210 75.886,278.917 76.726 M295.140 76.577 C 294.635 76.863,294.238 77.816,294.093 79.094 C 294.040 79.558,293.848 80.362,293.665 80.881 C 293.483 81.400,293.333 82.052,293.333 82.329 C 293.333 82.605,293.188 83.264,293.009 83.791 C 292.831 84.318,292.638 85.125,292.579 85.583 C 292.521 86.042,292.336 86.867,292.168 87.417 C 292.000 87.967,291.815 88.754,291.757 89.167 C 291.699 89.579,291.505 90.393,291.326 90.976 C 290.954 92.184,290.909 93.009,291.200 93.300 C 291.486 93.586,296.065 93.579,296.286 93.292 C 296.559 92.935,297.148 91.122,297.264 90.280 C 297.405 89.258,297.624 89.167,299.969 89.165 C 305.380 89.158,308.793 86.423,308.961 81.960 C 309.076 78.920,308.038 77.416,305.343 76.714 C 303.922 76.343,295.745 76.234,295.140 76.577 M192.413 81.361 C 196.558 82.947,193.927 89.820,189.550 88.840 C 186.055 88.058,186.383 82.595,190.000 81.342 C 191.185 80.931,191.293 80.932,192.413 81.361 M212.172 81.447 C 213.154 82.273,212.655 83.607,211.212 84.011 C 208.254 84.839,207.109 83.798,208.496 81.542 L 208.828 81.000 210.235 81.000 C 211.517 81.000,211.688 81.039,212.172 81.447 M283.391 81.398 C 286.595 82.815,285.812 87.792,282.233 88.761 C 277.439 90.058,276.313 83.029,281.042 81.327 C 282.174 80.919,282.318 80.924,283.391 81.398 M302.847 81.464 C 304.336 82.794,302.874 84.667,300.346 84.667 C 298.964 84.667,298.624 84.505,298.748 83.908 C 298.786 83.729,298.862 83.227,298.918 82.792 C 299.148 81.009,301.462 80.227,302.847 81.464 " stroke="none" fill="#f5f5f5" fill-rule="evenodd"/>
  </g>
</svg>
