<svg id="svg" version="1.1" xmlns="http://www.w3.org/2000/svg" xmlns:xlink="http://www.w3.org/1999/xlink" width="400" height="137.2549019607843" viewBox="0, 0, 400,137.2549019607843">
  <g id="svgg">
    <path id="path0" d="M197.583 38.012 C 197.033 38.087,195.421 38.264,194.000 38.407 C 191.381 38.669,189.232 38.935,185.167 39.500 C 183.929 39.672,182.429 39.858,181.833 39.914 C 173.706 40.678,162.560 44.717,157.000 48.912 C 152.803 52.079,148.564 55.503,143.167 60.085 C 140.340 62.485,136.130 65.995,134.673 67.167 C 133.818 67.854,132.661 68.819,132.101 69.312 C 131.541 69.804,130.493 70.666,129.772 71.228 C 127.384 73.089,125.600 74.549,124.235 75.761 C 123.494 76.419,122.294 77.396,121.568 77.932 C 120.843 78.468,119.725 79.359,119.083 79.912 C 116.946 81.753,115.096 83.259,113.815 84.202 C 113.117 84.715,112.067 85.578,111.481 86.119 C 110.896 86.660,109.442 87.883,108.250 88.837 C 107.058 89.791,105.566 90.985,104.935 91.490 C 101.395 94.324,101.750 97.796,105.686 98.852 C 108.950 99.727,124.647 99.672,129.796 98.768 C 131.929 98.393,135.144 96.557,137.253 94.510 C 138.876 92.934,138.615 92.971,147.082 93.102 C 155.358 93.230,155.434 93.221,157.876 91.816 C 160.002 90.592,160.350 90.884,159.738 93.380 C 159.009 96.358,159.758 98.068,162.144 98.875 C 165.214 99.914,178.990 99.488,181.025 98.292 C 182.028 97.702,183.146 96.317,183.666 95.020 C 183.790 94.709,184.075 94.238,184.298 93.973 C 184.605 93.608,184.738 93.188,184.843 92.251 C 185.037 90.526,186.149 87.892,187.075 86.967 C 188.401 85.641,195.310 85.001,196.411 86.102 C 196.992 86.682,196.363 91.111,195.435 92.979 C 194.718 94.421,195.215 97.037,196.438 98.260 C 197.452 99.274,198.382 99.376,206.500 99.366 C 215.220 99.355,215.976 99.246,217.806 97.740 C 218.957 96.793,219.258 96.804,220.387 97.835 C 222.037 99.343,223.656 99.583,231.333 99.455 C 240.279 99.305,241.183 98.743,243.179 92.089 C 243.345 91.536,243.783 90.221,244.151 89.167 C 244.520 88.112,244.824 87.147,244.828 87.021 C 244.867 85.455,246.060 84.467,249.000 83.567 C 250.453 83.123,251.742 82.600,254.083 81.508 C 254.817 81.166,256.317 80.487,257.417 79.998 C 258.517 79.510,259.529 79.017,259.667 78.904 C 259.804 78.790,260.592 78.359,261.417 77.946 C 266.009 75.646,269.434 70.973,265.404 72.505 C 262.910 73.453,251.706 74.039,250.851 73.266 C 250.302 72.769,250.415 72.471,251.720 70.978 C 255.383 66.791,258.448 65.420,264.732 65.159 C 271.041 64.897,275.650 63.396,279.833 60.242 C 280.337 59.862,281.612 58.905,282.667 58.116 C 285.365 56.096,290.727 50.487,292.177 48.167 C 292.492 47.663,293.053 46.875,293.424 46.417 C 293.794 45.958,294.619 44.847,295.257 43.946 C 295.895 43.045,296.702 41.920,297.051 41.446 C 298.683 39.229,298.441 38.463,296.414 39.428 C 290.231 42.372,290.685 42.177,286.667 43.608 C 280.303 45.874,274.656 46.671,264.972 46.668 C 255.882 46.665,254.138 46.405,243.407 43.445 C 231.007 40.026,213.679 39.795,198.750 42.850 C 196.025 43.408,193.332 43.999,192.000 44.332 C 189.319 45.003,187.319 45.366,186.893 45.259 L 186.451 45.148 187.017 44.657 C 187.717 44.050,189.992 42.777,191.284 42.267 C 191.815 42.058,192.662 41.693,193.167 41.457 C 194.382 40.888,196.371 40.148,198.417 39.504 C 202.042 38.363,201.547 37.476,197.583 38.012 M226.159 49.263 C 226.969 49.528,227.177 49.535,228.238 49.331 C 229.781 49.035,267.414 48.904,269.222 49.189 C 271.717 49.582,272.345 51.601,270.936 54.701 C 270.715 55.186,270.342 56.183,270.106 56.917 C 269.870 57.650,269.483 58.737,269.246 59.333 C 267.803 62.964,267.471 63.230,264.048 63.504 C 254.769 64.247,249.655 67.885,246.482 76.000 C 246.105 76.962,245.645 78.125,245.458 78.583 C 245.272 79.042,244.949 79.979,244.742 80.667 C 244.535 81.354,243.935 83.154,243.410 84.667 C 242.884 86.179,242.358 87.754,242.240 88.167 C 242.122 88.579,241.801 89.502,241.526 90.217 C 241.252 90.932,240.941 92.030,240.835 92.657 C 240.564 94.264,239.595 96.135,238.833 96.521 C 237.002 97.450,223.252 97.453,222.000 96.525 C 221.296 96.003,221.523 92.267,222.345 90.859 C 222.496 90.600,223.489 87.867,224.171 85.833 C 224.340 85.329,224.747 84.167,225.075 83.250 C 225.404 82.333,225.778 81.208,225.907 80.750 C 226.035 80.292,226.376 79.317,226.665 78.583 C 227.248 77.100,227.876 74.926,228.149 73.442 C 228.247 72.906,228.668 71.575,229.083 70.484 C 230.403 67.014,230.252 65.307,228.515 64.083 L 227.805 63.583 218.861 63.500 L 209.917 63.417 209.295 63.030 C 207.880 62.151,208.154 60.200,210.605 53.678 C 211.393 51.581,212.982 49.786,214.466 49.316 C 216.013 48.825,224.701 48.786,226.159 49.263 M193.561 49.482 C 195.666 50.519,195.906 52.414,194.420 56.250 C 194.172 56.892,193.893 57.679,193.801 58.000 C 193.709 58.321,193.499 58.921,193.335 59.333 C 193.171 59.746,192.769 60.908,192.442 61.917 C 192.116 62.925,191.433 64.950,190.924 66.416 C 189.936 69.266,189.858 69.742,190.252 70.503 C 190.678 71.328,190.729 71.333,197.810 71.333 L 204.476 71.333 204.811 70.908 C 204.995 70.674,205.306 70.001,205.501 69.412 C 205.741 68.693,206.104 68.069,206.611 67.505 C 207.864 66.110,207.773 66.121,217.263 66.280 L 225.363 66.417 225.681 66.810 C 226.312 67.589,226.142 68.687,224.826 72.333 C 224.346 73.662,223.805 75.200,223.623 75.750 C 223.442 76.300,223.011 77.462,222.666 78.333 C 222.320 79.204,221.954 80.459,221.851 81.122 C 221.749 81.785,221.209 83.623,220.652 85.205 C 218.569 91.128,218.180 92.267,218.007 92.942 C 216.966 97.003,216.747 97.083,206.750 97.083 C 195.125 97.083,195.683 97.670,198.992 88.917 C 199.773 86.852,200.333 85.005,200.333 84.498 C 200.333 83.868,199.717 83.813,193.257 83.866 L 187.083 83.917 186.209 84.401 C 185.201 84.960,184.521 85.897,184.019 87.421 C 183.371 89.385,182.861 91.093,182.751 91.667 C 181.737 96.919,181.168 97.168,170.179 97.166 C 160.799 97.164,160.851 97.196,162.400 92.493 C 162.809 91.251,163.335 89.489,163.568 88.576 C 163.802 87.663,164.249 86.167,164.563 85.250 C 164.876 84.333,165.414 82.758,165.757 81.750 C 166.101 80.742,166.708 79.072,167.108 78.039 C 167.507 77.006,167.833 76.099,167.833 76.025 C 167.833 75.789,168.817 72.816,169.269 71.686 C 169.508 71.090,169.879 69.923,170.093 69.093 C 170.478 67.605,170.730 66.759,171.905 63.021 C 173.047 59.385,172.854 59.307,169.858 62.190 C 168.607 63.394,167.171 64.684,166.667 65.056 C 166.162 65.428,164.737 66.715,163.500 67.917 C 162.262 69.119,160.688 70.542,160.000 71.079 C 159.313 71.616,157.587 73.204,156.167 74.607 C 154.746 76.009,153.152 77.463,152.625 77.838 C 150.844 79.103,151.036 79.167,156.608 79.167 C 162.060 79.167,162.261 79.258,161.331 81.307 C 161.150 81.706,160.894 82.418,160.762 82.891 C 160.010 85.576,158.740 88.548,157.971 89.424 C 156.640 90.940,155.892 91.039,146.236 90.977 L 138.378 90.926 137.662 91.400 C 137.268 91.661,136.315 92.468,135.545 93.194 C 131.450 97.050,130.260 97.265,114.417 97.000 C 105.998 96.859,105.384 96.805,104.807 96.149 C 104.065 95.305,106.354 92.655,109.833 90.327 C 110.429 89.928,111.481 89.073,112.170 88.426 C 112.859 87.779,114.382 86.500,115.555 85.583 C 116.727 84.667,118.114 83.557,118.635 83.117 C 121.028 81.098,124.578 78.148,125.851 77.121 C 128.079 75.323,128.986 74.568,130.554 73.200 C 131.363 72.494,132.533 71.542,133.153 71.083 C 134.234 70.285,136.993 68.050,137.167 67.832 C 137.548 67.354,139.904 65.359,140.650 64.882 C 141.774 64.164,142.990 63.166,144.667 61.584 C 146.273 60.069,147.511 59.058,148.701 58.288 C 149.224 57.950,150.274 57.082,151.034 56.358 C 152.725 54.750,154.049 53.653,155.583 52.589 C 156.225 52.145,157.087 51.482,157.500 51.117 C 159.824 49.062,160.105 49.034,177.917 49.061 L 192.750 49.083 193.561 49.482 M205.758 59.242 C 206.104 59.589,206.167 59.810,206.167 60.682 C 206.167 61.248,206.253 62.178,206.358 62.748 C 206.603 64.082,206.481 64.519,205.621 65.378 C 204.791 66.206,204.375 66.794,203.851 67.880 C 203.639 68.317,203.198 68.880,202.871 69.130 L 202.277 69.583 198.847 69.637 C 192.566 69.735,192.027 69.360,193.385 65.833 C 193.615 65.237,194.015 64.190,194.275 63.506 C 195.128 61.264,196.708 60.358,201.250 59.507 C 201.800 59.404,202.662 59.216,203.167 59.090 C 204.613 58.729,205.284 58.769,205.758 59.242 " stroke="none" fill="#dbdbdb" fill-rule="evenodd"/>
  </g>
</svg>
