<svg id="svg" version="1.1" xmlns="http://www.w3.org/2000/svg" xmlns:xlink="http://www.w3.org/1999/xlink" width="400" height="137.2549019607843" viewBox="0, 0, 400,137.2549019607843">
  <g id="svgg">
    <path id="path0" d="M51.500 43.639 C 49.367 44.672,48.236 45.755,47.615 47.356 C 47.278 48.225,47.267 48.571,47.212 59.637 L 47.156 71.025 47.536 71.791 C 48.481 73.694,50.233 73.889,54.417 72.553 C 54.875 72.407,55.663 72.191,56.167 72.074 C 57.429 71.780,58.847 71.386,60.371 70.906 C 61.079 70.683,61.791 70.500,61.954 70.500 C 62.117 70.500,62.625 70.359,63.083 70.186 C 63.542 70.013,64.254 69.817,64.667 69.750 C 65.079 69.682,65.604 69.532,65.833 69.416 C 66.063 69.300,66.700 69.113,67.250 69.000 C 67.800 68.887,68.438 68.701,68.667 68.587 C 68.896 68.472,69.383 68.327,69.750 68.264 C 70.117 68.202,70.867 68.007,71.417 67.832 C 72.434 67.508,74.054 67.028,76.750 66.252 C 77.575 66.015,78.887 65.632,79.667 65.402 C 80.446 65.171,81.571 64.840,82.167 64.667 C 85.132 63.802,86.281 63.466,87.542 63.095 C 88.298 62.872,89.592 62.493,90.417 62.252 C 91.242 62.012,92.142 61.737,92.417 61.641 C 92.692 61.545,93.447 61.337,94.095 61.178 C 94.743 61.020,95.370 60.831,95.487 60.758 C 95.605 60.685,96.237 60.480,96.892 60.302 C 97.547 60.124,98.629 59.832,99.295 59.652 C 102.800 58.705,102.834 58.626,102.832 51.281 C 102.831 44.921,102.794 44.637,101.830 43.766 L 101.166 43.167 98.759 43.167 C 95.596 43.167,95.834 42.802,95.832 47.662 C 95.831 52.643,95.524 53.399,93.250 54.009 C 92.883 54.108,92.208 54.325,91.750 54.491 C 91.292 54.657,90.579 54.849,90.167 54.916 C 89.754 54.984,89.229 55.134,89.000 55.250 C 88.771 55.365,88.321 55.510,88.000 55.572 C 87.679 55.633,86.779 55.871,86.000 56.100 C 85.221 56.330,84.096 56.658,83.500 56.831 C 82.200 57.207,79.823 57.897,78.333 58.330 C 77.737 58.504,76.612 58.836,75.833 59.068 C 75.054 59.301,74.117 59.563,73.750 59.651 C 73.383 59.739,72.783 59.925,72.417 60.065 C 72.050 60.204,71.603 60.322,71.423 60.326 C 71.244 60.330,70.531 60.516,69.840 60.739 C 69.149 60.962,68.058 61.295,67.417 61.479 C 66.775 61.662,65.650 62.000,64.917 62.228 C 64.183 62.457,63.283 62.697,62.917 62.761 C 62.550 62.825,62.063 62.972,61.833 63.087 C 61.604 63.201,60.967 63.387,60.417 63.500 C 59.867 63.613,59.229 63.799,59.000 63.914 C 57.807 64.514,55.961 64.342,55.133 63.555 C 54.130 62.601,54.167 63.003,54.167 52.997 C 54.167 46.984,54.107 43.700,53.994 43.489 C 53.744 43.022,52.636 43.089,51.500 43.639 M113.208 59.610 C 112.871 59.747,112.908 77.550,113.247 77.831 C 113.581 78.108,116.018 77.997,116.391 77.688 C 116.629 77.491,116.667 77.048,116.667 74.490 C 116.667 72.858,116.740 71.329,116.829 71.094 L 116.992 70.667 123.990 70.667 C 132.298 70.667,131.333 70.187,131.333 74.316 C 131.333 77.986,131.341 78.000,133.256 78.000 C 135.153 78.000,135.000 78.821,135.000 68.645 C 135.000 58.644,135.160 59.500,133.289 59.500 C 131.221 59.500,131.333 59.294,131.333 63.080 C 131.333 67.277,132.099 66.833,124.863 66.833 L 119.133 66.833 118.603 67.375 C 118.311 67.673,117.907 68.131,117.705 68.394 C 116.830 69.533,116.667 68.799,116.667 63.735 C 116.667 60.060,116.649 59.836,116.344 59.673 C 116.022 59.500,113.601 59.452,113.208 59.610 M139.377 60.067 L 138.750 60.641 138.750 68.529 C 138.750 77.132,138.755 77.191,139.544 77.622 C 140.357 78.066,158.959 78.076,159.769 77.632 C 160.849 77.041,160.851 77.024,160.798 68.423 L 160.750 60.673 160.205 60.128 L 159.660 59.583 149.832 59.538 L 140.004 59.492 139.377 60.067 M164.700 59.700 C 164.550 59.850,164.500 62.072,164.500 68.674 C 164.500 78.857,164.337 78.000,166.279 78.000 C 167.993 78.000,167.959 78.073,168.027 74.202 C 168.073 71.569,168.129 70.959,168.333 70.830 C 168.480 70.737,171.364 70.671,175.303 70.669 C 183.284 70.666,182.667 70.825,182.667 68.777 C 182.667 66.660,183.224 66.833,176.416 66.833 L 170.565 66.833 169.991 67.382 C 169.675 67.684,169.286 68.096,169.127 68.299 C 168.316 69.327,168.000 68.631,168.000 65.813 C 168.000 63.066,167.010 63.333,177.174 63.333 L 185.682 63.333 186.091 62.924 C 186.725 62.290,186.712 59.906,186.072 59.663 C 185.407 59.409,164.955 59.445,164.700 59.700 M190.375 59.672 L 190.000 59.823 190.003 68.536 C 190.004 73.329,190.060 77.333,190.128 77.433 C 190.536 78.045,193.074 78.263,193.521 77.725 C 193.702 77.507,193.767 76.195,193.833 71.447 C 193.890 67.397,193.975 65.425,194.095 65.385 C 194.193 65.352,195.638 66.677,197.306 68.329 L 200.339 71.333 202.950 71.333 L 205.562 71.333 208.412 68.500 C 211.176 65.752,211.686 65.376,211.899 65.930 C 211.954 66.075,212.000 68.695,212.000 71.752 L 212.000 77.309 212.439 77.655 C 213.020 78.112,215.159 78.160,215.521 77.724 C 215.879 77.293,215.859 59.890,215.500 59.663 C 215.362 59.576,214.542 59.504,213.677 59.503 L 212.103 59.500 207.667 63.917 C 204.957 66.614,203.106 68.333,202.911 68.333 C 202.715 68.333,200.871 66.617,198.164 63.917 L 193.736 59.500 192.243 59.511 C 191.422 59.516,190.581 59.589,190.375 59.672 M219.700 59.700 C 219.318 60.082,219.423 77.378,219.809 77.728 C 220.254 78.131,241.081 78.072,241.337 77.667 C 241.570 77.298,241.540 74.774,241.300 74.533 C 241.150 74.383,238.966 74.333,232.508 74.331 C 227.783 74.329,223.828 74.272,223.719 74.202 C 223.214 73.882,222.980 72.012,223.329 71.094 L 223.492 70.667 230.292 70.667 C 238.453 70.667,237.895 70.809,237.808 68.755 C 237.720 66.670,238.263 66.833,231.417 66.833 L 225.542 66.833 224.855 67.580 C 224.476 67.990,224.167 68.403,224.167 68.496 C 224.167 68.797,223.518 68.678,223.339 68.344 C 223.017 67.743,223.120 63.927,223.467 63.614 C 223.734 63.371,224.703 63.337,232.473 63.296 C 239.996 63.256,241.200 63.216,241.337 63.000 C 241.571 62.629,241.541 59.941,241.300 59.700 C 241.011 59.411,219.989 59.411,219.700 59.700 M245.329 59.838 C 244.997 60.169,244.992 60.329,245.037 68.769 L 245.083 77.363 245.477 77.681 C 246.090 78.178,248.215 78.143,248.574 77.630 C 248.969 77.066,248.966 60.157,248.571 59.762 C 248.148 59.338,245.773 59.394,245.329 59.838 M253.167 60.103 L 252.500 60.705 252.500 65.022 L 252.500 69.338 253.070 69.961 L 253.641 70.583 262.029 70.667 L 270.417 70.750 270.643 71.465 C 270.899 72.276,270.789 73.399,270.402 73.917 C 270.159 74.241,269.931 74.251,261.546 74.296 C 251.676 74.349,252.500 74.187,252.500 76.078 C 252.500 78.192,251.477 78.000,262.763 77.999 C 275.708 77.998,274.399 78.588,274.467 72.726 C 274.524 67.752,274.539 67.854,273.702 67.275 L 273.065 66.833 265.800 66.833 L 258.535 66.833 258.059 67.377 C 257.797 67.675,257.423 68.141,257.226 68.412 C 256.545 69.351,256.333 68.820,256.333 66.172 C 256.333 62.993,255.239 63.333,265.460 63.333 C 275.409 63.333,274.500 63.532,274.500 61.355 C 274.500 59.308,275.591 59.500,263.967 59.500 L 253.834 59.500 253.167 60.103 M278.429 59.762 C 277.930 60.260,278.148 62.839,278.719 63.202 C 278.828 63.272,280.693 63.329,282.863 63.331 C 286.226 63.333,286.848 63.372,287.071 63.595 C 287.301 63.825,287.333 64.691,287.333 70.583 L 287.333 77.309 287.772 77.655 C 288.302 78.071,290.491 78.162,290.808 77.781 C 290.931 77.633,291.004 75.322,291.036 70.628 C 291.062 66.814,291.146 63.632,291.222 63.555 C 291.298 63.479,293.273 63.379,295.611 63.333 C 300.633 63.235,300.333 63.369,300.333 61.224 C 300.333 60.031,300.290 59.822,300.011 59.673 C 299.420 59.356,278.749 59.442,278.429 59.762 M304.208 59.672 L 303.833 59.823 303.836 68.536 C 303.839 77.512,303.837 77.487,304.447 77.808 C 304.965 78.081,324.868 78.081,325.386 77.808 C 325.940 77.517,325.995 77.352,325.997 75.964 C 326.001 74.203,326.738 74.333,316.761 74.333 C 306.653 74.333,307.500 74.513,307.500 72.367 C 307.500 70.523,306.893 70.667,314.689 70.667 C 322.987 70.667,322.383 70.819,322.308 68.742 C 322.233 66.681,322.763 66.839,315.887 66.836 L 310.024 66.833 309.409 67.458 C 309.071 67.802,308.635 68.252,308.442 68.458 C 307.646 69.307,307.500 68.949,307.500 66.142 C 307.500 62.975,306.354 63.333,316.483 63.333 C 326.809 63.333,326.000 63.512,326.000 61.234 C 326.000 59.875,325.985 59.819,325.572 59.663 C 325.025 59.454,304.728 59.463,304.208 59.672 M329.792 59.680 C 329.389 59.915,329.336 77.046,329.737 77.593 C 329.931 77.859,330.221 77.927,331.370 77.974 C 333.309 78.054,333.231 78.207,333.333 74.100 L 333.417 70.750 336.250 70.707 L 339.083 70.663 342.500 74.091 C 346.412 78.015,346.388 78.000,348.648 78.000 C 351.652 78.000,351.632 77.898,347.898 74.144 C 346.259 72.495,344.996 71.095,345.037 70.971 C 345.092 70.805,345.752 70.728,347.680 70.664 C 351.636 70.531,351.562 70.624,351.640 65.688 C 351.709 61.282,351.645 60.778,350.918 60.052 L 350.367 59.500 340.225 59.505 C 333.647 59.508,329.981 59.570,329.792 59.680 M156.593 63.570 C 157.038 63.894,157.189 72.817,156.765 73.638 C 156.416 74.313,156.218 74.333,150.010 74.333 L 144.562 74.333 144.135 74.792 C 143.900 75.044,143.621 75.419,143.515 75.625 C 143.287 76.068,142.961 76.104,142.585 75.728 C 142.140 75.283,142.277 64.189,142.734 63.684 C 143.145 63.230,155.983 63.124,156.593 63.570 M347.610 63.762 C 347.997 64.148,348.031 64.287,347.966 65.197 C 347.843 66.885,348.077 66.825,341.533 66.830 C 335.992 66.833,335.000 66.930,335.000 67.464 C 335.000 67.800,333.858 68.879,333.605 68.782 C 333.258 68.648,333.193 63.874,333.533 63.533 C 333.682 63.384,335.450 63.333,340.458 63.333 L 347.182 63.333 347.610 63.762 M98.000 64.116 C 97.404 64.251,96.429 64.501,95.833 64.673 C 94.142 65.158,92.831 65.508,91.833 65.740 C 91.329 65.858,90.542 66.078,90.083 66.229 C 89.275 66.495,88.320 66.756,86.250 67.275 C 85.700 67.413,85.025 67.622,84.749 67.741 C 84.474 67.859,83.986 68.007,83.666 68.070 C 83.346 68.132,82.446 68.374,81.667 68.606 C 80.887 68.838,79.762 69.167,79.167 69.338 C 76.837 70.007,75.037 70.534,74.000 70.852 C 73.404 71.034,72.504 71.285,72.000 71.408 C 71.496 71.532,70.858 71.711,70.583 71.808 C 69.535 72.175,67.714 72.718,66.833 72.925 C 66.329 73.044,65.579 73.256,65.167 73.395 C 64.754 73.534,63.742 73.844,62.917 74.083 C 60.293 74.843,59.272 75.147,58.417 75.422 C 57.958 75.569,57.053 75.822,56.405 75.983 C 55.757 76.145,55.130 76.336,55.013 76.409 C 54.895 76.482,54.263 76.687,53.608 76.864 C 52.953 77.042,51.886 77.331,51.237 77.507 C 49.226 78.051,48.233 78.573,47.714 79.358 L 47.250 80.058 47.202 85.858 C 47.149 92.323,47.172 92.477,48.330 93.583 L 48.854 94.083 51.237 94.137 C 54.440 94.209,54.167 94.641,54.167 89.511 L 54.167 85.379 54.673 84.742 C 55.216 84.059,56.435 83.285,57.250 83.107 C 57.525 83.047,58.237 82.852,58.833 82.673 C 59.429 82.494,60.592 82.153,61.417 81.915 C 62.242 81.676,63.367 81.342,63.917 81.171 C 64.467 81.000,65.329 80.770,65.833 80.658 C 66.337 80.547,66.953 80.353,67.200 80.228 C 67.448 80.102,67.785 80.000,67.950 80.001 C 68.115 80.001,68.887 79.811,69.667 79.578 C 70.446 79.345,71.721 78.967,72.500 78.739 C 73.279 78.511,74.367 78.180,74.917 78.003 C 75.467 77.827,76.217 77.630,76.583 77.566 C 76.950 77.502,77.575 77.311,77.972 77.142 C 78.369 76.972,78.857 76.830,79.055 76.826 C 79.254 76.822,79.717 76.704,80.083 76.563 C 80.450 76.423,81.162 76.211,81.667 76.092 C 82.545 75.885,84.361 75.344,85.417 74.975 C 85.692 74.878,86.442 74.669,87.083 74.510 C 87.725 74.350,88.662 74.089,89.167 73.929 C 89.671 73.769,90.533 73.494,91.083 73.319 C 93.012 72.704,95.041 73.142,95.609 74.297 C 95.687 74.454,95.772 78.877,95.798 84.125 L 95.846 93.667 96.256 93.936 C 97.555 94.787,101.157 92.602,102.333 90.250 L 102.750 89.417 102.750 77.490 L 102.750 65.564 102.272 64.990 C 101.303 63.829,100.234 63.610,98.000 64.116 " stroke="none" fill="#e4e4e4" fill-rule="evenodd"/>
  </g>
</svg>
