<svg id="svg" version="1.1" xmlns="http://www.w3.org/2000/svg" xmlns:xlink="http://www.w3.org/1999/xlink" width="400" height="137.2549019607843" viewBox="0, 0, 400,137.2549019607843">
  <g id="svgg">
    <path id="path0" d="M80.333 41.660 C 78.740 41.794,77.959 42.095,76.303 43.214 C 74.741 44.270,74.150 44.339,72.632 43.639 C 71.678 43.200,71.216 43.085,70.421 43.089 C 69.375 43.095,69.475 43.051,66.583 44.770 C 66.217 44.988,65.290 45.523,64.523 45.958 C 61.964 47.413,61.559 47.966,61.249 50.435 C 61.088 51.714,60.719 52.167,59.023 53.162 C 54.828 55.625,52.334 60.510,52.334 66.267 C 52.333 69.479,53.349 70.325,55.760 69.120 C 57.817 68.091,59.690 67.051,60.917 66.255 C 61.650 65.780,62.993 64.984,63.902 64.487 C 66.733 62.938,67.157 62.274,67.163 59.383 C 67.170 55.829,67.513 55.246,70.693 53.383 C 73.887 51.513,74.153 51.501,77.321 53.091 C 80.826 54.851,80.911 54.835,86.667 51.359 C 87.446 50.889,88.271 50.414,88.500 50.303 C 94.278 47.519,94.624 45.626,89.784 43.274 C 88.757 42.775,87.467 42.280,86.917 42.173 C 86.367 42.066,85.692 41.914,85.417 41.835 C 84.664 41.619,81.933 41.525,80.333 41.660 M80.793 44.011 C 82.254 44.520,81.698 46.667,80.104 46.667 C 78.605 46.667,78.267 44.387,79.705 43.975 C 80.253 43.818,80.238 43.817,80.793 44.011 M94.167 49.454 C 93.780 49.600,91.372 50.985,90.167 51.755 C 88.748 52.662,85.157 54.690,83.442 55.553 C 82.189 56.183,81.960 56.241,80.500 56.299 L 78.917 56.362 76.763 55.264 C 74.284 54.000,74.410 54.022,72.995 54.632 C 69.497 56.139,69.223 56.528,69.026 60.253 C 68.843 63.694,67.867 64.803,62.300 67.899 C 60.737 68.767,60.637 69.254,61.866 70.000 C 62.243 70.229,62.797 70.579,63.095 70.777 C 63.593 71.107,64.426 71.572,67.282 73.110 C 69.084 74.081,69.270 73.937,68.990 71.788 C 68.520 68.188,69.281 65.544,71.624 62.634 C 73.815 59.913,75.533 59.078,79.778 58.668 C 81.897 58.464,85.237 57.745,87.304 57.048 C 88.008 56.810,89.071 56.486,89.667 56.327 C 90.263 56.167,91.425 55.838,92.250 55.594 C 93.075 55.351,94.200 55.043,94.750 54.911 C 99.610 53.739,99.790 53.503,97.499 51.309 C 95.685 49.572,94.946 49.160,94.167 49.454 M81.375 50.019 C 81.535 50.212,81.667 50.629,81.667 50.946 C 81.667 52.967,79.405 53.160,78.840 51.188 C 78.472 49.908,80.505 48.971,81.375 50.019 M98.167 55.530 C 97.204 55.798,95.892 56.154,95.250 56.322 C 91.787 57.227,90.463 57.890,91.192 58.352 C 91.316 58.431,93.793 58.496,96.696 58.497 C 103.044 58.501,103.025 58.507,102.057 56.729 C 101.027 54.836,100.856 54.784,98.167 55.530 M59.746 56.195 C 60.245 56.422,60.414 56.935,60.275 57.801 C 60.030 59.334,58.251 59.453,57.688 57.974 C 57.230 56.768,58.532 55.642,59.746 56.195 M64.846 59.654 C 65.397 60.204,65.440 60.477,65.086 61.161 C 64.547 62.205,63.026 62.173,62.676 61.110 C 62.154 59.529,63.690 58.498,64.846 59.654 M180.833 62.615 C 180.246 62.836,179.742 63.540,178.765 65.500 C 178.194 66.646,177.264 68.498,176.697 69.615 C 176.130 70.732,175.667 71.686,175.667 71.735 C 175.667 71.783,175.361 72.444,174.988 73.203 C 173.479 76.273,173.302 77.094,174.084 77.394 C 174.236 77.452,178.592 77.500,183.764 77.500 L 193.167 77.500 194.580 77.010 C 198.159 75.771,199.917 73.670,199.917 70.635 L 199.917 68.687 200.638 68.069 C 202.648 66.348,203.073 64.449,201.738 63.155 L 201.148 62.583 191.116 62.552 C 185.598 62.535,180.971 62.563,180.833 62.615 M206.890 62.820 C 206.600 62.998,206.308 63.318,206.242 63.530 C 206.175 63.743,205.110 65.979,203.874 68.500 C 198.990 78.465,198.964 77.500,204.119 77.500 C 208.644 77.500,207.527 78.720,212.591 68.249 C 214.208 64.907,213.957 65.083,217.084 65.083 C 219.897 65.083,220.333 65.227,220.333 66.155 C 220.333 67.413,219.092 68.047,216.458 68.136 C 213.493 68.236,212.967 69.281,214.466 72.098 C 214.560 72.273,215.084 73.354,215.630 74.500 C 217.103 77.585,216.763 77.406,221.279 77.467 C 226.616 77.539,226.419 77.850,224.118 73.000 C 223.566 71.836,223.433 71.392,223.481 70.879 C 223.491 70.767,224.269 70.295,225.208 69.830 C 229.324 67.795,230.731 64.528,228.205 62.872 C 227.479 62.396,207.658 62.347,206.890 62.820 M247.081 63.091 C 245.905 63.714,242.648 65.828,242.083 66.334 C 241.900 66.498,240.550 67.387,239.083 68.310 C 237.617 69.233,235.854 70.395,235.167 70.892 C 234.479 71.390,233.167 72.271,232.250 72.850 C 229.865 74.356,227.286 76.293,227.035 76.766 C 226.673 77.449,227.170 77.500,234.238 77.500 C 241.568 77.500,241.190 77.560,241.990 76.266 C 242.721 75.084,242.558 75.032,237.817 74.941 C 232.304 74.835,232.296 74.815,236.667 71.937 C 237.446 71.424,238.719 70.563,239.496 70.022 C 241.937 68.324,242.309 68.339,243.123 70.167 C 243.348 70.671,243.898 71.844,244.345 72.773 C 244.792 73.703,245.308 74.865,245.493 75.356 C 246.266 77.418,246.511 77.500,251.896 77.500 C 256.623 77.500,256.875 77.456,256.875 76.628 C 256.875 76.089,252.119 66.484,250.443 63.639 C 249.680 62.343,248.769 62.195,247.081 63.091 M265.911 62.659 C 265.409 62.862,265.309 63.020,263.917 65.833 C 263.213 67.254,261.963 69.767,261.137 71.417 C 258.789 76.110,258.499 76.976,259.156 77.327 C 259.837 77.692,266.229 77.546,266.727 77.155 C 267.087 76.872,269.833 71.637,269.833 71.234 C 269.833 71.177,270.700 69.407,271.760 67.300 C 273.745 63.351,273.897 62.850,273.167 62.648 C 272.574 62.485,266.319 62.493,265.911 62.659 M285.333 62.599 C 285.196 62.651,284.221 63.068,283.167 63.525 C 282.112 63.982,280.912 64.496,280.500 64.667 C 280.087 64.837,278.550 65.500,277.083 66.140 C 275.617 66.780,274.153 67.411,273.831 67.543 C 271.514 68.494,271.596 70.069,274.165 73.914 C 274.778 74.832,275.473 75.890,275.708 76.266 C 276.454 77.452,276.782 77.525,281.161 77.467 C 285.040 77.416,285.204 77.388,285.398 76.743 C 285.515 76.354,283.941 73.887,281.481 70.608 C 279.584 68.076,279.580 67.992,281.337 67.201 C 281.931 66.934,282.904 66.489,283.500 66.213 C 284.096 65.937,285.108 65.505,285.750 65.252 C 289.084 63.940,290.359 63.201,289.918 62.835 C 289.661 62.621,285.794 62.422,285.333 62.599 M297.138 62.679 C 289.616 63.783,283.707 74.834,289.443 77.070 L 290.583 77.514 298.774 77.465 C 307.880 77.411,307.322 77.483,307.942 76.284 C 308.595 75.021,308.243 74.930,302.667 74.921 C 296.983 74.911,296.625 74.828,296.530 73.508 C 296.376 71.341,299.050 66.347,300.803 65.530 L 301.750 65.088 307.279 65.002 L 312.807 64.917 313.234 64.515 C 313.810 63.974,313.990 63.027,313.575 62.723 C 313.224 62.466,298.851 62.428,297.138 62.679 M316.742 62.651 C 316.076 62.937,313.833 66.869,313.833 67.751 C 313.833 68.062,314.357 68.333,314.956 68.333 C 316.590 68.333,320.868 63.634,320.013 62.779 C 319.776 62.543,317.227 62.443,316.742 62.651 M325.447 62.683 C 323.079 63.240,320.500 66.155,320.500 68.274 C 320.500 69.099,322.297 70.521,326.375 72.925 C 329.594 74.822,329.418 74.917,322.667 74.917 C 317.041 74.917,317.013 74.920,316.503 75.745 C 315.426 77.487,315.485 77.500,324.958 77.502 L 333.083 77.504 334.525 77.064 C 336.819 76.364,338.516 74.764,339.021 72.823 C 339.457 71.150,338.816 70.405,335.167 68.341 C 329.545 65.160,329.568 65.113,336.800 64.992 C 339.797 64.942,342.266 64.886,342.285 64.867 C 343.041 64.127,343.300 62.876,342.739 62.663 C 342.197 62.456,326.330 62.475,325.447 62.683 M120.917 63.004 C 119.593 63.242,118.927 63.528,117.716 64.381 C 115.209 66.147,113.906 67.048,111.142 68.929 C 109.551 70.011,107.626 71.369,106.864 71.948 C 104.944 73.405,104.420 73.324,103.586 71.440 C 103.377 70.966,102.816 69.755,102.340 68.748 C 101.864 67.741,101.176 66.276,100.812 65.494 C 99.905 63.541,100.059 63.604,95.917 63.469 C 93.992 63.406,90.429 63.286,88.000 63.202 C 82.169 62.999,82.109 63.058,84.171 66.925 C 84.724 67.962,85.315 69.209,85.485 69.697 C 85.655 70.184,86.186 71.483,86.664 72.583 C 87.143 73.683,87.609 74.846,87.700 75.167 C 87.790 75.487,88.169 76.444,88.540 77.293 L 89.216 78.836 87.792 81.876 C 85.206 87.398,84.947 88.136,85.382 88.731 C 85.688 89.149,96.241 89.306,97.566 88.913 C 98.021 88.777,98.601 88.667,98.855 88.667 C 99.378 88.667,99.977 87.997,100.430 86.908 C 100.997 85.544,103.828 79.902,104.116 79.563 C 104.415 79.210,107.691 76.725,112.016 73.570 C 113.262 72.661,115.186 71.242,116.292 70.417 C 117.398 69.592,118.891 68.546,119.610 68.092 C 120.328 67.639,121.430 66.856,122.058 66.352 C 122.686 65.848,123.661 65.127,124.225 64.750 C 125.321 64.018,125.685 63.293,125.051 63.107 C 124.437 62.927,121.723 62.859,120.917 63.004 M134.083 63.021 C 133.692 63.123,132.716 63.153,131.719 63.093 L 130.022 62.991 129.436 63.506 C 128.930 63.950,125.500 70.385,125.500 70.889 C 125.500 70.958,125.038 71.930,124.474 73.049 C 121.277 79.392,118.851 84.470,118.089 86.417 C 117.115 88.901,116.650 88.726,124.100 88.687 C 127.483 88.669,130.494 88.611,130.792 88.558 C 131.596 88.416,132.106 87.658,134.274 83.385 C 137.997 76.046,136.746 76.928,143.512 76.867 C 150.812 76.800,150.377 76.338,147.839 81.458 C 146.834 83.487,145.961 85.357,145.899 85.615 C 145.837 85.872,145.673 86.308,145.534 86.583 C 144.463 88.699,144.442 88.693,152.024 88.633 C 159.619 88.572,158.686 89.026,161.209 84.167 C 161.899 82.837,162.620 81.450,162.811 81.083 C 163.269 80.203,165.017 76.497,165.930 74.468 C 166.330 73.579,167.285 71.592,168.053 70.051 C 171.870 62.390,172.381 63.173,163.564 63.169 C 156.069 63.166,156.799 62.943,155.585 65.607 C 153.497 70.188,152.042 72.745,151.436 72.897 C 150.760 73.067,140.963 72.992,140.632 72.815 C 139.808 72.374,139.891 72.030,141.765 68.120 C 144.353 62.721,144.489 63.090,139.917 63.081 C 138.083 63.077,136.171 63.023,135.667 62.961 C 135.158 62.898,134.454 62.925,134.083 63.021 M193.207 65.175 C 193.887 65.364,194.122 65.823,193.930 66.588 C 193.655 67.685,192.330 68.167,189.584 68.167 C 187.538 68.167,187.022 68.417,186.743 69.544 C 186.558 70.295,186.837 70.441,188.709 70.569 C 191.208 70.740,191.782 71.416,190.791 73.023 C 189.924 74.428,188.949 74.825,186.083 74.939 C 182.605 75.077,182.609 75.094,184.934 69.900 C 186.755 65.835,186.999 65.397,187.583 65.158 C 188.070 64.958,192.476 64.972,193.207 65.175 M300.285 68.503 C 299.691 68.969,299.376 69.948,299.711 70.283 C 299.973 70.545,309.324 70.684,310.100 70.438 C 310.418 70.337,311.167 69.115,311.167 68.696 C 311.167 68.033,301.109 67.854,300.285 68.503 M57.296 70.693 C 55.773 71.520,55.000 72.261,55.000 72.896 C 55.000 75.714,58.184 83.962,59.555 84.696 C 59.971 84.919,60.982 84.781,62.721 84.266 C 63.470 84.044,64.721 83.696,65.500 83.493 C 66.279 83.290,67.404 82.988,68.000 82.822 C 68.596 82.656,70.096 82.248,71.333 81.916 C 75.399 80.824,75.528 80.700,73.917 79.422 C 73.458 79.059,73.046 78.719,73.000 78.668 C 72.015 77.564,68.874 75.561,64.500 73.245 C 63.171 72.542,61.596 71.647,61.000 71.257 C 59.118 70.025,58.657 69.955,57.296 70.693 M80.500 81.349 C 77.819 81.696,74.903 82.320,73.000 82.956 C 71.870 83.333,70.771 83.638,67.750 84.414 C 64.619 85.217,61.727 86.143,61.504 86.412 C 60.645 87.447,66.000 91.700,70.417 93.491 C 75.547 95.571,76.317 95.516,77.663 92.975 C 77.971 92.393,78.764 91.011,79.425 89.903 C 80.087 88.796,81.386 86.527,82.314 84.860 C 84.689 80.593,84.792 80.793,80.500 81.349 M171.854 81.861 C 169.816 82.870,168.370 88.233,169.879 89.181 C 171.859 90.425,174.079 88.719,175.238 85.063 C 176.201 82.025,174.594 80.505,171.854 81.861 M180.672 81.685 C 179.334 82.219,178.744 83.144,177.941 85.966 C 177.300 88.217,177.411 88.771,178.600 89.268 C 180.815 90.193,183.611 88.876,184.556 86.462 C 185.638 83.701,185.635 82.176,184.548 81.681 C 184.058 81.458,181.234 81.461,180.672 81.685 M190.250 81.737 C 188.265 82.627,186.557 87.891,187.917 88.928 C 189.178 89.890,193.256 89.881,194.910 88.912 C 197.269 87.530,198.826 82.555,197.176 81.672 C 196.679 81.405,190.867 81.460,190.250 81.737 M202.392 81.918 C 201.548 82.423,201.121 83.121,200.476 85.044 C 199.117 89.100,199.573 89.556,205.000 89.567 L 208.417 89.574 209.518 89.057 C 210.941 88.388,211.310 87.873,212.061 85.500 C 212.821 83.097,212.824 82.791,212.100 82.067 L 211.533 81.500 207.308 81.502 C 203.105 81.503,203.080 81.505,202.392 81.918 M218.547 81.617 C 217.726 81.776,216.713 83.243,216.087 85.177 C 215.213 87.881,215.311 88.632,216.619 89.259 C 217.278 89.574,281.875 89.730,317.000 89.500 L 329.750 89.417 330.583 88.903 C 331.695 88.219,332.225 87.418,332.920 85.372 C 333.704 83.061,333.614 82.167,332.548 81.681 C 332.163 81.506,219.450 81.442,218.547 81.617 " stroke="none" fill="#e7e7e7" fill-rule="evenodd"/>
  </g>
</svg>
