<svg id="svg" version="1.1" xmlns="http://www.w3.org/2000/svg" xmlns:xlink="http://www.w3.org/1999/xlink" width="400" height="137.2549019607843" viewBox="0, 0, 400,137.2549019607843">
  <g id="svgg">
    <path id="path0" d="M108.250 46.239 C 107.001 46.723,105.657 47.280,103.833 48.070 C 102.138 48.804,101.324 49.149,99.667 49.836 C 98.979 50.122,98.192 50.460,97.917 50.589 C 97.642 50.718,96.854 51.054,96.167 51.336 C 94.774 51.908,94.295 52.109,91.417 53.333 C 90.317 53.801,89.079 54.326,88.667 54.500 C 88.254 54.674,87.017 55.199,85.917 55.667 C 83.469 56.708,82.767 57.004,81.167 57.674 C 80.479 57.961,79.612 58.340,79.239 58.515 C 78.866 58.690,78.506 58.833,78.438 58.833 C 78.370 58.833,78.000 58.974,77.616 59.145 C 76.530 59.630,75.169 60.212,71.917 61.585 C 67.462 63.464,66.979 63.671,66.239 64.017 C 65.866 64.191,65.500 64.333,65.424 64.333 C 65.348 64.333,64.978 64.480,64.602 64.659 C 64.225 64.837,62.979 65.371,61.833 65.843 C 59.960 66.616,57.996 67.445,55.333 68.585 C 54.829 68.801,53.629 69.315,52.667 69.728 C 51.704 70.140,49.819 70.935,48.478 71.496 C 47.136 72.056,45.921 72.644,45.777 72.803 C 45.436 73.180,44.503 75.289,43.405 78.167 C 43.073 79.037,42.746 79.825,42.679 79.917 C 42.487 80.178,41.833 82.087,41.833 82.386 C 41.833 82.997,41.985 83.000,72.312 83.000 C 104.485 83.000,104.477 83.000,102.083 83.892 C 101.717 84.028,100.892 84.339,100.250 84.581 C 98.421 85.272,97.502 85.617,96.333 86.052 C 95.127 86.502,94.808 86.903,94.081 88.893 C 93.875 89.456,93.575 90.234,93.413 90.621 C 92.871 91.920,91.972 91.833,105.989 91.833 C 119.909 91.833,118.773 91.947,119.338 90.500 C 119.535 89.996,119.832 89.246,119.998 88.833 C 120.164 88.421,120.607 87.318,120.983 86.384 C 121.359 85.449,121.667 84.616,121.667 84.534 C 121.667 84.451,121.892 84.072,122.168 83.692 L 122.669 83.000 128.158 83.000 C 135.018 83.000,133.921 83.735,136.422 77.468 C 137.791 74.041,138.212 74.333,131.915 74.333 C 125.586 74.333,125.738 74.421,127.000 71.500 C 127.297 70.813,127.673 69.912,127.836 69.500 C 127.998 69.087,128.485 67.887,128.918 66.833 C 129.351 65.779,129.913 64.392,130.167 63.750 C 130.599 62.658,131.088 61.459,132.952 56.917 C 133.366 55.908,133.910 54.558,134.162 53.917 C 135.094 51.541,136.815 47.345,137.000 47.000 C 137.151 46.718,137.135 46.560,136.925 46.239 L 136.659 45.833 122.954 45.842 L 109.250 45.851 108.250 46.239 M147.325 46.078 C 147.016 46.246,146.736 46.728,146.292 47.863 C 145.957 48.717,145.448 49.979,145.161 50.667 C 144.874 51.354,144.467 52.367,144.257 52.917 C 144.047 53.467,143.521 54.779,143.088 55.833 C 142.655 56.887,141.980 58.538,141.589 59.500 C 141.197 60.462,140.795 61.438,140.696 61.667 C 140.596 61.896,140.282 62.682,139.997 63.415 L 139.478 64.746 139.841 65.040 C 140.340 65.444,169.528 65.500,170.305 65.098 C 170.749 64.868,171.667 62.960,171.667 62.266 C 171.667 61.714,170.869 61.667,161.569 61.667 L 152.326 61.667 152.144 61.267 C 151.832 60.582,152.920 57.927,153.667 57.549 C 153.986 57.388,156.041 57.338,162.456 57.336 L 170.829 57.333 171.227 56.708 C 171.447 56.365,171.761 55.694,171.926 55.219 C 172.437 53.742,172.975 53.833,163.733 53.833 L 155.674 53.833 155.399 53.413 C 155.144 53.024,155.144 52.941,155.395 52.283 C 155.782 51.269,155.747 51.112,154.979 50.417 C 154.448 49.937,154.343 49.763,154.520 49.650 C 154.647 49.571,159.611 49.504,165.553 49.503 C 172.692 49.501,176.465 49.441,176.678 49.327 C 177.459 48.909,178.276 46.510,177.800 46.033 C 177.484 45.717,147.909 45.760,147.325 46.078 M181.911 45.992 C 181.360 46.215,180.344 48.443,178.145 54.250 C 177.971 54.708,177.758 55.209,177.671 55.363 C 177.584 55.517,177.245 56.342,176.919 57.196 C 176.593 58.051,176.213 59.001,176.075 59.307 C 175.937 59.613,175.570 60.513,175.258 61.307 C 174.947 62.101,174.538 63.087,174.350 63.500 C 173.446 65.480,172.313 65.333,188.520 65.333 C 204.620 65.333,203.223 65.481,203.901 63.709 C 204.736 61.524,205.424 61.667,194.082 61.667 C 188.915 61.667,184.648 61.604,184.600 61.527 C 184.429 61.250,185.026 60.672,185.689 60.473 C 186.467 60.241,186.675 59.971,187.369 58.296 C 188.239 56.194,189.354 53.460,189.833 52.250 C 190.922 49.502,191.794 47.384,191.985 47.028 C 192.154 46.712,192.143 46.573,191.925 46.239 L 191.659 45.833 186.954 45.844 C 184.367 45.850,182.097 45.916,181.911 45.992 M213.988 46.080 C 213.702 46.235,213.401 46.693,213.088 47.448 C 211.909 50.295,211.694 50.826,211.247 52.000 C 210.985 52.688,210.703 53.340,210.621 53.451 C 210.539 53.561,210.371 53.973,210.248 54.367 C 210.125 54.761,209.752 55.721,209.420 56.500 C 209.088 57.279,208.554 58.592,208.234 59.417 C 207.685 60.834,207.082 62.294,206.582 63.417 C 205.649 65.512,204.304 65.346,221.803 65.294 C 239.036 65.243,237.124 65.458,237.901 63.487 C 238.668 61.541,239.333 61.667,228.260 61.667 C 217.285 61.667,217.945 61.870,219.359 58.918 C 220.167 57.231,219.506 57.339,229.030 57.336 C 237.971 57.333,237.531 57.375,238.016 56.471 C 239.485 53.725,239.795 53.833,230.442 53.833 C 221.124 53.833,221.415 53.895,222.068 52.043 C 222.328 51.305,222.109 50.761,221.298 50.132 C 220.534 49.539,221.111 49.505,232.114 49.503 C 243.748 49.500,243.543 49.516,243.935 48.543 C 244.074 48.198,244.295 47.680,244.427 47.391 C 244.719 46.751,244.732 46.299,244.467 46.033 C 244.148 45.715,214.575 45.760,213.988 46.080 M247.482 46.148 L 247.094 46.462 247.446 47.606 C 247.640 48.235,248.001 49.462,248.248 50.333 C 248.495 51.204,248.830 52.367,248.993 52.917 C 249.431 54.401,250.097 56.711,250.601 58.500 C 250.846 59.371,251.227 60.721,251.446 61.500 C 252.655 65.784,251.857 65.333,258.239 65.333 C 264.398 65.333,263.762 65.505,266.376 63.137 C 284.938 46.317,284.407 46.807,284.473 46.436 C 284.571 45.886,284.179 45.838,279.536 45.836 C 273.872 45.833,274.546 45.566,270.751 49.314 C 264.297 55.689,260.780 59.000,260.461 59.000 C 260.156 59.000,260.144 58.916,260.255 57.583 C 260.351 56.426,260.309 55.898,260.023 54.708 C 259.663 53.206,258.931 49.865,258.736 48.833 C 258.491 47.536,257.976 46.165,257.672 46.003 C 257.024 45.656,247.929 45.786,247.482 46.148 M288.628 46.161 C 288.399 46.341,288.119 46.735,288.006 47.036 C 287.783 47.628,287.171 49.131,286.665 50.333 C 286.491 50.746,285.997 51.983,285.568 53.083 C 285.139 54.183,284.652 55.383,284.486 55.750 C 284.319 56.117,284.038 56.792,283.860 57.250 C 282.993 59.480,282.126 61.633,281.913 62.083 C 281.783 62.358,281.487 63.071,281.254 63.667 L 280.832 64.750 281.184 65.042 C 281.593 65.380,310.697 65.503,311.573 65.171 C 312.003 65.007,312.742 63.640,312.948 62.625 C 313.151 61.631,313.517 61.667,303.167 61.667 C 292.020 61.667,292.872 61.864,293.839 59.500 C 294.810 57.128,293.870 57.333,303.732 57.333 L 311.981 57.333 312.390 56.958 C 312.614 56.752,312.874 56.358,312.966 56.083 C 313.059 55.808,313.253 55.307,313.399 54.968 C 313.901 53.798,314.145 53.833,305.509 53.833 C 295.963 53.833,296.060 53.852,296.812 52.172 C 297.190 51.329,297.134 51.144,296.256 50.316 C 295.382 49.492,295.203 49.505,307.030 49.503 C 318.880 49.500,318.193 49.551,318.682 48.637 C 319.240 47.596,319.474 46.537,319.226 46.183 L 318.981 45.833 304.013 45.833 C 289.383 45.833,289.036 45.841,288.628 46.161 M322.976 46.209 C 322.734 46.415,322.420 46.921,322.278 47.333 C 322.136 47.746,321.632 49.021,321.158 50.167 C 320.683 51.313,320.161 52.587,319.998 53.000 C 319.104 55.262,318.147 57.625,318.005 57.917 C 317.916 58.100,317.685 58.663,317.490 59.167 C 316.902 60.694,316.565 61.525,316.004 62.833 C 314.876 65.465,314.637 65.334,320.574 65.331 C 326.548 65.328,325.732 65.868,327.865 60.500 C 328.827 58.079,328.964 57.744,329.261 57.083 C 329.478 56.600,329.564 55.980,329.572 54.833 C 329.581 53.577,329.632 53.250,329.822 53.250 C 330.122 53.250,334.943 58.507,339.369 63.660 C 340.827 65.358,340.736 65.333,345.597 65.333 C 350.108 65.333,350.372 65.285,350.764 64.381 C 351.356 63.016,352.226 60.884,352.824 59.333 C 353.018 58.829,353.247 58.267,353.333 58.083 C 353.419 57.900,353.633 57.375,353.809 56.917 C 353.985 56.458,354.484 55.221,354.917 54.167 C 355.350 53.112,355.848 51.875,356.024 51.417 C 356.200 50.958,356.412 50.433,356.495 50.250 C 358.609 45.602,358.811 45.833,352.638 45.833 L 347.817 45.833 347.420 46.262 C 347.202 46.497,346.911 47.004,346.773 47.387 C 346.405 48.411,345.395 50.888,344.587 52.750 C 344.468 53.025,344.319 53.421,344.255 53.631 C 343.215 57.079,342.935 56.998,339.004 52.098 C 338.777 51.815,338.062 50.946,337.416 50.167 C 336.770 49.387,336.056 48.525,335.829 48.250 C 335.602 47.975,334.997 47.319,334.485 46.792 L 333.553 45.833 328.485 45.834 C 323.475 45.835,323.412 45.839,322.976 46.209 M105.252 60.670 C 105.355 60.836,104.911 62.415,104.668 62.750 C 104.602 62.842,104.429 63.254,104.285 63.667 C 104.141 64.079,103.600 65.429,103.083 66.667 C 102.566 67.904,102.065 69.175,101.971 69.490 C 101.877 69.805,101.658 70.329,101.483 70.654 C 101.309 70.979,101.167 71.307,101.167 71.382 C 101.167 71.457,101.015 71.851,100.829 72.259 C 100.644 72.666,100.422 73.183,100.337 73.408 C 99.973 74.363,100.261 74.344,87.183 74.295 C 80.589 74.270,75.136 74.191,75.064 74.120 C 74.782 73.837,75.858 73.143,78.083 72.172 C 79.367 71.612,80.642 71.047,80.917 70.917 C 81.192 70.787,82.804 70.072,84.500 69.328 C 86.196 68.584,87.808 67.871,88.083 67.744 C 88.358 67.616,90.308 66.754,92.417 65.828 C 97.197 63.727,97.078 63.780,101.000 62.004 C 104.129 60.586,105.026 60.305,105.252 60.670 M153.250 71.268 C 151.967 71.681,150.190 72.247,149.301 72.527 C 147.305 73.156,146.978 73.547,145.932 76.545 C 145.796 76.933,145.412 77.887,145.077 78.667 C 143.999 81.179,144.024 81.540,145.288 81.732 C 146.994 81.991,148.831 82.174,151.319 82.334 C 152.823 82.430,154.563 82.581,155.185 82.669 C 155.807 82.757,157.719 82.943,159.435 83.083 C 161.151 83.222,163.011 83.405,163.569 83.490 C 164.127 83.575,165.318 83.696,166.215 83.759 C 168.556 83.924,168.629 84.009,167.988 85.833 C 167.714 86.612,167.304 87.438,167.075 87.667 L 166.659 88.083 160.580 88.131 C 153.227 88.189,153.348 88.225,154.184 86.204 C 154.651 85.075,154.718 85.089,148.535 85.039 L 143.024 84.996 142.604 85.373 C 142.064 85.858,140.939 88.735,141.076 89.281 C 141.135 89.516,141.393 89.769,141.713 89.905 C 144.064 90.905,144.826 91.236,145.333 91.475 C 145.860 91.723,147.176 91.750,158.833 91.750 L 171.750 91.750 173.167 91.275 C 173.946 91.014,174.996 90.662,175.500 90.493 C 176.004 90.324,176.679 90.136,177.000 90.075 C 177.878 89.908,178.640 89.373,178.998 88.671 C 179.327 88.026,179.467 87.687,180.650 84.667 C 181.027 83.704,181.447 82.718,181.584 82.474 C 182.262 81.270,181.883 80.897,179.833 80.752 C 178.963 80.690,177.012 80.502,175.500 80.333 C 173.987 80.165,171.963 79.980,171.000 79.923 C 170.037 79.866,168.688 79.747,168.000 79.660 C 167.313 79.572,165.075 79.350,163.028 79.167 C 157.276 78.651,157.479 78.725,157.830 77.264 C 158.083 76.209,158.067 76.175,156.984 75.474 C 155.520 74.525,155.705 74.500,164.270 74.500 C 172.666 74.500,172.473 74.474,172.142 75.542 C 171.430 77.842,170.977 77.667,177.632 77.667 L 183.033 77.667 183.505 77.162 C 183.764 76.884,184.105 76.265,184.262 75.787 C 184.419 75.308,184.650 74.769,184.774 74.588 C 184.898 74.407,185.000 74.015,185.000 73.717 C 185.000 72.953,185.039 72.975,180.366 71.066 L 178.981 70.500 167.282 70.509 L 155.583 70.518 153.250 71.268 M188.723 70.629 C 188.471 70.788,187.333 73.374,187.333 73.785 C 187.333 74.481,187.493 74.500,193.335 74.500 C 200.461 74.500,200.025 74.222,198.550 77.820 C 196.852 81.963,196.435 82.989,196.140 83.750 C 195.962 84.208,195.713 84.810,195.585 85.088 C 195.458 85.365,195.118 86.190,194.831 86.921 C 194.544 87.652,194.176 88.550,194.013 88.917 C 192.621 92.054,192.248 91.833,198.963 91.833 C 205.706 91.833,205.048 92.111,206.262 88.750 C 206.394 88.383,206.572 87.933,206.658 87.750 C 207.044 86.924,207.833 85.016,207.833 84.910 C 207.833 84.845,208.021 84.351,208.250 83.813 C 208.479 83.274,208.859 82.365,209.093 81.792 C 209.327 81.219,209.658 80.412,209.827 80.000 C 209.996 79.587,210.329 78.791,210.567 78.229 C 211.263 76.589,211.056 75.876,209.678 75.165 C 208.558 74.587,209.552 74.500,217.256 74.500 C 225.438 74.500,224.784 74.592,225.413 73.352 C 226.085 72.026,226.347 70.935,226.046 70.708 C 225.736 70.475,189.088 70.396,188.723 70.629 M229.975 70.792 C 229.841 70.952,229.632 71.308,229.512 71.583 C 229.177 72.346,224.837 83.113,224.406 84.250 C 224.198 84.800,223.641 86.188,223.170 87.333 C 222.698 88.479,222.156 89.861,221.965 90.403 L 221.617 91.390 221.994 91.695 C 222.380 92.008,256.191 92.161,257.333 91.855 C 257.861 91.714,258.721 89.919,260.420 85.417 C 260.627 84.867,261.151 83.554,261.584 82.500 C 262.017 81.446,262.515 80.208,262.691 79.750 C 262.867 79.292,263.080 78.767,263.164 78.583 C 263.249 78.400,263.621 77.481,263.992 76.542 C 264.363 75.602,264.967 74.087,265.333 73.175 C 266.052 71.388,266.150 70.760,265.736 70.601 C 264.984 70.312,230.220 70.497,229.975 70.792 M270.292 70.708 C 270.142 70.823,269.874 71.292,269.695 71.750 C 269.517 72.208,269.032 73.408,268.619 74.417 C 268.205 75.425,267.531 77.075,267.122 78.083 C 266.712 79.092,266.295 80.104,266.196 80.333 C 266.096 80.563,265.782 81.348,265.498 82.079 C 265.213 82.810,264.876 83.635,264.750 83.912 C 264.623 84.190,264.256 85.092,263.935 85.917 C 263.614 86.742,263.078 88.054,262.745 88.833 C 261.349 92.094,260.904 91.833,267.850 91.833 L 273.492 91.833 273.764 91.419 C 274.016 91.035,275.633 87.224,276.029 86.083 C 276.448 84.873,276.597 84.833,280.744 84.833 L 284.470 84.833 284.880 85.320 C 285.105 85.587,285.947 86.975,286.750 88.403 C 287.554 89.831,288.386 91.188,288.600 91.419 L 288.988 91.838 294.952 91.794 L 300.917 91.750 300.968 91.388 C 300.997 91.183,300.701 90.500,300.281 89.805 C 297.549 85.285,297.048 84.164,297.625 83.856 C 297.962 83.676,300.984 82.662,302.339 82.275 C 303.397 81.973,303.848 81.484,304.329 80.115 C 304.496 79.639,304.869 78.688,305.157 78.000 C 307.333 72.805,307.374 73.148,304.431 71.990 C 303.690 71.699,302.583 71.244,301.972 70.980 L 300.861 70.500 285.712 70.500 C 273.850 70.500,270.505 70.545,270.292 70.708 M313.975 70.792 C 313.679 71.146,313.293 72.010,312.167 74.833 C 312.003 75.246,311.515 76.446,311.082 77.500 C 310.649 78.554,310.087 79.942,309.833 80.583 C 309.386 81.712,308.620 83.591,307.046 87.417 C 305.556 91.038,305.479 91.289,305.767 91.577 C 306.188 91.998,339.838 91.964,340.194 91.542 C 340.535 91.138,341.333 89.278,341.333 88.887 C 341.333 88.160,341.435 88.167,330.456 88.167 C 318.279 88.167,318.695 88.237,319.667 86.333 C 319.850 85.974,320.000 85.582,320.000 85.463 C 320.000 85.118,320.658 83.945,321.031 83.625 C 321.345 83.355,322.058 83.333,330.759 83.333 L 340.148 83.333 340.563 82.958 C 341.072 82.498,341.875 80.502,341.803 79.876 L 341.750 79.417 332.547 79.333 C 321.913 79.237,322.615 79.355,323.164 77.757 C 323.626 76.416,323.600 76.271,322.792 75.651 C 321.722 74.830,321.727 74.836,322.001 74.662 C 322.151 74.568,327.107 74.504,334.469 74.503 C 342.878 74.501,346.793 74.444,347.024 74.320 C 347.758 73.928,348.798 70.958,348.310 70.649 C 347.808 70.331,314.243 70.470,313.975 70.792 M249.333 73.653 C 252.172 74.517,253.432 78.175,252.025 81.471 C 248.583 89.536,237.265 92.820,235.138 86.371 C 233.047 80.034,242.494 71.571,249.333 73.653 M293.812 74.650 C 294.162 74.872,293.971 75.673,293.011 78.000 C 291.751 81.055,292.622 80.750,285.156 80.750 C 277.530 80.750,278.075 80.995,279.273 78.111 C 280.027 76.296,279.944 76.024,278.375 75.188 C 277.926 74.949,277.892 74.719,278.292 74.615 C 278.841 74.471,293.583 74.505,293.812 74.650 " stroke="none" fill="#ededed" fill-rule="evenodd"/>
  </g>
</svg>
