<svg id="svg" version="1.1" xmlns="http://www.w3.org/2000/svg" xmlns:xlink="http://www.w3.org/1999/xlink" width="400" height="137.2549019607843" viewBox="0, 0, 400,137.2549019607843">
  <g id="svgg">
    <path id="path0" d="M48.452 43.169 C 48.217 43.353,47.975 43.747,47.913 44.044 C 47.851 44.340,47.621 45.146,47.401 45.833 C 46.674 48.103,46.372 49.066,45.913 50.583 C 45.419 52.212,45.299 52.597,44.030 56.583 C 43.564 58.050,42.796 60.487,42.325 62.000 C 41.853 63.512,41.332 65.162,41.167 65.667 C 41.001 66.171,40.479 67.821,40.007 69.333 C 39.534 70.846,39.012 72.458,38.846 72.917 C 38.680 73.375,38.355 74.350,38.124 75.083 C 37.893 75.817,37.315 77.654,36.839 79.167 C 35.691 82.819,33.797 88.730,32.913 91.417 C 30.563 98.567,30.448 99.038,30.989 99.327 C 31.391 99.543,45.138 99.566,45.699 99.353 C 46.309 99.121,47.728 95.755,47.742 94.508 C 47.755 93.344,47.565 93.295,43.573 93.423 C 38.611 93.582,38.139 93.452,38.793 92.112 C 38.980 91.729,39.183 91.229,39.246 91.000 C 39.309 90.771,39.498 90.208,39.667 89.750 C 39.957 88.963,40.137 88.395,41.245 84.750 C 41.496 83.925,41.837 82.837,42.003 82.333 C 42.170 81.829,42.696 80.179,43.173 78.667 C 43.649 77.154,44.176 75.542,44.344 75.083 C 44.511 74.625,44.847 73.537,45.088 72.667 C 45.330 71.796,45.709 70.613,45.931 70.038 C 46.152 69.464,46.333 68.878,46.333 68.736 C 46.333 68.594,46.473 68.127,46.643 67.698 C 46.813 67.268,47.198 66.129,47.498 65.167 C 47.797 64.204,48.179 63.042,48.347 62.583 C 48.514 62.125,48.850 61.075,49.094 60.250 C 49.338 59.425,49.854 57.775,50.241 56.583 C 50.628 55.392,51.192 53.629,51.494 52.667 C 52.844 48.364,52.000 48.857,58.118 48.798 L 63.196 48.750 63.510 48.362 C 63.683 48.149,63.947 47.549,64.096 47.029 C 64.245 46.509,64.509 45.764,64.682 45.374 C 65.120 44.386,65.258 43.395,65.001 43.084 C 64.628 42.636,49.028 42.715,48.452 43.169 M67.073 43.068 C 66.683 43.341,66.211 44.369,65.601 46.270 C 65.056 47.968,65.064 48.281,65.665 48.984 C 66.009 49.386,66.229 49.920,66.421 50.817 C 66.570 51.514,66.803 52.496,66.939 53.000 C 67.075 53.504,67.287 54.329,67.409 54.833 C 67.532 55.337,67.874 56.650,68.169 57.750 C 68.464 58.850,68.840 60.350,69.004 61.083 C 69.168 61.817,69.376 62.604,69.467 62.833 C 69.557 63.063,69.835 64.037,70.083 65.000 C 70.331 65.962,70.715 67.350,70.935 68.083 C 71.155 68.817,71.334 69.532,71.334 69.673 C 71.334 69.814,71.454 70.377,71.601 70.923 C 71.748 71.470,72.005 72.479,72.172 73.167 C 72.339 73.854,72.669 75.092,72.905 75.917 C 73.142 76.742,73.448 77.942,73.585 78.583 C 73.954 80.303,75.115 84.712,75.587 86.189 C 75.722 86.614,75.939 87.477,76.068 88.106 C 76.196 88.735,76.505 90.051,76.753 91.029 L 77.205 92.809 76.666 93.559 C 76.049 94.418,76.050 94.477,76.721 97.063 C 77.377 99.589,77.215 99.500,81.162 99.500 C 85.183 99.500,85.229 99.469,84.565 97.167 C 84.420 96.662,84.164 95.688,83.997 95.000 C 83.830 94.313,83.506 93.037,83.278 92.167 C 83.049 91.296,82.705 89.983,82.512 89.250 C 82.320 88.517,82.057 87.579,81.928 87.167 C 81.800 86.754,81.646 86.117,81.587 85.750 C 81.529 85.383,81.336 84.596,81.159 84.000 C 80.982 83.404,80.570 81.829,80.242 80.500 C 79.914 79.171,79.465 77.408,79.245 76.583 C 78.752 74.742,78.424 73.487,77.984 71.750 C 77.799 71.017,77.528 70.042,77.383 69.583 C 77.124 68.768,76.789 67.433,76.168 64.750 C 75.999 64.017,75.625 62.554,75.338 61.500 C 74.722 59.238,74.260 57.419,73.838 55.583 C 73.297 53.240,72.003 48.430,71.707 47.667 C 71.618 47.438,71.494 46.875,71.431 46.417 C 71.280 45.322,70.690 43.493,70.369 43.125 C 70.039 42.746,67.593 42.703,67.073 43.068 M212.833 52.651 C 210.715 53.004,208.053 54.259,205.767 55.983 C 194.773 64.272,195.266 80.281,206.750 87.917 C 212.902 92.008,221.300 92.188,227.667 88.364 C 241.880 79.829,239.779 58.904,224.129 53.133 L 222.750 52.624 218.167 52.575 C 215.646 52.548,213.246 52.582,212.833 52.651 M350.500 52.652 C 343.363 54.249,340.137 64.446,344.941 70.221 C 345.420 70.797,345.437 71.446,344.988 72.000 C 339.963 78.195,342.367 87.380,349.802 90.397 C 351.715 91.173,356.258 91.190,358.083 90.428 C 365.461 87.348,367.997 78.720,363.348 72.515 C 362.404 71.256,362.376 71.086,362.980 70.274 C 367.484 64.215,365.537 56.304,358.750 53.083 C 357.700 52.585,352.106 52.293,350.500 52.652 M53.780 53.042 C 53.350 53.440,52.733 54.865,52.571 55.833 C 52.518 56.154,52.338 56.829,52.171 57.333 C 52.004 57.837,51.662 58.925,51.412 59.750 C 50.618 62.359,50.145 63.888,49.839 64.833 C 49.675 65.337,49.299 66.537,49.002 67.500 C 48.706 68.462,48.330 69.625,48.166 70.083 C 48.003 70.542,47.668 71.592,47.421 72.417 C 47.175 73.242,46.842 74.329,46.681 74.833 C 46.520 75.337,46.192 76.387,45.952 77.167 C 45.712 77.946,45.136 79.783,44.673 81.250 C 43.010 86.515,42.921 86.250,46.357 86.250 C 49.407 86.250,49.157 86.456,50.239 83.051 C 50.671 81.694,51.160 80.208,51.327 79.750 C 51.493 79.292,51.870 78.129,52.163 77.167 C 52.457 76.204,52.836 75.004,53.006 74.500 C 53.176 73.996,53.366 73.321,53.430 73.001 C 53.493 72.680,53.641 72.193,53.759 71.917 C 53.877 71.642,54.212 70.629,54.502 69.667 C 54.793 68.704,55.167 67.504,55.334 67.000 C 55.616 66.148,56.126 64.490,56.848 62.083 C 57.013 61.533,57.229 60.770,57.327 60.387 C 57.508 59.684,57.986 59.173,58.958 58.645 C 59.498 58.351,60.234 56.967,60.433 55.869 C 60.495 55.528,60.685 54.972,60.856 54.632 C 61.722 52.909,61.285 52.667,57.306 52.667 C 54.301 52.667,54.170 52.681,53.780 53.042 M63.136 52.989 C 62.880 53.190,62.593 53.735,62.368 54.447 C 61.661 56.691,61.528 57.094,61.248 57.833 C 60.908 58.734,60.989 60.258,61.479 62.167 C 61.655 62.854,61.846 63.792,61.904 64.250 C 61.961 64.708,62.154 65.721,62.332 66.500 C 62.510 67.279,62.855 68.817,63.099 69.917 C 63.342 71.017,63.676 72.479,63.841 73.167 C 64.005 73.854,64.190 74.792,64.250 75.250 C 64.311 75.708,64.498 76.683,64.665 77.417 C 65.243 79.942,65.832 82.588,66.260 84.583 C 66.496 85.683,66.871 87.377,67.094 88.347 C 67.317 89.317,67.500 90.223,67.500 90.360 C 67.500 90.498,67.659 91.118,67.854 91.737 C 68.410 93.511,68.781 93.412,61.707 93.379 C 54.123 93.343,54.666 93.204,53.761 95.417 C 53.468 96.132,53.028 97.743,52.885 98.622 C 52.742 99.501,52.734 99.500,64.178 99.500 C 76.917 99.500,75.668 99.864,74.910 96.369 C 74.677 95.295,74.340 93.779,74.162 93.000 C 73.984 92.221,73.764 91.133,73.673 90.583 C 73.518 89.641,73.290 88.544,72.255 83.750 C 72.017 82.650,71.709 81.150,71.570 80.417 C 71.431 79.683,71.174 78.521,70.999 77.833 C 70.824 77.146,70.636 76.321,70.582 76.000 C 70.488 75.444,70.286 74.529,69.423 70.750 C 68.526 66.820,67.547 62.296,67.404 61.417 C 67.344 61.050,67.162 60.225,66.999 59.583 C 66.738 58.551,66.199 55.750,65.915 53.950 C 65.737 52.823,64.076 52.249,63.136 52.989 M113.714 53.152 C 112.818 53.801,112.559 54.209,111.429 56.750 C 110.899 57.942,110.135 59.611,109.733 60.459 C 109.330 61.308,109.000 62.033,109.000 62.071 C 109.000 62.109,108.672 62.839,108.272 63.695 C 107.871 64.550,107.110 66.225,106.581 67.417 C 106.052 68.608,105.172 70.521,104.626 71.667 C 104.079 72.813,103.537 74.012,103.421 74.333 C 103.304 74.654,102.869 75.629,102.453 76.500 C 101.358 78.794,99.202 83.560,98.646 84.917 C 96.393 90.412,102.855 92.764,105.351 87.358 C 106.647 84.552,106.931 84.098,107.528 83.884 C 108.233 83.632,122.950 83.585,123.840 83.832 C 124.442 84.000,124.752 84.525,126.418 88.202 C 127.485 90.557,130.590 91.149,132.248 89.314 C 133.777 87.621,133.700 86.632,131.728 82.640 C 131.328 81.830,131.000 81.124,131.000 81.073 C 131.000 80.973,130.483 79.819,129.585 77.917 C 129.282 77.275,127.985 74.425,126.702 71.583 C 125.418 68.742,124.106 65.854,123.786 65.167 C 123.465 64.479,122.773 62.942,122.247 61.750 C 121.721 60.558,121.235 59.508,121.168 59.417 C 121.101 59.325,120.542 58.132,119.926 56.765 C 119.310 55.398,118.689 54.101,118.546 53.883 C 117.708 52.604,115.029 52.199,113.714 53.152 M136.061 53.208 C 135.501 53.582,135.121 54.008,134.833 54.583 L 134.417 55.417 134.370 65.333 C 134.305 79.069,134.643 80.865,138.054 84.917 C 141.781 89.342,145.128 90.902,150.917 90.911 L 154.417 90.916 156.000 90.379 C 159.570 89.167,162.523 86.865,164.936 83.412 C 165.868 82.078,166.872 79.493,167.148 77.717 C 167.509 75.386,167.390 55.391,167.009 54.553 C 166.173 52.710,163.628 52.040,161.905 53.208 C 160.344 54.267,160.430 53.592,160.319 65.667 C 160.252 72.976,160.162 76.470,160.026 76.961 C 158.083 84.017,149.593 86.409,144.481 81.341 C 141.720 78.604,141.673 78.348,141.670 66.050 C 141.667 55.925,141.619 55.139,140.944 54.138 C 139.883 52.564,137.658 52.141,136.061 53.208 M172.028 53.165 C 169.815 54.769,169.830 57.467,172.061 58.958 L 172.871 59.500 176.769 59.500 C 180.444 59.500,180.686 59.519,181.000 59.833 C 181.328 60.161,181.333 60.389,181.333 73.970 L 181.333 87.774 181.792 88.678 C 182.957 90.978,185.908 91.310,187.622 89.333 C 188.505 88.316,188.498 88.434,188.499 73.718 L 188.500 60.019 188.870 59.759 C 189.179 59.543,189.866 59.500,192.984 59.500 C 196.435 59.500,196.784 59.473,197.444 59.154 C 199.820 58.003,200.005 54.759,197.786 53.152 L 197.117 52.667 184.917 52.667 L 172.717 52.667 172.028 53.165 M242.250 53.070 C 241.443 53.554,240.926 54.224,240.683 55.097 C 240.374 56.210,240.433 87.214,240.746 88.268 C 241.436 90.592,244.496 91.390,246.338 89.726 C 247.565 88.618,247.558 88.651,247.659 83.167 C 247.767 77.335,247.570 77.833,249.771 77.833 C 251.885 77.833,251.913 77.847,253.130 79.462 C 259.424 87.817,260.471 89.163,261.064 89.665 C 263.408 91.646,266.833 90.123,266.833 87.100 C 266.833 85.846,266.704 85.578,265.030 83.360 C 264.223 82.291,262.939 80.592,262.177 79.583 C 260.215 76.988,260.149 76.696,261.380 76.059 C 268.208 72.530,269.708 62.526,264.280 56.719 C 260.855 53.055,259.495 52.666,250.102 52.668 L 242.917 52.670 242.250 53.070 M274.565 53.081 C 274.188 53.307,273.663 53.775,273.398 54.121 L 272.917 54.750 272.868 71.167 C 272.842 80.196,272.865 87.834,272.921 88.140 C 273.064 88.934,274.181 90.083,275.123 90.404 C 276.045 90.719,294.255 90.802,295.353 90.497 C 298.185 89.711,298.855 86.048,296.487 84.296 C 295.728 83.734,294.879 83.675,287.548 83.671 C 280.599 83.667,280.339 83.655,280.173 83.344 C 279.855 82.752,279.947 75.585,280.275 75.312 C 280.493 75.131,281.782 75.066,286.400 75.000 C 291.896 74.922,292.280 74.896,292.749 74.583 C 294.606 73.343,294.981 70.902,293.557 69.326 C 292.507 68.164,292.525 68.167,286.195 68.167 C 281.262 68.167,280.490 68.133,280.262 67.905 C 279.959 67.602,279.869 60.298,280.163 59.833 C 280.298 59.619,281.423 59.571,288.049 59.500 L 295.776 59.417 296.395 58.945 C 298.487 57.348,298.481 54.568,296.381 53.178 L 295.610 52.667 285.430 52.668 L 275.250 52.670 274.565 53.081 M303.583 52.943 C 302.247 53.646,301.572 54.873,301.699 56.371 C 301.758 57.065,302.477 58.809,305.124 64.667 C 306.967 68.746,309.762 74.933,311.335 78.417 C 312.908 81.900,314.403 85.200,314.657 85.750 C 314.912 86.300,315.360 87.275,315.654 87.917 C 316.644 90.081,318.247 91.017,320.107 90.516 C 321.587 90.117,322.205 89.393,323.400 86.658 C 323.738 85.884,324.118 85.025,324.246 84.750 C 325.427 82.200,326.731 79.347,327.217 78.250 C 328.476 75.408,329.345 73.472,330.655 70.583 C 331.404 68.933,332.084 67.433,332.166 67.250 C 332.720 66.016,333.456 64.402,333.954 63.333 C 334.275 62.646,334.832 61.408,335.193 60.583 C 335.554 59.758,335.929 58.940,336.027 58.765 C 337.742 55.670,336.370 52.667,333.240 52.667 C 331.160 52.667,330.601 53.226,328.916 57.000 C 324.853 66.096,319.757 77.290,319.605 77.453 C 319.052 78.046,318.486 77.107,316.224 71.838 C 315.812 70.878,315.173 69.453,314.805 68.671 C 314.436 67.890,313.649 66.162,313.057 64.833 C 312.464 63.504,311.841 62.117,311.672 61.750 C 311.503 61.383,311.141 60.596,310.866 60.000 C 310.591 59.404,309.872 57.836,309.268 56.515 C 308.085 53.928,307.909 53.664,306.962 53.062 C 306.201 52.579,304.396 52.515,303.583 52.943 M219.565 59.336 C 229.711 61.027,233.600 73.396,226.223 80.517 C 220.616 85.930,211.584 85.018,207.173 78.594 C 202.130 71.251,206.500 60.946,215.333 59.348 C 217.562 58.945,217.221 58.946,219.565 59.336 M355.544 59.500 C 357.116 60.088,358.231 61.679,358.232 63.333 C 358.235 66.992,353.707 68.964,351.124 66.429 C 347.785 63.153,351.162 57.860,355.544 59.500 M257.204 60.131 C 262.204 62.594,261.232 69.586,255.727 70.752 C 253.814 71.157,248.431 71.098,248.000 70.667 C 247.530 70.197,247.477 60.214,247.942 59.749 C 248.185 59.506,248.671 59.480,252.154 59.529 L 256.092 59.583 257.204 60.131 M116.337 66.283 C 116.610 66.713,116.833 67.121,116.833 67.189 C 116.833 67.257,117.321 68.332,117.917 69.577 C 118.513 70.822,119.000 71.881,119.000 71.931 C 119.000 71.981,119.383 72.823,119.851 73.802 C 120.907 76.014,121.034 76.611,120.479 76.747 C 119.508 76.984,110.791 76.758,110.623 76.491 C 110.460 76.233,110.764 75.409,112.001 72.750 C 115.871 64.435,115.509 64.976,116.337 66.283 M355.535 75.011 C 359.034 76.380,359.506 81.201,356.348 83.313 C 353.874 84.967,350.285 83.457,349.650 80.495 C 348.863 76.823,352.205 73.709,355.535 75.011 M50.709 93.785 C 50.518 93.949,50.249 94.458,50.110 94.917 C 49.971 95.375,49.655 96.275,49.409 96.917 C 48.814 98.467,48.717 99.132,49.067 99.267 C 49.571 99.460,50.087 98.901,50.564 97.643 C 50.821 96.969,51.178 96.028,51.360 95.553 C 51.933 94.051,51.563 93.047,50.709 93.785 " stroke="none" fill="#e0e0e0" fill-rule="evenodd"/>
  </g>
</svg>
