<svg id="svg" version="1.1" xmlns="http://www.w3.org/2000/svg" xmlns:xlink="http://www.w3.org/1999/xlink" width="400" height="137.2549019607843" viewBox="0, 0, 400,137.2549019607843">
  <g id="svgg">
    <path id="path0" d="M110.663 40.594 C 110.573 40.829,110.500 41.116,110.500 41.232 C 110.500 41.347,110.306 41.999,110.069 42.679 C 108.333 47.663,103.117 52.521,96.745 55.090 C 93.996 56.198,93.318 56.032,92.600 54.072 C 91.374 50.728,87.763 46.118,83.833 42.881 C 81.566 41.013,81.497 41.001,79.284 42.085 C 76.601 43.401,76.477 43.691,78.133 44.790 C 82.145 47.452,84.591 51.673,84.464 55.718 L 84.417 57.249 83.750 57.473 C 82.986 57.730,78.661 57.501,76.250 57.075 C 73.869 56.655,73.792 56.692,72.985 58.677 C 72.226 60.540,72.417 60.740,75.197 60.995 C 82.564 61.670,82.484 61.636,80.708 63.355 C 78.929 65.077,77.268 66.241,75.020 67.344 C 72.745 68.459,72.756 68.597,75.250 70.094 C 75.983 70.534,76.943 71.145,77.382 71.453 C 77.821 71.760,79.358 72.807,80.798 73.780 C 83.199 75.401,84.452 76.281,84.667 76.499 C 86.314 78.171,86.977 78.076,89.552 75.798 C 92.837 72.891,94.601 68.900,94.784 63.959 C 94.913 60.445,95.426 60.051,96.755 62.445 C 100.180 68.613,104.940 72.896,111.454 75.672 C 112.350 76.054,113.158 76.424,113.250 76.495 C 114.559 77.499,115.720 77.259,118.392 75.433 C 119.478 74.691,120.528 73.974,120.725 73.841 C 121.697 73.183,126.771 69.601,126.910 69.475 C 127.391 69.039,126.376 68.632,124.027 68.320 C 119.776 67.754,113.720 65.657,110.349 63.583 C 110.201 63.492,109.780 63.237,109.414 63.018 C 107.943 62.134,106.028 60.793,105.245 60.098 C 104.167 59.140,104.288 58.918,106.264 58.239 C 112.396 56.130,120.237 51.658,124.144 48.041 C 125.471 46.813,125.409 46.593,123.500 45.753 C 122.629 45.370,121.279 44.753,120.500 44.381 C 119.721 44.009,118.183 43.277,117.083 42.754 C 115.983 42.230,114.331 41.434,113.411 40.984 C 111.484 40.042,110.904 39.960,110.663 40.594 M235.241 41.458 C 232.661 42.778,229.989 47.128,228.367 52.649 C 228.151 53.386,227.810 53.430,226.649 52.872 C 222.715 50.979,221.230 50.298,219.833 49.744 C 218.963 49.398,218.167 49.052,218.065 48.974 C 217.964 48.895,217.476 48.691,216.982 48.518 C 214.174 47.539,213.570 47.135,210.750 44.345 C 209.283 42.894,207.907 41.652,207.691 41.587 C 207.238 41.448,205.695 42.188,204.592 43.074 C 203.605 43.865,203.607 43.865,202.526 43.564 C 200.661 43.045,198.301 45.513,200.042 46.161 C 200.340 46.272,200.921 46.503,201.333 46.674 C 208.296 49.559,208.333 49.583,208.333 51.079 C 208.333 56.389,203.456 63.628,196.833 68.148 C 195.174 69.281,194.975 69.789,195.951 70.410 C 198.459 72.006,204.091 75.660,205.535 76.629 C 206.967 77.589,207.204 77.509,208.791 75.528 C 212.618 70.751,214.852 67.224,215.987 64.167 C 217.239 60.796,217.249 60.749,217.271 58.112 C 217.299 54.763,217.213 54.800,219.966 56.948 C 223.092 59.388,227.023 63.194,228.500 65.214 C 228.821 65.653,229.296 66.290,229.557 66.631 C 231.349 68.976,233.996 73.818,234.610 75.875 C 235.032 77.290,235.616 77.394,237.167 76.329 C 237.396 76.172,239.496 74.782,241.833 73.240 C 246.376 70.244,247.000 69.769,247.000 69.312 C 247.000 68.851,244.573 65.956,242.183 63.566 C 239.626 61.008,239.634 61.034,240.525 58.443 C 241.705 55.014,243.066 52.847,245.948 49.808 C 247.453 48.221,247.261 47.777,244.496 46.444 C 243.238 45.838,242.839 45.593,238.917 43.013 C 236.265 41.268,235.907 41.117,235.241 41.458 M281.083 41.630 C 280.600 41.935,278.010 44.671,277.500 45.415 C 273.737 50.906,272.884 53.977,273.575 59.548 C 274.092 63.712,275.830 66.890,279.765 70.866 C 282.147 73.273,282.171 73.425,280.162 73.398 C 276.576 73.350,272.586 70.978,270.285 67.527 C 269.322 66.083,268.477 64.666,267.883 63.500 C 267.081 61.925,266.893 61.883,265.365 62.948 C 262.722 64.789,257.696 68.357,257.000 68.887 C 256.587 69.201,255.500 69.965,254.583 70.586 C 252.891 71.731,252.475 72.219,252.869 72.600 C 253.175 72.896,257.077 75.008,258.167 75.468 C 260.234 76.340,263.613 77.480,264.667 77.660 C 265.171 77.747,266.108 77.937,266.750 78.083 C 269.264 78.656,276.180 78.567,279.068 77.924 C 279.626 77.799,280.512 77.648,281.037 77.587 C 281.561 77.527,283.019 77.142,284.277 76.732 C 286.882 75.884,286.891 75.884,288.873 76.863 C 289.612 77.228,290.702 77.676,291.295 77.859 L 292.374 78.193 293.395 77.684 C 295.762 76.507,295.884 75.967,294.010 74.952 C 292.162 73.950,292.242 73.716,294.879 72.425 C 299.174 70.320,299.185 70.300,296.714 69.134 C 294.111 67.906,294.096 67.907,292.000 69.288 C 289.048 71.233,288.884 71.174,287.572 67.699 C 286.474 64.793,286.979 59.179,288.590 56.383 C 288.843 55.943,289.246 55.213,289.484 54.760 C 290.211 53.376,293.401 50.125,295.278 48.855 C 296.006 48.363,296.324 48.049,296.260 47.883 C 296.209 47.749,296.167 47.576,296.167 47.498 C 296.167 47.420,295.998 47.306,295.792 47.245 C 295.585 47.184,294.967 46.924,294.417 46.666 C 292.926 45.966,291.863 45.500,291.760 45.500 C 291.678 45.500,290.910 45.157,288.739 44.148 C 288.366 43.975,288.014 43.833,287.956 43.833 C 287.898 43.833,286.741 43.299,285.384 42.646 C 282.652 41.331,281.856 41.143,281.083 41.630 M174.167 43.151 C 171.425 44.049,169.789 44.482,168.140 44.747 C 167.346 44.875,166.409 45.056,166.057 45.151 C 165.254 45.367,160.334 45.808,157.250 45.941 C 154.527 46.059,153.691 45.902,153.176 45.179 C 152.745 44.574,149.909 43.167,149.120 43.167 C 148.678 43.167,148.331 43.363,147.493 44.089 C 146.192 45.216,146.031 45.260,144.391 44.941 C 143.672 44.801,142.746 44.637,142.333 44.578 C 141.589 44.471,140.258 44.126,138.155 43.495 C 136.277 42.932,135.654 43.082,133.417 44.634 C 132.728 45.112,132.412 45.932,132.864 46.068 C 132.985 46.104,133.533 46.247,134.083 46.384 C 135.226 46.671,139.631 47.981,141.000 48.442 C 142.237 48.858,142.258 49.149,141.172 50.794 C 140.346 52.045,139.828 53.039,138.618 55.691 L 138.037 56.966 135.394 58.293 C 132.768 59.611,132.063 60.018,130.714 60.994 C 129.839 61.626,129.908 61.857,131.141 62.425 C 131.659 62.664,132.337 62.983,132.647 63.134 C 133.533 63.567,134.300 63.478,135.638 62.788 C 137.595 61.778,137.773 61.853,137.996 63.787 C 138.328 66.661,139.960 69.825,142.195 71.930 C 144.119 73.741,146.976 75.292,149.861 76.091 C 153.273 77.035,155.446 77.513,156.980 77.655 C 157.953 77.745,160.053 77.938,161.645 78.084 C 163.799 78.281,166.018 78.337,170.312 78.300 C 177.095 78.241,176.180 78.501,179.570 75.667 C 180.861 74.588,182.406 73.436,183.005 73.107 C 184.064 72.526,185.167 71.611,185.167 71.314 C 185.167 71.173,185.864 70.453,186.978 69.444 C 188.340 68.211,187.161 67.857,183.800 68.490 C 182.240 68.784,180.439 68.992,175.076 69.494 C 169.468 70.020,160.607 69.113,156.250 67.567 C 152.916 66.384,150.067 64.466,148.180 62.134 C 146.290 59.799,147.960 59.719,155.000 61.808 C 155.596 61.985,157.086 62.587,158.311 63.146 C 160.924 64.339,160.606 64.363,163.441 62.764 C 169.203 59.514,170.500 58.695,170.500 58.302 C 170.500 57.929,167.476 56.876,164.167 56.097 C 158.996 54.879,158.141 54.788,151.764 54.768 C 145.288 54.747,145.760 54.901,146.438 53.037 C 147.495 50.131,147.642 50.013,149.726 50.404 C 163.885 53.063,172.201 53.027,184.216 50.257 C 187.917 49.403,187.966 49.082,184.667 47.294 C 182.620 46.184,179.550 44.380,178.517 43.678 C 176.535 42.332,176.634 42.344,174.167 43.151 M307.180 43.437 C 304.711 43.772,304.499 44.061,305.712 45.440 C 311.455 51.969,311.445 59.525,305.683 68.524 C 303.815 71.440,303.445 70.888,309.250 73.838 C 311.633 75.049,314.421 76.481,315.446 77.020 C 317.801 78.260,318.857 78.241,319.264 76.954 C 319.329 76.750,319.671 76.124,320.025 75.563 C 321.191 73.717,322.877 69.859,323.153 68.409 C 323.239 67.955,323.398 67.358,323.507 67.083 C 323.951 65.961,323.911 62.887,323.422 60.493 C 322.245 54.739,319.341 50.359,312.859 44.560 L 311.302 43.167 310.109 43.184 C 309.453 43.193,308.135 43.307,307.180 43.437 M116.175 85.862 C 115.366 86.279,114.395 87.098,112.258 89.167 C 110.695 90.679,108.310 92.958,106.958 94.230 C 103.719 97.279,103.723 97.333,107.169 97.333 C 109.640 97.333,109.980 97.238,111.000 96.265 C 112.309 95.015,112.352 95.000,114.589 95.000 C 116.990 95.000,117.254 95.117,117.227 96.161 C 117.200 97.191,117.601 97.393,119.487 97.303 C 121.674 97.198,121.537 97.520,121.461 92.678 C 121.388 88.025,121.206 87.129,120.116 86.038 C 119.226 85.149,117.690 85.080,116.175 85.862 M122.612 85.535 C 122.053 85.956,122.261 94.289,122.860 95.424 C 123.785 97.176,127.082 97.825,132.680 97.355 C 137.457 96.955,138.155 96.234,138.163 91.697 C 138.168 88.430,137.920 88.667,141.343 88.667 L 144.175 88.667 144.337 89.094 C 144.427 89.329,144.500 91.199,144.500 93.249 L 144.500 96.976 144.939 97.321 C 145.684 97.907,147.930 97.762,148.372 97.100 C 148.440 96.999,148.496 95.145,148.497 92.979 C 148.499 90.033,148.552 88.998,148.708 88.870 C 148.823 88.776,150.151 88.668,151.667 88.630 C 153.179 88.591,154.529 88.528,154.667 88.488 C 154.880 88.427,154.932 88.861,155.022 91.417 C 155.182 95.975,155.638 96.791,158.333 97.344 C 160.433 97.775,168.776 97.464,169.837 96.915 C 171.672 95.966,171.920 95.365,171.901 91.917 C 171.869 86.122,171.225 85.633,163.643 85.647 C 157.687 85.657,156.529 85.938,155.144 87.709 C 154.842 88.096,154.904 88.228,154.569 86.494 C 154.369 85.463,154.673 85.491,144.033 85.510 C 135.430 85.524,134.328 85.556,134.135 85.789 C 133.973 85.984,133.912 86.898,133.898 89.318 C 133.871 94.172,133.848 94.203,130.338 94.210 C 126.548 94.217,126.488 94.145,126.418 89.543 C 126.359 85.678,126.309 85.501,125.286 85.499 C 124.899 85.498,124.208 85.454,123.750 85.401 C 123.174 85.335,122.823 85.376,122.612 85.535 M189.751 85.936 C 187.750 86.420,186.901 87.518,186.931 89.583 C 186.976 92.639,187.967 93.167,193.662 93.167 C 197.643 93.167,198.333 93.264,198.333 93.823 C 198.333 94.507,197.853 94.568,192.444 94.576 L 187.304 94.583 186.985 94.977 C 186.500 95.575,186.553 96.735,187.089 97.271 L 187.511 97.693 193.214 97.618 C 202.136 97.499,203.295 97.046,203.144 93.730 C 203.015 90.878,201.946 90.318,196.417 90.204 C 192.542 90.124,191.833 90.032,191.833 89.608 C 191.833 88.947,194.167 88.762,203.500 88.682 C 205.797 88.662,209.197 88.945,209.337 89.167 C 209.536 89.481,209.527 89.256,209.501 93.525 C 209.474 97.864,209.370 97.667,211.694 97.667 C 213.743 97.667,213.666 97.839,213.669 93.255 C 213.672 88.551,213.507 88.779,216.859 88.863 C 218.968 88.915,219.037 88.906,219.347 88.523 C 220.121 87.570,219.498 85.833,218.383 85.834 C 218.126 85.834,214.892 85.792,211.195 85.740 C 205.215 85.656,204.429 85.675,204.068 85.912 C 203.699 86.153,203.591 86.154,202.908 85.922 C 201.845 85.561,191.255 85.572,189.751 85.936 M236.375 86.084 C 236.053 86.315,236.000 86.503,236.000 87.426 C 236.000 89.074,236.150 89.167,238.796 89.167 C 240.502 89.167,241.004 89.221,241.317 89.440 L 241.708 89.714 241.591 93.482 C 241.447 98.133,241.333 97.872,243.563 97.970 C 244.852 98.026,245.246 97.986,245.582 97.766 L 246.000 97.492 246.000 93.502 C 246.000 88.717,245.687 89.151,249.112 89.182 C 251.437 89.203,251.582 89.185,251.857 88.845 L 252.148 88.486 252.366 88.868 C 252.532 89.160,252.573 90.212,252.540 93.333 C 252.488 98.238,252.345 97.900,254.505 97.974 C 256.879 98.056,256.906 98.027,256.772 95.500 C 256.622 92.644,257.038 91.514,257.416 93.753 C 258.070 97.631,258.629 97.917,265.583 97.917 C 271.607 97.917,272.501 97.668,273.083 95.834 C 273.141 95.650,273.295 95.500,273.425 95.500 C 273.664 95.500,273.742 95.730,273.900 96.902 C 274.027 97.842,274.166 97.911,276.050 97.970 C 278.533 98.047,278.400 98.258,278.353 94.310 C 278.316 91.253,278.434 90.167,278.804 90.167 C 278.883 90.167,279.893 91.429,281.047 92.971 C 284.166 97.139,285.162 97.891,287.583 97.908 C 290.704 97.929,291.327 96.913,291.541 91.454 C 291.743 86.297,291.760 86.333,289.110 86.333 C 286.908 86.333,286.936 86.289,286.833 89.943 L 286.750 92.917 286.340 92.917 C 286.071 92.917,285.812 92.744,285.589 92.417 C 284.605 90.975,282.664 88.498,282.037 87.885 C 279.248 85.157,275.513 86.171,274.412 89.956 C 274.026 91.285,273.805 91.127,273.254 89.126 C 272.570 86.638,271.502 86.250,265.333 86.250 C 259.586 86.250,258.613 86.571,257.907 88.695 C 257.361 90.339,256.833 90.125,256.833 88.259 C 256.833 86.266,256.731 86.167,254.680 86.167 C 253.286 86.167,252.981 86.217,252.613 86.507 L 252.180 86.847 251.840 86.507 C 251.569 86.236,251.271 86.163,250.375 86.150 C 245.519 86.076,242.480 86.010,239.833 85.920 C 237.154 85.829,236.701 85.851,236.375 86.084 M230.792 86.181 C 229.609 86.460,228.053 87.665,224.668 90.922 C 222.130 93.364,219.929 95.462,219.229 96.105 C 217.679 97.530,217.968 97.834,220.870 97.831 L 223.250 97.829 224.417 96.833 C 225.806 95.647,226.017 95.595,228.686 95.777 L 230.743 95.917 230.888 96.417 C 231.273 97.747,231.271 97.745,233.030 97.797 C 235.352 97.866,235.209 98.185,235.132 93.099 C 235.036 86.793,234.155 85.388,230.792 86.181 M166.833 89.015 C 167.718 89.542,167.833 89.780,167.833 91.075 C 167.833 94.019,166.868 94.669,162.813 94.454 C 159.620 94.284,159.272 94.055,159.190 92.070 C 159.063 88.976,159.447 88.666,163.414 88.667 C 165.989 88.668,166.304 88.700,166.833 89.015 M268.332 89.562 C 269.193 89.958,269.612 92.727,269.022 94.124 C 268.453 95.471,262.758 95.470,262.061 94.123 C 261.678 93.383,261.793 90.136,262.216 89.712 C 262.711 89.216,267.331 89.103,268.332 89.562 M117.589 90.057 C 117.838 91.382,117.285 92.191,116.299 91.944 C 115.588 91.766,115.607 91.385,116.373 90.404 C 117.191 89.357,117.444 89.284,117.589 90.057 M231.265 90.419 C 231.606 91.776,231.005 92.729,229.869 92.635 C 228.981 92.561,228.999 92.173,229.946 91.008 C 230.834 89.916,231.108 89.793,231.265 90.419 " stroke="none" fill="#eaeaea" fill-rule="evenodd"/>
  </g>
</svg>
